<svg width="13" height="15" viewBox="0 0 13 15" fill="none" xmlns="http://www.w3.org/2000/svg">
<path d="M6.1627 7.22557C7.15536 7.22557 8.01482 6.86954 8.71725 6.16711C9.41946 5.46478 9.7756 4.60545 9.7756 3.61267C9.7756 2.62024 9.41958 1.76079 8.71714 1.05824C8.0147 0.356026 7.15525 0 6.1627 0C5.16993 0 4.31059 0.356026 3.60827 1.05835C2.90594 1.76067 2.5498 2.62012 2.5498 3.61267C2.5498 4.60545 2.90594 5.4649 3.60827 6.16722C4.31082 6.86943 5.17027 7.22557 6.1627 7.22557ZM4.22991 1.67988C4.76881 1.14098 5.40099 0.879021 6.1627 0.879021C6.92431 0.879021 7.55659 1.14098 8.09561 1.67988C8.63451 2.21889 8.89658 2.85118 8.89658 3.61267C8.89658 4.37439 8.63451 5.00656 8.09561 5.54558C7.55659 6.08459 6.92431 6.34655 6.1627 6.34655C5.40121 6.34655 4.76904 6.08448 4.22991 5.54558C3.6909 5.00668 3.42883 4.37439 3.42883 3.61267C3.42883 2.85118 3.6909 2.21889 4.22991 1.67988Z" fill="#D7D7D7"/>
<path d="M12.4842 11.5343C12.464 11.242 12.423 10.9232 12.3627 10.5865C12.3018 10.2473 12.2234 9.92661 12.1296 9.63353C12.0325 9.3306 11.9008 9.03146 11.7377 8.74478C11.5687 8.44724 11.37 8.18814 11.1471 7.97494C10.914 7.75189 10.6286 7.57256 10.2985 7.44176C9.96963 7.31164 9.60514 7.24572 9.21524 7.24572C9.06212 7.24572 8.91403 7.30855 8.62804 7.49474C8.45203 7.60953 8.24615 7.74228 8.01636 7.88911C7.81986 8.01431 7.55367 8.13161 7.22488 8.23781C6.90411 8.34161 6.57841 8.39425 6.25683 8.39425C5.93548 8.39425 5.60978 8.34161 5.28877 8.23781C4.96033 8.13172 4.69402 8.01442 4.49787 7.88922C4.27025 7.74377 4.06425 7.61102 3.88561 7.49463C3.59985 7.30843 3.45177 7.24561 3.29865 7.24561C2.90863 7.24561 2.54425 7.31164 2.21546 7.44187C1.88564 7.57245 1.60011 7.75178 1.36677 7.97505C1.14384 8.18837 0.945168 8.44735 0.776253 8.74478C0.613403 9.03146 0.481567 9.33049 0.384521 9.63364C0.290794 9.92673 0.212402 10.2473 0.15152 10.5865C0.091095 10.9227 0.0502396 11.2417 0.0299835 11.5346C0.0100708 11.8211 0 12.1192 0 12.4204C0 13.2034 0.248909 13.8373 0.739746 14.3048C1.22452 14.7661 1.86584 15 2.64599 15H9.86858C10.6485 15 11.2898 14.7661 11.7747 14.3048C12.2657 13.8376 12.5146 13.2035 12.5146 12.4203C12.5145 12.118 12.5043 11.8199 12.4842 11.5343ZM11.1686 13.6679C10.8483 13.9728 10.423 14.121 9.86847 14.121H2.64599C2.09129 14.121 1.66603 13.9728 1.34583 13.668C1.03168 13.369 0.879021 12.9608 0.879021 12.4204C0.879021 12.1393 0.88829 11.8618 0.90683 11.5954C0.924911 11.334 0.961876 11.0469 1.01669 10.7418C1.07082 10.4405 1.13972 10.1577 1.22166 9.90166C1.30028 9.65619 1.40751 9.41312 1.54049 9.17897C1.6674 8.95581 1.81343 8.76435 1.97456 8.61008C2.12528 8.46577 2.31525 8.34767 2.5391 8.25909C2.74612 8.17715 2.97878 8.13229 3.23135 8.12554C3.26214 8.14191 3.31696 8.17315 3.40576 8.23106C3.58646 8.34882 3.79475 8.48317 4.025 8.63023C4.28455 8.79571 4.61895 8.94517 5.01846 9.07414C5.4269 9.20621 5.84347 9.27327 6.25694 9.27327C6.67042 9.27327 7.0871 9.20621 7.49531 9.07426C7.89516 8.94505 8.22945 8.79571 8.48934 8.63C8.72498 8.47939 8.92742 8.34893 9.10812 8.23106C9.19693 8.17326 9.25175 8.14191 9.28253 8.12554C9.53522 8.13229 9.76788 8.17715 9.97501 8.25909C10.1987 8.34767 10.3887 8.46589 10.5394 8.61008C10.7006 8.76424 10.8466 8.9557 10.9735 9.17908C11.1066 9.41312 11.214 9.6563 11.2925 9.90155C11.3745 10.1579 11.4435 10.4406 11.4975 10.7417C11.5522 11.0473 11.5893 11.3346 11.6074 11.5955C11.6261 11.8609 11.6354 12.1385 11.6356 12.4204C11.6354 12.9609 11.4828 13.369 11.1686 13.6679Z" fill="#D7D7D7"/>
</svg>
