<svg width="32" height="34" viewBox="0 0 32 34" fill="none" xmlns="http://www.w3.org/2000/svg">
<path d="M9.69533 21.8751V24.9688C9.69533 29.9122 13.7167 34 18.6602 34C23.6037 34 27.625 29.9122 27.625 24.9688V23.8719C29.8955 23.4091 31.6094 21.3972 31.6094 18.9922C31.6094 16.2461 29.375 14.0117 26.6289 14.0117C23.8828 14.0117 21.6485 16.2461 21.6485 18.9922C21.6485 21.3972 23.3623 23.4091 25.6328 23.8719V24.9688C25.6328 28.8131 22.5045 32.0078 18.6602 32.0078C14.8158 32.0078 11.6875 28.8131 11.6875 24.9688V21.8764C15.7528 21.1307 20.4443 16.0829 21.2565 11.2812C21.789 8.12733 20.4731 5.60256 17.6641 4.33971V2.98828C17.6641 1.34048 16.3236 0 14.6758 0C13.028 0 11.6875 1.34048 11.6875 2.98828C11.6875 4.63609 13.028 5.97656 14.6758 5.97656H16.4443C18.7363 6.82517 19.6996 8.53792 19.2915 10.9495C18.5921 15.0886 13.9307 19.9883 10.6914 19.9883C7.06345 19.9883 2.02096 14.227 1.99041 9.96094C1.9768 8.05939 2.97309 6.69594 4.91182 5.97656H6.70705C8.35485 5.97656 9.69533 4.63609 9.69533 2.98828C9.69533 1.34048 8.35492 0 6.70705 0C5.05918 0 3.71877 1.34048 3.71877 2.98828V4.32862C1.32263 5.40162 -0.00516459 7.41227 1.50974e-05 9.96094C0.0101753 14.9556 5.18508 21.0396 9.69533 21.8751ZM25.6328 17.9961H27.625V19.9883H25.6328V17.9961Z" fill="#DD2626"/>
</svg>
