<svg width="41" height="34" viewBox="0 0 41 34" fill="none" xmlns="http://www.w3.org/2000/svg">
<path d="M25.4996 7.64999C24.5612 7.64999 23.7996 6.88839 23.7996 5.94999V3.4H16.9996V5.94999C16.9996 6.88839 16.238 7.64999 15.2996 7.64999C14.3612 7.64999 13.5996 6.88839 13.5996 5.94999V3.4C13.5996 1.5249 15.1245 0 16.9996 0H23.7996C25.6747 0 27.1996 1.5249 27.1996 3.4V5.94999C27.1996 6.88839 26.438 7.64999 25.4996 7.64999Z" fill="#DD2626"/>
<path d="M21.607 22.746C21.301 22.865 20.859 22.95 20.4 22.95C19.941 22.95 19.499 22.865 19.091 22.712L0 16.354V29.325C0 31.909 2.091 34 4.675 34H36.125C38.709 34 40.8 31.909 40.8 29.325V16.354L21.607 22.746Z" fill="#DD2626"/>
<path d="M40.8 9.775V13.668L20.808 20.332C20.672 20.383 20.536 20.4 20.4 20.4C20.264 20.4 20.128 20.383 19.992 20.332L0 13.668V9.775C0 7.191 2.091 5.10001 4.675 5.10001H36.125C38.709 5.10001 40.8 7.191 40.8 9.775Z" fill="#DD2626"/>
</svg>
