<svg width="26" height="25" viewBox="0 0 26 25" fill="none" xmlns="http://www.w3.org/2000/svg">
<path d="M8.19347 19.6365C6.71235 19.6365 5.51172 20.8372 5.51172 22.3182C5.51172 23.7994 6.71241 25 8.19347 25C9.6746 25 10.8752 23.7993 10.8752 22.3182C10.8753 20.8372 9.6746 19.6365 8.19347 19.6365ZM8.19347 23.8081C7.37064 23.8081 6.70362 23.1411 6.70362 22.3183C6.70362 21.4955 7.37064 20.8284 8.19347 20.8284C9.01631 20.8284 9.68332 21.4955 9.68332 22.3183C9.68338 23.1411 9.01631 23.8081 8.19347 23.8081Z" fill="black"/>
<path d="M19.5177 19.6365C18.0366 19.6365 16.8359 20.8372 16.8359 22.3182C16.8359 23.7994 18.0366 25 19.5177 25C20.9988 25 22.1994 23.7993 22.1994 22.3182C22.1994 20.8372 20.9988 19.6365 19.5177 19.6365ZM19.5177 23.8081C18.6949 23.8081 18.0278 23.1411 18.0278 22.3183C18.0278 21.4955 18.6949 20.8284 19.5177 20.8284C20.3405 20.8284 21.0075 21.4955 21.0075 22.3183C21.0076 23.1411 20.3405 23.8081 19.5177 23.8081Z" fill="black"/>
<path d="M25.5663 3.99292C25.4422 3.85735 25.2724 3.77248 25.0895 3.75451L5.69134 3.48634L5.15499 1.84746C4.77714 0.751884 3.75121 0.0122624 2.59238 0H0.595952C0.266807 0 0 0.266807 0 0.595952C0 0.925097 0.266807 1.1919 0.595952 1.1919H2.59238C3.24035 1.20622 3.81092 1.62229 4.02269 2.23483L7.80698 13.6473L7.50903 14.3326C7.17669 15.1896 7.2765 16.1542 7.7772 16.925C8.27312 17.6821 9.10742 18.1493 10.012 18.1765H21.6033C21.9324 18.1765 22.1992 17.9097 22.1992 17.5806C22.1992 17.2514 21.9324 16.9846 21.6033 16.9846H10.012C9.50112 16.9718 9.03088 16.7031 8.76048 16.2694C8.4931 15.8411 8.43817 15.3134 8.6115 14.8391L8.84991 14.3028L21.3947 12.9917C22.7726 12.8399 23.9061 11.8377 24.2255 10.4887L25.6558 4.49938C25.7202 4.32691 25.686 4.13294 25.5663 3.99292ZM23.0633 10.2206C22.8699 11.089 22.1326 11.7295 21.2457 11.7998L8.84991 13.0811L6.07872 4.67824L24.3446 4.94642L23.0633 10.2206Z" fill="black"/>
</svg>
