<svg width="18" height="18" viewBox="0 0 18 18" fill="none" xmlns="http://www.w3.org/2000/svg">
<path d="M15.4107 15.3147C15.4213 15.304 15.4306 15.2926 15.4393 15.2808C17.0227 13.6578 18 11.4411 18 9C18 6.86858 17.2548 4.90823 16.0118 3.36473C15.9993 3.34389 15.9844 3.32409 15.9665 3.30616C15.9642 3.30395 15.9619 3.30205 15.9596 3.29994C15.5821 2.83992 15.1601 2.41787 14.7001 2.04043C14.6979 2.03818 14.6961 2.03576 14.6939 2.03354C14.6759 2.01554 14.6561 2.00067 14.6353 1.98819C13.0917 0.745242 11.1314 0 9 0C4.03741 0 0 4.03741 0 9C0 11.1315 0.745277 13.0918 1.98826 14.6353C2.00071 14.6561 2.01558 14.6759 2.03354 14.6939C2.03579 14.6961 2.03825 14.6981 2.04057 14.7002C2.41794 15.1601 2.83989 15.5821 3.2998 15.9595C3.30198 15.9618 3.30391 15.9642 3.30616 15.9665C3.32241 15.9827 3.34016 15.9965 3.35883 16.0083C3.55324 16.165 3.7536 16.3132 3.95951 16.4525C3.99252 16.4749 4.02595 16.4967 4.05925 16.5187C4.07841 16.5312 4.09746 16.5441 4.11673 16.5565C5.36629 17.3668 6.8284 17.8755 8.39946 17.9795C8.41725 17.9807 8.43507 17.9818 8.45286 17.9829C8.49762 17.9856 8.54241 17.9882 8.58734 17.9902C8.6226 17.9918 8.65793 17.993 8.69326 17.9942C8.72525 17.9953 8.75718 17.9966 8.78924 17.9974C8.85945 17.999 8.92969 18 9 18C9.07724 18 9.1543 17.999 9.23122 17.997C9.23611 17.9969 9.24093 17.9966 9.24581 17.9965C11.5818 17.9344 13.7629 16.9877 15.4107 15.3147ZM9.64371 17.3756C9.58152 17.3803 9.51912 17.3841 9.45657 17.3874C9.44652 17.388 9.43654 17.3887 9.42648 17.3892C9.36935 17.3921 9.31198 17.3941 9.25457 17.3958C9.2404 17.3962 9.22627 17.3969 9.21206 17.3973C9.14157 17.399 9.07091 17.4 9.00004 17.4C8.93429 17.4 8.8688 17.399 8.80341 17.3975C8.77331 17.3968 8.74325 17.3956 8.71319 17.3946C8.6805 17.3935 8.6478 17.3923 8.61518 17.3908C8.57296 17.3889 8.53077 17.3866 8.48862 17.384C8.47252 17.383 8.45641 17.382 8.44035 17.3809C6.95728 17.2808 5.51936 16.785 4.2891 15.9512C4.18162 15.8781 4.07584 15.8027 3.97199 15.7249L12.3 7.39684V7.80001C12.3 8.00251 12.1962 8.1906 12.0222 8.3031C11.9565 8.34539 11.9103 8.4117 11.8929 8.48791C11.6139 9.70291 10.8771 10.599 10.8696 10.6077C10.825 10.6617 10.8 10.7301 10.8 10.8V11.8965C10.8 12.4065 11.0781 12.8751 11.526 13.1193L14.2026 14.5794C14.4271 14.7017 14.6298 14.8699 14.7989 15.0717C13.4371 16.3729 11.6398 17.2219 9.65074 17.375C9.64839 17.3752 9.64603 17.3754 9.64371 17.3756ZM15.2193 14.6404C15.0102 14.4017 14.7626 14.2014 14.4897 14.0526L11.8131 12.5928C11.5581 12.4536 11.4 12.1869 11.4 11.8965V10.9041C11.6008 10.641 12.1762 9.82083 12.4509 8.73274C12.7341 8.50535 12.9 8.16483 12.9 7.80005V6.79686L15.7249 3.97199C16.7764 5.37479 17.4 7.11598 17.4 9.00004C17.4 11.1689 16.5736 13.1484 15.2193 14.6404ZM9 0.600012C10.8841 0.600012 12.6252 1.22361 14.028 2.27514L12.5932 3.71C12.5504 3.31214 12.4063 2.75368 11.9726 2.25904C11.3565 1.55612 10.3562 1.20002 8.99993 1.20002C7.64392 1.20002 6.64372 1.55612 6.02754 2.25904C5.31714 3.06935 5.38313 4.05183 5.39993 4.21685V5.81256C5.20794 6.03095 5.09994 6.31086 5.09994 6.60006V7.80005C5.09994 8.16514 5.26584 8.50535 5.54903 8.73274C5.69454 9.30755 5.9258 9.80684 6.12925 10.1739L2.27514 14.028C1.22358 12.6252 0.600012 10.8841 0.600012 9C0.600012 4.3683 4.3683 0.600012 9 0.600012ZM6.57239 9.73079C6.39914 9.39565 6.21752 8.96773 6.10731 8.48795C6.08962 8.41177 6.04339 8.34546 5.97772 8.30313C5.80373 8.19063 5.69992 8.00255 5.69992 7.80005V6.60006C5.69992 6.43177 5.7716 6.27455 5.90091 6.15786C5.96391 6.10087 5.99991 6.01988 5.99991 5.93497V4.20008C5.99991 4.1869 5.99899 4.17368 5.99752 4.16078C5.99632 4.15237 5.89461 3.32139 6.47873 2.65479C6.97584 2.08747 7.82423 1.80011 8.99993 1.80011C10.1717 1.80011 11.018 2.08571 11.5157 2.6485C12.0998 3.30908 12.0035 4.15361 12.0027 4.16081C12.0009 4.17371 12 4.1869 12 4.20012V4.30334L6.57239 9.73079ZM2.65398 14.4976L12.5112 4.64034C12.5118 4.63978 12.5124 4.63922 12.513 4.63862L14.4976 2.65395C14.8001 2.91632 15.0837 3.19992 15.3461 3.50237L12.3894 6.45901C12.3884 6.46 12.3874 6.46102 12.3864 6.46204L3.50241 15.346C3.19992 15.0836 2.91635 14.8001 2.65398 14.4976Z" fill="#9996A3"/>
</svg>
