<svg width="16" height="18" viewBox="0 0 16 18" fill="none" xmlns="http://www.w3.org/2000/svg">
<path d="M15.5762 17.4084L14.2081 4.38039C14.1794 4.10765 13.9495 3.90056 13.6753 3.90056H11.1039V3.3143C11.1039 1.48686 9.61704 0 7.78961 0C5.96203 0 4.47517 1.48686 4.47517 3.3143V3.90056H1.90382C1.62957 3.90056 1.39968 4.10765 1.37098 4.38039L0.00290862 17.4084C-0.0128842 17.5593 0.0361423 17.71 0.137628 17.8228C0.239252 17.9356 0.383997 18 0.535746 18H15.0432C15.1951 18 15.3398 17.9356 15.4413 17.8228C15.5431 17.71 15.592 17.5593 15.5762 17.4084ZM5.54661 3.3143C5.54661 2.07765 6.55282 1.07144 7.78961 1.07144C9.02625 1.07144 10.0325 2.07765 10.0325 3.3143V3.90056H5.54661V3.3143ZM1.13066 16.9286L2.38626 4.972H4.47517V6.15262C4.47517 6.44843 4.71508 6.68834 5.01089 6.68834C5.3067 6.68834 5.54661 6.44843 5.54661 6.15262V4.972H10.0325V6.15262C10.0325 6.44843 10.2724 6.68834 10.5682 6.68834C10.864 6.68834 11.1039 6.44843 11.1039 6.15262V4.972H13.1928L14.4484 16.9286H1.13066Z" fill="#9996A3"/>
</svg>
