<svg width="21" height="21" viewBox="0 0 21 21" fill="none" xmlns="http://www.w3.org/2000/svg">
<path d="M17.8252 20.1321H2.30685C1.03431 20.1321 0 19.0978 0 17.8253V3.98449C0 2.71195 1.03431 1.6778 2.30685 1.6778H17.8252C19.0977 1.6778 20.132 2.71195 20.132 3.98449V17.8253C20.132 19.0978 19.0977 20.1321 17.8252 20.1321ZM2.30685 2.93605C1.72887 2.93605 1.25825 3.40651 1.25825 3.98449V17.8253C1.25825 18.4032 1.72887 18.8739 2.30685 18.8739H17.8252C18.4032 18.8739 18.8738 18.4032 18.8738 17.8253V3.98449C18.8738 3.40651 18.4032 2.93605 17.8252 2.93605H2.30685Z" fill="white"/>
<path d="M19.5029 7.96904H0.629126C0.281847 7.96904 0 7.68719 0 7.33991C0 6.99263 0.281847 6.71078 0.629126 6.71078H19.5029C19.8502 6.71078 20.132 6.99263 20.132 7.33991C20.132 7.68719 19.8502 7.96904 19.5029 7.96904Z" fill="white"/>
<path d="M4.82346 5.03301C4.47618 5.03301 4.19434 4.75116 4.19434 4.40388V0.629126C4.19434 0.281847 4.47618 0 4.82346 0C5.17074 0 5.45259 0.281847 5.45259 0.629126V4.40388C5.45259 4.75116 5.17074 5.03301 4.82346 5.03301Z" fill="white"/>
<path d="M15.3098 5.03301C14.9625 5.03301 14.6807 4.75116 14.6807 4.40388V0.629126C14.6807 0.281847 14.9625 0 15.3098 0C15.6571 0 15.9389 0.281847 15.9389 0.629126V4.40388C15.9389 4.75116 15.6571 5.03301 15.3098 5.03301Z" fill="white"/>
</svg>
