<svg width="36" height="34" viewBox="0 0 36 34" fill="none" xmlns="http://www.w3.org/2000/svg">
<path d="M27.5046 7.37119C27.7302 7.37119 27.9466 7.28157 28.1061 7.12204C28.2656 6.96252 28.3552 6.74615 28.3552 6.52055C28.3552 6.29494 28.2656 6.07858 28.1061 5.91905C27.9466 5.75952 27.7302 5.6699 27.5046 5.6699C27.1986 5.67009 26.8967 5.59954 26.6226 5.46376C26.3484 5.32798 26.1093 5.13065 25.924 4.88718C25.7387 4.64372 25.6121 4.3607 25.5543 4.06025C25.4965 3.7598 25.5089 3.45005 25.5906 3.15518C25.6723 2.86032 25.821 2.58833 26.0252 2.36047C26.2294 2.1326 26.4835 1.95503 26.7677 1.84162C27.0518 1.7282 27.3584 1.68202 27.6633 1.70668C27.9683 1.73135 28.2635 1.82618 28.5257 1.98378H30.7728C30.4709 1.40389 30.0202 0.914741 29.4669 0.566516C28.9136 0.218291 28.2776 0.0235188 27.6242 0.00217804C26.9707 -0.0191627 26.3234 0.133696 25.7485 0.445075C25.1737 0.756455 24.692 1.21515 24.3529 1.7741C24.0138 2.33306 23.8295 2.97215 23.8188 3.62584C23.8082 4.27953 23.9717 4.92428 24.2925 5.49395C24.6132 6.06362 25.0798 6.53772 25.6442 6.86761C26.2086 7.19749 26.8507 7.3713 27.5044 7.37119H27.5046Z" fill="#DD2626"/>
<path d="M18.9229 7.37119C19.1485 7.37119 19.3649 7.28157 19.5244 7.12204C19.6839 6.96252 19.7736 6.74615 19.7736 6.52055C19.7736 6.29494 19.6839 6.07858 19.5244 5.91905C19.3649 5.75952 19.1485 5.6699 18.9229 5.6699C18.6169 5.67014 18.315 5.59964 18.0408 5.4639C17.7666 5.32816 17.5275 5.13085 17.3421 4.8874C17.1568 4.64394 17.0302 4.36093 16.9723 4.06047C16.9145 3.76001 16.9268 3.45024 17.0085 3.15535C17.0902 2.86047 17.2389 2.58846 17.4431 2.36057C17.6473 2.13268 17.9014 1.95508 18.1855 1.84165C18.4697 1.72822 18.7763 1.68203 19.0813 1.70668C19.3863 1.73134 19.6814 1.82617 19.9437 1.98378H22.1908C21.8889 1.40389 21.4382 0.914741 20.8849 0.566516C20.3315 0.218291 19.6955 0.0235188 19.0421 0.00217804C18.3887 -0.0191627 17.7414 0.133696 17.1665 0.445075C16.5916 0.756455 16.1099 1.21515 15.7708 1.7741C15.4317 2.33306 15.2474 2.97215 15.2368 3.62584C15.2262 4.27953 15.3897 4.92428 15.7104 5.49395C16.0312 6.06362 16.4977 6.53772 17.0622 6.86761C17.6266 7.19749 18.2686 7.3713 18.9224 7.37119H18.9229Z" fill="#DD2626"/>
<path d="M32.8674 3.88539C32.8977 3.76026 32.8993 3.62988 32.8719 3.50407C32.8445 3.37826 32.7889 3.26031 32.7093 3.15911C32.6297 3.05791 32.5282 2.97609 32.4124 2.91984C32.2966 2.86358 32.1695 2.83435 32.0407 2.83435H26.7562C26.5828 2.98623 26.4598 3.18742 26.4038 3.41104C26.3477 3.63466 26.3612 3.87006 26.4425 4.0858C26.5238 4.30153 26.6689 4.48734 26.8586 4.61838C27.0483 4.74943 27.2734 4.81949 27.504 4.81919C27.7274 4.81919 27.9486 4.86319 28.155 4.94869C28.3614 5.03419 28.549 5.1595 28.7069 5.31748C28.8649 5.47546 28.9902 5.66301 29.0757 5.86942C29.1612 6.07583 29.2052 6.29706 29.2052 6.52048C29.2052 6.74389 29.1612 6.96512 29.0757 7.17153C28.9902 7.37794 28.8649 7.56549 28.7069 7.72347C28.549 7.88145 28.3614 8.00677 28.155 8.09226C27.9486 8.17776 27.7274 8.22177 27.504 8.22177C26.836 8.22222 26.1761 8.07505 25.5716 7.7908C24.9672 7.50655 24.4329 7.09224 24.0072 6.57749C23.5815 6.06275 23.2748 5.46029 23.109 4.8132C22.9432 4.16611 22.9225 3.49039 23.0483 2.83435H18.1751C18.0017 2.98621 17.8787 3.1874 17.8226 3.41102C17.7665 3.63464 17.78 3.87006 17.8613 4.08581C17.9425 4.30156 18.0877 4.48737 18.2774 4.61842C18.4671 4.74947 18.6922 4.81951 18.9228 4.81919C19.1462 4.81919 19.3674 4.86319 19.5738 4.94869C19.7803 5.03419 19.9678 5.1595 20.1258 5.31748C20.2838 5.47546 20.4091 5.66301 20.4946 5.86942C20.5801 6.07583 20.6241 6.29706 20.6241 6.52048C20.6241 6.74389 20.5801 6.96512 20.4946 7.17153C20.4091 7.37794 20.2838 7.56549 20.1258 7.72347C19.9678 7.88145 19.7803 8.00677 19.5738 8.09226C19.3674 8.17776 19.1462 8.22177 18.9228 8.22177C18.2548 8.22226 17.5949 8.07512 16.9904 7.79088C16.3859 7.50664 15.8517 7.09233 15.426 6.57757C15.0003 6.06281 14.6936 5.46033 14.5278 4.81323C14.3621 4.16612 14.3414 3.49039 14.4672 2.83435H9.59398C9.42051 2.98621 9.29752 3.1874 9.24144 3.41102C9.18535 3.63464 9.19884 3.87006 9.28011 4.08581C9.36138 4.30156 9.50655 4.48737 9.69624 4.61842C9.88592 4.74947 10.1111 4.81951 10.3416 4.81919C10.565 4.81919 10.7863 4.86319 10.9927 4.94869C11.1991 5.03419 11.3866 5.1595 11.5446 5.31748C11.7026 5.47546 11.8279 5.66301 11.9134 5.86942C11.9989 6.07583 12.0429 6.29706 12.0429 6.52048C12.0429 6.74389 11.9989 6.96512 11.9134 7.17153C11.8279 7.37794 11.7026 7.56549 11.5446 7.72347C11.3866 7.88145 11.1991 8.00677 10.9927 8.09226C10.7863 8.17776 10.565 8.22177 10.3416 8.22177C9.67363 8.22226 9.01378 8.07512 8.40928 7.79088C7.80477 7.50664 7.27055 7.09233 6.84483 6.57757C6.4191 6.06281 6.1124 5.46033 5.94664 4.81323C5.78089 4.16612 5.76019 3.49039 5.88602 2.83435H5.38719C5.19641 2.83431 5.01115 2.8984 4.86118 3.01633C4.71121 3.13426 4.60524 3.29918 4.56029 3.4846L3.24023 8.93064H31.6447L32.8674 3.88539Z" fill="#DD2626"/>
<path d="M10.3417 7.37112C10.5673 7.37112 10.7837 7.2815 10.9432 7.12197C11.1027 6.96244 11.1923 6.74608 11.1923 6.52048C11.1923 6.29487 11.1027 6.07851 10.9432 5.91898C10.7837 5.75945 10.5673 5.66983 10.3417 5.66983C10.0357 5.67002 9.73385 5.59947 9.45966 5.46369C9.18547 5.32791 8.94638 5.13058 8.76107 4.88711C8.57576 4.64364 8.44925 4.36063 8.39141 4.06018C8.33358 3.75973 8.34599 3.44997 8.42767 3.15511C8.50935 2.86025 8.6581 2.58826 8.86229 2.3604C9.06648 2.13253 9.32058 1.95496 9.60475 1.84154C9.88893 1.72813 10.1955 1.68195 10.5004 1.70661C10.8054 1.73127 11.1006 1.82611 11.3628 1.9837H13.6099C13.308 1.40379 12.8573 0.914615 12.304 0.566365C11.7507 0.218115 11.1147 0.0233218 10.4612 0.00196694C9.80777 -0.0193879 9.16041 0.133464 8.58552 0.444844C8.01064 0.756224 7.52894 1.21492 7.18982 1.77389C6.8507 2.33286 6.66638 2.97198 6.65576 3.62568C6.64514 4.27939 6.8086 4.92416 7.12938 5.49385C7.45016 6.06354 7.9167 6.53765 8.48116 6.86754C9.04563 7.19743 9.68768 7.37123 10.3415 7.37112H10.3417Z" fill="#DD2626"/>
<path d="M32.8916 19.3524V7.39719L30.2881 18.1366C31.2188 18.3907 32.0993 18.8019 32.8916 19.3524Z" fill="#DD2626"/>
<path d="M28.0527 17.8378C28.5233 17.8378 28.993 17.8768 29.4572 17.9544L31.4385 9.78113H3.03444L0.0239421 22.1988C-0.00639036 22.3239 -0.00792172 22.4543 0.0194635 22.5801C0.0468487 22.7059 0.102436 22.8238 0.182035 22.9251C0.261634 23.0263 0.363168 23.1081 0.478983 23.1643C0.594798 23.2206 0.721872 23.2498 0.850627 23.2498H20.129C20.7534 21.6563 21.8433 20.2877 23.2566 19.3224C24.6699 18.3571 26.3412 17.8397 28.0527 17.8378ZM23.8182 12.1915H26.0866C26.3122 12.1915 26.5286 12.2811 26.6881 12.4406C26.8477 12.6002 26.9373 12.8165 26.9373 13.0421C26.9373 13.2678 26.8477 13.4841 26.6881 13.6436C26.5286 13.8032 26.3122 13.8928 26.0866 13.8928H23.8182C23.5926 13.8928 23.3763 13.8032 23.2167 13.6436C23.0572 13.4841 22.9676 13.2678 22.9676 13.0421C22.9676 12.8165 23.0572 12.6002 23.2167 12.4406C23.3763 12.2811 23.5926 12.1915 23.8182 12.1915ZM7.37245 20.6979H5.10406C4.87846 20.6979 4.66209 20.6083 4.50257 20.4488C4.34304 20.2893 4.25342 20.0729 4.25342 19.8473C4.25342 19.6217 4.34304 19.4053 4.50257 19.2458C4.66209 19.0863 4.87846 18.9967 5.10406 18.9967H7.37245C7.59805 18.9967 7.81442 19.0863 7.97394 19.2458C8.13347 19.4053 8.22309 19.6217 8.22309 19.8473C8.22309 20.0729 8.13347 20.2893 7.97394 20.4488C7.81442 20.6083 7.59805 20.6979 7.37245 20.6979ZM7.93954 17.2954H5.67116C5.44555 17.2954 5.22919 17.2057 5.06966 17.0462C4.91013 16.8867 4.82051 16.6703 4.82051 16.4447C4.82051 16.2191 4.91013 16.0028 5.06966 15.8432C5.22919 15.6837 5.44555 15.5941 5.67116 15.5941H7.93954C8.16515 15.5941 8.38151 15.6837 8.54104 15.8432C8.70057 16.0028 8.79019 16.2191 8.79019 16.4447C8.79019 16.6703 8.70057 16.8867 8.54104 17.0462C8.38151 17.2057 8.16515 17.2954 7.93954 17.2954ZM9.07374 13.8928H6.80535C6.57975 13.8928 6.36338 13.8032 6.20385 13.6436C6.04433 13.4841 5.95471 13.2678 5.95471 13.0421C5.95471 12.8165 6.04433 12.6002 6.20385 12.4406C6.36338 12.2811 6.57975 12.1915 6.80535 12.1915H9.07374C9.29934 12.1915 9.51571 12.2811 9.67523 12.4406C9.83476 12.6002 9.92438 12.8165 9.92438 13.0421C9.92438 13.2678 9.83476 13.4841 9.67523 13.6436C9.51571 13.8032 9.29934 13.8928 9.07374 13.8928ZM13.0434 20.6979H10.775C10.5494 20.6979 10.3331 20.6083 10.1735 20.4488C10.014 20.2893 9.92438 20.0729 9.92438 19.8473C9.92438 19.6217 10.014 19.4053 10.1735 19.2458C10.3331 19.0863 10.5494 18.9967 10.775 18.9967H13.0434C13.269 18.9967 13.4854 19.0863 13.6449 19.2458C13.8044 19.4053 13.8941 19.6217 13.8941 19.8473C13.8941 20.0729 13.8044 20.2893 13.6449 20.4488C13.4854 20.6083 13.269 20.6979 13.0434 20.6979ZM13.6105 17.2954H11.3421C11.1165 17.2954 10.9002 17.2057 10.7406 17.0462C10.5811 16.8867 10.4915 16.6703 10.4915 16.4447C10.4915 16.2191 10.5811 16.0028 10.7406 15.8432C10.9002 15.6837 11.1165 15.5941 11.3421 15.5941H13.6105C13.8361 15.5941 14.0525 15.6837 14.212 15.8432C14.3715 16.0028 14.4612 16.2191 14.4612 16.4447C14.4612 16.6703 14.3715 16.8867 14.212 17.0462C14.0525 17.2057 13.8361 17.2954 13.6105 17.2954ZM14.7447 13.8928H12.4763C12.2507 13.8928 12.0343 13.8032 11.8748 13.6436C11.7153 13.4841 11.6257 13.2678 11.6257 13.0421C11.6257 12.8165 11.7153 12.6002 11.8748 12.4406C12.0343 12.2811 12.2507 12.1915 12.4763 12.1915H14.7447C14.9703 12.1915 15.1867 12.2811 15.3462 12.4406C15.5057 12.6002 15.5953 12.8165 15.5953 13.0421C15.5953 13.2678 15.5057 13.4841 15.3462 13.6436C15.1867 13.8032 14.9703 13.8928 14.7447 13.8928ZM18.7144 20.6979H16.446C16.2204 20.6979 16.004 20.6083 15.8445 20.4488C15.685 20.2893 15.5953 20.0729 15.5953 19.8473C15.5953 19.6217 15.685 19.4053 15.8445 19.2458C16.004 19.0863 16.2204 18.9967 16.446 18.9967H18.7144C18.94 18.9967 19.1563 19.0863 19.3159 19.2458C19.4754 19.4053 19.565 19.6217 19.565 19.8473C19.565 20.0729 19.4754 20.2893 19.3159 20.4488C19.1563 20.6083 18.94 20.6979 18.7144 20.6979ZM19.2815 17.2954H17.0131C16.7875 17.2954 16.5711 17.2057 16.4116 17.0462C16.2521 16.8867 16.1624 16.6703 16.1624 16.4447C16.1624 16.2191 16.2521 16.0028 16.4116 15.8432C16.5711 15.6837 16.7875 15.5941 17.0131 15.5941H19.2815C19.5071 15.5941 19.7234 15.6837 19.883 15.8432C20.0425 16.0028 20.1321 16.2191 20.1321 16.4447C20.1321 16.6703 20.0425 16.8867 19.883 17.0462C19.7234 17.2057 19.5071 17.2954 19.2815 17.2954ZM20.4157 13.8928H18.1473C17.9217 13.8928 17.7053 13.8032 17.5458 13.6436C17.3863 13.4841 17.2966 13.2678 17.2966 13.0421C17.2966 12.8165 17.3863 12.6002 17.5458 12.4406C17.7053 12.2811 17.9217 12.1915 18.1473 12.1915H20.4157C20.6413 12.1915 20.8576 12.2811 21.0172 12.4406C21.1767 12.6002 21.2663 12.8165 21.2663 13.0421C21.2663 13.2678 21.1767 13.4841 21.0172 13.6436C20.8576 13.8032 20.6413 13.8928 20.4157 13.8928ZM22.6841 15.5941H24.9524C25.178 15.5941 25.3944 15.6837 25.5539 15.8432C25.7135 16.0028 25.8031 16.2191 25.8031 16.4447C25.8031 16.6703 25.7135 16.8867 25.5539 17.0462C25.3944 17.2057 25.178 17.2954 24.9524 17.2954H22.6841C22.4584 17.2954 22.2421 17.2057 22.0826 17.0462C21.923 16.8867 21.8334 16.6703 21.8334 16.4447C21.8334 16.2191 21.923 16.0028 22.0826 15.8432C22.2421 15.6837 22.4584 15.5941 22.6841 15.5941Z" fill="#DD2626"/>
<path d="M4.53711 24.1003V26.3687C4.53711 26.5943 4.62673 26.8106 4.78626 26.9702C4.94578 27.1297 5.16215 27.2193 5.38775 27.2193H19.5912C19.4835 26.1727 19.5703 25.1153 19.8473 24.1003H4.53711Z" fill="#DD2626"/>
<path d="M34.8768 2.83435H33.5137C33.6638 3.09268 33.7428 3.3862 33.7426 3.685V20.0264C34.5705 20.7722 35.2448 21.6727 35.7274 22.6771V3.685C35.7274 3.45939 35.6378 3.24303 35.4783 3.0835C35.3187 2.92397 35.1024 2.83435 34.8768 2.83435Z" fill="#DD2626"/>
<path d="M28.0533 18.6884C26.5391 18.6884 25.0589 19.1374 23.7999 19.9786C22.5409 20.8198 21.5597 22.0155 20.9802 23.4144C20.4008 24.8134 20.2492 26.3527 20.5446 27.8378C20.84 29.3228 21.5691 30.687 22.6398 31.7577C23.7105 32.8283 25.0746 33.5575 26.5597 33.8529C28.0448 34.1483 29.5841 33.9967 30.983 33.4172C32.3819 32.8378 33.5776 31.8565 34.4188 30.5975C35.2601 29.3385 35.7091 27.8584 35.7091 26.3442C35.7068 24.3144 34.8995 22.3685 33.4642 20.9332C32.029 19.498 30.083 18.6907 28.0533 18.6884ZM28.9039 32.2367V31.4481C28.9039 31.2224 28.8143 31.0061 28.6548 30.8466C28.4952 30.687 28.2789 30.5974 28.0533 30.5974C27.8277 30.5974 27.6113 30.687 27.4518 30.8466C27.2922 31.0061 27.2026 31.2224 27.2026 31.4481V32.2367C25.9314 32.0512 24.7539 31.4602 23.8455 30.5517C22.937 29.6433 22.3461 28.4659 22.1605 27.1946H22.9494C23.175 27.1946 23.3914 27.105 23.5509 26.9455C23.7104 26.7859 23.8 26.5696 23.8 26.344C23.8 26.1184 23.7104 25.902 23.5509 25.7425C23.3914 25.5829 23.175 25.4933 22.9494 25.4933H22.1605C22.3461 24.2221 22.9371 23.0447 23.8455 22.1363C24.754 21.2279 25.9314 20.637 27.2026 20.4514V21.2403C27.2026 21.4659 27.2922 21.6823 27.4518 21.8418C27.6113 22.0013 27.8277 22.091 28.0533 22.091C28.2789 22.091 28.4952 22.0013 28.6548 21.8418C28.8143 21.6823 28.9039 21.4659 28.9039 21.2403V20.4514C30.1752 20.637 31.3526 21.228 32.261 22.1364C33.1695 23.0449 33.7605 24.2223 33.946 25.4935H33.1571C32.9315 25.4935 32.7152 25.5832 32.5556 25.7427C32.3961 25.9022 32.3065 26.1186 32.3065 26.3442C32.3065 26.5698 32.3961 26.7862 32.5556 26.9457C32.7152 27.1052 32.9315 27.1948 33.1571 27.1948H33.946C33.7604 28.4661 33.1694 29.6434 32.261 30.5518C31.3525 31.4602 30.1751 32.0512 28.9039 32.2367Z" fill="#DD2626"/>
<path d="M29.7195 23.4741L27.8847 25.309L26.1646 24.449C25.9628 24.3481 25.7292 24.3315 25.5152 24.4029C25.3012 24.4742 25.1243 24.6277 25.0234 24.8295C24.9225 25.0313 24.9059 25.2649 24.9773 25.4789C25.0486 25.6929 25.2021 25.8698 25.4039 25.9707L27.6723 27.1049C27.8319 27.1847 28.0127 27.2123 28.1889 27.1837C28.3651 27.1551 28.5279 27.0718 28.6541 26.9456L30.9225 24.6772C31.0813 24.5175 31.1703 24.3014 31.17 24.0762C31.1697 23.851 31.0801 23.6351 30.9209 23.4758C30.7617 23.3166 30.5458 23.227 30.3206 23.2267C30.0954 23.2263 29.8792 23.3153 29.7195 23.4741Z" fill="#DD2626"/>
</svg>
