<svg width="19" height="19" viewBox="0 0 19 19" fill="none" xmlns="http://www.w3.org/2000/svg">
<g clip-path="url(#clip0)">
<path d="M17.4754 12.4713C16.3122 12.4713 15.17 12.2894 14.0877 11.9317C13.548 11.7477 12.9337 11.8905 12.5816 12.2492L10.4453 13.8619C7.96768 12.5394 6.44154 11.0138 5.13708 8.5548L6.70235 6.4741C7.10902 6.06798 7.25488 5.47472 7.08012 4.91808C6.7209 3.83003 6.53842 2.6884 6.53842 1.52465C6.53847 0.683951 5.85452 0 5.01387 0H1.52455C0.683951 0 0 0.683951 0 1.52455C0 11.1607 7.83938 19 17.4754 19C18.3161 19 19 18.316 19 17.4754V13.9959C19 13.1553 18.316 12.4713 17.4754 12.4713ZM17.9445 17.4754C17.9445 17.7342 17.7342 17.9445 17.4754 17.9445C8.42125 17.9445 1.05559 10.5787 1.05559 1.5246C1.05559 1.26587 1.26587 1.05559 1.5246 1.05559H5.01392C5.27265 1.05559 5.48294 1.26587 5.48294 1.5246C5.48294 2.80126 5.68342 4.05422 6.07565 5.24123C6.13027 5.41648 6.08594 5.59788 5.90865 5.78243L4.0944 8.18519C3.97278 8.34649 3.95368 8.56247 4.04492 8.74233C5.52568 11.6528 7.325 13.4521 10.2561 14.954C10.4344 15.0473 10.653 15.0278 10.8148 14.9056L13.2728 13.0435C13.397 12.9193 13.5831 12.8749 13.7511 12.9321C14.9463 13.3269 16.1993 13.5269 17.4754 13.5269C17.7342 13.5269 17.9445 13.7372 17.9445 13.9959V17.4754Z" fill="#DD2626"/>
</g>
<defs>
<clipPath id="clip0">
<rect width="19" height="19" fill="white"/>
</clipPath>
</defs>
</svg>
