<svg width="19" height="15" viewBox="0 0 19 15" fill="none" xmlns="http://www.w3.org/2000/svg">
<path d="M18.2019 2.33696C17.8261 1.93841 17.3071 1.7029 16.7164 1.7029H13.7454V1.66667C13.7454 1.21377 13.5664 0.778985 13.2622 0.48913C12.9579 0.181159 12.5463 0 12.0988 0H6.72953C6.26419 0 5.85254 0.181159 5.54828 0.48913C5.24402 0.797101 5.06504 1.21377 5.06504 1.66667V1.7029H2.11193C1.5213 1.7029 1.00227 1.93841 0.626419 2.33696C0.250567 2.71739 0 3.26087 0 3.84058V12.8623C0 13.4601 0.23267 13.9855 0.626419 14.3659C1.00227 14.7464 1.5392 15 2.11193 15H16.7164C17.3071 15 17.8261 14.7645 18.2019 14.3659C18.5778 13.9855 18.8284 13.442 18.8284 12.8623V3.84058C18.8284 3.24275 18.5957 2.71739 18.2019 2.33696ZM17.8977 12.8623H17.8798C17.8798 13.1884 17.7545 13.4783 17.5397 13.6957C17.325 13.913 17.0386 14.0399 16.7164 14.0399H2.11193C1.78977 14.0399 1.5034 13.913 1.28863 13.6957C1.07386 13.4783 0.948577 13.1884 0.948577 12.8623V3.84058C0.948577 3.51449 1.07386 3.22464 1.28863 3.00725C1.5034 2.78985 1.78977 2.66304 2.11193 2.66304H5.56618C5.83464 2.66304 6.04941 2.44565 6.04941 2.17391V1.64855C6.04941 1.44928 6.12101 1.26812 6.24629 1.1413C6.37157 1.01449 6.55055 0.942029 6.74742 0.942029H12.0988C12.2957 0.942029 12.4747 1.01449 12.6 1.1413C12.7252 1.26812 12.7968 1.44928 12.7968 1.64855V2.17391C12.7968 2.44565 13.0116 2.66304 13.2801 2.66304H16.7343C17.0565 2.66304 17.3428 2.78985 17.5576 3.00725C17.7724 3.22464 17.8977 3.51449 17.8977 3.84058V12.8623Z" fill="#9996A3"/>
<path d="M9.41455 3.8949C8.19751 3.8949 7.08785 4.40214 6.30035 5.19924C5.49496 6.01446 5.01172 7.11953 5.01172 8.35142C5.01172 9.5833 5.51285 10.7065 6.30035 11.5036C7.10575 12.3188 8.19751 12.8079 9.41455 12.8079C10.6316 12.8079 11.7412 12.3007 12.5287 11.5036C13.3341 10.6884 13.8174 9.5833 13.8174 8.35142C13.8174 7.11953 13.3162 5.99635 12.5287 5.19924C11.7412 4.40214 10.6316 3.8949 9.41455 3.8949ZM11.8486 10.8333C11.2222 11.4492 10.3631 11.8478 9.41455 11.8478C8.46597 11.8478 7.60688 11.4492 6.98046 10.8333C6.35404 10.1992 5.97819 9.32968 5.97819 8.36953C5.97819 7.40939 6.37194 6.53982 6.98046 5.90577C7.60688 5.27171 8.46597 4.89127 9.41455 4.89127C10.3631 4.89127 11.2222 5.28982 11.8486 5.90577C12.4751 6.53982 12.8509 7.40939 12.8509 8.36953C12.8688 9.32968 12.4751 10.1992 11.8486 10.8333Z" fill="#9996A3"/>
<path d="M15.7852 5.65219C16.2695 5.65219 16.6622 5.25477 16.6622 4.76451C16.6622 4.27426 16.2695 3.87683 15.7852 3.87683C15.3008 3.87683 14.9082 4.27426 14.9082 4.76451C14.9082 5.25477 15.3008 5.65219 15.7852 5.65219Z" fill="#9996A3"/>
</svg>
