<svg width="22" height="24" viewBox="0 0 22 24" fill="none" xmlns="http://www.w3.org/2000/svg">
<path d="M21.7762 3.83095H20.464V2.95041C20.464 1.32352 19.1405 0 17.5136 0C15.8867 0 14.5632 1.32352 14.5632 2.95041V3.83091H13.251V6.75295C12.0558 6.17236 10.7152 5.84602 9.29967 5.84602C4.29459 5.84602 0.222656 9.91795 0.222656 14.923C0.222656 19.9281 4.29455 24 9.29962 24C14.3047 24 18.3766 19.9281 18.3766 14.923C18.3766 13.7808 18.1639 12.6874 17.7769 11.6798H21.7762V3.83095H21.7762ZM15.9694 2.95041C15.9694 2.09897 16.6621 1.40625 17.5135 1.40625C18.365 1.40625 19.0577 2.09897 19.0577 2.95041V3.83091H15.9693V2.95041H15.9694ZM5.55248 21.6141V19.7096C5.55248 18.1741 6.80166 16.925 8.33709 16.925H10.2621C11.7975 16.925 13.0467 18.1741 13.0467 19.7096V21.6141C11.9379 22.2375 10.6597 22.5938 9.29962 22.5938C7.93955 22.5938 6.66131 22.2375 5.55248 21.6141ZM9.29962 15.5187C8.35415 15.5187 7.58498 14.7495 7.58498 13.8041C7.58498 12.8587 8.35415 12.0895 9.29962 12.0895C10.245 12.0895 11.0142 12.8587 11.0142 13.8041C11.0142 14.7495 10.245 15.5187 9.29962 15.5187ZM16.9703 14.923C16.9703 17.1708 15.9985 19.1958 14.453 20.6V19.7096C14.453 17.9091 13.3117 16.3703 11.7146 15.7783C12.1555 15.24 12.4205 14.5525 12.4205 13.804C12.4205 12.0832 11.0205 10.6832 9.29967 10.6832C7.5788 10.6832 6.17878 12.0832 6.17878 13.804C6.17878 14.5524 6.44381 15.24 6.88467 15.7783C5.28759 16.3703 4.14628 17.9091 4.14628 19.7096V20.6C2.60072 19.1958 1.62891 17.1708 1.62891 14.923C1.62891 10.6934 5.07 7.25227 9.29967 7.25227C10.7441 7.25227 12.0962 7.65394 13.251 8.35097V11.6798H16.2501C16.712 12.6654 16.9703 13.7646 16.9703 14.923ZM20.3699 10.2735H18.2167V7.05216H16.8104V10.2735H14.6572V5.2372H20.3699V10.2735H20.3699Z" fill="#9996A3"/>
</svg>
