<svg width="62" height="57" viewBox="0 0 62 57" fill="none" xmlns="http://www.w3.org/2000/svg">
<path d="M14.6207 33.0621H0.99503C0.445543 33.0621 0 32.6524 0 32.1471C0 31.6418 0.445543 31.2321 0.99503 31.2321H14.6207C15.1703 31.2321 15.6157 31.6418 15.6157 32.1471C15.6157 32.6524 15.1703 33.0621 14.6207 33.0621Z" fill="#C5D3DD"/>
<path d="M15.1519 38.8079H4.79679C4.2473 38.8079 3.80176 38.3982 3.80176 37.8929C3.80176 37.3875 4.2473 36.9779 4.79679 36.9779H15.152C15.7015 36.9779 16.147 37.3875 16.147 37.8929C16.1469 38.3982 15.7015 38.8079 15.1519 38.8079Z" fill="#C5D3DD"/>
<path d="M17.2222 43.6092H10.9384C10.3889 43.6092 9.94336 43.1995 9.94336 42.6942C9.94336 42.1889 10.3889 41.7792 10.9384 41.7792H17.2222C17.7717 41.7792 18.2173 42.1889 18.2173 42.6942C18.2173 43.1995 17.7718 43.6092 17.2222 43.6092Z" fill="#C5D3DD"/>
<path d="M16.0807 27.3162H5.7255C5.17601 27.3162 4.73047 26.9066 4.73047 26.4012C4.73047 25.8959 5.17601 25.4862 5.7255 25.4862H16.0807C16.6303 25.4862 17.0757 25.8959 17.0757 26.4012C17.0757 26.9067 16.6302 27.3162 16.0807 27.3162Z" fill="#C5D3DD"/>
<path d="M18.1519 22.5149H11.8681C11.3185 22.5149 10.873 22.1053 10.873 21.5999C10.873 21.0946 11.3186 20.6849 11.8681 20.6849H18.1519C18.7014 20.6849 19.1469 21.0946 19.1469 21.5999C19.1469 22.1053 18.7014 22.5149 18.1519 22.5149Z" fill="#C5D3DD"/>
<path d="M26.9226 15.9872L22.2701 10.5758C21.9407 10.1927 21.3631 10.1489 20.9798 10.4786L18.0841 12.9681C17.9001 13.1264 17.7865 13.3512 17.7682 13.5931C17.7499 13.835 17.8286 14.0744 17.9869 14.2585L22.6393 19.6699C22.8202 19.8804 23.0762 19.9884 23.3335 19.9884C23.5447 19.9884 23.757 19.9156 23.9296 19.7672L26.8253 17.2776C27.0092 17.1194 27.1228 16.8946 27.1411 16.6526C27.1595 16.4106 27.0808 16.1712 26.9226 15.9872Z" fill="#FEDF30"/>
<path d="M24.2011 8.91613L22.2365 6.63107C21.907 6.24799 21.3294 6.20432 20.9461 6.53384L14.1895 12.3427C14.0056 12.501 13.892 12.7258 13.8737 12.9677C13.8555 13.2097 13.9341 13.449 14.0923 13.6331L16.0569 15.9182C16.2378 16.1286 16.4936 16.2366 16.751 16.2366C16.9622 16.2366 17.1745 16.1639 17.3471 16.0154L24.1037 10.2065C24.2877 10.0483 24.4013 9.82344 24.4196 9.58152C24.4379 9.33947 24.3592 9.1001 24.2011 8.91613Z" fill="#D7AA02"/>
<path d="M57.1948 13.5931C57.1766 13.3512 57.0629 13.1263 56.879 12.9681L53.9833 10.4786C53.6001 10.1491 53.0224 10.1926 52.6929 10.5758L48.0404 15.9872C47.8823 16.1712 47.8036 16.4106 47.8219 16.6526C47.8402 16.8945 47.9538 17.1194 48.1378 17.2776L51.0335 19.7672C51.2062 19.9156 51.4184 19.9883 51.6297 19.9883C51.887 19.9883 52.1429 19.8804 52.3239 19.6699L56.9763 14.2585C57.1344 14.0744 57.213 13.8352 57.1948 13.5931Z" fill="#FEDF30"/>
<path d="M60.7738 12.3427L54.0171 6.53381C53.833 6.37557 53.5938 6.29603 53.3517 6.31518C53.1098 6.33336 52.885 6.44707 52.7267 6.63104L50.7622 8.9161C50.4328 9.2993 50.4763 9.87697 50.8595 10.2064L57.6162 16.0153C57.7828 16.1585 57.9947 16.2365 58.2128 16.2365C58.2358 16.2365 58.2587 16.2356 58.2816 16.2339C58.5235 16.2156 58.7484 16.102 58.9066 15.9179L60.8711 13.6329C61.2006 13.2499 61.1569 12.6721 60.7738 12.3427Z" fill="#D7AA02"/>
<path d="M34.8037 5.13132H40.4186V13.1504H34.8037V5.13132Z" fill="#0055A3"/>
<path d="M41.0533 0H30.7368C29.769 0 28.9844 0.784581 28.9844 1.7524V3.8813C28.9844 4.84913 29.769 5.63371 30.7368 5.63371H40.9981L43.4897 4.9621V0.714187L41.0533 0Z" fill="#0473CE"/>
<path d="M44.4832 0H40.8232C41.7911 0 42.5756 0.784581 42.5756 1.7524V3.8813C42.5756 4.84913 41.7911 5.63371 40.8232 5.63371H44.4832C45.4511 5.63371 46.2356 4.84913 46.2356 3.8813V1.7524C46.2356 0.784581 45.4511 0 44.4832 0Z" fill="#0055A3"/>
<path d="M31.5749 56.2126C19.016 52.8794 11.537 39.9963 14.8702 27.4374C17.5577 17.311 26.4541 10.4873 36.383 9.97101C38.7681 9.84706 59.6434 13.6759 59.6434 32.7534C59.6434 46.7323 46.8916 57.8124 35.78 56.9326C34.3833 56.8221 32.977 56.5848 31.5749 56.2126Z" fill="#26A6FE"/>
<path d="M37.6103 9.9454C36.9944 9.9454 36.3842 9.96932 35.7803 10.0158C47.9188 10.9497 57.4774 21.0947 57.4774 33.4727C57.4774 45.8507 47.9186 55.9957 35.7803 56.9296C36.3842 56.9761 36.9944 57 37.6103 57C50.604 57 61.1374 46.4665 61.1374 33.4727C61.1374 20.4789 50.6041 9.9454 37.6103 9.9454Z" fill="#0593FC"/>
<path d="M37.611 51.7947C47.7299 51.7947 55.9329 43.5917 55.9329 33.4727C55.9329 23.3538 47.7299 15.1508 37.611 15.1508C27.4921 15.1508 19.2891 23.3538 19.2891 33.4727C19.2891 43.5917 27.4921 51.7947 37.611 51.7947Z" fill="#FFF3EF"/>
<path d="M39.9777 15.3044C38.5475 15.118 37.1345 15.1025 35.7588 15.2411C35.9448 15.2596 36.131 15.2801 36.3177 15.3044C46.3518 16.6119 53.4261 25.8061 52.1185 35.8402C50.9973 44.4441 44.0773 50.8712 35.8015 51.7045C45.6159 52.6835 54.4953 45.6877 55.7785 35.8402C57.0861 25.8061 50.0118 16.6119 39.9777 15.3044Z" fill="#F1F0F0"/>
<path d="M37.6143 20.3871C37.1439 20.3871 36.7627 20.0059 36.7627 19.5356V17.1829C36.7627 16.7126 37.1439 16.3314 37.6143 16.3314C38.0846 16.3314 38.4658 16.7126 38.4658 17.1829V19.5356C38.4658 20.0059 38.0846 20.3871 37.6143 20.3871Z" fill="#B6C4CF"/>
<path d="M47.542 24.4549C47.324 24.4549 47.1061 24.3718 46.9398 24.2055C46.6073 23.8729 46.6073 23.3338 46.94 23.0012L48.6036 21.3376C48.936 21.0049 49.4751 21.0051 49.8078 21.3376C50.1404 21.6702 50.1404 22.2093 49.8077 22.5419L48.1441 24.2055C47.9778 24.3717 47.7598 24.4549 47.542 24.4549Z" fill="#B6C4CF"/>
<path d="M54.0362 34.3503H51.6836C51.2133 34.3503 50.832 33.9691 50.832 33.4988C50.832 33.0285 51.2133 32.6472 51.6836 32.6472H54.0362C54.5065 32.6472 54.8878 33.0285 54.8878 33.4988C54.8878 33.9691 54.5065 34.3503 54.0362 34.3503Z" fill="#B6C4CF"/>
<path d="M49.2799 45.9404C49.062 45.9404 48.844 45.8572 48.6777 45.6911L47.0141 44.0275C46.6815 43.6949 46.6815 43.1558 47.0141 42.8232C47.3468 42.4906 47.8858 42.4906 48.2185 42.8232L49.8821 44.4868C50.2146 44.8194 50.2146 45.3585 49.8821 45.6911C49.7158 45.8574 49.4978 45.9404 49.2799 45.9404Z" fill="#B6C4CF"/>
<path d="M37.7207 50.7725C37.2504 50.7725 36.8691 50.3912 36.8691 49.9209V47.5682C36.8691 47.0979 37.2504 46.7166 37.7207 46.7166C38.191 46.7166 38.5723 47.0979 38.5723 47.5682V49.9209C38.5723 50.3911 38.191 50.7725 37.7207 50.7725Z" fill="#B6C4CF"/>
<path d="M26.1308 46.0156C25.9129 46.0156 25.6949 45.9325 25.5287 45.7661C25.1962 45.4336 25.1962 44.8945 25.5287 44.5619L27.1923 42.8983C27.5249 42.5657 28.064 42.5657 28.3966 42.8983C28.7291 43.2309 28.7291 43.77 28.3966 44.1025L26.733 45.7661C26.5667 45.9324 26.3487 46.0156 26.1308 46.0156Z" fill="#B6C4CF"/>
<path d="M23.6515 34.4565H21.2988C20.8285 34.4565 20.4473 34.0752 20.4473 33.6049C20.4473 33.1346 20.8285 32.7534 21.2988 32.7534H23.6515C24.1218 32.7534 24.503 33.1346 24.503 33.6049C24.503 34.0752 24.1218 34.4565 23.6515 34.4565Z" fill="#B6C4CF"/>
<path d="M27.7192 24.5299C27.5013 24.5299 27.2833 24.4468 27.1171 24.2805L25.4535 22.6169C25.121 22.2843 25.121 21.7452 25.4535 21.4127C25.7861 21.0801 26.3252 21.08 26.6578 21.4127L28.3214 23.0762C28.654 23.4088 28.654 23.9479 28.3214 24.2805C28.1551 24.4468 27.9371 24.5299 27.7192 24.5299Z" fill="#B6C4CF"/>
<path d="M37.6113 33.0621C37.1058 33.0621 36.6963 32.6524 36.6963 32.1471V25.9944C36.6963 25.4891 37.1058 25.0794 37.6113 25.0794C38.1167 25.0794 38.5263 25.4891 38.5263 25.9944V32.1471C38.5263 32.6524 38.1166 33.0621 37.6113 33.0621Z" fill="#678D98"/>
<path d="M45.3088 41.873C45.0746 41.873 44.8405 41.7837 44.6617 41.605L38.0004 34.9437C37.6431 34.5863 37.6431 34.007 38.0004 33.6497C38.358 33.2924 38.9373 33.2924 39.2946 33.6497L45.9558 40.3111C46.3131 40.6684 46.3131 41.2478 45.9558 41.605C45.7772 41.7836 45.5429 41.873 45.3088 41.873Z" fill="#678D98"/>
<path d="M37.7333 35.2204C36.7195 35.2204 35.8945 34.3955 35.8945 33.3817C35.8945 32.3679 36.7194 31.5431 37.7333 31.5431C38.7471 31.5431 39.572 32.3679 39.572 33.3817C39.572 34.3955 38.7471 35.2204 37.7333 35.2204Z" fill="#3E5959"/>
</svg>
