<svg width="32" height="25" viewBox="0 0 32 25" fill="none" xmlns="http://www.w3.org/2000/svg">
<path d="M1.04167 0H0V25H3.125V17.4031L4.16667 16.3615V3.64583C4.16667 1.9599 2.80156 0 1.04167 0ZM3.125 15.9302L2.08333 16.9719V23.9583H1.04167V1.04167C2.16354 1.04167 3.125 2.47396 3.125 3.64583V15.9302Z" fill="black"/>
<path d="M30.7285 0C30.4409 0 30.2077 0.233203 30.2077 0.520833V5.20833H29.166V0.520833C29.166 0.233203 28.9328 0 28.6452 0C28.3576 0 28.1243 0.233203 28.1243 0.520833V5.20833H27.0827V0.520833C27.0827 0.233203 26.8495 0 26.5618 0C26.2742 0 26.041 0.233203 26.041 0.520833V9.375H27.0827V25H30.2077V9.375H31.2494V0.520833C31.2494 0.233203 31.0161 0 30.7285 0ZM30.2077 8.33333H29.166V23.9583H28.1243V8.33333H27.0827V6.25H30.2077V8.33333Z" fill="black"/>
<path d="M15.6257 2.08325C9.87266 2.08325 5.20898 6.74692 5.20898 12.4999C5.20898 18.2529 9.87266 22.9166 15.6257 22.9166C21.3786 22.9166 26.0423 18.2529 26.0423 12.4999C26.0357 6.74966 21.3759 2.08983 15.6257 2.08325ZM15.6257 21.8749C10.448 21.8749 6.25065 17.6776 6.25065 12.4999C6.25065 7.32225 10.448 3.12492 15.6257 3.12492C20.8033 3.12492 25.0007 7.32225 25.0007 12.4999C24.9946 17.6751 20.8008 21.8689 15.6257 21.8749Z" fill="black"/>
</svg>
