<svg width="29" height="29" viewBox="0 0 29 29" fill="none" xmlns="http://www.w3.org/2000/svg">
<path d="M21.5561 11.5287L23.2599 11.4207C23.2628 11.4205 23.2659 11.4203 23.269 11.42C24.4832 11.3176 25.5731 10.6815 26.2595 9.67435L27.6064 7.69813C28.7789 5.97767 29.2331 3.89966 28.8851 1.8471C28.8167 1.44398 28.6105 1.0725 28.3047 0.801464C27.9987 0.530209 27.6053 0.370022 27.1969 0.350552C25.1167 0.250988 23.1088 0.951252 21.5415 2.32147L19.7409 3.89568C18.8234 4.69772 18.3225 5.85598 18.3663 7.07397C18.3665 7.07685 18.3665 7.07995 18.3667 7.08304L18.4638 8.78735C18.5017 9.45177 18.2581 10.1073 17.7968 10.5848L3.72998 25.0357C3.3534 25.4284 3.15892 25.9672 3.1826 26.5528C3.2087 27.1976 3.50452 27.8308 3.97402 28.247C4.39816 28.6229 4.98116 28.837 5.56394 28.837C5.62633 28.837 5.68872 28.8346 5.7509 28.8295C6.33522 28.7828 6.84698 28.5253 7.19346 28.1018L19.8507 12.4075C20.2704 11.8911 20.8921 11.5707 21.5561 11.5287ZM19.1749 11.8605L6.51886 27.5535C6.32549 27.7898 6.02813 27.9354 5.68164 27.9631C5.26945 27.9961 4.84686 27.8589 4.55082 27.5965C4.25479 27.3338 4.06805 26.9307 4.05146 26.5176C4.0373 26.1705 4.14593 25.8579 4.35523 25.6397L18.4209 11.1899C19.0515 10.5375 19.3834 9.64382 19.332 8.73801L19.2349 7.03813C19.2019 6.08475 19.5947 5.17828 20.3131 4.55015L22.1136 2.97593C23.5111 1.7544 25.3019 1.13069 27.1555 1.21875C27.3666 1.22892 27.5697 1.31167 27.7279 1.45195C27.8861 1.592 27.9925 1.78405 28.0279 1.99225C28.3381 3.82222 27.9332 5.67455 26.888 7.20827L25.541 9.18472C25.0036 9.97327 24.1507 10.4717 23.2002 10.5534L21.501 10.6609C20.5956 10.7184 19.7482 11.1552 19.1749 11.8605Z" fill="black"/>
<path d="M28.1969 24.926L18.7651 16.3354C18.5877 16.1737 18.3129 16.1865 18.1509 16.3639C17.9894 16.5414 18.0022 16.8164 18.1797 16.9781L27.609 25.5667C27.8334 25.774 27.9606 26.0796 27.9674 26.4269C27.9756 26.8402 27.8134 27.2538 27.5336 27.5336C27.2539 27.8133 26.841 27.9759 26.4269 27.9675C26.0795 27.9607 25.7739 27.8334 25.5688 27.6115L17.1643 18.3844C17.0026 18.2067 16.7276 18.1941 16.5501 18.3556C16.3727 18.5174 16.3599 18.7924 16.5216 18.9698L24.9281 28.1992C25.2976 28.5987 25.8237 28.8253 26.4098 28.8368C26.4251 28.837 26.4401 28.8373 26.4554 28.8373C27.0853 28.8373 27.7152 28.5817 28.1482 28.1485C28.592 27.7047 28.8493 27.0548 28.8365 26.4099C28.825 25.8238 28.5987 25.2977 28.1969 24.926Z" fill="black"/>
<path d="M5.24542 11.4463C5.96493 12.1092 6.89972 12.4871 7.87766 12.5106C7.88076 12.5108 7.88386 12.5108 7.88673 12.5108L9.59392 12.5161C10.2594 12.5181 10.8991 12.8006 11.348 13.2898L12.1 14.1153C12.1859 14.2096 12.3034 14.2573 12.4215 14.2573C12.526 14.2573 12.6308 14.22 12.714 14.1441C12.8917 13.9823 12.9045 13.7073 12.7428 13.5299L11.9896 12.7033C11.3763 12.0346 10.5041 11.6497 9.59679 11.6466L7.89426 11.6413C7.13779 11.622 6.41452 11.3324 5.85409 10.8251L0.906659 4.94372C0.856213 4.88354 0.859975 4.79637 0.915509 4.74083C0.953565 4.70255 0.998258 4.69702 1.02149 4.69702C1.04472 4.69702 1.08941 4.70255 1.12769 4.74083L5.63106 9.24443C6.07622 9.68959 6.8006 9.68959 7.24576 9.2442L7.775 8.71519V8.71497L8.71466 7.77531C8.71466 7.77531 8.71488 7.77531 8.71488 7.77509L8.7151 7.77487L9.24412 7.24585C9.68928 6.80069 9.68928 6.07631 9.24412 5.63115L4.74074 1.12778C4.68233 1.06937 4.68233 0.974007 4.74074 0.915597C4.79628 0.860062 4.88345 0.856301 4.94363 0.906747L10.825 5.8544C11.3325 6.41461 11.6221 7.1381 11.6414 7.89434L11.6465 9.5971C11.6496 10.5042 12.0348 11.3764 12.7043 11.9911L13.5101 12.7249C13.6878 12.8867 13.9625 12.8739 14.1243 12.6964C14.2858 12.5187 14.273 12.2439 14.0955 12.0822L13.291 11.3494C12.8005 10.8994 12.5182 10.2595 12.516 9.59423L12.5107 7.88704C12.5107 7.88394 12.5107 7.88085 12.5105 7.87775C12.487 6.89981 12.1091 5.96502 11.4462 5.24551C11.4339 5.23201 11.4206 5.21918 11.4064 5.20723L5.50318 0.24144C5.09519 -0.101943 4.50312 -0.0762782 4.1261 0.300736C3.72851 0.698327 3.72851 1.34505 4.1261 1.74242L8.62948 6.24601C8.73568 6.35221 8.73568 6.52501 8.62948 6.63121L8.40756 6.85291L3.38845 1.83402C3.21875 1.66409 2.94351 1.66409 2.77381 1.83402C2.60411 2.00372 2.60411 2.27895 2.77381 2.44866L7.79292 7.46777L7.46768 7.79279L2.44857 2.7739C2.27887 2.6042 2.00363 2.6042 1.83393 2.7739C1.66401 2.9436 1.66401 3.21884 1.83393 3.38854L6.85282 8.40765L6.63112 8.62957C6.52492 8.73577 6.35213 8.73577 6.24592 8.62957L1.74233 4.12619C1.54984 3.9337 1.29385 3.8275 1.02149 3.8275C0.749127 3.8275 0.493138 3.9337 0.300649 4.12619C-0.0763657 4.50321 -0.10181 5.09528 0.241353 5.50349L5.20736 11.4065C5.21909 11.4207 5.23192 11.4339 5.24542 11.4463Z" fill="black"/>
</svg>
