<svg width="15" height="18" viewBox="0 0 15 18" fill="none" xmlns="http://www.w3.org/2000/svg">
<path d="M9.79655 6.52148C9.56371 6.52148 9.375 6.71019 9.375 6.94303V14.9102C9.375 15.1429 9.56371 15.3318 9.79655 15.3318C10.0294 15.3318 10.2181 15.1429 10.2181 14.9102V6.94303C10.2181 6.71019 10.0294 6.52148 9.79655 6.52148Z" fill="#9996A3"/>
<path d="M4.82389 6.52148C4.59105 6.52148 4.40234 6.71019 4.40234 6.94303V14.9102C4.40234 15.1429 4.59105 15.3318 4.82389 15.3318C5.05673 15.3318 5.24543 15.1429 5.24543 14.9102V6.94303C5.24543 6.71019 5.05673 6.52148 4.82389 6.52148Z" fill="#9996A3"/>
<path d="M1.19725 5.35877V15.7447C1.19725 16.3586 1.42235 16.9351 1.81557 17.3487C2.20699 17.7635 2.7517 17.999 3.32177 18H11.2975C11.8678 17.999 12.4125 17.7635 12.8037 17.3487C13.1969 16.9351 13.422 16.3586 13.422 15.7447V5.35877C14.2037 5.15129 14.7102 4.39614 14.6057 3.59405C14.5009 2.79213 13.8177 2.19225 13.0089 2.19209H10.8506V1.66516C10.8531 1.22204 10.6779 0.796544 10.3642 0.483514C10.0505 0.170649 9.62435 -0.00356726 9.18124 5.53875e-05H5.43806C4.99494 -0.00356726 4.56879 0.170649 4.2551 0.483514C3.94141 0.796544 3.76621 1.22204 3.76868 1.66516V2.19209H1.6104C0.801563 2.19225 0.118365 2.79213 0.0136372 3.59405C-0.0909255 4.39614 0.415586 5.15129 1.19725 5.35877ZM11.2975 17.1569H3.32177C2.60103 17.1569 2.04034 16.5378 2.04034 15.7447V5.39582H12.579V15.7447C12.579 16.5378 12.0183 17.1569 11.2975 17.1569ZM4.61176 1.66516C4.60896 1.44566 4.69525 1.23439 4.85102 1.07944C5.00663 0.924489 5.21839 0.839357 5.43806 0.843144H9.18124C9.4009 0.839357 9.61266 0.924489 9.76827 1.07944C9.92405 1.23423 10.0103 1.44566 10.0075 1.66516V2.19209H4.61176V1.66516ZM1.6104 3.03517H13.0089C13.428 3.03517 13.7677 3.37488 13.7677 3.79395C13.7677 4.21303 13.428 4.55273 13.0089 4.55273H1.6104C1.19133 4.55273 0.851621 4.21303 0.851621 3.79395C0.851621 3.37488 1.19133 3.03517 1.6104 3.03517Z" fill="#9996A3"/>
<path d="M7.31021 6.52148C7.07738 6.52148 6.88867 6.71019 6.88867 6.94303V14.9102C6.88867 15.1429 7.07738 15.3318 7.31021 15.3318C7.54305 15.3318 7.73176 15.1429 7.73176 14.9102V6.94303C7.73176 6.71019 7.54305 6.52148 7.31021 6.52148Z" fill="#9996A3"/>
</svg>
