<svg width="12" height="9" viewBox="0 0 12 9" fill="none" xmlns="http://www.w3.org/2000/svg">
<path d="M1.00001 0H11C11.5515 0 12 0.448477 12 1.00001V8.00002C12 8.55152 11.5515 9 11 9H0.999984C0.448476 9 0 8.55152 0 7.99999V1.00001C0 0.448477 0.448476 0 1.00001 0ZM11 0.499992H0.999984C0.96314 0.499992 0.93068 0.513422 0.89611 0.521016C1.76187 1.31337 4.63259 3.93959 5.63719 4.84472C5.7158 4.91552 5.8425 4.99999 5.99998 4.99999C6.15745 4.99999 6.28416 4.91552 6.36302 4.84448C7.36753 3.93949 10.2384 1.31313 11.104 0.521063C11.0694 0.513469 11.0369 0.499992 11 0.499992ZM11.5 7.99999V1.00001C11.5 0.951023 11.4852 0.906586 11.472 0.86182C10.8094 1.46829 8.80634 3.30073 7.50752 4.48181C8.80212 5.59385 10.8057 7.49341 11.4736 8.1303C11.4854 8.08779 11.5 8.04621 11.5 7.99999ZM1.00001 8.50001H11C11.0399 8.50001 11.0754 8.48609 11.1127 8.47718C10.4226 7.81924 8.40623 5.90876 7.1344 4.82072C6.9686 4.97112 6.81715 5.10825 6.69776 5.21583C6.4917 5.40187 6.2505 5.50001 6 5.50001C5.7495 5.50001 5.5083 5.40185 5.3025 5.21606C5.18306 5.10844 5.03149 4.97119 4.8656 4.82072C3.5937 5.90864 1.57765 7.81898 0.887274 8.47718C0.924563 8.48609 0.960023 8.50001 1.00001 8.50001ZM0.499992 7.99999C0.499992 8.04619 0.514618 8.08779 0.526383 8.1303C1.19454 7.49309 3.19788 5.59373 4.49245 4.48184C3.19359 3.30075 1.19084 1.46848 0.527977 0.861773C0.514758 0.906539 0.499992 0.951 0.499992 0.999984V7.99999V7.99999Z" fill="#686868"/>
</svg>
