<svg width="13" height="18" viewBox="0 0 13 18" fill="none" xmlns="http://www.w3.org/2000/svg">
<path d="M12.4094 0H0.447576C0.200536 0 4.87909e-07 0.199183 4.87909e-07 0.444947V17.1094C-0.000349158 17.4433 0.187248 17.7492 0.485865 17.9018C0.784657 18.0542 1.14412 18.0276 1.41668 17.8328L6.42848 14.2612L11.4405 17.8326C11.7132 18.0271 12.0723 18.0535 12.3709 17.9011C12.6694 17.7487 12.8571 17.443 12.8571 17.1094V0.444947C12.8571 0.199183 12.6566 0 12.4094 0ZM11.9618 17.1093L6.68951 13.3521C6.53356 13.241 6.32376 13.241 6.16798 13.3521L0.895502 17.1094V0.889894H11.9618V17.1093Z" fill="#9996A3"/>
</svg>
