<svg width="19" height="19" viewBox="0 0 19 19" fill="none" xmlns="http://www.w3.org/2000/svg">
<path d="M18.257 0H0.742189C0.332246 0 0 0.332246 0 0.742189C0 2.80901 0.885988 4.78219 2.43081 6.15539L5.68123 9.04442C6.24483 9.54539 6.56808 10.2653 6.56808 11.0195V18.257C6.56808 18.8484 7.2291 19.203 7.72181 18.8744L12.1006 15.9553C12.307 15.8176 12.4311 15.586 12.4311 15.3378V11.0195C12.4311 10.2653 12.7543 9.54539 13.3179 9.04442L16.5682 6.15539C18.113 4.78219 18.999 2.80901 18.999 0.742189C18.999 0.332246 18.6668 0 18.257 0ZM15.5821 5.04587L12.3318 7.93505C11.4516 8.71754 10.9467 9.84169 10.9467 11.0193V14.9406L8.05232 16.8702V11.0195C8.05232 9.84169 7.54743 8.71754 6.66724 7.93505L3.41697 5.04602C2.37529 4.11987 1.71037 2.85091 1.53236 1.48423H17.4667C17.2887 2.85091 16.6239 4.11988 15.5821 5.04587Z" fill="#686868"/>
</svg>
