<svg width="18" height="18" viewBox="0 0 18 18" fill="none" xmlns="http://www.w3.org/2000/svg">
<g clip-path="url(#clip0)">
<path d="M17.784 16.7511L13.5889 12.5559C13.303 12.2701 12.8401 12.2701 12.5542 12.5559C12.2684 12.8416 12.2684 13.305 12.5542 13.5906L16.7494 17.7857C16.8923 17.9286 17.0794 18.0001 17.2667 18.0001C17.4538 18.0001 17.6411 17.9286 17.784 17.7857C18.0699 17.5001 18.0699 17.0367 17.784 16.7511Z" fill="#9996A3"/>
<path d="M7.92682 0C3.55609 0 0 3.55609 0 7.92682C0 12.2978 3.55609 15.8536 7.92682 15.8536C12.2978 15.8536 15.8536 12.2978 15.8536 7.92682C15.8536 3.55609 12.2978 0 7.92682 0ZM7.92682 14.3903C4.36293 14.3903 1.46341 11.4907 1.46341 7.92685C1.46341 4.36296 4.36293 1.46341 7.92682 1.46341C11.4907 1.46341 14.3902 4.36293 14.3902 7.92682C14.3902 11.4907 11.4907 14.3903 7.92682 14.3903Z" fill="#9996A3"/>
</g>
<defs>
<clipPath id="clip0">
<rect width="18" height="18" fill="white"/>
</clipPath>
</defs>
</svg>
