<svg width="16" height="16" viewBox="0 0 16 16" fill="none" xmlns="http://www.w3.org/2000/svg">
<path d="M7.30096 14.7228H1.87347C1.67181 14.7228 1.48806 14.6294 1.36925 14.4664C1.25041 14.3033 1.21769 14.0996 1.27944 13.9075C1.89606 11.9905 3.77656 10.6516 5.85243 10.6516C6.81833 10.6516 7.74589 10.9424 8.53486 11.4927C8.81745 11.6898 9.20627 11.6205 9.40345 11.3379C9.60052 11.0553 9.53123 10.6665 9.24864 10.4693C8.85808 10.1969 8.44083 9.97473 8.00436 9.80507C8.58508 9.27707 8.97033 8.53773 9.03727 7.70983C9.9178 6.85208 11.072 6.38208 12.3093 6.38208C13.2752 6.38208 14.2027 6.67295 14.9917 7.2232C15.2743 7.4203 15.6631 7.35101 15.8603 7.06842C16.0573 6.78583 15.9881 6.39699 15.7055 6.19986C15.3149 5.92745 14.8977 5.70524 14.4612 5.53558C15.1018 4.95315 15.5045 4.11352 15.5045 3.18159C15.5045 1.42728 14.0773 0 12.3229 0C10.5685 0 9.1413 1.42728 9.1413 3.18165C9.1413 4.1098 9.5408 4.94643 10.1769 5.52858C10.0899 5.56208 10.0035 5.59771 9.91767 5.63546C9.5273 5.80724 9.16014 6.01811 8.81886 6.26617C8.34799 5.09696 7.2018 4.26952 5.86605 4.26952C4.11168 4.26952 2.68444 5.6968 2.68444 7.45117C2.68444 8.37661 3.08162 9.21104 3.71443 9.79298C2.02231 10.4271 0.650285 11.7889 0.0917241 13.5256C-0.0935255 14.1016 0.00459929 14.7123 0.360973 15.2013C0.717285 15.6902 1.26853 15.9706 1.8735 15.9706H7.30099C7.64555 15.9706 7.92483 15.6913 7.92483 15.3468C7.92483 15.0022 7.64549 14.7228 7.30096 14.7228ZM12.3229 1.24768C13.3893 1.24768 14.2569 2.11524 14.2569 3.18162C14.2569 4.24799 13.3893 5.11555 12.3229 5.11555C11.2566 5.11555 10.389 4.24799 10.389 3.18162C10.389 2.11524 11.2566 1.24768 12.3229 1.24768ZM5.86609 5.51717C6.93246 5.51717 7.80002 6.38474 7.80002 7.45111C7.80002 8.51748 6.93246 9.38504 5.86609 9.38504C4.79971 9.38504 3.93215 8.51748 3.93215 7.45111C3.93215 6.38474 4.79971 5.51717 5.86609 5.51717Z" fill="#9996A3"/>
<path d="M15.712 10.1901C15.4319 9.98957 15.0421 10.0541 14.8416 10.3343L11.7666 14.6295C11.6826 14.7268 11.5774 14.7479 11.521 14.7516C11.463 14.7556 11.3503 14.7481 11.2537 14.6561L9.26297 12.7446C9.0144 12.5059 8.61944 12.514 8.38091 12.7625C8.14225 13.011 8.15028 13.4059 8.39878 13.6446L10.3915 15.5579C10.6899 15.842 11.0883 16.0001 11.4982 16.0001C11.5334 16.0001 11.5687 15.9989 11.604 15.9966C12.0505 15.9668 12.4674 15.7497 12.7477 15.4009C12.755 15.3918 12.762 15.3826 12.7687 15.3732L15.8562 11.0605C16.0567 10.7804 15.9922 10.3907 15.712 10.1901Z" fill="#9996A3"/>
</svg>
