<svg width="18" height="16" viewBox="0 0 18 16" fill="none" xmlns="http://www.w3.org/2000/svg">
<path d="M16.7749 3.66234H16.1612V3.05474C16.1612 2.68188 15.8559 2.37964 15.4793 2.37964C15.1027 2.37964 14.7975 2.68188 14.7975 3.05474V3.66234H14.1838C13.8072 3.66234 13.502 3.96458 13.502 4.33744C13.502 4.71031 13.8072 5.01255 14.1838 5.01255H14.7975V5.62014C14.7975 5.99301 15.1027 6.29525 15.4793 6.29525C15.8559 6.29525 16.1612 5.99301 16.1612 5.62014V5.01255H16.7749C17.1515 5.01255 17.4567 4.71031 17.4567 4.33744C17.4567 3.96458 17.1515 3.66234 16.7749 3.66234Z" fill="#9996A3"/>
<path d="M10.7532 7.77151C11.7911 6.97759 12.4609 5.73367 12.4609 4.33755C12.4609 1.94582 10.4956 0 8.08 0C5.66435 0 3.69907 1.94582 3.69907 4.33755C3.69907 5.73364 4.36886 6.97759 5.40681 7.77151C2.3283 8.83689 0 11.7612 0 15.3249C0 15.6978 0.305267 16 0.681856 16H15.4781C15.8547 16 16.16 15.6978 16.16 15.3249C16.16 11.7604 13.83 8.83629 10.7532 7.77151ZM5.06278 4.33755C5.06278 2.69033 6.4163 1.35021 8.08 1.35021C9.74369 1.35021 11.0972 2.69033 11.0972 4.33755C11.0972 5.98478 9.74369 7.32489 8.08 7.32489C6.4163 7.32489 5.06278 5.98478 5.06278 4.33755ZM1.39808 14.6498C1.74081 11.2989 4.60672 8.67511 8.08 8.67511C11.5533 8.67511 14.4192 11.2989 14.7619 14.6498H1.39808Z" fill="#9996A3"/>
</svg>
