<svg width="26" height="16" viewBox="0 0 26 16" fill="none" xmlns="http://www.w3.org/2000/svg">
<path d="M25.4922 9.93356C25.7726 9.93356 26 9.70616 26 9.42575V8.53773C25.9999 7.18233 25.2192 6.0065 24.0843 5.43409C24.6748 4.9342 25.0506 4.18833 25.0506 3.35592V2.72299C25.0506 1.22154 23.8291 0 22.3276 0C20.8262 0 19.6046 1.22154 19.6046 2.72299V3.35592C19.6046 4.0795 19.8888 4.73753 20.3508 5.22569C19.458 5.42485 18.6138 5.8049 17.8597 6.35501L13.2614 9.70961C13.1663 9.77898 13.0792 9.85693 13 9.94158C12.9208 9.85693 12.8336 9.77898 12.7386 9.70961L8.14022 6.35501C7.38612 5.8049 6.54193 5.42485 5.64915 5.22569C6.11111 4.73753 6.39538 4.0795 6.39538 3.35592V2.72299C6.39538 1.22154 5.17384 0 3.67239 0C2.17095 0 0.949404 1.22154 0.949404 2.72299V3.35592C0.949404 4.18833 1.32524 4.9342 1.91567 5.43409C0.780709 6.0065 0 7.18234 0 8.53779V15.4866C0 15.767 0.227398 15.9944 0.507812 15.9944H6.83692C7.11733 15.9944 7.34473 15.767 7.34473 15.4866V10.8237L10.6673 12.8271C11.2537 13.1806 11.9596 13.1906 12.5557 12.854C12.7241 12.7589 12.8725 12.6414 13 12.5072C13.1274 12.6414 13.2758 12.7589 13.4442 12.854C13.7343 13.0178 14.0504 13.0996 14.366 13.0996C14.6991 13.0996 15.0316 13.0086 15.3326 12.8271L18.6552 10.8237V15.4866C18.6552 15.767 18.8826 15.9944 19.163 15.9944H25.4921C25.7726 15.9944 26 15.767 26 15.4866V13.6519C26 13.3715 25.7726 13.1441 25.4921 13.1441C25.2117 13.1441 24.9843 13.3715 24.9843 13.6519V14.9788H19.6708V10.2925C19.6708 10.2662 19.6682 10.2405 19.6644 10.2153L20.2164 9.88247C20.4566 9.73764 20.5339 9.42559 20.389 9.1854C20.2442 8.9452 19.932 8.86776 19.692 9.01274L14.8082 11.9573C14.5397 12.1192 14.2165 12.1238 13.9436 11.9696C13.6707 11.8155 13.5078 11.5364 13.5078 11.2229C13.5078 10.9499 13.6395 10.6909 13.86 10.53L18.4583 7.17543C19.4417 6.45799 20.6049 6.07881 21.8222 6.07881H22.5254C23.8813 6.07881 24.9844 7.18188 24.9844 8.53773V9.42575C24.9844 9.70616 25.2118 9.93356 25.4922 9.93356ZM1.96498 2.72299C1.96498 1.78156 2.73091 1.01562 3.67234 1.01562C4.61377 1.01562 5.3797 1.78156 5.3797 2.72299V3.35592C5.3797 4.29735 4.61377 5.06329 3.67234 5.06329C2.73091 5.06329 1.96498 4.29735 1.96498 3.35592V2.72299ZM12.0563 11.9696C11.7833 12.1237 11.4601 12.1191 11.1917 11.9573L6.30798 9.01274C6.06784 8.86781 5.75569 8.94525 5.61091 9.1854C5.46608 9.42554 5.54337 9.73764 5.78357 9.88247L6.33495 10.2149C6.33109 10.2402 6.32906 10.2661 6.32906 10.2925V14.9788H1.01562V8.53779C1.01562 7.18193 2.11874 6.07886 3.4746 6.07886H4.17777C5.39509 6.07886 6.55828 6.45804 7.54166 7.17548L12.14 10.5301C12.3605 10.691 12.4922 10.95 12.4922 11.2229C12.4922 11.5364 12.3292 11.8155 12.0563 11.9696ZM24.035 3.35592C24.035 4.29735 23.269 5.06329 22.3276 5.06329C21.3862 5.06329 20.6202 4.29735 20.6202 3.35592V2.72299C20.6202 1.78156 21.3862 1.01562 22.3276 1.01562C23.269 1.01562 24.035 1.78156 24.035 2.72299V3.35592Z" fill="#9996A3"/>
</svg>
