<svg width="18" height="23" viewBox="0 0 18 23" fill="none" xmlns="http://www.w3.org/2000/svg">
<path d="M8.61233 12.2092C10.0589 12.2092 11.2313 11.0364 11.2313 9.59008C11.2313 8.14356 10.0589 6.97092 8.61233 6.97092C7.16564 6.97092 5.99316 8.14356 5.99316 9.59008C5.99491 11.0358 7.16644 12.2073 8.61233 12.2092ZM8.61233 7.9892C9.49921 7.9892 10.2181 8.70811 10.2181 9.59515C10.2181 10.482 9.49921 11.2011 8.61233 11.2011C7.72529 11.2011 7.00638 10.482 7.00638 9.59515C7.00654 8.70827 7.72545 7.98952 8.61233 7.9892Z" fill="black"/>
<path d="M8.61231 13.1769C7.54068 13.1689 6.51226 13.5991 5.76517 14.3674C5.00526 15.1425 4.58984 16.1962 4.58984 17.3412C4.59064 17.6206 4.81687 17.847 5.09645 17.8478H12.128C12.4076 17.847 12.6338 17.6206 12.6346 17.3412C12.6346 16.1962 12.2192 15.1425 11.4593 14.3674C10.7124 13.5991 9.68379 13.1689 8.61231 13.1769ZM5.63852 16.8346C5.72512 16.1722 6.02386 15.5557 6.48962 15.0766C7.05022 14.5094 7.81472 14.1901 8.61231 14.1901C9.40974 14.1901 10.1742 14.5094 10.7348 15.0766C11.1997 15.5562 11.4981 16.1725 11.5859 16.8346H5.63852Z" fill="black"/>
<path d="M14.6916 0H2.53304C1.13433 0.00063326 0.000474955 1.13433 0 2.53304V20.467C0.000474955 21.8657 1.13433 22.9994 2.53304 23H14.6916C16.0903 22.9994 17.224 21.8657 17.2247 20.467V2.53304C17.224 1.13433 16.0903 0.00063326 14.6916 0ZM16.2115 20.467C16.2091 21.3052 15.5299 21.9844 14.6916 21.9868H2.53304C1.69476 21.9844 1.01559 21.3052 1.01322 20.467V2.53304C1.01559 1.69476 1.69476 1.01559 2.53304 1.01322H14.6916C15.5299 1.01559 16.2091 1.69476 16.2115 2.53304V20.467Z" fill="black"/>
<path d="M6.49977 3.39935H10.5526C10.8324 3.39935 11.0592 3.17249 11.0592 2.89275C11.0592 2.613 10.8324 2.38614 10.5526 2.38614H6.49977C6.21987 2.38614 5.99316 2.613 5.99316 2.89275C5.99316 3.17249 6.21987 3.39935 6.49977 3.39935Z" fill="black"/>
</svg>
