<svg width="19" height="16" viewBox="0 0 19 16" fill="none" xmlns="http://www.w3.org/2000/svg">
<path d="M16.9093 1.57174C16.0097 0.558179 14.7616 0 13.3951 0C11.4732 0 10.2564 1.1397 9.5741 2.09582C9.39708 2.34393 9.24649 2.5927 9.12006 2.8268C8.99362 2.5927 8.84307 2.34393 8.66601 2.09582C7.98372 1.1397 6.76694 0 4.84503 0C3.47852 0 2.23046 0.558215 1.33078 1.57178C0.47264 2.53865 0 3.83357 0 5.21798C0 6.72496 0.592554 8.1266 1.8648 9.62894C3.00185 10.9717 4.63766 12.3557 6.53188 13.9584C7.23773 14.5557 7.96765 15.1733 8.74475 15.8484L8.76808 15.8687C8.86883 15.9562 8.99444 16 9.12006 16C9.24567 16 9.37129 15.9562 9.47203 15.8687L9.49537 15.8484C10.2725 15.1733 11.0024 14.5557 11.7083 13.9584C13.6025 12.3558 15.2383 10.9717 16.3753 9.62894C17.6476 8.12656 18.2401 6.72496 18.2401 5.21798C18.2401 3.83357 17.7675 2.53865 16.9093 1.57174ZM11.0151 13.1507C10.4066 13.6656 9.78037 14.1954 9.12006 14.7654C8.45978 14.1955 7.83352 13.6656 7.22494 13.1507C3.51781 10.0141 1.06876 7.94192 1.06876 5.21798C1.06876 4.09207 1.44656 3.04632 2.1326 2.27339C2.82651 1.4917 3.78978 1.06118 4.84503 1.06118C6.31026 1.06118 7.25743 1.95745 7.79394 2.70933C8.2752 3.38367 8.52633 4.06346 8.61197 4.3244C8.68361 4.54283 8.88871 4.69065 9.12006 4.69065C9.35141 4.69065 9.5565 4.54283 9.62814 4.3244C9.71379 4.06346 9.96491 3.38367 10.4462 2.70929C10.9827 1.95745 11.9299 1.06118 13.3951 1.06118C14.4503 1.06118 15.4136 1.4917 16.1075 2.27339C16.7936 3.04632 17.1714 4.09207 17.1714 5.21798C17.1714 7.94192 14.7223 10.0141 11.0151 13.1507Z" fill="#9996A3"/>
</svg>
