<svg width="34" height="34" viewBox="0 0 34 34" fill="none" xmlns="http://www.w3.org/2000/svg">
<path d="M33.5172 9.77075L17.5144 0.142611C17.1985 -0.0474963 16.8033 -0.0474963 16.4874 0.142611L0.484633 9.77075C0.0132493 10.0544 -0.138943 10.6663 0.144724 11.1377C0.428258 11.6091 1.04021 11.7613 1.51166 11.4776L17.0009 2.15849L32.4902 11.4777C32.651 11.5744 32.828 11.6204 33.0028 11.6204C33.3407 11.6204 33.6703 11.4483 33.8571 11.1377C34.1407 10.6664 33.9885 10.0544 33.5172 9.77075Z" fill="#DD2626"/>
<path d="M16.6853 13.5085C16.6853 11.0082 14.651 8.97403 12.1507 8.97403C9.65042 8.97403 7.61621 11.0082 7.61621 13.5085C7.61621 16.0089 9.65042 18.0431 12.1507 18.0431C14.651 18.0431 16.6853 16.0089 16.6853 13.5085Z" fill="#DD2626"/>
<path d="M7.32597 17.899C5.56613 19.2622 4.40185 21.3582 4.29395 23.7252H15.0088V19.3751C14.1451 19.7976 13.1753 20.0351 12.1508 20.0351C10.2412 20.0351 8.52053 19.2106 7.32597 17.899Z" fill="#DD2626"/>
<path d="M27.9158 15.3387H18.7389C17.7801 15.3387 17 16.1188 17 17.0777V23.7252H29.6546V17.0777C29.6547 16.1188 28.8746 15.3387 27.9158 15.3387Z" fill="#DD2626"/>
<path d="M30.8788 25.7172H3.12297C2.57291 25.7172 2.12695 26.1631 2.12695 26.7132C2.12695 27.2633 2.57291 27.7092 3.12297 27.7092H3.98619V33.004C3.98619 33.2682 4.09111 33.5215 4.27796 33.7083C4.46475 33.8951 4.71814 34 4.98228 34L29.0196 33.998C29.5697 33.998 30.0156 33.5521 30.0156 33.002V27.7092H30.8788C31.4289 27.7092 31.8748 27.2633 31.8748 26.7132C31.8748 26.1631 31.4289 25.7172 30.8788 25.7172Z" fill="#DD2626"/>
</svg>
