<svg width="14" height="18" viewBox="0 0 14 18" fill="none" xmlns="http://www.w3.org/2000/svg">
<path d="M13.5565 3.6701L10.0408 0.154477C9.94194 0.055582 9.80782 0 9.66797 0H1.93359C0.86741 0 0 0.86741 0 1.93359V16.0664C0 17.1326 0.86741 18 1.93359 18H11.7773C12.8435 18 13.7109 17.1326 13.7109 16.0664V4.04297C13.7109 3.90312 13.6554 3.769 13.5565 3.6701ZM10.1953 1.80046L11.9105 3.51562H10.1953V1.80046ZM11.7773 16.9453H1.93359C1.44896 16.9453 1.05469 16.551 1.05469 16.0664V1.93359C1.05469 1.44896 1.44896 1.05469 1.93359 1.05469H9.14062V4.04297C9.14062 4.3342 9.37673 4.57031 9.66797 4.57031H12.6562V16.0664C12.6562 16.551 12.262 16.9453 11.7773 16.9453Z" fill="#9996A3"/>
<path d="M10.3711 7.10156C9.70471 7.10156 9.10561 6.7313 8.80763 6.13533L8.73341 5.98686C8.64408 5.80816 8.46148 5.69531 8.26172 5.69531H5.44922C5.24946 5.69531 5.06686 5.80816 4.97753 5.98683L4.90331 6.13526C4.60533 6.7313 4.00623 7.10156 3.33984 7.10156C3.04861 7.10156 2.8125 7.33767 2.8125 7.62891V10.6382C2.8125 11.8213 3.18582 12.9485 3.89208 13.8977C4.59833 14.8469 5.57068 15.5284 6.70395 15.8684C6.75338 15.8832 6.80442 15.8906 6.85547 15.8906C6.90652 15.8906 6.95756 15.8832 7.00699 15.8684C8.14025 15.5284 9.11261 14.8469 9.81886 13.8977C10.5251 12.9485 10.8984 11.8213 10.8984 10.6382V7.62891C10.8984 7.33767 10.6623 7.10156 10.3711 7.10156ZM9.84375 10.6382C9.84375 12.5456 8.64946 14.2025 6.85547 14.8098C5.06148 14.2025 3.86719 12.5456 3.86719 10.6382V8.1071C4.66527 7.95646 5.35911 7.46726 5.77002 6.74996H7.94092C8.35182 7.46722 9.04567 7.95646 9.84375 8.1071V10.6382Z" fill="#9996A3"/>
<path d="M7.97351 9.4257L6.35766 11.0415L5.73617 10.4201C5.53026 10.2141 5.19634 10.2141 4.9904 10.4201C4.78445 10.626 4.78445 10.9599 4.9904 11.1658L5.98476 12.1602C6.08773 12.2632 6.22269 12.3147 6.35762 12.3147C6.49255 12.3147 6.62755 12.2632 6.73049 12.1602L8.71921 10.1715C8.92516 9.96552 8.92516 9.63164 8.71921 9.4257C8.51333 9.21975 8.17942 9.21975 7.97351 9.4257Z" fill="#9996A3"/>
</svg>
