<svg width="13" height="18" viewBox="0 0 13 18" fill="none" xmlns="http://www.w3.org/2000/svg">
<path d="M6.49219 3C4.74752 3 3.32812 4.4194 3.32812 6.16406C3.32812 7.89758 4.72443 9.32812 6.49219 9.32812C8.28175 9.32812 9.65625 7.87853 9.65625 6.16406C9.65625 4.4194 8.23685 3 6.49219 3ZM6.49219 8.28047C5.323 8.28047 4.37578 7.33009 4.37578 6.16406C4.37578 5.00095 5.32908 4.04766 6.49219 4.04766C7.6553 4.04766 8.60508 5.00095 8.60508 6.16406C8.60508 7.31307 7.67991 8.28047 6.49219 8.28047Z" fill="#9996A3"/>
<path d="M6.32812 0C2.8388 0 0 2.8388 0 6.32812C0 7.50705 0.326566 8.65758 0.944613 9.65574L5.96791 17.7507C6.06414 17.9058 6.23366 18 6.41598 18C6.41739 18 6.41876 18 6.42016 18C6.60407 17.9986 6.77394 17.9014 6.86841 17.7436L11.7637 9.57023C12.3476 8.59317 12.6562 7.47207 12.6562 6.32812C12.6562 2.8388 9.81745 0 6.32812 0ZM10.8586 9.02876L6.408 16.4597L1.84103 9.10005C1.32659 8.26924 1.04766 7.31074 1.04766 6.32812C1.04766 3.42035 3.42035 1.04766 6.32812 1.04766C9.2359 1.04766 11.6051 3.42035 11.6051 6.32812C11.6051 7.2816 11.3445 8.21559 10.8586 9.02876Z" fill="#9996A3"/>
</svg>
