<svg width="321" height="275" viewBox="0 0 321 275" fill="none" xmlns="http://www.w3.org/2000/svg">
<g opacity="0.35">
<path opacity="0.35" d="M116.157 274.967C156.098 273.597 174.166 233.79 198.083 208.555C211.33 194.581 227.117 182.574 245.309 176.263C263.644 169.902 285.735 169.982 297.378 152.019C316.547 122.446 287.74 80.4903 258.647 70.3419C238.975 63.4771 221.247 68.5937 203.01 55.7085C193.033 48.6606 184.505 39.7799 175.006 32.0982C141.248 4.79696 78.2974 -2.97858 54.5682 42.5189C44.1817 62.4337 45.3419 87.0737 54.2226 107.702C57.8724 116.178 62.7441 124.15 65.5587 132.937C79.9473 177.893 31.3194 232.456 83.6634 265.91C93.7661 272.368 105.004 275.35 116.157 274.967Z" fill="#1654D3"/>
</g>
<path d="M311.751 184.368C310.152 175.124 306.193 166.538 299.17 160.392C289.905 152.285 276.329 148.01 271.096 135.965C265.99 124.212 269.475 111.661 268.526 99.4006C267.222 82.5681 259.181 68.6074 248.636 55.8641C225.172 27.5079 183.874 10.6114 148.809 15.4923C126.553 18.5906 106.876 25.5035 91.3366 42.0911C73.3486 61.2919 74.4126 95.5723 79.9685 118.672C84.8356 138.903 89.3733 157.243 81.0943 176.465C76.7878 186.462 70.2777 194.409 71.9733 206.011C76.0144 233.68 96.8124 251.895 121.793 255.112C150.877 258.86 186.24 245.403 215.47 253.401C252.307 263.476 290.701 252.737 308.5 217.434C313.44 207.631 313.772 196.048 311.751 184.368Z" stroke="#61A5E2" stroke-width="0.5" stroke-miterlimit="10" stroke-linecap="round" stroke-dasharray="3 2"/>
<path d="M306.018 194.812C304.851 185.723 301.35 177.179 294.76 170.884C286.064 162.58 272.998 157.834 268.404 145.857C263.923 134.175 267.857 122.073 267.449 110.068C266.891 93.5884 259.635 79.6277 249.889 66.7448C228.199 38.082 188.102 27.6407 153.679 30.9175C131.833 32.9952 108.465 41.7616 92.5987 57.2874C74.2331 75.2594 78.2078 98.0917 82.6493 120.864C86.5394 140.811 85.1298 159.632 76.2353 178.037C71.6107 187.609 65.5148 194.247 67.6406 205.498C72.5169 231.33 95.4659 244.865 119.703 249.067C147.924 253.959 178.498 243.341 206.678 252.385C242.192 263.78 282.415 268.812 300.803 228.39C305.247 218.637 307.494 206.29 306.018 194.812Z" fill="#F5F8FF"/>
<path d="M92.8438 239.637C93.9742 240.291 95.1297 240.911 96.3059 241.502H292.936C294.465 239.566 295.911 237.449 297.275 235.161H92.8438V239.637Z" fill="#D9EBFF"/>
<path d="M265.468 231.795H188.779C186.951 231.795 185.836 230.314 186.294 228.484L199.243 176.547C199.699 174.716 201.55 173.236 203.381 173.236H280.069C281.898 173.236 283.012 174.716 282.554 176.547L269.605 228.484C269.15 230.312 267.296 231.795 265.468 231.795Z" fill="#D9EBFF"/>
<path d="M262.708 235.159H179.583C176.77 235.159 175.059 232.877 175.761 230.065L175.889 229.548H269.198L269.07 230.065C268.367 232.877 265.521 235.159 262.708 235.159Z" fill="#C4DFF7"/>
<path d="M266.76 227.603H189.577L202.087 177.426H279.272L266.76 227.603Z" fill="#C4DFF7"/>
<path d="M293.774 235.159H283.078L280.33 212.761H296.522L293.774 235.159Z" fill="#D9EBFF"/>
<path d="M295.985 210.475H286.322L285.061 208.999H282.203L281.638 210.475H280.871L280.331 212.761H296.523L295.985 210.475Z" fill="#C4DFF7"/>
<path d="M90.8684 201.597C93.6578 195.913 96.2802 189.565 94.6349 183.172C93.2528 177.808 89.2277 173.815 85.3812 169.968C81.9145 166.502 75.7956 161.676 76.7087 156.09C77.1961 153.12 79.9168 151.2 80.4957 148.136C82.2531 138.83 74.2534 132.109 71.7271 123.922C69.5922 117.006 71.7752 109.572 75.1961 103.462C77.5805 99.2015 80.839 93.2886 85.6741 91.4534C91.6991 89.1675 95.4221 96.8056 97.1039 101.263C98.7789 105.714 99.5341 110.46 99.946 115.178C100.312 119.35 99.3121 125.118 101.491 128.809C103.129 131.587 106.6 132.798 108.483 135.418C109.689 137.093 110.133 139.209 110.22 141.273C110.369 144.813 109.2 148.131 108.156 151.456C105.342 160.424 110.094 168.893 109.861 177.822C109.776 181.025 108.941 184.158 108.108 187.251C106.758 192.286 105.406 197.318 104.053 202.354" fill="#D9EBFF"/>
<path d="M127.529 202.505C132.3 197.345 139.565 195.553 146.169 193.148C152.773 190.741 159.743 186.698 161.425 179.872C162.528 175.396 161.07 170.634 161.867 166.092C164.494 151.083 184.848 149.008 191.747 136.951C198.23 125.617 196.406 97.3572 180.658 93.7715C172.617 91.9386 165.521 99.7553 162.546 106.375C160.791 110.281 159.993 114.672 157.466 118.128C154.773 121.807 150.464 123.933 146.192 125.526C140.911 127.494 135.064 129.752 130.76 133.752C125.156 138.96 124.959 145.244 125.067 152.486C125.168 159.17 121.426 160.982 117.905 166.076C115.143 170.067 114.683 175.54 116.74 179.938C119.104 184.998 124.559 188.988 124.282 194.565C124.14 197.402 122.422 199.972 120.234 201.784C118.047 203.597 115.411 204.766 112.811 205.912" fill="#D9EBFF"/>
<path d="M93.1412 212.349C91.2145 208.489 90.5212 204.022 91.1916 199.761C91.5394 197.542 92.171 195.002 90.7569 193.254C90.0315 192.357 88.9011 191.888 88.0658 191.091C86.7913 189.872 86.3428 188.011 86.297 186.247C86.2513 184.483 86.5487 182.723 86.4892 180.957C86.4435 179.545 86.0545 177.97 84.8394 177.25C83.7342 176.595 82.3132 176.863 81.0912 176.462C79.5398 175.954 78.5192 174.426 78.0799 172.856C77.6405 171.284 77.6634 169.627 77.5055 168.005C76.9197 162.017 73.2631 154.93 67.8788 151.939C63.5952 149.559 58.3917 148.692 53.6801 150.038C48.9663 151.383 44.8772 155.065 43.4905 159.765C42.1038 164.465 43.7079 170.021 47.662 172.916C49.1906 174.032 50.964 174.723 52.7282 175.373C54.449 176.007 56.2659 176.222 57.8242 177.3C58.9203 178.057 59.799 179.25 59.8424 180.579C59.879 181.714 59.3207 182.776 59.0873 183.886C58.4374 186.975 60.4076 190.103 62.9774 191.933C65.5494 193.762 68.6568 194.624 71.5972 195.771C72.9519 196.297 74.3981 197.006 74.9678 198.343C75.3271 199.187 75.2699 200.141 75.3271 201.059C75.4301 202.704 75.9655 204.384 77.1394 205.542C78.7618 207.143 81.3246 207.514 82.9081 209.159C83.8051 210.088 84.2902 211.331 84.693 212.56C85.7501 215.784 86.3771 219.148 86.5533 222.537" fill="#D9EBFF"/>
<path d="M84.8785 102.092C83.6199 121.167 93.0796 138.145 97.2808 156.266C102.091 177.005 97.4708 196.736 87.3658 215.045C87.0317 215.649 87.8898 216.127 88.2765 215.576C98.6241 200.855 102.34 181.11 99.949 163.467C97.1001 142.466 84.2149 123.748 85.3979 102.094C85.4162 101.76 84.9013 101.762 84.8785 102.092Z" fill="#C8E2FC"/>
<path d="M112.065 204.546C119.316 199.224 126.289 193.528 131.808 186.35C138.112 178.156 140.723 169.6 142.288 159.52C143.167 153.873 144.261 148.266 147.631 143.505C150.903 138.88 155.578 135.448 159.908 131.892C166.541 126.446 173.907 119.338 173.203 110.02C173.157 109.403 172.319 109.416 172.255 110.02C171.036 121.729 162.162 127.816 153.917 134.866C146.974 140.809 142.892 147.12 141.316 156.2C139.579 166.193 138.16 175.012 132.192 183.545C126.641 191.483 119.211 198.043 111.763 204.15C111.545 204.331 111.836 204.716 112.065 204.546Z" fill="#C8E2FC"/>
<path d="M51.2361 160.204C61.2038 164.799 69.9495 171.868 76.1347 180.979C83.21 191.405 85.5738 202.876 86.4021 215.237C86.4456 215.885 87.3426 215.875 87.4044 215.237C89.6652 191.238 73.0707 168.609 51.6251 159.541C51.1789 159.353 50.7807 159.994 51.2361 160.204Z" fill="#C8E2FC"/>
<path d="M69.5329 187.581C74.4802 187.174 78.6814 188.897 82.4067 192.052C82.8323 192.412 83.4273 191.842 83.0268 191.432C79.5121 187.844 74.3635 186.522 69.4849 187.229C69.2881 187.261 69.3339 187.597 69.5329 187.581Z" fill="#C8E2FC"/>
<path d="M61.2215 177.108C66.5166 176.284 71.6926 177.005 76.0243 180.35C76.2554 180.529 76.5689 180.126 76.3378 179.943C72.0382 176.497 66.4617 174.904 61.146 176.831C60.9698 176.897 61.0408 177.135 61.2215 177.108Z" fill="#C8E2FC"/>
<path d="M87.5554 143.214C89.5759 144.292 91.3127 145.742 92.8733 147.411C94.4545 149.097 95.4568 151.035 96.7359 152.928C96.9922 153.307 97.6055 153.076 97.4865 152.61C96.324 147.992 91.8276 144.685 87.6241 143.049C87.5302 143.015 87.4662 143.166 87.5554 143.214Z" fill="#C8E2FC"/>
<path d="M88.441 164.344C94.6102 169.275 97.244 174.984 98.7382 182.581C98.8343 183.071 99.5643 182.934 99.5803 182.465C99.8206 175.163 94.8436 167.621 88.711 163.994C88.5005 163.868 88.2374 164.184 88.441 164.344Z" fill="#C8E2FC"/>
<path d="M91.1711 120.109C89.8645 124.409 89.1735 129.253 90.3725 133.658C90.4915 134.088 91.2329 134.022 91.1803 133.548C90.67 128.933 90.3336 124.771 91.4983 120.201C91.5532 119.986 91.2352 119.899 91.1711 120.109Z" fill="#C8E2FC"/>
<path d="M79.6566 118.695C82.1783 119.752 83.9311 121.695 85.494 123.876C86.6862 125.537 87.5145 127.516 88.8554 129.05C89.0751 129.301 89.4984 129.034 89.4092 128.727C88.1552 124.494 84.1622 119.514 79.7207 118.473C79.5674 118.437 79.5216 118.64 79.6566 118.695Z" fill="#C8E2FC"/>
<path d="M100.434 136.793C97.7683 141.781 96.3656 147.411 96.9834 153.076C97.02 153.41 97.5326 153.429 97.5188 153.076C97.2992 147.358 98.1298 142.106 100.727 136.965C100.825 136.77 100.537 136.599 100.434 136.793Z" fill="#C8E2FC"/>
<path d="M138.614 146.136C141.042 150.651 141.241 154.971 141.296 159.955C141.298 160.264 141.76 160.337 141.84 160.028C143.051 155.28 141.337 150.042 138.845 146.001C138.753 145.855 138.531 145.985 138.614 146.136Z" fill="#C8E2FC"/>
<path d="M159.498 147.143C152.145 149.205 145.02 153.369 141.104 160.156C140.844 160.607 141.489 161.152 141.848 160.731C146.795 154.902 152.205 150.054 159.665 147.747C160.047 147.628 159.887 147.033 159.498 147.143Z" fill="#C8E2FC"/>
<path d="M153.897 177.131C144.094 178.147 133.321 183.352 126.742 190.782C126.339 191.24 126.939 191.81 127.401 191.441C135.79 184.725 143.542 180.533 153.982 177.746C154.311 177.659 154.256 177.092 153.897 177.131Z" fill="#C8E2FC"/>
<path d="M180.658 130.022C170.972 129.306 159.416 130.363 151.941 137.244C151.634 137.525 152.032 138.038 152.385 137.818C161.471 132.214 170.206 131.114 180.658 130.272C180.821 130.262 180.821 130.036 180.658 130.022Z" fill="#C8E2FC"/>
<path d="M152.961 126.988C152.524 131.823 150.298 135.917 148.792 140.443C148.687 140.763 149.172 140.965 149.332 140.672C151.632 136.484 152.959 131.747 153.284 126.99C153.295 126.78 152.98 126.784 152.961 126.988Z" fill="#C8E2FC"/>
<path d="M65.0031 161.197C64.6141 163.788 64.8155 167.289 66.3967 169.486C66.5957 169.762 67.0259 169.602 66.9527 169.25C66.6873 167.994 66.1083 166.824 65.8589 165.552C65.582 164.138 65.4768 162.694 65.4425 161.255C65.4356 161.017 65.042 160.939 65.0031 161.197Z" fill="#C8E2FC"/>
<path d="M81.3768 180.176C80.7521 183.302 80.5873 186.757 81.9397 189.716C82.0312 189.917 82.3699 189.817 82.3562 189.602C82.1388 186.444 81.569 183.414 81.7475 180.224C81.7566 180.018 81.418 179.968 81.3768 180.176Z" fill="#C8E2FC"/>
<path d="M72.032 166.064C71.3753 170.321 71.7757 175.934 75.2722 178.966C75.5513 179.206 75.9404 178.908 75.7779 178.574C73.7322 174.353 71.7116 171.019 72.3478 166.108C72.3707 165.929 72.0595 165.886 72.032 166.064Z" fill="#C8E2FC"/>
<path opacity="0.45" d="M258.459 221.69H219.296L225.644 196.231H264.809L258.459 221.69Z" fill="#D9EBFF"/>
<path opacity="0.45" d="M261.944 201.022L262.58 198.471H226.602L225.966 201.022H261.944Z" fill="#D9EBFF"/>
<path opacity="0.45" d="M261.187 204.082L261.502 202.807H243.517L243.196 204.082H261.187Z" fill="#D9EBFF"/>
<path opacity="0.45" d="M260.601 206.519L260.919 205.244H242.929L242.613 206.519H260.601Z" fill="#D9EBFF"/>
<path opacity="0.45" d="M260.013 208.956L260.334 207.683H242.343L242.025 208.956H260.013Z" fill="#D9EBFF"/>
<path opacity="0.45" d="M259.431 211.395L259.749 210.118H241.758L241.44 211.395H259.431Z" fill="#D9EBFF"/>
<path opacity="0.45" d="M258.844 213.832L259.16 212.557H241.174L240.854 213.832H258.844Z" fill="#D9EBFF"/>
<path opacity="0.45" d="M258.259 216.271L258.577 214.994H240.586L240.271 216.271H258.259Z" fill="#D9EBFF"/>
<path opacity="0.45" d="M257.673 218.708L257.991 217.431H240.001L239.683 218.708H257.673Z" fill="#D9EBFF"/>
<path d="M243.822 211.429H204.658L211.006 185.968H250.169L243.822 211.429Z" fill="#D9EBFF"/>
<path opacity="0.45" d="M247.305 190.762L247.941 188.21H211.963L211.329 190.762H247.305Z" fill="#D9EBFF"/>
<path opacity="0.45" d="M246.547 193.821L246.865 192.544H228.877L228.559 193.821H246.547Z" fill="#D9EBFF"/>
<path opacity="0.45" d="M245.962 196.258L246.28 194.984H228.292L227.974 196.258H245.962Z" fill="#D9EBFF"/>
<path opacity="0.45" d="M245.376 198.697L245.694 197.421H227.706L227.388 198.697H245.376Z" fill="#D9EBFF"/>
<path opacity="0.45" d="M244.79 201.134L245.108 199.86H227.12L226.802 201.134H244.79Z" fill="#D9EBFF"/>
<path opacity="0.45" d="M244.204 203.571L244.522 202.297H226.534L226.216 203.571H244.204Z" fill="#D9EBFF"/>
<path opacity="0.45" d="M243.619 206.008L243.937 204.736H225.949L225.631 206.008H243.619Z" fill="#D9EBFF"/>
<path opacity="0.45" d="M243.033 208.448L243.351 207.171H225.363L225.045 208.448H243.033Z" fill="#D9EBFF"/>
<path d="M248.157 229.104C250.869 228.026 252.933 225.724 255.596 224.534C258.576 223.202 262.07 223.399 265.164 224.443C268.257 225.484 271.022 227.31 273.676 229.207C274.291 229.646 274.928 230.122 275.243 230.809C275.557 231.497 275.413 232.456 274.738 232.797C274.275 233.033 273.722 232.921 273.209 232.978C271.147 233.216 270.404 235.902 268.642 237.003C267.527 237.699 266.127 237.683 264.816 237.641C259.017 237.465 253.196 237.287 247.475 236.312C246.361 236.122 245.219 235.886 244.283 235.252" fill="#A5D3F9"/>
<path d="M127.641 141.273C127.641 141.273 126.509 152.932 125.861 153.282C125.214 153.632 122.102 154.143 122.102 154.143C122.102 154.143 131.401 161.419 136.65 160.753C141.902 160.088 152.611 156.639 152.611 156.639C152.611 156.639 148.751 154.458 147.918 154.156C147.085 153.854 146.057 140.674 146.057 140.674" fill="#A5D3F9"/>
<path d="M129.138 131.02C129.296 138.914 133.68 144.138 139.25 144.408C144.821 144.678 154.112 143.77 155.679 135.512C157.931 123.656 156.693 110.826 149.945 106.648C144.069 103.007 128.508 99.5974 129.138 131.02Z" fill="#A5D3F9"/>
<path d="M154.684 93.831C154.259 93.4328 153.561 93.5678 153.355 94.1124C152.938 95.2108 152.375 96.6341 151.025 97.4602C151.597 96.4167 152.124 94.4717 150.89 94.165C149.808 93.895 148.568 95.5883 147.099 95.6044C142.593 95.6478 135.243 94.6456 134.191 94.3847C123.829 91.8036 112.873 99.9292 110.484 111.201C109.196 117.277 110.203 123.954 113.203 129.235C115.095 132.567 117.807 135.551 118.356 139.457C118.498 140.463 118.523 141.598 119.157 142.326C119.605 142.846 120.264 143.031 120.889 143.182C126.504 144.553 132.305 144.9 138.001 144.209C138.994 144.088 140.042 143.907 140.804 143.182C141.776 142.255 142.033 140.685 142.138 139.242C142.41 135.445 143.959 134.649 142.989 130.995C138.863 130.974 136.886 124.086 137.319 121.306C137.751 118.521 141.227 116.801 142.95 118.862C144.124 120.267 144.147 122.752 145.63 123.704C147.012 122.597 147.062 120.283 146.689 118.4C146.316 116.515 145.655 114.574 146.092 112.716C147.064 108.595 152.138 108.302 154.996 105.551C157.991 102.664 157.671 96.6181 154.684 93.831Z" fill="#172182"/>
<path d="M248.213 227.893C245.544 229.385 227.934 219.34 205.372 215.177C199.386 204.059 184.709 163.598 179.967 160.84C172.453 156.47 151.627 153.561 140.483 152.719C130.804 151.989 103.535 154.017 98.5373 158.966C90.1851 167.241 97.7204 198.931 99.1506 217.431C97.3405 227.902 93.4345 228.731 92.2949 239.305C100.512 244.177 109.995 247.387 119.706 249.071C139.522 252.506 160.499 248.3 180.993 248.62C178.32 238.529 177.958 224.564 176.762 213.198C182.615 225.859 194.315 235.907 198.061 235.905C205.079 235.902 248.286 240.202 248.954 237.996C249.622 235.788 251.99 229.477 248.213 227.893Z" fill="#EA4977"/>
<path d="M148.65 214.351C137.087 196.473 115.022 181.348 94.0658 193.354C83.1508 199.606 77.9999 212.242 76.0137 224.834C85.9104 238.337 102.464 246.083 119.706 249.071C134.005 251.549 148.909 250.048 163.798 249.138C160.203 237.017 155.689 225.234 148.65 214.351Z" fill="#61A5E2"/>
<path d="M236.224 137.853C238.155 136.958 239.782 136.026 241.159 134.374C241.869 133.528 242.498 132.631 243.397 131.972C244.372 131.258 245.507 131.086 246.534 130.514C246.811 130.361 246.69 129.908 246.372 129.915C244.514 129.951 242.956 131.038 241.777 132.404C239.995 134.468 238.455 136.18 236.132 137.697C236.034 137.763 236.121 137.903 236.224 137.853Z" fill="#C8E2FC"/>
<path d="M242.1 127.317C244.663 127.377 247.224 127.539 249.775 127.786C252.496 128.05 255.58 128.139 257.448 130.45C257.699 130.764 258.246 130.347 258.011 130.018C254.979 125.764 246.489 126.807 242.103 127.246C242.055 127.249 242.052 127.315 242.1 127.317Z" fill="#C8E2FC"/>
<path d="M270.829 145.296C271.099 140.216 270.877 135.029 269.239 130.21C267.601 125.393 264.413 120.949 259.889 118.62C257.791 117.537 255.452 116.924 253.505 115.59C251.56 114.256 250.034 111.853 250.72 109.597C251.079 108.416 251.995 107.435 252.185 106.215C252.516 104.096 250.574 102.327 248.672 101.334C246.105 99.991 243.242 99.2221 240.817 97.6386C234.327 93.4054 233.663 85.1722 238.661 79.646C241.022 77.0328 243.949 74.843 247.317 73.8201C252.606 72.2138 258.58 73.7286 262.896 77.1816C267.212 80.6346 269.932 85.8358 270.99 91.2612C271.8 95.4213 271.687 99.7004 272.056 103.925C273.358 118.842 281.502 122.896 275.401 143.161" fill="#D9EBFF"/>
<path d="M278.564 146.07C277.123 137.823 267.931 123.317 259.16 121.848C255.869 121.297 252.368 122.636 249.515 123.691C246.748 124.711 243.643 123.608 240.867 123.18C235.767 122.395 230.38 123.638 226.136 126.581C224.172 127.944 222.358 129.828 222.001 132.189C221.557 135.118 223.511 137.956 225.957 139.621C228.985 141.681 232.879 142.422 236.449 141.61C240.044 140.795 243.119 138.553 246.449 136.972C249.778 135.39 253.89 134.519 257.034 136.441C259.444 137.914 260.791 140.743 263.231 142.164C265.867 143.701 269.237 143.292 272.027 144.523C275.942 146.248 277.784 150.667 279.246 154.685" fill="#D9EBFF"/>
<path d="M228.5 132.427C235.529 135.45 242.106 130.379 249.177 130.038C258.748 129.576 265.403 134.69 271.437 141.376C271.725 141.697 272.162 141.289 272 140.944C269.116 134.832 262.137 130.816 255.705 129.539C252.719 128.947 249.668 128.876 246.664 129.384C240.403 130.443 235.234 133.912 228.685 131.988C228.429 131.91 228.243 132.317 228.5 132.427Z" fill="#C8E2FC"/>
<path d="M250.831 88.6526C257.686 94.4259 261.528 103.135 265.256 111.11C269.864 120.97 270.722 130.477 270.903 141.223C270.91 141.715 271.608 141.697 271.654 141.223C272.656 130.821 271.098 120.867 266.679 111.4C262.796 103.078 258.4 94.1582 250.995 88.4398C250.874 88.3483 250.714 88.5542 250.831 88.6526Z" fill="#C8E2FC"/>
<path d="M257.188 110.981C261.377 113.16 265.949 114.325 268.567 118.549C268.926 119.128 269.789 118.617 269.478 118.016C267.121 113.46 261.878 112.082 257.332 110.641C257.13 110.574 256.998 110.883 257.188 110.981Z" fill="#C8E2FC"/>
<path d="M250.908 97.8308C253.006 99.0939 255.4 99.6111 257.537 100.771C260.111 102.167 261.45 104.835 263.448 106.858C263.754 107.169 264.313 106.762 264.066 106.382C262.752 104.361 261.022 101.879 258.967 100.57C256.549 99.0299 253.489 99.0321 250.954 97.753C250.901 97.7278 250.858 97.7988 250.908 97.8308Z" fill="#C8E2FC"/>
<path d="M118.154 75.6073C119.969 75.6073 121.44 74.1361 121.44 72.3213C121.44 70.5065 119.969 69.0354 118.154 69.0354C116.339 69.0354 114.868 70.5065 114.868 72.3213C114.868 74.1361 116.339 75.6073 118.154 75.6073Z" stroke="#1654D3" stroke-width="0.5" stroke-miterlimit="10" stroke-linecap="round" stroke-linejoin="round"/>
<path d="M288.427 194.048C290.241 194.048 291.712 192.576 291.712 190.762C291.712 188.947 290.241 187.476 288.427 187.476C286.612 187.476 285.141 188.947 285.141 190.762C285.141 192.576 286.612 194.048 288.427 194.048Z" stroke="#1654D3" stroke-width="0.5" stroke-miterlimit="10" stroke-linecap="round" stroke-linejoin="round"/>
<path d="M231.497 114.164V120.567" stroke="#1654D3" stroke-width="0.5" stroke-miterlimit="10" stroke-linecap="round" stroke-linejoin="round"/>
<path d="M234.698 117.366H228.296" stroke="#1654D3" stroke-width="0.5" stroke-miterlimit="10" stroke-linecap="round" stroke-linejoin="round"/>
<path d="M97.0776 149.811V156.214" stroke="#1654D3" stroke-width="0.5" stroke-miterlimit="10" stroke-linecap="round" stroke-linejoin="round"/>
<path d="M100.279 153.012H93.8765" stroke="#1654D3" stroke-width="0.5" stroke-miterlimit="10" stroke-linecap="round" stroke-linejoin="round"/>
<path d="M39.2456 132.205H34.0404V127H30.2052V132.205H25V136.04H30.2052V141.245H34.0404V136.04H39.2456V132.205Z" fill="#FFCB7C"/>
<path d="M53.2456 5.20517H48.0404V0H44.2052V5.20517H39V9.03977H44.2052V14.2449H48.0404V9.03977H53.2456V5.20517Z" fill="#FF5E6C"/>
<path d="M297 66.2886H293.711V63H291.289V66.2886H288V68.7114H291.289V72H293.711V68.7114H297V66.2886Z" fill="#8971D0"/>
<path d="M224.5 13.9994L218 7.4994L224.5 1L231 7.4994L224.5 13.9994ZM219.806 7.5L224.5 12.1946L229.194 7.5L224.5 2.80604L219.806 7.5Z" fill="#FFCB7C"/>
<path d="M6.5 73.9994L0 67.4994L6.5 61L13 67.4994L6.5 73.9994ZM1.80604 67.5L6.50062 72.1946L11.1946 67.5L6.50062 62.806L1.80604 67.5Z" fill="#8873D5"/>
<path d="M316.5 183L312 178.5L316.5 174L321 178.5L316.5 183ZM313.25 178.5L316.5 181.75L319.75 178.5L316.5 175.25L313.25 178.5Z" fill="#FF5E6C"/>
<path d="M142.217 2.0118L140.206 0L138.194 2.01124L140.205 4.02304L142.217 2.0118Z" fill="#242C36"/>
<path d="M142.216 7.98876L140.205 5.97696L138.193 7.9882L140.205 10L142.216 7.98876Z" fill="#242C36"/>
<path d="M145.43 5.20733L143.418 3.19532L141.406 5.20732L143.418 7.21933L145.43 5.20733Z" fill="#242C36"/>
<path d="M139.024 5.20729L137.012 3.19529L135 5.20729L137.012 7.21929L139.024 5.20729Z" fill="#242C36"/>
</svg>
