<svg width="53" height="53" viewBox="0 0 53 53" fill="none" xmlns="http://www.w3.org/2000/svg">
<path d="M26.123 25.5303C29.6304 25.5303 32.6671 24.2723 35.1491 21.7904C37.6302 19.3089 38.8886 16.2725 38.8886 12.7647C38.8886 9.25816 37.6306 6.22144 35.1487 3.73909C32.6667 1.25795 29.63 0 26.123 0C22.6152 0 19.5789 1.25795 17.0973 3.73949C14.6158 6.22103 13.3574 9.25776 13.3574 12.7647C13.3574 16.2725 14.6158 19.3093 17.0973 21.7908C19.5797 24.2719 22.6164 25.5303 26.123 25.5303ZM19.2938 5.93556C21.1979 4.03144 23.4316 3.10587 26.123 3.10587C28.814 3.10587 31.0481 4.03144 32.9526 5.93556C34.8567 7.84008 35.7827 10.0742 35.7827 12.7647C35.7827 15.4561 34.8567 17.6898 32.9526 19.5943C31.0481 21.4989 28.814 22.4244 26.123 22.4244C23.4324 22.4244 21.1987 21.4985 19.2938 19.5943C17.3893 17.6902 16.4633 15.4561 16.4633 12.7647C16.4633 10.0742 17.3893 7.84008 19.2938 5.93556Z" fill="#3F3F3F"/>
<path d="M48.4587 40.7543C48.3871 39.7216 48.2423 38.5951 48.0292 37.4055C47.8141 36.2069 47.5371 35.0739 47.2056 34.0384C46.8627 32.968 46.3972 31.9111 45.821 30.8981C45.2238 29.8468 44.5218 28.9313 43.7341 28.178C42.9105 27.3899 41.902 26.7563 40.7358 26.2941C39.5737 25.8344 38.2858 25.6015 36.9082 25.6015C36.3671 25.6015 35.8439 25.8235 34.8334 26.4813C34.2115 26.8869 33.4841 27.356 32.6721 27.8748C31.9778 28.3171 31.0373 28.7316 29.8756 29.1068C28.7422 29.4736 27.5914 29.6596 26.4551 29.6596C25.3197 29.6596 24.1689 29.4736 23.0347 29.1068C21.8741 28.732 20.9332 28.3175 20.2401 27.8752C19.4359 27.3612 18.708 26.8922 18.0768 26.4809C17.0671 25.8231 16.5439 25.6011 16.0029 25.6011C14.6248 25.6011 13.3373 25.8344 12.1756 26.2945C11.0103 26.7559 10.0014 27.3895 9.1769 28.1784C8.38921 28.9322 7.68725 29.8472 7.09042 30.8981C6.51501 31.9111 6.04919 32.9676 5.7063 34.0388C5.37513 35.0743 5.09814 36.2069 4.88303 37.4055C4.66953 38.5935 4.52517 39.7204 4.4536 40.7556C4.38324 41.7677 4.34766 42.821 4.34766 43.8853C4.34766 46.6519 5.22713 48.8916 6.96143 50.5434C8.67429 52.1734 10.9403 52.9999 13.6968 52.9999H39.2167C41.9724 52.9999 44.2384 52.1734 45.9516 50.5434C47.6863 48.8928 48.5658 46.6523 48.5658 43.8849C48.5654 42.817 48.5294 41.7636 48.4587 40.7543ZM43.8102 48.2932C42.6784 49.3704 41.1758 49.894 39.2162 49.894H13.6968C11.7369 49.894 10.2343 49.3704 9.10291 48.2936C7.99294 47.237 7.45353 45.7947 7.45353 43.8853C7.45353 42.8922 7.48628 41.9116 7.55179 40.9703C7.61568 40.0467 7.74628 39.0322 7.93997 37.9542C8.13123 36.8895 8.37466 35.8903 8.66418 34.9858C8.94197 34.1184 9.32085 33.2596 9.79072 32.4323C10.2392 31.6438 10.7551 30.9673 11.3244 30.4222C11.857 29.9123 12.5282 29.495 13.3191 29.182C14.0506 28.8925 14.8727 28.734 15.7651 28.7102C15.8739 28.768 16.0676 28.8784 16.3813 29.083C17.0198 29.4991 17.7558 29.9738 18.5693 30.4934C19.4864 31.0781 20.6679 31.6062 22.0796 32.0619C23.5227 32.5285 24.9946 32.7655 26.4555 32.7655C27.9165 32.7655 29.3887 32.5285 30.8311 32.0623C32.2439 31.6058 33.425 31.0781 34.3433 30.4926C35.1759 29.9604 35.8912 29.4995 36.5297 29.083C36.8435 28.8788 37.0372 28.768 37.1459 28.7102C38.0388 28.734 38.8608 28.8925 39.5927 29.182C40.3832 29.495 41.0545 29.9127 41.587 30.4222C42.1563 30.9669 42.6723 31.6434 43.1207 32.4327C43.591 33.2596 43.9703 34.1188 44.2477 34.9854C44.5376 35.8911 44.7814 36.8899 44.9723 37.9538C45.1656 39.0338 45.2966 40.0487 45.3605 40.9707V40.9715C45.4264 41.9092 45.4595 42.8893 45.4599 43.8853C45.4595 45.7951 44.9201 47.237 43.8102 48.2932Z" fill="#3F3F3F"/>
</svg>
