<svg width="34" height="34" viewBox="0 0 34 34" fill="none" xmlns="http://www.w3.org/2000/svg">
<path d="M4.47015 23.6928C5.14099 23.2829 5.61214 22.6364 5.79675 21.8722C6.15163 20.4029 5.31491 18.9006 3.91207 18.4067L2.48633 24.0893C3.17363 24.1967 3.86971 24.0595 4.47015 23.6928Z" fill="#DD2626"/>
<path d="M15.4106 22.0738C17.3346 22.0738 18.8944 20.514 18.8944 18.5899C18.8944 16.6659 17.3346 15.1061 15.4106 15.1061C13.4865 15.1061 11.9268 16.6659 11.9268 18.5899C11.9268 20.514 13.4865 22.0738 15.4106 22.0738Z" fill="#DD2626"/>
<path d="M8.39776 28.8495C9.16302 27.5697 10.3799 26.6602 11.8241 26.2886C14.5017 25.5997 17.2337 26.966 18.3445 29.3976L26.7644 27.2851C26.8706 26.5272 27.1066 25.7885 27.3369 25.0681C27.6775 24.0031 27.9993 22.9971 27.7908 22.2194C27.569 21.3922 26.7662 20.6685 25.9164 19.9024C25.1799 19.2384 24.4184 18.5518 23.9202 17.6921C23.4126 16.8162 23.1921 15.8018 22.9789 14.8208C22.7384 13.7138 22.5111 12.6681 21.9216 12.0785C21.332 11.489 20.2863 11.2617 19.1792 11.0211C18.1982 10.808 17.1839 10.5875 16.3079 10.0799C15.4483 9.5817 14.7617 8.82015 14.0978 8.08364C13.3316 7.23384 12.6079 6.43105 11.7808 6.20932C11.003 6.00074 9.99709 6.32254 8.932 6.66314C8.21162 6.8935 7.47298 7.12945 6.71515 7.23563L4.39936 16.4656C5.56233 16.825 6.54083 17.5908 7.17136 18.6416C7.8422 19.7596 8.04308 21.0733 7.73688 22.3409C7.42716 23.6233 6.63659 24.7082 5.5108 25.396C4.72548 25.8758 3.84261 26.1221 2.94512 26.1221C2.63056 26.1221 2.3142 26.0913 1.99956 26.0302L0 34.0002L7.61124 32.0906C7.53826 30.9626 7.80581 29.8394 8.39776 28.8495ZM21.0633 24.1134H23.1738V26.1091H21.0633V24.1134ZM15.4098 13.1109C18.4312 13.1109 20.8893 15.569 20.8893 18.5904C20.8893 21.6118 18.4312 24.0699 15.4098 24.0699C12.3884 24.0699 9.93028 21.6118 9.93028 18.5904C9.93028 15.569 12.3884 13.1109 15.4098 13.1109ZM8.24728 10.5126H10.3577V12.5083H8.24728V10.5126ZM5.8004 30.2087H3.68994V28.213H5.8004V30.2087Z" fill="#DD2626"/>
<path d="M28.9131 26.7457L33.9997 25.4695C33.4012 18.9366 30.5297 12.8101 25.8597 8.14003C21.1896 3.46994 15.0631 0.598455 8.5301 0L7.25391 5.08653C7.59982 4.99376 7.95742 4.87941 8.32365 4.76227C9.27479 4.45806 10.2499 4.14622 11.234 4.14622C11.5875 4.14622 11.942 4.18646 12.2972 4.28169C13.6945 4.65635 14.696 5.76727 15.5796 6.74736C16.166 7.39788 16.72 8.01233 17.3081 8.35313C17.9132 8.70376 18.7338 8.88213 19.6025 9.07092C20.9425 9.36211 22.3282 9.6632 23.3322 10.6673C24.3363 11.6713 24.6374 13.057 24.9286 14.397C25.1174 15.2658 25.2957 16.0864 25.6464 16.6915C25.9873 17.2796 26.6017 17.8336 27.2523 18.42C28.2323 19.3036 29.3432 20.3051 29.7179 21.7024C30.0783 23.0464 29.6508 24.3832 29.2373 25.676C29.1203 26.0422 29.0059 26.3998 28.9131 26.7457Z" fill="#DD2626"/>
<path d="M12.3217 28.2214C10.7426 28.6277 9.66706 30.0338 9.60059 31.5915L16.3559 29.8966C15.5552 28.5377 13.9236 27.8091 12.3217 28.2214Z" fill="#DD2626"/>
</svg>
