<svg width="14" height="18" viewBox="0 0 14 18" fill="none" xmlns="http://www.w3.org/2000/svg">
<path d="M2.78142 0L0 2.78146V18H13.8913V0H2.78142ZM3.06879 1.20421V3.06879H1.20421L3.06879 1.20421ZM12.8366 16.9453H1.05469V4.12348H4.12348V1.05469H12.8366V16.9453H12.8366Z" fill="#9996A3"/>
<path d="M3.61324 6.66127V7.69229L3.09771 8.58523L3.61324 9.47812V10.5092L4.20327 10.8498L3.04297 15.255L4.70712 15.148L6.10269 16.0609L6.94566 12.8605L7.7886 16.0609L9.18417 15.148L10.8483 15.255L9.68803 10.8498L10.2781 10.5092V9.47816L10.7936 8.58526L10.2781 7.69233V6.6613L9.38516 6.1458L8.86963 5.25287H7.83856L6.94566 4.7373L6.05277 5.2528H5.0217L4.50617 6.14573L3.61324 6.66127ZM4.99034 14.0729L4.43561 14.1086L5.01552 11.9069L5.0217 11.9177H6.05277L6.09668 11.943L5.45553 14.3773L4.99034 14.0729ZM8.90098 14.0729L8.4358 14.3773L7.79465 11.943L7.83856 11.9176H8.86963L8.87581 11.9069L9.45571 14.1086L8.90098 14.0729ZM4.66793 7.27017L5.27824 6.91784L5.63057 6.30752H6.33528L6.94566 5.95515L7.55598 6.30749H8.26068L8.61302 6.9178L9.22333 7.27014V7.97488L9.5757 8.58519L9.22333 9.19547V9.90021L8.61302 10.2525L8.26065 10.8629H7.55598L6.94566 11.2153L6.33535 10.863H5.63064L5.27827 10.2527L4.66796 9.90032V9.19557L4.31559 8.5853L4.66796 7.97498V7.27017H4.66793Z" fill="#9996A3"/>
<path d="M6.41992 8.05786H7.47461V9.11255H6.41992V8.05786Z" fill="#9996A3"/>
</svg>
