<svg width="18" height="18" viewBox="0 0 18 18" fill="none" xmlns="http://www.w3.org/2000/svg">
<path d="M14.1953 5.20298C14.1953 2.33404 11.8624 0 8.99506 0C6.12762 0 3.79482 2.33404 3.79482 5.20298C3.79482 6.97999 4.69006 8.55159 6.05264 9.49059C4.78043 9.92986 3.61423 10.6555 2.63452 11.6357C0.935623 13.3355 0 15.5956 0 17.9995H1.40543C1.40543 13.8124 4.81009 10.406 8.99506 10.406C11.8624 10.406 14.1953 8.07192 14.1953 5.20298ZM8.99506 8.99979C6.90257 8.99979 5.20024 7.29657 5.20024 5.20298C5.20024 3.10939 6.90257 1.40617 8.99506 1.40617C11.0874 1.40617 12.7897 3.10939 12.7897 5.20298C12.7897 7.29657 11.0874 8.99979 8.99506 8.99979ZM18 12.9372L14.6922 16.2468L13.6983 15.2524L15.3447 13.6051H14.1258C12.4419 13.6051 11.0706 14.9759 11.0693 16.6607L11.068 18L9.66261 17.9989L9.66371 16.6595C9.66577 14.1999 11.6675 12.1988 14.1258 12.1988H15.2744L13.6983 10.6218L14.6922 9.62758L18 12.9372Z" fill="#9996A3"/>
</svg>
