<svg width="28" height="22" viewBox="0 0 28 22" fill="none" xmlns="http://www.w3.org/2000/svg">
<path d="M27.9904 10.4997L15.2298 0V6.28947H13.7475C10.0755 6.28947 6.62317 7.36251 4.02658 9.31094C1.42999 11.2594 0 13.85 0 16.6055V21.0107L2.44897 18.9971C5.72488 16.304 10.375 14.746 15.2298 14.7106V20.9996L27.9904 10.4997ZM1.64084 17.8454V16.6055C1.64084 14.1789 2.90015 11.8974 5.18677 10.1815C7.47339 8.46569 10.5137 7.52073 13.7475 7.52073H16.8705V3.17728L25.77 10.4997L16.8705 17.8223V13.4789H15.3984C10.2193 13.4789 5.23889 15.065 1.64084 17.8454Z" fill="white"/>
</svg>
