<svg width="14" height="20" viewBox="0 0 14 20" fill="none" xmlns="http://www.w3.org/2000/svg">
<path d="M10.0807 9.67659L8.75302 9.34325C8.72653 9.33659 8.69933 9.33323 8.67202 9.33325H7.99935C7.91094 9.33325 7.82616 9.36837 7.76365 9.43088C7.70113 9.4934 7.66602 9.57818 7.66602 9.66659C7.66602 9.8434 7.59578 10.013 7.47075 10.138C7.34573 10.263 7.17616 10.3333 6.99935 10.3333C6.82254 10.3333 6.65297 10.263 6.52794 10.138C6.40292 10.013 6.33268 9.8434 6.33268 9.66659C6.33268 9.57818 6.29756 9.4934 6.23505 9.43088C6.17254 9.36837 6.08775 9.33325 5.99935 9.33325H5.32435C5.29693 9.33325 5.26962 9.33661 5.24302 9.34325L3.91802 9.67659C3.846 9.69471 3.78209 9.73636 3.73644 9.79493C3.69078 9.85351 3.666 9.92565 3.66602 9.99992V11.3333C3.66602 11.3839 3.67757 11.4339 3.69979 11.4795C3.72202 11.525 3.75433 11.5649 3.79428 11.596C3.83422 11.6272 3.88075 11.6489 3.93032 11.6594C3.97989 11.6698 4.0312 11.6689 4.08035 11.6566L4.99935 11.4269V14.3333C4.99935 14.4217 5.03447 14.5064 5.09698 14.569C5.15949 14.6315 5.24428 14.6666 5.33268 14.6666H8.66602C8.75442 14.6666 8.83921 14.6315 8.90172 14.569C8.96423 14.5064 8.99935 14.4217 8.99935 14.3333V11.4269L9.91835 11.6566C9.9675 11.6689 10.0188 11.6698 10.0684 11.6594C10.1179 11.6489 10.1645 11.6272 10.2044 11.596C10.2444 11.5649 10.2767 11.525 10.2989 11.4795C10.3211 11.4339 10.3327 11.3839 10.3327 11.3333V9.99992C10.3327 9.92565 10.3079 9.85351 10.2623 9.79493C10.2166 9.73636 10.1527 9.69471 10.0807 9.67659ZM9.66602 10.9063L8.74702 10.6766C8.69787 10.6643 8.64656 10.6633 8.59699 10.6738C8.54742 10.6843 8.50089 10.706 8.46094 10.7371C8.421 10.7683 8.38869 10.8082 8.36646 10.8537C8.34424 10.8992 8.33268 10.9493 8.33268 10.9999V13.9999H5.66602V10.9999C5.66601 10.9493 5.65446 10.8992 5.63224 10.8537C5.61001 10.8082 5.5777 10.7683 5.53775 10.7371C5.49781 10.706 5.45128 10.6843 5.40171 10.6738C5.35214 10.6633 5.30083 10.6643 5.25168 10.6766L4.33268 10.9063V10.2599L5.36602 9.99992H5.70835C5.78201 10.2864 5.94887 10.5403 6.18265 10.7216C6.41643 10.9029 6.70385 11.0012 6.99968 11.0012C7.29551 11.0012 7.58294 10.9029 7.81671 10.7216C8.05049 10.5403 8.21735 10.2864 8.29102 9.99992H8.63102L9.66602 10.2599V10.9063Z" fill="#9996A3"/>
<path d="M5.66732 1.66667H6.33398C6.42239 1.66667 6.50717 1.63155 6.56969 1.56904C6.6322 1.50652 6.66732 1.42174 6.66732 1.33333C6.66732 1.24493 6.6322 1.16014 6.56969 1.09763C6.50717 1.03512 6.42239 1 6.33398 1H5.66732C5.57891 1 5.49413 1.03512 5.43162 1.09763C5.3691 1.16014 5.33398 1.24493 5.33398 1.33333C5.33398 1.42174 5.3691 1.50652 5.43162 1.56904C5.49413 1.63155 5.57891 1.66667 5.66732 1.66667Z" fill="#9996A3"/>
<path d="M7.66732 1.66667H8.33398C8.42239 1.66667 8.50717 1.63155 8.56969 1.56904C8.6322 1.50652 8.66732 1.42174 8.66732 1.33333C8.66732 1.24493 8.6322 1.16014 8.56969 1.09763C8.50717 1.03512 8.42239 1 8.33398 1H7.66732C7.57891 1 7.49413 1.03512 7.43162 1.09763C7.3691 1.16014 7.33398 1.24493 7.33398 1.33333C7.33398 1.42174 7.3691 1.50652 7.43162 1.56904C7.49413 1.63155 7.57891 1.66667 7.66732 1.66667Z" fill="#9996A3"/>
<path d="M7.66797 18H6.0013C5.9129 18 5.82811 18.0351 5.7656 18.0976C5.70309 18.1601 5.66797 18.2449 5.66797 18.3333C5.66797 18.4217 5.70309 18.5065 5.7656 18.569C5.82811 18.6315 5.9129 18.6667 6.0013 18.6667H7.66797C7.75637 18.6667 7.84116 18.6315 7.90367 18.569C7.96618 18.5065 8.0013 18.4217 8.0013 18.3333C8.0013 18.2449 7.96618 18.1601 7.90367 18.0976C7.84116 18.0351 7.75637 18 7.66797 18Z" fill="#9996A3"/>
<path d="M13.9633 4.18333L13 2.25333V1.66667C13 1.22464 12.8244 0.800716 12.5118 0.488155C12.1993 0.175595 11.7754 0 11.3333 0H2.66667C2.22464 0 1.80072 0.175595 1.48816 0.488155C1.17559 0.800716 1 1.22464 1 1.66667V2.25333L0.0366665 4.18333C0.0128719 4.22977 0.000312861 4.28115 0 4.33333V5.66667C0.000758523 5.99068 0.0956849 6.30749 0.273227 6.57854C0.450769 6.84959 0.70327 7.06318 1 7.19333V18.3333C1 18.7754 1.17559 19.1993 1.48816 19.5118C1.80072 19.8244 2.22464 20 2.66667 20H11.3333C11.7754 20 12.1993 19.8244 12.5118 19.5118C12.8244 19.1993 13 18.7754 13 18.3333V7.19333C13.2967 7.06318 13.5492 6.84959 13.7268 6.57854C13.9043 6.30749 13.9992 5.99068 14 5.66667V4.33333C13.9997 4.28115 13.9871 4.22977 13.9633 4.18333ZM1.66667 1.66667C1.66746 1.40169 1.77307 1.1478 1.96043 0.960434C2.1478 0.773069 2.40169 0.667458 2.66667 0.666667H11.3333C11.5983 0.667458 11.8522 0.773069 12.0396 0.960434C12.2269 1.1478 12.3325 1.40169 12.3333 1.66667V2H1.66667V1.66667ZM1.54 2.66667H12.46L13.1267 4H0.873333L1.54 2.66667ZM10.6667 4.66667V5.66667C10.6667 5.93188 10.5613 6.18624 10.3738 6.37377C10.1862 6.56131 9.93188 6.66667 9.66667 6.66667C9.40145 6.66667 9.1471 6.56131 8.95956 6.37377C8.77202 6.18624 8.66667 5.93188 8.66667 5.66667V4.66667H10.6667ZM8 4.66667V5.66667C8 5.93188 7.89464 6.18624 7.70711 6.37377C7.51957 6.56131 7.26522 6.66667 7 6.66667C6.73478 6.66667 6.48043 6.56131 6.29289 6.37377C6.10536 6.18624 6 5.93188 6 5.66667V4.66667H8ZM5.33333 4.66667V5.66667C5.33333 5.93188 5.22798 6.18624 5.04044 6.37377C4.8529 6.56131 4.59855 6.66667 4.33333 6.66667C4.06812 6.66667 3.81376 6.56131 3.62623 6.37377C3.43869 6.18624 3.33333 5.93188 3.33333 5.66667V4.66667H5.33333ZM0.666667 5.66667V4.66667H2.66667V5.66667C2.66667 5.93188 2.56131 6.18624 2.37377 6.37377C2.18624 6.56131 1.93188 6.66667 1.66667 6.66667C1.40145 6.66667 1.1471 6.56131 0.95956 6.37377C0.772023 6.18624 0.666667 5.93188 0.666667 5.66667ZM12.3333 18.3333C12.3325 18.5983 12.2269 18.8522 12.0396 19.0396C11.8522 19.2269 11.5983 19.3325 11.3333 19.3333H2.66667C2.40169 19.3325 2.1478 19.2269 1.96043 19.0396C1.77307 18.8522 1.66746 18.5983 1.66667 18.3333V17.3467L12.3333 17.3333V18.3333ZM12.3333 16.6667L1.66667 16.68V7.33333C1.92628 7.33233 2.18207 7.27062 2.41358 7.15312C2.64509 7.03563 2.84591 6.86562 3 6.65667C3.15339 6.86635 3.35406 7.0369 3.58573 7.15447C3.8174 7.27204 4.07354 7.33331 4.33333 7.33331C4.59313 7.33331 4.84926 7.27204 5.08093 7.15447C5.3126 7.0369 5.51328 6.86635 5.66667 6.65667C5.82005 6.86635 6.02073 7.0369 6.2524 7.15447C6.48407 7.27204 6.7402 7.33331 7 7.33331C7.2598 7.33331 7.51593 7.27204 7.7476 7.15447C7.97927 7.0369 8.17995 6.86635 8.33333 6.65667C8.48672 6.86635 8.6874 7.0369 8.91907 7.15447C9.15074 7.27204 9.40687 7.33331 9.66667 7.33331C9.92646 7.33331 10.1826 7.27204 10.4143 7.15447C10.6459 7.0369 10.8466 6.86635 11 6.65667C11.1541 6.86562 11.3549 7.03563 11.5864 7.15312C11.8179 7.27062 12.0737 7.33233 12.3333 7.33333V16.6667ZM13.3333 5.66667C13.3333 5.93188 13.228 6.18624 13.0404 6.37377C12.8529 6.56131 12.5985 6.66667 12.3333 6.66667C12.0681 6.66667 11.8138 6.56131 11.6262 6.37377C11.4387 6.18624 11.3333 5.93188 11.3333 5.66667V4.66667H13.3333V5.66667Z" fill="#9996A3"/>
</svg>
