<svg width="242" height="207" viewBox="0 0 242 207" fill="none" xmlns="http://www.w3.org/2000/svg">
<path d="M214.873 16.9728H210.9V13H207.973V16.9728H204V19.8995H207.973V23.8723H210.9V19.8995H214.873V16.9728Z" fill="#FFCB7C"/>
<path d="M27.8728 35.9728H23.9V32H20.9728V35.9728H17V38.8995H20.9728V42.8723H23.9V38.8995H27.8728V35.9728Z" fill="#FF5E6C"/>
<path d="M16.8691 144.51H14.3592V142H12.5099V144.51H10V146.359H12.5099V148.869H14.3592V146.359H16.8691V144.51Z" fill="#8971D0"/>
<path d="M236.961 102.922L232 97.9606L236.961 93L241.922 97.9606L236.961 102.922ZM233.378 97.9611L236.961 101.544L240.544 97.9611L236.961 94.3784L233.378 97.9611Z" fill="#FFCB7C"/>
<path d="M4.96105 86.9216L0 81.9606L4.96105 77L9.9221 81.9606L4.96105 86.9216ZM1.37844 81.9611L4.96153 85.5442L8.54414 81.9611L4.96153 78.3784L1.37844 81.9611Z" fill="#8873D5"/>
<path d="M137.435 26.8691L134 23.4344L137.435 20L140.869 23.4344L137.435 26.8691ZM134.954 23.4347L137.435 25.9155L139.915 23.4347L137.435 20.9544L134.954 23.4347Z" fill="#FF5E6C"/>
<path d="M105.544 1.53549L104.009 0L102.473 1.53506L104.008 3.07054L105.544 1.53549Z" fill="#242C36"/>
<path d="M105.544 6.09733L104.009 4.56185L102.473 6.0969L104.008 7.63239L105.544 6.09733Z" fill="#242C36"/>
<path d="M107.999 3.97443L106.463 2.43879L104.927 3.97443L106.463 5.51007L107.999 3.97443Z" fill="#242C36"/>
<path d="M103.107 3.9744L101.571 2.43877L100.036 3.97441L101.571 5.51004L103.107 3.9744Z" fill="#242C36"/>
<g opacity="0.35">
<path opacity="0.35" d="M186.442 44.0033C176.611 38.7995 164.926 36.3364 153.89 38.3353C142.808 40.3445 133.83 48.2769 122.637 49.8271C107.498 51.9271 97.7261 37.5148 86.6763 29.4728C80.9809 25.3276 74.4583 22.4123 67.6427 20.9666C43.7787 15.9033 30.9749 36.2747 31.5144 58.7221C31.8913 74.407 39.8784 88.0416 42.2953 103.607C44.3508 116.834 33.6727 120.252 35.2211 137.167C37.7699 164.997 60.8082 168.726 78.4082 170.137C96.6179 171.598 108.55 182.221 124.629 189.107C149.575 199.792 181.348 192.882 192.803 165.459C198.538 151.735 192.917 139.067 195.712 125.249C198.237 112.783 199.861 107.915 203.675 96.2892C210.602 75.2069 203.685 53.1329 186.442 44.0033Z" fill="#1654D3"/>
</g>
<path d="M177.906 62.0383C177.49 61.8807 177.074 61.7334 176.658 61.5963C165.008 57.7286 153.287 62.9632 141.687 59.6608C127.225 55.5447 123.813 38.7173 116.855 27.109C113.269 21.1276 108.473 15.9222 102.859 11.9192C83.2092 -2.09399 59.8043 5.79387 52.3601 30.0124C47.8672 44.6268 53.5386 63.6741 49.8764 78.6207C46.7641 91.3218 34.8818 87.6751 29.9264 103.492C21.7747 129.511 41.1818 141.996 56.5481 150.245C72.4471 158.777 79.2319 173.056 91.1673 185.62C109.685 205.114 140.976 211.502 161.625 191.399C171.959 181.341 171.644 167.727 179.359 156.417C186.32 146.215 189.617 142.482 197.431 133.548C211.604 117.342 213.651 94.763 201.506 79.7221C195.854 72.7284 186.752 65.3578 177.906 62.0383Z" stroke="#61A5E2" stroke-width="0.5" stroke-miterlimit="10" stroke-linecap="round" stroke-dasharray="3 2"/>
<path d="M175.191 57.9547C174.783 57.8434 174.373 57.7389 173.968 57.643C162.573 54.9812 151.84 60.733 140.535 58.5902C126.44 55.9181 121.841 40.6409 114.284 30.4629C110.389 25.2163 105.404 20.7833 99.7412 17.5237C79.9128 6.1176 62.6931 19.8412 56.7734 39.2962C52.6368 52.8897 55.8707 66.9697 53.5892 81.065C51.6502 93.0398 41.157 92.8223 37.7158 107.82C32.0547 132.493 51.5285 142.51 66.8144 148.926C82.6312 155.565 90.2381 168.225 102.607 178.897C121.798 195.457 152.089 198.912 170.119 178.727C179.142 168.626 177.744 156.072 184.175 145.024C189.98 135.055 192.814 131.35 199.531 122.486C211.711 106.407 211.841 85.3901 199.07 72.4458C193.131 66.4267 183.877 60.3271 175.191 57.9547Z" fill="#F5F8FF"/>
<path d="M145.389 194.638C146.101 191.92 146.735 189.159 146.807 186.349C146.877 183.54 146.353 180.659 144.89 178.261C143.535 176.038 141.47 174.363 139.7 172.453C138.541 171.204 137.477 169.796 137.044 168.148C136.329 165.435 137.426 162.612 137.652 159.815C137.819 157.758 137.429 155.857 136.804 153.916C136.34 152.474 136.288 151.054 135.656 149.647C134.161 146.319 131.766 143.418 130.682 139.901C129.214 135.141 130.716 130.025 133.07 125.818C134.712 122.884 136.954 118.814 140.283 117.55C144.429 115.977 146.994 121.234 148.15 124.304C149.304 127.368 149.823 130.633 150.108 133.882C150.382 137.03 150.183 140.093 152.143 142.803C153.217 144.288 154.59 145.535 155.683 147.004C157.915 150.005 158.864 154.108 157.513 157.597C157.108 158.638 156.517 159.599 156.069 160.625C155.269 162.456 154.94 164.519 155.318 166.482C155.556 167.703 156.055 168.854 156.461 170.029C157.72 173.667 157.307 176.634 156.553 180.282C155.868 183.602 153.265 186 151.144 188.525C150.25 189.59 149.368 190.709 148.912 192.024C148.424 193.436 148.462 194.974 148.58 196.464" fill="#D9EBFF"/>
<path d="M145.173 196.498C145.971 192.199 146.768 187.756 145.797 183.489C145.543 182.374 145.156 181.262 144.452 180.363C142.57 177.958 139.913 177.298 137.244 176.231C135.627 175.586 134.438 174.047 133.726 172.504C133.08 171.11 133.349 169.633 132.772 168.21C131.472 165.005 128.805 161.862 125.533 160.588C122.39 159.363 118.762 159.257 115.672 160.613C112.584 161.97 110.138 164.861 109.629 168.198C109.12 171.531 110.732 175.171 113.697 176.778C115.588 177.802 117.854 177.175 119.865 178.071C121.263 178.693 122.474 179.979 122.548 181.509C122.584 182.261 122.347 183.009 122.405 183.76C122.524 185.293 123.831 186.469 125.194 187.178C128.257 188.773 131.95 188.85 134.966 190.531C140.399 193.561 143.734 201.168 144.839 207" fill="#D9EBFF"/>
<path d="M139.717 124.874C138.883 137.717 145.062 149.157 148.032 161.328C151.584 175.879 148.516 189.707 141.418 202.608C141.168 203.06 141.81 203.42 142.098 203.007C149.289 192.744 151.858 179.029 150.097 166.74C148.045 152.419 139.327 139.666 140.104 124.874C140.118 124.622 139.734 124.626 139.717 124.874Z" fill="#C8E2FC"/>
<path d="M114.977 167.807C122.382 170.092 129.12 174.239 134.227 180.108C139.794 186.505 142.311 193.938 144.04 202.089C144.127 202.5 144.79 202.411 144.776 201.988C144.155 185.337 130.633 171.452 115.131 167.252C114.772 167.155 114.624 167.698 114.977 167.807Z" fill="#C8E2FC"/>
<path d="M129.997 184.751C133.342 184.027 136.352 184.84 139.193 186.641C139.5 186.834 139.887 186.356 139.589 186.125C136.836 183.994 133.219 183.544 129.925 184.494C129.762 184.542 129.831 184.787 129.997 184.751Z" fill="#C8E2FC"/>
<path d="M123.325 178.388C126.862 177.367 130.43 177.333 133.704 179.21C133.921 179.335 134.115 179.005 133.901 178.876C130.653 176.925 126.674 176.351 123.243 178.193C123.135 178.249 123.209 178.42 123.325 178.388Z" fill="#C8E2FC"/>
<path d="M141.573 153.184C142.959 153.933 144.143 154.942 145.213 156.09C146.298 157.253 146.976 158.592 147.873 159.878C148.069 160.159 148.519 159.993 148.437 159.64C147.683 156.444 144.514 154.169 141.625 153.061C141.553 153.035 141.507 153.149 141.573 153.184Z" fill="#C8E2FC"/>
<path d="M142.175 167.735C146.421 171.17 148.165 175.053 149.249 180.284C149.325 180.651 149.864 180.546 149.88 180.198C150.096 175.181 146.596 169.931 142.379 167.47C142.22 167.379 142.025 167.612 142.175 167.735Z" fill="#C8E2FC"/>
<path d="M144.054 137.273C143.151 140.225 142.644 143.585 143.49 146.607C143.581 146.929 144.132 146.881 144.095 146.527C143.766 143.346 143.504 140.492 144.298 137.34C144.338 137.181 144.102 137.116 144.054 137.273Z" fill="#C8E2FC"/>
<path d="M136.116 136.301C137.771 137.008 138.939 138.257 139.987 139.685C140.868 140.884 141.46 142.35 142.457 143.443C142.627 143.63 142.933 143.435 142.87 143.202C142.428 141.595 141.246 139.966 140.155 138.721C139.084 137.5 137.79 136.506 136.183 136.141C136.092 136.121 136.022 136.259 136.116 136.301Z" fill="#C8E2FC"/>
<path d="M150.432 148.755C148.596 152.184 147.612 156.071 148.048 159.969C148.077 160.219 148.459 160.233 148.448 159.969C148.31 156.033 148.865 152.427 150.649 148.883C150.725 148.738 150.509 148.609 150.432 148.755Z" fill="#C8E2FC"/>
<path d="M124.416 167.193C124.373 168.959 124.841 171.439 126.158 172.727C126.315 172.881 126.61 172.727 126.538 172.504C126.25 171.608 125.694 170.819 125.396 169.909C125.099 169.01 124.904 168.08 124.746 167.146C124.714 166.956 124.421 167.009 124.416 167.193Z" fill="#C8E2FC"/>
<path d="M137.353 178.609C137.206 180.772 137.395 183.179 138.614 185.036C138.72 185.198 138.955 185.092 138.921 184.907C138.515 182.778 137.823 180.789 137.634 178.609C137.619 178.429 137.367 178.426 137.353 178.609Z" fill="#C8E2FC"/>
<path d="M129.669 169.851C129.609 172.783 130.39 176.704 133.102 178.364C133.306 178.489 133.561 178.239 133.431 178.035C132.701 176.874 131.759 175.903 131.125 174.668C130.32 173.107 129.919 171.608 129.909 169.851C129.909 169.697 129.671 169.697 129.669 169.851Z" fill="#C8E2FC"/>
<path d="M167.488 105.51C167.488 105.421 165.407 102.493 165.407 102.493C165.407 102.493 165.846 101.693 168.857 102.545C171.639 103.331 173.112 104.073 172.613 104.777C172.115 105.481 167.488 105.51 167.488 105.51Z" fill="#C6426E"/>
<path d="M175.68 89.6449C175.518 89.3623 174.504 88.9563 174.197 89.4154C173.942 88.648 172.688 88.0331 172.381 88.9803C172.128 88.2917 172.07 87.9183 171.482 87.7196C170.941 87.538 169.995 88.1666 169.995 88.1666C169.995 88.1666 170.011 86.6936 170.102 85.9502C170.36 83.8297 171.229 81.8221 172.118 79.9003C172.35 79.395 172.226 78.5762 171.674 78.4974C171.424 78.4614 171.189 78.6156 170.989 78.7732C167.688 81.3597 166.945 85.9707 166.441 90.1331C165.961 88.7062 166.338 86.5994 165 85.8508C163.947 85.7361 163.61 91.5033 164.297 94.3159C164.802 96.3868 166.052 98.5536 167.01 100.464C167.351 101.149 166.15 102.689 165.878 103.626C166.977 105.047 169.296 106.83 171.965 105.109C172.575 103.591 175.062 102.43 175.478 101.01C176.025 99.148 175.206 97.8171 175.206 97.8085C175.196 97.9678 175.97 97.4385 176.295 96.9469C176.648 96.4142 176.778 95.9192 176.72 95.2974C176.527 93.2676 176.691 91.416 175.68 89.6449Z" fill="#A5D3F9"/>
<path d="M72.4194 138.51C70.2731 128.565 72.3372 117.783 78.0068 109.338C79.8979 106.519 82.1674 103.958 83.906 101.042C87.1297 95.64 88.3869 89.2475 88.5051 82.9561C88.6644 74.3848 83.6337 56.6444 71.4293 64.5442C68.1355 66.6751 64.9409 69.4311 63.8104 73.1875C61.5271 80.7721 65.6398 88.8158 58.903 95.1278C56.6899 97.2021 53.9647 98.6358 51.5358 100.451C46.6695 104.093 42.9269 109.626 42.6597 115.698C42.2743 124.427 48.862 132.918 55.7924 137.572C58.3172 139.269 61.1263 140.398 63.5603 142.258C67.3321 145.141 70.5815 148.375 74.7626 150.73" fill="#D9EBFF"/>
<path d="M74.154 77.6804C74.6696 84.4532 73.14 90.7309 69.9163 96.6849C67.6519 100.866 64.9164 104.789 63.1162 109.211C59.7692 117.435 59.3786 127.418 63.1419 135.569C63.3132 135.939 63.8955 135.675 63.7893 135.295C60.6256 124.035 61.2251 113.946 67.0644 103.651C71.8827 95.1553 75.9971 87.7813 74.6491 77.6804C74.6079 77.3738 74.13 77.355 74.154 77.6804Z" fill="#C8E2FC"/>
<path d="M60.045 98.3395C57.3969 105.217 56.6792 114.235 60.5743 120.83C60.7525 121.131 61.2218 120.931 61.1379 120.592C59.2023 112.813 57.9382 106.366 60.3431 98.4217C60.3996 98.2299 60.1153 98.1596 60.045 98.3395Z" fill="#C8E2FC"/>
<path d="M66.5897 84.9825C66.5658 87.7676 67.0385 90.2102 67.8264 92.872C69.0871 97.132 67.8864 100.212 66.6497 104.22C66.5983 104.389 66.8415 104.484 66.9306 104.338C68.4791 101.805 69.6575 98.8466 69.3492 95.8199C68.9672 92.0841 67.0796 88.8364 66.898 84.9807C66.8878 84.7837 66.5915 84.782 66.5897 84.9825Z" fill="#C8E2FC"/>
<path d="M77.7476 88.5589C76.576 91.3115 74.3441 92.8429 72.2099 94.787C70.4525 96.3886 69.262 98.3035 68.5015 100.542C68.409 100.816 68.7944 100.94 68.9417 100.727C70.6923 98.1991 72.2064 96.01 74.5291 93.9545C76.1958 92.4814 77.686 90.9621 78.1519 88.7285C78.1998 88.5007 77.8504 88.3174 77.7476 88.5589Z" fill="#C8E2FC"/>
<path d="M64.2695 189.72C82.7259 191.163 101.34 190.596 119.676 188.033C116.9 171.016 118.965 153.656 121.521 136.751C121.703 135.555 123.003 129.56 123.003 129.56C123.003 129.56 145.836 149.867 149.335 148.818C156.478 146.681 172.49 105.234 172.613 104.778C171.202 105.482 166.428 104.273 165.407 102.495C165.29 103.353 153.472 117.24 148.302 125.336C137.967 111.64 126.978 100.333 121.453 97.8445C113.306 94.1721 59.1462 97.5379 54.5574 101.517C45.3969 109.456 47.0806 129.261 46.7227 136.623" fill="#EA4977"/>
<path d="M97.3792 95.9946L93.717 82.5655L80.5398 80.3953C79.9762 85.0544 79.3048 97.245 79.3048 97.245L70.8037 98.0655C70.8037 98.0655 82.6689 106.467 92.3792 104.412C102.09 102.358 103.981 96.2549 103.981 96.2549L97.3792 95.9946Z" fill="#A5D3F9"/>
<path d="M93.6922 90.5578C94.4202 90.6007 95.1601 90.5972 95.8949 90.551L94.8261 86.6302C92.5891 86.6764 90.3469 86.4315 88.1767 85.8903C86.6676 85.5151 85.1705 84.9978 83.6152 84.9687C85.001 86.8511 86.6779 88.6035 88.8139 89.5507C90.34 90.2256 92.0255 90.4568 93.6922 90.5578Z" fill="#93CBF9"/>
<path d="M103.021 57.1856C103.903 57.3141 104.629 57.9838 105.056 58.7666C105.482 59.5477 105.657 60.4385 105.827 61.312C106.236 63.4257 106.645 65.5428 107.053 67.6565C107.267 68.7631 107.481 69.8747 107.569 71.0001C107.728 73.0949 107.379 75.3474 105.993 76.925C104.605 78.5026 101.981 79.0832 100.357 77.7506" fill="#172182"/>
<path d="M105.622 73.4598C105.789 80.2925 104.578 87.1218 97.3783 88.2387C93.3821 88.8587 86.474 87.3531 83.3035 84.9036C81.8458 83.7765 80.9088 82.3891 79.3552 81.7211C77.334 80.8492 75.8044 80.5529 74.6431 78.3792C73.5657 76.3615 73.3618 74.0045 73.2214 71.7213C72.9867 67.9084 72.9405 63.818 75.0079 60.608C77.7383 56.3635 83.2075 55.0035 88.1492 53.9877C91.772 53.2426 93.2656 52.2097 96.9689 52.8127C102.5 53.7137 104.641 57.9531 104.836 62.6173C104.989 66.2366 105.535 69.8388 105.622 73.4598Z" fill="#A5D3F9"/>
<path d="M98.3646 60.4196C98.6849 60.4161 99.0069 60.411 99.3272 60.4042C101.867 60.3528 104.497 60.1061 106.237 57.9239C108.051 55.6492 108.505 50.5585 107.395 49.7928C107.045 49.5513 105.939 52.1326 104.635 52.715C105.446 51.4663 105.237 48.9415 104.774 48.4362C104.579 48.2238 103.847 48.9912 102.748 49.0563C101.239 49.1471 99.1474 48.5612 97.8113 48.217C94.18 47.28 90.4185 46.8826 86.6792 47.0385C84.6957 47.1224 82.6968 47.3657 80.8297 48.0662C78.7777 48.8353 76.395 50.4745 74.8226 52.0709C73.8565 53.0507 73.1097 54.4056 72.5787 55.6817C72.4194 56.0654 71.2067 59.7515 71.6623 59.9177C66.5185 58.0626 68.9063 72.2625 69.6 73.9976C70.7819 76.9592 73.1868 79.2237 75.7784 80.9708C76.5646 81.5018 77.3063 81.9557 77.7722 82.8413C78.3443 83.9307 78.6543 86.8837 80.4666 85.5066C81.037 85.0749 81.2185 84.2887 81.3419 83.5675C81.407 83.1941 81.4652 82.8104 81.3967 82.437C80.9445 79.9722 77.2977 81.0821 75.9977 79.5285C74.7815 78.0743 73.7829 73.0402 74.9237 71.5208C75.5626 70.6712 76.9243 69.8816 77.8424 70.7774C78.7691 71.6818 78.5293 73.5249 80.0041 73.8641C81.5149 74.2118 81.4703 72.4938 81.2665 71.5088C80.7629 69.0817 80.8469 66.5277 81.4841 64.1331C81.8883 62.6172 82.3011 60.5566 83.9523 60.1147C85.8211 59.6128 87.6316 59.9862 89.5004 60.1318C92.4431 60.3613 95.4098 60.4504 98.3646 60.4196Z" fill="#172182"/>
<path opacity="0.75" d="M148.291 122.731H98.5316C97.4696 122.731 96.6749 121.763 96.8787 120.722L103.025 89.5079C103.18 88.7182 103.872 88.1496 104.676 88.1496H154.437C155.497 88.1496 156.294 89.1173 156.088 90.1587L149.942 121.373C149.788 122.162 149.096 122.731 148.291 122.731Z" fill="#D9EBFF"/>
<path opacity="0.75" d="M152.937 94.6568L153.618 91.1933H104.753L104.071 94.6568H152.937Z" fill="#D9EBFF"/>
<path opacity="0.75" d="M128.103 98.814L128.443 97.0823H104.011L103.67 98.814H128.103Z" fill="#D9EBFF"/>
<path opacity="0.75" d="M127.482 102.123L127.823 100.393H103.39L103.048 102.123H127.482Z" fill="#D9EBFF"/>
<path opacity="0.75" d="M126.858 105.436L127.199 103.703H102.767L102.426 105.436H126.858Z" fill="#D9EBFF"/>
<path opacity="0.75" d="M126.235 108.747L126.576 107.015H102.144L101.803 108.747H126.235Z" fill="#D9EBFF"/>
<path opacity="0.75" d="M125.613 112.056L125.954 110.325H101.522L101.181 112.056H125.613Z" fill="#D9EBFF"/>
<path opacity="0.75" d="M124.991 115.369L125.334 113.636H100.901L100.561 115.369H124.991Z" fill="#D9EBFF"/>
<path opacity="0.75" d="M124.369 118.678L124.71 116.948H100.279L99.9365 118.678H124.369Z" fill="#D9EBFF"/>
<path opacity="0.75" d="M131.37 97.0823L127.117 118.678H148.02L152.271 97.0823H131.37Z" fill="#D9EBFF"/>
<g opacity="0.75">
<path opacity="0.75" d="M65.2236 188.033C74.5263 186.843 98.6284 135.701 98.8751 135.161C96.9789 135.746 91.3006 133.267 90.3997 130.848C90.0776 131.89 78.4797 137.84 70.2304 145.889L65.2254 122.448" fill="#D9EBFF"/>
</g>
<path d="M88.7168 133.442C88.7151 133.459 93.2594 128.053 93.2594 128.053C92.2762 124.202 92.7489 118.629 92.9545 117.719C93.3108 116.143 93.9291 114.605 95.1436 113.541C96.3768 112.461 97.9698 111.287 99.4498 110.641C101.485 109.752 106.901 109.816 106.858 110.11C106.815 110.409 106.587 111.618 105.251 111.885C103.915 112.152 100.733 113.137 100.733 113.137L98.482 114.795C98.482 114.795 101.193 114.208 102.062 114.131C103.953 113.963 104.099 115.588 103.148 116.327C105.253 116.075 105.31 118.697 104.244 118.932C105.231 119.103 104.965 121.789 104.532 122.156C104.289 122.359 102.922 123.349 101.995 123.427C101.265 123.486 100.937 122.676 100.786 122.546C100.447 122.251 101.062 124.602 101.062 124.602C101.062 124.602 101.769 129.548 99.3555 130.309C98.3552 131.969 94.3728 139.817 94.3728 139.817" fill="#A5D3F9"/>
<path d="M60.9561 185.055C70.2605 183.864 98.6294 135.701 98.876 135.16C96.9799 135.744 91.3016 133.265 90.4006 130.847C90.0786 131.888 76.4337 141.792 68.3558 150.781L65.2246 122.448C65.216 121.883 65.216 112.334 55.0038 114.323C44.7915 116.313 47.3112 126.897 47.3112 126.897" fill="#EA4977"/>
<path opacity="0.75" d="M215.708 99.0795H159.996C158.811 99.0795 157.917 97.9935 158.148 96.8305L165.029 61.8841C165.205 61.0003 165.979 60.3631 166.878 60.3631H222.59C223.777 60.3631 224.67 61.4474 224.44 62.6121L217.558 97.5567C217.385 98.4423 216.611 99.0795 215.708 99.0795Z" fill="#D9EBFF"/>
<path opacity="0.75" d="M220.908 67.648L221.674 63.77H166.964L166.2 67.648H220.908Z" fill="#D9EBFF"/>
<path opacity="0.75" d="M193.104 72.3019L193.488 70.3629H166.133L165.749 72.3019H193.104Z" fill="#D9EBFF"/>
<path opacity="0.75" d="M192.41 76.0086L192.79 74.0696H165.437L165.055 76.0086H192.41Z" fill="#D9EBFF"/>
<path opacity="0.75" d="M191.713 79.7153L192.094 77.778H164.739L164.358 79.7153H191.713Z" fill="#D9EBFF"/>
<path opacity="0.75" d="M191.014 83.422L191.398 81.4847H164.041L163.661 83.422H191.014Z" fill="#D9EBFF"/>
<path opacity="0.75" d="M190.319 87.1287L190.701 85.1914H163.346L162.964 87.1287H190.319Z" fill="#D9EBFF"/>
<path opacity="0.75" d="M189.622 90.8371L190.004 88.8981H162.651L162.268 90.8371H189.622Z" fill="#D9EBFF"/>
<path opacity="0.75" d="M188.927 94.5438L189.307 92.6048H161.954L161.572 94.5438H188.927Z" fill="#D9EBFF"/>
<path opacity="0.75" d="M196.763 70.3629L192.001 94.5438H215.402L220.164 70.3629H196.763Z" fill="#D9EBFF"/>
<path d="M207.373 129.386C205.886 125.977 202.803 123.164 199.132 122.563C195.758 122.012 191.212 123.476 189.184 126.364C187.313 129.026 186.791 132.642 185.945 135.708C185.589 137.003 185.148 138.346 184.174 139.269C183.158 140.232 181.702 140.59 180.303 140.636C178.903 140.682 177.509 140.454 176.111 140.415C171.375 140.283 166.498 142.604 164.117 146.701C162.346 149.752 162.059 153.404 161.365 156.864C161.111 158.133 160.788 159.414 160.116 160.521C158.7 162.85 156.428 163.496 154.26 164.767C152.095 166.033 150.944 169.543 150.879 171.888C150.825 173.763 152.898 181.036 151.204 184.352C148.782 189.1 145.531 186.541 142.354 192.454C146.005 191.425 149.239 193.878 155.063 191.425C157.466 190.412 160.443 187.127 162.751 185.896C165.198 184.59 168.081 184.491 170.786 183.879C174.417 183.059 178.208 181.689 181.015 179.16C183.074 177.305 184.047 174.822 184.097 172.081C184.15 169.197 182.846 166.149 184.182 163.395C185.04 161.626 186.306 160.129 187.802 158.863C190.892 156.249 194.687 154.682 198.144 152.643C202.856 149.868 206.828 145.788 208.068 140.329C208.896 136.705 208.86 132.794 207.373 129.386Z" fill="#D9EBFF"/>
<path d="M149.729 191.589C154.536 188.722 159.267 185.685 162.706 181.173C166.454 176.255 168.064 170.541 169.554 164.642C170.651 160.303 172.175 156.355 175.486 153.2C178.381 150.442 181.906 148.488 185.112 146.134C189.326 143.041 193.61 138.836 193.603 133.265C193.603 132.875 192.992 132.772 192.908 133.171C190.094 146.503 173.514 148.313 169.374 161.084C167.41 167.151 166.634 173.337 163.11 178.837C159.739 184.099 154.614 187.778 149.541 191.265C149.342 191.399 149.519 191.714 149.729 191.589Z" fill="#C8E2FC"/>
<path d="M167.638 155.944C169.019 159.202 168.832 162.17 168.613 165.589C168.597 165.836 168.945 165.851 169.021 165.644C170.177 162.477 169.267 158.751 167.81 155.843C167.751 155.725 167.589 155.829 167.638 155.944Z" fill="#C8E2FC"/>
<path d="M181.873 157.892C176.679 158.858 171.547 161.262 168.445 165.707C168.209 166.045 168.721 166.41 169.002 166.137C172.769 162.47 176.749 159.474 181.996 158.344C182.294 158.279 182.166 157.837 181.873 157.892Z" fill="#C8E2FC"/>
<path d="M181.937 172.353C175.296 172.388 167.884 175.135 163.032 179.734C162.749 180.001 163.121 180.5 163.455 180.279C166.488 178.277 169.217 176.279 172.682 175.017C175.695 173.917 178.855 173.379 181.999 172.814C182.262 172.768 182.196 172.353 181.937 172.353Z" fill="#C8E2FC"/>
<path d="M197.474 147.463C190.866 146.331 182.827 146.34 177.291 150.655C177.034 150.855 177.363 151.213 177.624 151.084C184.211 147.859 190.261 147.631 197.449 147.647C197.551 147.648 197.581 147.482 197.474 147.463Z" fill="#C8E2FC"/>
<path d="M178.649 143.663C178.051 146.936 176.252 149.61 174.971 152.614C174.862 152.871 175.189 153.078 175.352 152.838C177.198 150.137 178.375 146.95 178.883 143.729C178.904 143.579 178.674 143.51 178.649 143.663Z" fill="#C8E2FC"/>
<path d="M156.93 169.239C157.903 176.935 157.004 183.138 152.21 189.506C152.062 189.702 152.371 189.912 152.533 189.758C158.409 184.268 158.535 176.579 157.218 169.2C157.191 169.039 156.91 169.075 156.93 169.239Z" fill="#C8E2FC"/>
<path d="M158.318 169.544C159.677 169.544 160.779 168.442 160.779 167.083C160.779 165.723 159.677 164.621 158.318 164.621C156.958 164.621 155.856 165.723 155.856 167.083C155.856 168.442 156.958 169.544 158.318 169.544Z" stroke="#1654D3" stroke-width="0.5" stroke-miterlimit="10" stroke-linecap="round" stroke-linejoin="round"/>
<path d="M56.6316 95.5098C57.9901 95.5098 59.0913 94.4086 59.0913 93.0501C59.0913 91.6917 57.9901 90.5904 56.6316 90.5904C55.2731 90.5904 54.1719 91.6917 54.1719 93.0501C54.1719 94.4086 55.2731 95.5098 56.6316 95.5098Z" stroke="#1654D3" stroke-width="0.5" stroke-miterlimit="10" stroke-linecap="round" stroke-linejoin="round"/>
<path d="M186.669 106.649V111.441" stroke="#1654D3" stroke-width="0.5" stroke-miterlimit="10" stroke-linecap="round" stroke-linejoin="round"/>
<path d="M189.066 109.043H184.271" stroke="#1654D3" stroke-width="0.5" stroke-miterlimit="10" stroke-linecap="round" stroke-linejoin="round"/>
<path d="M117.097 54.4296V59.2223" stroke="#1654D3" stroke-width="0.5" stroke-miterlimit="10" stroke-linecap="round" stroke-linejoin="round"/>
<path d="M119.491 56.8259H114.698" stroke="#1654D3" stroke-width="0.5" stroke-miterlimit="10" stroke-linecap="round" stroke-linejoin="round"/>
</svg>
