<svg width="21" height="20" viewBox="0 0 21 20" fill="none" xmlns="http://www.w3.org/2000/svg">
<path fill-rule="evenodd" clip-rule="evenodd" d="M13.8911 6.18057L19.8059 6.69383C20.8813 6.77938 21.309 8.12364 20.4902 8.83244L16.0053 12.7186L17.3495 18.4989C17.5939 19.5499 16.4574 20.3809 15.5287 19.8188L10.4571 16.7514L5.38556 19.8065C4.4568 20.3687 3.32028 19.5377 3.5647 18.4867L4.90896 12.7186L0.424003 8.83244C-0.394777 8.12364 0.0451641 6.77938 1.12058 6.69383L7.02312 6.19279L9.33282 0.742401C9.74832 -0.247467 11.1659 -0.247467 11.5814 0.742401L13.8911 6.18057ZM5.86075 17.2402L10.4557 14.4661L15.0629 17.2524L13.8408 12.022L17.898 8.50248L12.5454 8.03809L10.4557 3.10097L8.37819 8.02587L3.02557 8.49026L7.08281 12.0098L5.86075 17.2402Z" fill="#9996A3"/>
</svg>
