<svg width="37" height="37" viewBox="0 0 37 37" fill="none" xmlns="http://www.w3.org/2000/svg">
<path d="M0.0211821 18.7128L2.1468 18.2873L4.12117 28.2559H10.9121V37H8.74414V30.4238H4.33594V37H2.16798L2.18915 29.5526L0.0211821 18.7128Z" fill="#DD2626"/>
<path d="M32.8601 28.2559L34.8539 18.2873L36.9795 18.7128L34.8327 29.3399V37H32.6647L32.6824 30.4238H28.2565V37H26.0886V28.2559H32.8601Z" fill="#DD2626"/>
<path d="M17.416 23.92V16.9174C17.8063 16.809 18.1532 16.6572 18.5 16.5055C18.8468 16.6572 19.1938 16.809 19.584 16.9174V23.92H26.0879V26.088H23.9199V37.0001H21.752V26.088H15.2481V37.0001H13.0801V26.088H10.9121V23.92H17.416Z" fill="#DD2626"/>
<path d="M17.3409 2.2703V0H19.6592V2.2703C29.4295 2.57858 37 6.73284 37 11.9961C37 13.8496 34.6701 15.248 31.5801 15.248C30.1749 15.248 28.8719 14.9494 27.9328 14.4575C28.5505 11.9705 28.2629 9.45191 27.0099 7.22186C25.2824 4.14884 22.0219 2.24023 18.5 2.24023C14.8913 2.24023 11.5928 4.21872 9.89058 7.40397C8.71597 9.60222 8.45676 12.0482 9.05895 14.4628C8.12115 14.9519 6.82059 15.248 5.41994 15.248C2.32994 15.248 2.28882e-05 13.8496 2.28882e-05 11.9961C2.28882e-05 6.73284 7.57056 2.57858 17.3409 2.2703Z" fill="#DD2626"/>
<path d="M11.8009 8.41861C12.9504 6.27058 15.0503 4.82982 17.416 4.48859V14.6003C16.6885 14.9221 15.93 15.0826 15.1396 15.2043C13.9551 15.289 13.1932 15.2043 13.2752 15.2043C12.5776 15.1345 11.9756 14.9808 11.4107 14.7924C10.652 12.6245 10.7603 10.3915 11.8009 8.41861Z" fill="#DD2626"/>
<path d="M25.1122 8.28888C26.2395 10.2618 26.3696 12.5598 25.5675 14.8145C25.0038 14.988 24.3967 15.1398 23.7246 15.2048C23.7246 15.2048 23.7246 15.2048 23.7031 15.2048C22.3348 15.3101 20.8398 15.1668 19.5839 14.6055V4.49176C21.8888 4.82946 23.9482 6.22375 25.1122 8.28888Z" fill="#DD2626"/>
</svg>
