<svg width="18" height="18" viewBox="0 0 18 18" fill="none" xmlns="http://www.w3.org/2000/svg">
<path d="M3.02104 8.00854C2.87458 8.00854 2.75586 8.12727 2.75586 8.27373V8.75273C2.75586 10.7306 3.65196 12.5604 5.21441 13.7731L7.7194 15.7172C7.81193 15.789 7.92281 15.8249 8.03373 15.8249C8.14465 15.8249 8.25553 15.789 8.3481 15.7172L10.3074 14.1965C10.4231 14.1067 10.4441 13.9401 10.3543 13.8244C10.2645 13.7088 10.0979 13.6878 9.9822 13.7775L8.03373 15.2898L5.5396 13.3541C4.10755 12.2426 3.28623 10.5655 3.28623 8.75273V8.27373C3.28623 8.12727 3.1675 8.00854 3.02104 8.00854Z" fill="#9996A3"/>
<path d="M8.03347 16.1848C7.8327 16.1848 7.66992 16.3476 7.66992 16.5484C7.66992 16.7491 7.8327 16.9119 8.03347 16.9119C8.23425 16.9119 8.39702 16.7491 8.39702 16.5484C8.39702 16.3476 8.23425 16.1848 8.03347 16.1848Z" fill="#9996A3"/>
<path d="M8.03347 1.43018C7.8327 1.43018 7.66992 1.59295 7.66992 1.79373C7.66992 1.9945 7.8327 2.15728 8.03347 2.15728C8.23425 2.15728 8.39702 1.9945 8.39702 1.79373C8.39702 1.59291 8.23425 1.43018 8.03347 1.43018Z" fill="#9996A3"/>
<path d="M13.5078 3.93557C13.5078 4.13635 13.6706 4.29912 13.8714 4.29912C14.0721 4.29912 14.2349 4.13635 14.2349 3.93557C14.2349 3.73479 14.0721 3.57202 13.8714 3.57202C13.6706 3.57202 13.5078 3.73479 13.5078 3.93557Z" fill="#9996A3"/>
<path d="M1.79102 3.93557C1.79102 4.13635 1.95379 4.29912 2.15457 4.29912C2.35534 4.29912 2.51812 4.13635 2.51812 3.93557C2.51812 3.73479 2.35534 3.57202 2.15457 3.57202C1.95379 3.57202 1.79102 3.73479 1.79102 3.93557Z" fill="#9996A3"/>
<path d="M16.767 16.2613V9.82863C17.0773 9.68281 17.2927 9.36735 17.2927 9.00239C17.2927 8.49927 16.8834 8.08994 16.3803 8.08994H13.312V4.86984C13.312 4.60881 13.1166 4.38989 12.8576 4.36064C11.8467 4.24656 10.905 4.03211 10.0586 3.72319C9.49087 3.51601 8.9772 3.26869 8.53188 2.98803C8.2295 2.79742 7.83874 2.79745 7.53632 2.98807C7.09096 3.26872 6.5773 3.51605 6.00956 3.72319C5.16324 4.03207 4.22155 4.24656 3.21056 4.36064C2.95156 4.38989 2.75623 4.60881 2.75623 4.86984V7.01968C2.75623 7.16614 2.87496 7.28487 3.02142 7.28487C3.16788 7.28487 3.2866 7.16614 3.2866 7.01968V4.8858C4.33306 4.76652 5.31027 4.543 6.19135 4.22146C6.79432 4.00145 7.34198 3.73743 7.81909 3.43677C7.95173 3.35324 8.11651 3.35313 8.24912 3.43673C8.72619 3.73743 9.27385 4.00141 9.87685 4.22146C10.7579 4.54303 11.7352 4.76648 12.7816 4.8858V8.08991H11.3604C10.8572 8.08991 10.4479 8.49923 10.4479 9.00235C10.4479 9.36868 10.665 9.68509 10.9772 9.83018V15.602L8.99541 17.1401C8.72162 17.3526 8.38021 17.4696 8.0341 17.4696C7.68296 17.4696 7.35056 17.3557 7.07286 17.1401L4.24422 14.9448C3.31286 14.222 2.54653 13.2802 2.02801 12.2214C1.50949 11.1627 1.23545 9.97988 1.23545 8.80091V3.02105C1.23545 2.9533 1.29057 2.89779 1.35832 2.8973L2.21813 2.89104C5.15674 2.8697 6.58735 1.87464 7.17861 1.28341C7.35872 1.10327 7.52613 0.910617 7.67618 0.710754C7.76227 0.596039 7.89362 0.530332 8.03667 0.530332C8.03705 0.530332 8.03741 0.530332 8.03779 0.530367C8.18021 0.530684 8.31061 0.596426 8.39551 0.710648C8.54636 0.913606 8.71262 1.1063 8.88973 1.28341C9.36575 1.75939 10.802 2.86893 13.8502 2.89104L14.71 2.8973C14.7778 2.89779 14.8329 2.9533 14.8329 3.02105V7.00864C14.8329 7.15511 14.9516 7.27383 15.0981 7.27383C15.2445 7.27383 15.3633 7.15511 15.3633 7.00864V3.02105C15.3633 2.66298 15.072 2.36957 14.7139 2.36693L13.8541 2.36067C11.0021 2.33996 9.6946 1.33812 9.26482 0.908402C9.10594 0.749496 8.95671 0.576527 8.82121 0.394277C8.63541 0.144422 8.35037 0.000738281 8.03902 0C8.03821 0 8.03741 0 8.0366 0C7.72515 0 7.43926 0.142875 7.25198 0.392309C7.11691 0.572238 6.96602 0.745875 6.80353 0.908367C6.26968 1.44221 4.96366 2.3407 2.21423 2.36067L1.35441 2.36693C0.996383 2.36957 0.705078 2.66298 0.705078 3.02105V8.80095C0.705078 10.0603 0.997824 11.3238 1.55168 12.4547C2.10556 13.5857 2.92418 14.5917 3.91903 15.3638L6.74766 17.5592C7.11396 17.8434 7.57081 18 8.0341 18C8.49736 18 8.95425 17.8434 9.32061 17.5591L10.6271 16.5451C10.5146 16.6969 10.4479 16.8845 10.4479 17.0875C10.4479 17.5906 10.8573 18 11.3604 18H16.3803C16.8834 18 17.2928 17.5906 17.2928 17.0875C17.2927 16.7226 17.0773 16.4071 16.767 16.2613ZM11.5075 13.1897C11.7313 12.9612 11.9377 12.7161 12.124 12.4575C12.3153 12.6894 12.5386 12.8849 12.7826 13.0273C12.1594 13.3909 11.6703 14.1004 11.5075 14.8813V13.1897ZM11.5075 11.1733C11.5669 11.4581 11.6699 11.7331 11.8067 11.9855C11.7132 12.1252 11.6132 12.2609 11.5075 12.3923V11.1733ZM11.9796 15.4361C11.9796 14.4916 12.6346 13.5298 13.4099 13.3359C13.5516 13.3004 13.6506 13.1734 13.6505 13.0272C13.6505 12.8809 13.5515 12.754 13.4098 12.7186C12.6346 12.5247 11.9796 11.563 11.9796 10.6184V9.91487H15.761V10.6184C15.761 11.563 15.106 12.5247 14.3308 12.7186C14.1891 12.754 14.0901 12.8809 14.09 13.0272C14.09 13.1734 14.1889 13.3004 14.3307 13.3359C15.106 13.5298 15.761 14.4916 15.761 15.4361V16.175H11.9796V15.4361ZM16.2366 14.899C16.0776 14.1112 15.5859 13.3936 14.9581 13.0273C15.5859 12.6609 16.0776 11.9434 16.2366 11.1556V14.899ZM11.3604 8.62028H16.3803C16.591 8.62028 16.7624 8.79166 16.7624 9.00239C16.7624 9.21308 16.591 9.38454 16.3803 9.38454H11.3604C11.1496 9.38454 10.9782 9.21312 10.9782 9.00239C10.9783 8.7917 11.1497 8.62028 11.3604 8.62028ZM16.3803 17.4696H11.3604C11.1496 17.4696 10.9782 17.2982 10.9782 17.0875C10.9782 16.8768 11.1496 16.7053 11.3604 16.7053H16.3803C16.591 16.7053 16.7624 16.8768 16.7624 17.0875C16.7624 17.2982 16.591 17.4696 16.3803 17.4696Z" fill="#9996A3"/>
<path d="M6.8188 11.2182H6.82246C7.06774 11.2182 7.29552 11.1077 7.44729 10.915L10.7994 6.6611C10.931 6.49418 10.9896 6.28606 10.9646 6.07505C10.9396 5.864 10.8339 5.67536 10.667 5.54387C10.5001 5.41235 10.292 5.35371 10.081 5.37867C9.86994 5.40367 9.68129 5.50938 9.54981 5.67631L6.83146 9.12587L5.59529 7.51171C5.32867 7.16349 4.82836 7.09704 4.47996 7.36377C4.31125 7.49297 4.20297 7.68014 4.17502 7.8908C4.14707 8.10145 4.20283 8.31039 4.33202 8.4791L6.19084 10.9063C6.34131 11.1027 6.56951 11.2164 6.8188 11.2182ZM4.70078 7.96051C4.71009 7.89031 4.7462 7.82794 4.80238 7.78491C4.85044 7.74813 4.90711 7.73035 4.9634 7.73035C5.04317 7.73035 5.12209 7.7661 5.17419 7.83416L6.61792 9.71935C6.6677 9.78432 6.74473 9.82271 6.82664 9.82327C6.90722 9.82278 6.98611 9.78653 7.03674 9.72219L9.96638 6.00449C10.0102 5.94887 10.073 5.91365 10.1434 5.90528C10.2138 5.89709 10.2831 5.91653 10.3388 5.96037C10.3944 6.00421 10.4296 6.0671 10.438 6.13742C10.4463 6.20773 10.4267 6.27713 10.3829 6.33278L7.03076 10.5867C6.98017 10.6509 6.90427 10.6878 6.82249 10.6878H6.82067C6.73815 10.6872 6.66208 10.6493 6.61194 10.5838L4.75313 8.15658C4.71002 8.1004 4.69143 8.03076 4.70078 7.96051Z" fill="#9996A3"/>
</svg>
