<svg width="13" height="15" viewBox="0 0 13 15" fill="none" xmlns="http://www.w3.org/2000/svg">
<path d="M11.2168 4.61071L11.8049 4.0226C12.0335 3.79406 12.0335 3.4235 11.8049 3.19508C11.5764 2.96654 11.2059 2.96654 10.9774 3.19508L10.3893 3.78319C9.40258 2.96104 8.20358 2.46437 6.92459 2.3481V1.17039H7.49027C7.81345 1.17039 8.07541 0.908318 8.07541 0.585136C8.07541 0.261955 7.81345 0 7.49027 0H5.18852C4.86534 0 4.60339 0.261955 4.60339 0.585136C4.60339 0.908318 4.86534 1.17039 5.18852 1.17039H5.7542V2.3481C2.5526 2.63924 0 5.32883 0 8.66055C0 12.1643 2.83527 15 6.33945 15C9.84306 15 12.6788 12.1647 12.6788 8.66055C12.6788 7.16389 12.1634 5.74654 11.2168 4.61071ZM6.33934 13.8296C3.48919 13.8296 1.17027 11.5108 1.17027 8.66055C1.17027 5.81039 3.48919 3.49159 6.33934 3.49159C9.18961 3.49159 11.5084 5.81039 11.5084 8.66055C11.5084 11.5108 9.18961 13.8296 6.33934 13.8296ZM9.05125 5.94875C9.27979 6.17729 9.27979 6.54785 9.05125 6.77628L6.75316 9.07436C6.52462 9.3029 6.15406 9.3029 5.92564 9.07436C5.6971 8.84583 5.6971 8.47527 5.92564 8.24684L8.22361 5.94875C8.45215 5.72021 8.82271 5.72021 9.05125 5.94875Z" fill="#D7D7D7"/>
</svg>
