<svg width="264" height="62" viewBox="0 0 264 62" fill="none" xmlns="http://www.w3.org/2000/svg">
<path d="M0.5 30C0.5 13.7076 13.7076 0.5 30 0.5H234C250.292 0.5 263.5 13.7076 263.5 30V32C263.5 48.2924 250.292 61.5 234 61.5H30C13.7076 61.5 0.5 48.2924 0.5 32V30Z" stroke="#DD2626"/>
<path d="M58.8762 36L58.0922 33.744H53.3242L52.5402 36H50.5402L54.6042 24.8H56.8122L60.8602 36H58.8762ZM53.9322 32.016H57.4842L55.7082 26.96L53.9322 32.016ZM68.8855 24.8H70.6135V36H68.8855V34.848C68.2348 35.7547 67.3015 36.208 66.0855 36.208C64.9868 36.208 64.0481 35.8027 63.2695 34.992C62.4908 34.1707 62.1015 33.1733 62.1015 32C62.1015 30.816 62.4908 29.8187 63.2695 29.008C64.0481 28.1973 64.9868 27.792 66.0855 27.792C67.3015 27.792 68.2348 28.24 68.8855 29.136V24.8ZM64.5495 33.84C65.0295 34.32 65.6321 34.56 66.3575 34.56C67.0828 34.56 67.6855 34.32 68.1655 33.84C68.6455 33.3493 68.8855 32.736 68.8855 32C68.8855 31.264 68.6455 30.656 68.1655 30.176C67.6855 29.6853 67.0828 29.44 66.3575 29.44C65.6321 29.44 65.0295 29.6853 64.5495 30.176C64.0695 30.656 63.8295 31.264 63.8295 32C63.8295 32.736 64.0695 33.3493 64.5495 33.84ZM79.7636 24.8H81.4916V36H79.7636V34.848C79.1129 35.7547 78.1796 36.208 76.9636 36.208C75.8649 36.208 74.9263 35.8027 74.1476 34.992C73.3689 34.1707 72.9796 33.1733 72.9796 32C72.9796 30.816 73.3689 29.8187 74.1476 29.008C74.9263 28.1973 75.8649 27.792 76.9636 27.792C78.1796 27.792 79.1129 28.24 79.7636 29.136V24.8ZM75.4276 33.84C75.9076 34.32 76.5103 34.56 77.2356 34.56C77.9609 34.56 78.5636 34.32 79.0436 33.84C79.5236 33.3493 79.7636 32.736 79.7636 32C79.7636 31.264 79.5236 30.656 79.0436 30.176C78.5636 29.6853 77.9609 29.44 77.2356 29.44C76.5103 29.44 75.9076 29.6853 75.4276 30.176C74.9476 30.656 74.7076 31.264 74.7076 32C74.7076 32.736 74.9476 33.3493 75.4276 33.84ZM95.4417 28H97.1697V36H95.4417V34.848C94.791 35.7547 93.8577 36.208 92.6417 36.208C91.543 36.208 90.6044 35.8027 89.8257 34.992C89.047 34.1707 88.6577 33.1733 88.6577 32C88.6577 30.816 89.047 29.8187 89.8257 29.008C90.6044 28.1973 91.543 27.792 92.6417 27.792C93.8577 27.792 94.791 28.24 95.4417 29.136V28ZM91.1057 33.84C91.5857 34.32 92.1884 34.56 92.9137 34.56C93.639 34.56 94.2417 34.32 94.7217 33.84C95.2017 33.3493 95.4417 32.736 95.4417 32C95.4417 31.264 95.2017 30.656 94.7217 30.176C94.2417 29.6853 93.639 29.44 92.9137 29.44C92.1884 29.44 91.5857 29.6853 91.1057 30.176C90.6257 30.656 90.3857 31.264 90.3857 32C90.3857 32.736 90.6257 33.3493 91.1057 33.84ZM104.192 27.792C105.109 27.792 105.851 28.0853 106.416 28.672C106.981 29.2587 107.264 30.064 107.264 31.088V36H105.536V31.264C105.536 30.6667 105.376 30.208 105.056 29.888C104.736 29.568 104.299 29.408 103.744 29.408C103.136 29.408 102.645 29.6 102.272 29.984C101.899 30.3573 101.712 30.9333 101.712 31.712V36H99.9838V28H101.712V29.024C102.235 28.2027 103.061 27.792 104.192 27.792ZM113.7 36.208C112.527 36.208 111.53 35.8027 110.708 34.992C109.887 34.1813 109.476 33.184 109.476 32C109.476 30.816 109.887 29.8187 110.708 29.008C111.53 28.1973 112.527 27.792 113.7 27.792C114.884 27.792 115.882 28.1973 116.692 29.008C117.514 29.8187 117.924 30.816 117.924 32C117.924 33.184 117.514 34.1813 116.692 34.992C115.882 35.8027 114.884 36.208 113.7 36.208ZM111.924 33.808C112.404 34.288 112.996 34.528 113.7 34.528C114.404 34.528 114.996 34.288 115.476 33.808C115.956 33.328 116.196 32.7253 116.196 32C116.196 31.2747 115.956 30.672 115.476 30.192C114.996 29.712 114.404 29.472 113.7 29.472C112.996 29.472 112.404 29.712 111.924 30.192C111.444 30.672 111.204 31.2747 111.204 32C111.204 32.7253 111.444 33.328 111.924 33.808ZM124.595 29.664H122.611V33.504C122.611 33.8347 122.685 34.0747 122.835 34.224C122.984 34.3627 123.203 34.4427 123.491 34.464C123.789 34.4747 124.157 34.4693 124.595 34.448V36C123.272 36.16 122.323 36.048 121.747 35.664C121.171 35.2693 120.883 34.5493 120.883 33.504V29.664H119.411V28H120.883V26.272L122.611 25.76V28H124.595V29.664ZM131.17 27.792C132.087 27.792 132.829 28.0853 133.394 28.672C133.959 29.2587 134.242 30.064 134.242 31.088V36H132.514V31.264C132.514 30.6667 132.354 30.208 132.034 29.888C131.714 29.568 131.277 29.408 130.722 29.408C130.114 29.408 129.623 29.6 129.25 29.984C128.877 30.3573 128.69 30.9333 128.69 31.712V36H126.962V24.8H128.69V29.024C129.213 28.2027 130.039 27.792 131.17 27.792ZM138.263 32.736C138.391 33.344 138.684 33.8133 139.143 34.144C139.601 34.464 140.161 34.624 140.823 34.624C141.74 34.624 142.428 34.2933 142.887 33.632L144.311 34.464C143.521 35.6267 142.353 36.208 140.807 36.208C139.505 36.208 138.455 35.8133 137.655 35.024C136.855 34.224 136.455 33.216 136.455 32C136.455 30.8053 136.849 29.808 137.639 29.008C138.428 28.1973 139.441 27.792 140.679 27.792C141.852 27.792 142.812 28.2027 143.559 29.024C144.316 29.8453 144.695 30.8427 144.695 32.016C144.695 32.1973 144.673 32.4373 144.631 32.736H138.263ZM138.247 31.328H142.951C142.833 30.6773 142.561 30.1867 142.135 29.856C141.719 29.5253 141.228 29.36 140.663 29.36C140.023 29.36 139.489 29.536 139.063 29.888C138.636 30.24 138.364 30.72 138.247 31.328ZM148.743 29.344C149.18 28.352 150.002 27.856 151.207 27.856V29.728C150.546 29.6853 149.97 29.8453 149.479 30.208C148.988 30.56 148.743 31.1467 148.743 31.968V36H147.015V28H148.743V29.344ZM162.612 27.792C163.711 27.792 164.649 28.1973 165.428 29.008C166.207 29.8187 166.596 30.816 166.596 32C166.596 33.1733 166.207 34.1707 165.428 34.992C164.649 35.8027 163.711 36.208 162.612 36.208C161.396 36.208 160.463 35.7547 159.812 34.848V36H158.084V24.8H159.812V29.136C160.463 28.24 161.396 27.792 162.612 27.792ZM160.532 33.84C161.012 34.32 161.615 34.56 162.34 34.56C163.065 34.56 163.668 34.32 164.148 33.84C164.628 33.3493 164.868 32.736 164.868 32C164.868 31.264 164.628 30.656 164.148 30.176C163.668 29.6853 163.065 29.44 162.34 29.44C161.615 29.44 161.012 29.6853 160.532 30.176C160.052 30.656 159.812 31.264 159.812 32C159.812 32.736 160.052 33.3493 160.532 33.84ZM170.69 29.344C171.127 28.352 171.949 27.856 173.154 27.856V29.728C172.493 29.6853 171.917 29.8453 171.426 30.208C170.935 30.56 170.69 31.1467 170.69 31.968V36H168.962V28H170.69V29.344ZM181.192 28H182.92V36H181.192V34.848C180.541 35.7547 179.608 36.208 178.392 36.208C177.293 36.208 176.354 35.8027 175.576 34.992C174.797 34.1707 174.408 33.1733 174.408 32C174.408 30.816 174.797 29.8187 175.576 29.008C176.354 28.1973 177.293 27.792 178.392 27.792C179.608 27.792 180.541 28.24 181.192 29.136V28ZM176.856 33.84C177.336 34.32 177.938 34.56 178.664 34.56C179.389 34.56 179.992 34.32 180.472 33.84C180.952 33.3493 181.192 32.736 181.192 32C181.192 31.264 180.952 30.656 180.472 30.176C179.992 29.6853 179.389 29.44 178.664 29.44C177.938 29.44 177.336 29.6853 176.856 30.176C176.376 30.656 176.136 31.264 176.136 32C176.136 32.736 176.376 33.3493 176.856 33.84ZM189.942 27.792C190.859 27.792 191.6 28.0853 192.166 28.672C192.731 29.2587 193.014 30.064 193.014 31.088V36H191.286V31.264C191.286 30.6667 191.126 30.208 190.806 29.888C190.486 29.568 190.048 29.408 189.494 29.408C188.886 29.408 188.395 29.6 188.022 29.984C187.648 30.3573 187.462 30.9333 187.462 31.712V36H185.734V28H187.462V29.024C187.984 28.2027 188.811 27.792 189.942 27.792ZM199.45 36.208C198.245 36.208 197.237 35.8027 196.426 34.992C195.626 34.1813 195.226 33.184 195.226 32C195.226 30.8053 195.626 29.808 196.426 29.008C197.237 28.1973 198.245 27.792 199.45 27.792C200.229 27.792 200.938 27.9787 201.578 28.352C202.218 28.7253 202.698 29.2267 203.018 29.856L201.53 30.72C201.349 30.336 201.072 30.0373 200.698 29.824C200.336 29.6 199.914 29.488 199.434 29.488C198.73 29.488 198.138 29.728 197.658 30.208C197.189 30.688 196.954 31.2853 196.954 32C196.954 32.7147 197.189 33.312 197.658 33.792C198.138 34.272 198.73 34.512 199.434 34.512C199.904 34.512 200.325 34.4 200.698 34.176C201.082 33.952 201.37 33.6533 201.562 33.28L203.05 34.128C202.709 34.768 202.218 35.2747 201.578 35.648C200.938 36.0213 200.229 36.208 199.45 36.208ZM209.307 27.792C210.225 27.792 210.966 28.0853 211.531 28.672C212.097 29.2587 212.379 30.064 212.379 31.088V36H210.651V31.264C210.651 30.6667 210.491 30.208 210.171 29.888C209.851 29.568 209.414 29.408 208.859 29.408C208.251 29.408 207.761 29.6 207.387 29.984C207.014 30.3573 206.827 30.9333 206.827 31.712V36H205.099V24.8H206.827V29.024C207.35 28.2027 208.177 27.792 209.307 27.792Z" fill="#DD2626"/>
</svg>
