<svg width="33" height="33" viewBox="0 0 33 33" fill="none" xmlns="http://www.w3.org/2000/svg">
<path d="M16.5 0C7.40135 0 0 7.40135 0 16.5C0 25.5987 7.40135 33 16.5 33C25.5987 33 33 25.5974 33 16.5C33 7.40263 25.5987 0 16.5 0ZM16.5 30.4439C8.81235 30.4439 2.55615 24.1889 2.55615 16.5C2.55615 8.81106 8.81235 2.55615 16.5 2.55615C24.1876 2.55615 30.4439 8.81106 30.4439 16.5C30.4439 24.1889 24.1889 30.4439 16.5 30.4439Z" fill="black"/>
<path d="M22.8909 15.107H17.7786V9.99466C17.7786 9.28915 17.2073 8.71655 16.5005 8.71655C15.7937 8.71655 15.2224 9.28915 15.2224 9.99466V15.107H10.1101C9.40334 15.107 8.83203 15.6796 8.83203 16.3851C8.83203 17.0906 9.40334 17.6632 10.1101 17.6632H15.2224V22.7755C15.2224 23.481 15.7937 24.0536 16.5005 24.0536C17.2073 24.0536 17.7786 23.481 17.7786 22.7755V17.6632H22.8909C23.5977 17.6632 24.169 17.0906 24.169 16.3851C24.169 15.6796 23.5977 15.107 22.8909 15.107Z" fill="black"/>
</svg>
