<svg width="21" height="25" viewBox="0 0 21 25" fill="none" xmlns="http://www.w3.org/2000/svg">
<path d="M20.7598 21.0865L18.9702 18.1052C18.1452 16.7292 17.7088 15.1542 17.7088 13.549V10.9375C17.7088 6.91775 14.4369 3.64587 10.4171 3.64587C6.39735 3.64587 3.12547 6.91775 3.12547 10.9375V13.549C3.12547 15.1542 2.689 16.7292 1.864 18.1052L0.0743967 21.0865C-0.0224783 21.2469 -0.0245778 21.448 0.0671214 21.6105C0.159846 21.774 0.333772 21.8751 0.521272 21.8751H20.3129C20.5004 21.8751 20.6744 21.774 20.7671 21.6105C20.8588 21.4479 20.8567 21.2469 20.7598 21.0865ZM1.4411 20.8334L2.75672 18.6406C3.67962 17.1031 4.16712 15.3427 4.16712 13.549V10.9375C4.16712 7.49065 6.97024 4.68752 10.4171 4.68752C13.864 4.68752 16.6671 7.49065 16.6671 10.9375V13.549C16.6671 15.3427 17.1546 17.1031 18.0765 18.6406L19.3931 20.8334H1.4411Z" fill="black"/>
<path d="M10.4173 0C9.26836 0 8.33398 0.934375 8.33398 2.08335V4.1667C8.33398 4.45415 8.56733 4.6875 8.85483 4.6875C9.14233 4.6875 9.37568 4.45415 9.37568 4.16665V2.08335C9.37568 1.50835 9.84233 1.0417 10.4173 1.0417C10.9923 1.0417 11.459 1.50835 11.459 2.08335V4.1667C11.459 4.45415 11.6923 4.6875 11.9798 4.6875C12.2673 4.6875 12.5007 4.45415 12.5007 4.16665V2.08335C12.5007 0.934375 11.5663 0 10.4173 0Z" fill="black"/>
<path d="M12.6713 21.0906C12.5245 20.8427 12.2067 20.7615 11.9578 20.9042C11.7088 21.05 11.6255 21.3698 11.7713 21.6177C11.9067 21.8479 11.9807 22.1239 11.9807 22.3958C11.9807 23.2573 11.2797 23.9583 10.4182 23.9583C9.55674 23.9583 8.85571 23.2573 8.85571 22.3958C8.85571 22.1239 8.92969 21.8479 9.06509 21.6177C9.20986 21.3687 9.12656 21.05 8.87861 20.9042C8.62759 20.7614 8.31089 20.8427 8.16509 21.0906C7.93486 21.4844 7.81299 21.9354 7.81299 22.3959C7.81304 23.8323 8.98071 25 10.4172 25C11.8537 25 13.0213 23.8323 13.0234 22.3959C13.0234 21.9354 12.9016 21.4844 12.6713 21.0906Z" fill="black"/>
</svg>
