<svg width="22" height="22" viewBox="0 0 22 22" fill="none" xmlns="http://www.w3.org/2000/svg">
<path d="M19.4791 22.0001H2.52089C1.13028 22.0001 0 20.8698 0 19.4792V4.35422C0 2.96361 1.13028 1.8335 2.52089 1.8335H19.4791C20.8697 1.8335 22 2.96361 22 4.35422V19.4792C22 20.8698 20.8697 22.0001 19.4791 22.0001ZM2.52089 3.2085C1.88928 3.2085 1.375 3.72261 1.375 4.35422V19.4792C1.375 20.1108 1.88928 20.6251 2.52089 20.6251H19.4791C20.1107 20.6251 20.625 20.1108 20.625 19.4792V4.35422C20.625 3.72261 20.1107 3.2085 19.4791 3.2085H2.52089Z" fill="#9996A3"/>
<path d="M21.3125 8.7085H0.6875C0.307999 8.7085 0 8.4005 0 8.021C0 7.64149 0.307999 7.3335 0.6875 7.3335H21.3125C21.692 7.3335 22 7.64149 22 8.021C22 8.4005 21.692 8.7085 21.3125 8.7085Z" fill="#9996A3"/>
<path d="M5.271 5.5C4.89149 5.5 4.5835 5.192 4.5835 4.8125V0.6875C4.5835 0.307999 4.89149 0 5.271 0C5.6505 0 5.9585 0.307999 5.9585 0.6875V4.8125C5.9585 5.192 5.6505 5.5 5.271 5.5Z" fill="#9996A3"/>
<path d="M16.729 5.5C16.3495 5.5 16.0415 5.192 16.0415 4.8125V0.6875C16.0415 0.307999 16.3495 0 16.729 0C17.1085 0 17.4165 0.307999 17.4165 0.6875V4.8125C17.4165 5.192 17.1085 5.5 16.729 5.5Z" fill="#9996A3"/>
</svg>
