<svg width="38" height="38" viewBox="0 0 38 38" fill="none" xmlns="http://www.w3.org/2000/svg">
<circle cx="19" cy="19" r="19" fill="#DD2626"/>
<path d="M27.3599 22.0568C26.1269 22.0568 24.9162 21.8639 23.7689 21.4848C23.2067 21.293 22.5156 21.4689 22.1724 21.8213L19.9079 23.5308C17.2817 22.1289 15.664 20.5118 14.2812 17.9052L15.9404 15.6997C16.3715 15.2692 16.5261 14.6404 16.3409 14.0503C15.9601 12.897 15.7667 11.6869 15.7667 10.4533C15.7667 9.56215 15.0417 8.83716 14.1506 8.83716H10.452C9.56093 8.83716 8.83594 9.56215 8.83594 10.4532C8.83594 20.6675 17.1457 28.9772 27.3599 28.9772C28.251 28.9772 28.976 28.2522 28.976 27.3611V23.6728C28.9759 22.7817 28.251 22.0568 27.3599 22.0568Z" fill="white"/>
</svg>
