<svg width="29" height="25" viewBox="0 0 29 25" fill="none" xmlns="http://www.w3.org/2000/svg">
<path d="M14.4448 8.82385C12.8379 8.82385 11.5352 10.1265 11.5352 11.7335C11.5352 13.3403 12.8378 14.6431 14.4448 14.6431C16.0517 14.6431 17.3544 13.3404 17.3544 11.7335C17.3544 10.1265 16.0517 8.82385 14.4448 8.82385ZM14.4448 13.2575C13.603 13.2575 12.9207 12.5751 12.9207 11.7334C12.9207 10.8917 13.603 10.2093 14.4448 10.2093C15.2865 10.2093 15.9688 10.8917 15.9688 11.7334C15.9688 12.5751 15.2865 13.2575 14.4448 13.2575Z" fill="black"/>
<path d="M26.0487 2.17337L7.13638 0.0258748C6.40238 -0.07848 5.6587 0.135799 5.09277 0.614744C4.52691 1.05351 4.16419 1.70391 4.08828 2.41589L3.74193 5.25621H2.66808C1.144 5.25621 0.000936072 6.60706 0.000936072 8.13114V22.298C-0.0374511 23.7513 1.10959 24.9607 2.563 24.9991C2.59801 25 2.63308 25.0002 2.66808 24.9998H21.6843C23.2083 24.9998 24.5939 23.8221 24.5939 22.298V21.7438C25.0664 21.6525 25.5146 21.4638 25.9101 21.1896C26.4713 20.7171 26.8307 20.0479 26.9146 19.3192L28.508 5.25621C28.6704 3.72861 27.5741 2.35443 26.0487 2.17337ZM23.2083 22.298C23.2083 23.06 22.4463 23.6142 21.6843 23.6142H2.66808C1.9797 23.6345 1.40528 23.0928 1.38506 22.4044C1.384 22.3689 1.38447 22.3335 1.38646 22.298V19.7348L6.75536 15.7861C7.40032 15.2909 8.30875 15.3349 8.90292 15.89L12.6785 19.2152C13.2518 19.6966 13.9735 19.9657 14.7221 19.9773C15.3074 19.9844 15.8831 19.8286 16.3848 19.527L23.2084 15.5783V22.298H23.2083ZM23.2083 13.9503L15.6573 18.3493C15.0089 18.7334 14.1882 18.6639 13.6136 18.1761L9.80346 14.8162C8.71145 13.8779 7.11536 13.8203 5.95864 14.6776L1.38646 18.0029V8.13114C1.38646 7.3691 1.90604 6.64173 2.66808 6.64173H21.6843C22.4984 6.67548 23.1559 7.31805 23.2083 8.13114V13.9503ZM27.1238 5.06918C27.1233 5.07376 27.1229 5.0784 27.1224 5.08297L25.4944 19.1459C25.4972 19.5106 25.3309 19.8559 25.0441 20.0812C24.9055 20.2197 24.5938 20.289 24.5938 20.3583V8.13114C24.5391 6.55315 23.2627 5.29195 21.6842 5.25621H5.12738L5.43912 2.55446C5.50675 2.2046 5.68967 1.88755 5.95871 1.65385C6.26249 1.44381 6.62979 1.34589 6.99788 1.37672L25.8756 3.55889C26.6372 3.63122 27.1961 4.30741 27.1238 5.06918Z" fill="black"/>
</svg>
