<svg width="264" height="62" viewBox="0 0 264 62" fill="none" xmlns="http://www.w3.org/2000/svg">
<path d="M0.5 30C0.5 13.7076 13.7076 0.5 30 0.5H234C250.292 0.5 263.5 13.7076 263.5 30V32C263.5 48.2924 250.292 61.5 234 61.5H30C13.7076 61.5 0.5 48.2924 0.5 32V30Z" stroke="#DD2626"/>
<path d="M65.5293 36.208C63.844 36.208 62.4467 35.6533 61.3373 34.544C60.228 33.424 59.6733 32.0427 59.6733 30.4C59.6733 28.7573 60.228 27.3813 61.3373 26.272C62.4467 25.152 63.844 24.592 65.5293 24.592C66.5427 24.592 67.476 24.832 68.3293 25.312C69.1933 25.792 69.8653 26.4427 70.3453 27.264L68.7453 28.192C68.4467 27.6373 68.0093 27.2 67.4333 26.88C66.868 26.5493 66.2333 26.384 65.5293 26.384C64.3347 26.384 63.364 26.7627 62.6173 27.52C61.8813 28.2773 61.5133 29.2373 61.5133 30.4C61.5133 31.5627 61.8813 32.5227 62.6173 33.28C63.364 34.0373 64.3347 34.416 65.5293 34.416C66.2333 34.416 66.8733 34.256 67.4493 33.936C68.0253 33.6053 68.4573 33.1627 68.7453 32.608L70.3453 33.52C69.876 34.3413 69.2093 34.9973 68.3453 35.488C67.492 35.968 66.5533 36.208 65.5293 36.208ZM76.8481 27.792C77.7654 27.792 78.5068 28.0853 79.0721 28.672C79.6374 29.2587 79.9201 30.064 79.9201 31.088V36H78.1921V31.264C78.1921 30.6667 78.0321 30.208 77.7121 29.888C77.3921 29.568 76.9548 29.408 76.4001 29.408C75.7921 29.408 75.3014 29.6 74.9281 29.984C74.5548 30.3573 74.3681 30.9333 74.3681 31.712V36H72.6401V24.8H74.3681V29.024C74.8908 28.2027 75.7174 27.792 76.8481 27.792ZM88.9167 28H90.6447V36H88.9167V34.848C88.266 35.7547 87.3327 36.208 86.1167 36.208C85.018 36.208 84.0794 35.8027 83.3007 34.992C82.522 34.1707 82.1327 33.1733 82.1327 32C82.1327 30.816 82.522 29.8187 83.3007 29.008C84.0794 28.1973 85.018 27.792 86.1167 27.792C87.3327 27.792 88.266 28.24 88.9167 29.136V28ZM84.5807 33.84C85.0607 34.32 85.6634 34.56 86.3887 34.56C87.114 34.56 87.7167 34.32 88.1967 33.84C88.6767 33.3493 88.9167 32.736 88.9167 32C88.9167 31.264 88.6767 30.656 88.1967 30.176C87.7167 29.6853 87.114 29.44 86.3887 29.44C85.6634 29.44 85.0607 29.6853 84.5807 30.176C84.1007 30.656 83.8607 31.264 83.8607 32C83.8607 32.736 84.1007 33.3493 84.5807 33.84ZM97.6668 27.792C98.5842 27.792 99.3255 28.0853 99.8908 28.672C100.456 29.2587 100.739 30.064 100.739 31.088V36H99.0108V31.264C99.0108 30.6667 98.8508 30.208 98.5308 29.888C98.2108 29.568 97.7735 29.408 97.2188 29.408C96.6108 29.408 96.1202 29.6 95.7468 29.984C95.3735 30.3573 95.1868 30.9333 95.1868 31.712V36H93.4588V28H95.1868V29.024C95.7095 28.2027 96.5362 27.792 97.6668 27.792ZM109.767 28H111.463V35.632C111.463 36.848 111.063 37.7813 110.263 38.432C109.463 39.0827 108.493 39.408 107.351 39.408C105.506 39.408 104.242 38.7627 103.559 37.472L105.047 36.608C105.463 37.4293 106.242 37.84 107.383 37.84C108.13 37.84 108.711 37.6427 109.127 37.248C109.554 36.864 109.767 36.3253 109.767 35.632V34.656C109.117 35.584 108.189 36.048 106.983 36.048C105.853 36.048 104.898 35.648 104.119 34.848C103.341 34.0373 102.951 33.0613 102.951 31.92C102.951 30.7787 103.341 29.808 104.119 29.008C104.898 28.1973 105.853 27.792 106.983 27.792C108.189 27.792 109.117 28.256 109.767 29.184V28ZM105.399 33.712C105.89 34.192 106.498 34.432 107.223 34.432C107.949 34.432 108.551 34.192 109.031 33.712C109.522 33.232 109.767 32.6347 109.767 31.92C109.767 31.2053 109.522 30.608 109.031 30.128C108.551 29.648 107.949 29.408 107.223 29.408C106.498 29.408 105.89 29.648 105.399 30.128C104.919 30.608 104.679 31.2053 104.679 31.92C104.679 32.6347 104.919 33.232 105.399 33.712ZM115.638 32.736C115.766 33.344 116.059 33.8133 116.518 34.144C116.976 34.464 117.536 34.624 118.198 34.624C119.115 34.624 119.803 34.2933 120.262 33.632L121.686 34.464C120.896 35.6267 119.728 36.208 118.182 36.208C116.88 36.208 115.83 35.8133 115.03 35.024C114.23 34.224 113.83 33.216 113.83 32C113.83 30.8053 114.224 29.808 115.014 29.008C115.803 28.1973 116.816 27.792 118.054 27.792C119.227 27.792 120.187 28.2027 120.934 29.024C121.691 29.8453 122.07 30.8427 122.07 32.016C122.07 32.1973 122.048 32.4373 122.006 32.736H115.638ZM115.622 31.328H120.326C120.208 30.6773 119.936 30.1867 119.51 29.856C119.094 29.5253 118.603 29.36 118.038 29.36C117.398 29.36 116.864 29.536 116.438 29.888C116.011 30.24 115.739 30.72 115.622 31.328ZM133.718 27.792C134.817 27.792 135.755 28.2027 136.534 29.024C137.313 29.8347 137.702 30.8267 137.702 32C137.702 33.184 137.313 34.1813 136.534 34.992C135.755 35.8027 134.817 36.208 133.718 36.208C132.502 36.208 131.569 35.76 130.918 34.864V39.2H129.19V28H130.918V29.152C131.569 28.2453 132.502 27.792 133.718 27.792ZM131.638 33.84C132.118 34.32 132.721 34.56 133.446 34.56C134.171 34.56 134.774 34.32 135.254 33.84C135.734 33.3493 135.974 32.736 135.974 32C135.974 31.264 135.734 30.656 135.254 30.176C134.774 29.6853 134.171 29.44 133.446 29.44C132.721 29.44 132.118 29.6853 131.638 30.176C131.158 30.656 130.918 31.264 130.918 32C130.918 32.736 131.158 33.3493 131.638 33.84ZM146.404 28H148.132V36H146.404V34.848C145.754 35.7547 144.82 36.208 143.604 36.208C142.506 36.208 141.567 35.8027 140.788 34.992C140.01 34.1707 139.62 33.1733 139.62 32C139.62 30.816 140.01 29.8187 140.788 29.008C141.567 28.1973 142.506 27.792 143.604 27.792C144.82 27.792 145.754 28.24 146.404 29.136V28ZM142.068 33.84C142.548 34.32 143.151 34.56 143.876 34.56C144.602 34.56 145.204 34.32 145.684 33.84C146.164 33.3493 146.404 32.736 146.404 32C146.404 31.264 146.164 30.656 145.684 30.176C145.204 29.6853 144.602 29.44 143.876 29.44C143.151 29.44 142.548 29.6853 142.068 30.176C141.588 30.656 141.348 31.264 141.348 32C141.348 32.736 141.588 33.3493 142.068 33.84ZM152.451 30.208C152.451 30.4747 152.595 30.688 152.883 30.848C153.182 30.9973 153.539 31.1307 153.955 31.248C154.382 31.3547 154.809 31.4827 155.235 31.632C155.662 31.7813 156.019 32.0373 156.307 32.4C156.606 32.752 156.755 33.2 156.755 33.744C156.755 34.512 156.457 35.1147 155.859 35.552C155.273 35.9893 154.531 36.208 153.635 36.208C152.846 36.208 152.169 36.0427 151.603 35.712C151.038 35.3813 150.627 34.9227 150.371 34.336L151.859 33.472C152.137 34.24 152.729 34.624 153.635 34.624C154.542 34.624 154.995 34.3253 154.995 33.728C154.995 33.472 154.846 33.264 154.547 33.104C154.259 32.944 153.902 32.8107 153.475 32.704C153.059 32.5867 152.638 32.4533 152.211 32.304C151.785 32.1547 151.422 31.9093 151.123 31.568C150.835 31.216 150.691 30.7733 150.691 30.24C150.691 29.504 150.969 28.912 151.523 28.464C152.089 28.016 152.787 27.792 153.619 27.792C154.281 27.792 154.867 27.9413 155.379 28.24C155.902 28.528 156.302 28.9333 156.579 29.456L155.123 30.272C154.846 29.664 154.345 29.36 153.619 29.36C153.289 29.36 153.011 29.4347 152.787 29.584C152.563 29.7227 152.451 29.9307 152.451 30.208ZM160.142 30.208C160.142 30.4747 160.286 30.688 160.574 30.848C160.873 30.9973 161.23 31.1307 161.646 31.248C162.073 31.3547 162.499 31.4827 162.926 31.632C163.353 31.7813 163.71 32.0373 163.998 32.4C164.297 32.752 164.446 33.2 164.446 33.744C164.446 34.512 164.147 35.1147 163.55 35.552C162.963 35.9893 162.222 36.208 161.326 36.208C160.537 36.208 159.859 36.0427 159.294 35.712C158.729 35.3813 158.318 34.9227 158.062 34.336L159.55 33.472C159.827 34.24 160.419 34.624 161.326 34.624C162.233 34.624 162.686 34.3253 162.686 33.728C162.686 33.472 162.537 33.264 162.238 33.104C161.95 32.944 161.593 32.8107 161.166 32.704C160.75 32.5867 160.329 32.4533 159.902 32.304C159.475 32.1547 159.113 31.9093 158.814 31.568C158.526 31.216 158.382 30.7733 158.382 30.24C158.382 29.504 158.659 28.912 159.214 28.464C159.779 28.016 160.478 27.792 161.31 27.792C161.971 27.792 162.558 27.9413 163.07 28.24C163.593 28.528 163.993 28.9333 164.27 29.456L162.814 30.272C162.537 29.664 162.035 29.36 161.31 29.36C160.979 29.36 160.702 29.4347 160.478 29.584C160.254 29.7227 160.142 29.9307 160.142 30.208ZM175.669 28H177.493L174.981 36H173.285L171.621 30.608L169.941 36H168.245L165.733 28H167.557L169.109 33.52L170.789 28H172.437L174.101 33.52L175.669 28ZM183.029 36.208C181.855 36.208 180.858 35.8027 180.037 34.992C179.215 34.1813 178.805 33.184 178.805 32C178.805 30.816 179.215 29.8187 180.037 29.008C180.858 28.1973 181.855 27.792 183.029 27.792C184.213 27.792 185.21 28.1973 186.021 29.008C186.842 29.8187 187.253 30.816 187.253 32C187.253 33.184 186.842 34.1813 186.021 34.992C185.21 35.8027 184.213 36.208 183.029 36.208ZM181.253 33.808C181.733 34.288 182.325 34.528 183.029 34.528C183.733 34.528 184.325 34.288 184.805 33.808C185.285 33.328 185.525 32.7253 185.525 32C185.525 31.2747 185.285 30.672 184.805 30.192C184.325 29.712 183.733 29.472 183.029 29.472C182.325 29.472 181.733 29.712 181.253 30.192C180.773 30.672 180.533 31.2747 180.533 32C180.533 32.7253 180.773 33.328 181.253 33.808ZM191.343 29.344C191.78 28.352 192.602 27.856 193.807 27.856V29.728C193.146 29.6853 192.57 29.8453 192.079 30.208C191.588 30.56 191.343 31.1467 191.343 31.968V36H189.615V28H191.343V29.344ZM201.845 24.8H203.573V36H201.845V34.848C201.194 35.7547 200.261 36.208 199.045 36.208C197.946 36.208 197.008 35.8027 196.229 34.992C195.45 34.1707 195.061 33.1733 195.061 32C195.061 30.816 195.45 29.8187 196.229 29.008C197.008 28.1973 197.946 27.792 199.045 27.792C200.261 27.792 201.194 28.24 201.845 29.136V24.8ZM197.509 33.84C197.989 34.32 198.592 34.56 199.317 34.56C200.042 34.56 200.645 34.32 201.125 33.84C201.605 33.3493 201.845 32.736 201.845 32C201.845 31.264 201.605 30.656 201.125 30.176C200.645 29.6853 200.042 29.44 199.317 29.44C198.592 29.44 197.989 29.6853 197.509 30.176C197.029 30.656 196.789 31.264 196.789 32C196.789 32.736 197.029 33.3493 197.509 33.84Z" fill="#DD2626"/>
</svg>
