<svg width="22" height="23" viewBox="0 0 22 23" fill="none" xmlns="http://www.w3.org/2000/svg">
<path d="M11 1C4.92059 1 0 5.91975 0 12C0 13.9294 0.503204 15.8138 1.45876 17.4758L0.0414581 21.8771C-0.0574036 22.1839 0.0238342 22.5203 0.25177 22.7482C0.477524 22.974 0.813049 23.0582 1.12289 22.9585L5.52417 21.5412C7.18619 22.4968 9.0706 23 11 23C17.0794 23 22 18.0802 22 12C22 5.92059 17.0802 1 11 1ZM11 21.2812C9.25725 21.2812 7.55847 20.795 6.0873 19.875C5.87564 19.7428 5.61279 19.707 5.36824 19.7857L2.19107 20.8089L3.21426 17.6318C3.29181 17.3907 3.25908 17.1275 3.1248 16.9127C2.205 15.4415 1.71875 13.7428 1.71875 12C1.71875 6.88235 5.88235 2.71875 11 2.71875C16.1176 2.71875 20.2812 6.88235 20.2812 12C20.2812 17.1176 16.1176 21.2812 11 21.2812Z" fill="#9996A3"/>
<circle cx="18" cy="4" r="3.5" fill="#DD2626" stroke="white"/>
</svg>
