<svg width="25" height="24" viewBox="0 0 25 24" fill="none" xmlns="http://www.w3.org/2000/svg">
<path d="M12.9522 0.82666C6.49669 0.82666 1.2334 5.52836 1.2334 11.2954C1.2334 11.626 1.2334 11.92 1.27456 12.2505L2.09693 12.177C2.05577 11.8832 2.05577 11.5892 2.05577 11.2954C2.05577 5.93245 6.94884 1.56131 12.9522 1.56131C18.9555 1.56131 23.8486 5.93245 23.8486 11.2954C23.8486 16.5481 19.2023 20.8459 13.3634 21.0296L14.2681 20.2214L13.6924 19.7072L11.7598 21.4337L13.6924 23.16L14.2681 22.6458L13.2813 21.7642C19.7779 21.5806 24.8766 16.7686 24.671 11.0017C24.4654 5.3447 19.2844 0.82666 12.9522 0.82666Z" fill="black"/>
<path d="M20.5595 5.2345H5.75684V11.8463H20.5595V5.2345ZM19.7371 11.1117H6.5792V5.96915H19.7371V11.1117Z" fill="black"/>
<path d="M13.1579 10.0098C14.0626 10.0098 14.8027 9.34865 14.8027 8.54047C14.8027 7.73228 14.0626 7.07117 13.1579 7.07117C12.2534 7.07117 11.5132 7.73228 11.5132 8.54047C11.5132 9.34865 12.2534 10.0098 13.1579 10.0098ZM13.1579 7.80582C13.6103 7.80582 13.9803 8.13637 13.9803 8.54047C13.9803 8.94456 13.6103 9.27511 13.1579 9.27511C12.7056 9.27511 12.3356 8.94456 12.3356 8.54047C12.3356 8.13637 12.7056 7.80582 13.1579 7.80582Z" fill="black"/>
<path d="M8.22374 7.43851H9.0461V6.70386H7.40137V8.17316H8.22374V7.43851Z" fill="black"/>
<path d="M9.0461 9.64249H8.22374V8.90784H7.40137V10.3771H9.0461V9.64249Z" fill="black"/>
<path d="M18.9148 8.90784H18.0924V9.64249H17.27V10.3771H18.9148V8.90784Z" fill="black"/>
<path d="M18.0924 8.17316H18.9148V6.70386H17.27V7.43851H18.0924V8.17316Z" fill="black"/>
<path d="M9.45703 8.1731H10.6906V8.90774H9.45703V8.1731Z" fill="black"/>
<path d="M15.625 8.1731H16.8586V8.90774H15.625V8.1731Z" fill="black"/>
<path d="M2.46729 16.6217H3.28965V17.7237H2.46729V16.6217Z" fill="black"/>
<path d="M20.5593 15.8503C20.5593 15.1156 19.8604 14.4913 19.038 14.4913C18.9145 14.4913 18.7501 14.4913 18.6268 14.5278L13.6514 15.8135C13.6103 15.8135 13.528 15.8503 13.487 15.8135L12.3356 15.6298C13.1168 15.2259 13.4047 14.3442 12.9935 13.6463C12.7056 13.1688 12.1711 12.8749 11.5544 12.8749H6.37338C6.16778 12.8749 5.96219 12.9116 5.7566 13.022L4.93423 13.4994V12.9484H0V19.193H4.93423V18.2746L9.00492 19.7807C9.25167 19.8908 9.58074 19.8908 9.82729 19.8175L19.4492 17.1359C20.1069 16.989 20.5593 16.4748 20.5593 15.8503ZM4.11186 18.4583H0.822371V13.6831H2.46711V15.887H3.28948V13.6831H4.11186V18.4583ZM9.6217 19.1194C9.53958 19.1562 9.41611 19.1562 9.33399 19.1194L4.93423 17.4664V14.3442L6.16778 13.7198C6.20894 13.6831 6.29126 13.6831 6.37338 13.6831H11.5132C11.9655 13.6831 12.3356 14.0136 12.3356 14.4177C12.3356 14.8218 11.9655 15.1524 11.5132 15.1524H8.6349V15.5197L8.55278 15.887L13.2814 16.5849C13.4458 16.6217 13.6514 16.5849 13.8159 16.5481L18.7913 15.2625C19.1613 15.1524 19.5313 15.3728 19.6548 15.7034C19.7781 16.0339 19.5725 16.3645 19.2024 16.4748L9.6217 19.1194Z" fill="black"/>
</svg>
