<svg width="33" height="30" viewBox="0 0 33 30" fill="none" xmlns="http://www.w3.org/2000/svg">
<path d="M26.6508 8.14963C25.5362 2.66434 20.0992 -0.895958 14.507 0.197296C10.4167 0.996924 7.21851 4.13197 6.40076 8.14345C2.43566 8.59167 -0.408569 12.1078 0.0481393 15.9972C0.468593 19.5768 3.55956 22.2775 7.23311 22.275H12.3954C12.9656 22.275 13.4279 21.8216 13.4279 21.2623C13.4279 20.7029 12.9656 20.2495 12.3954 20.2495H7.23311C4.38183 20.233 2.08444 17.9526 2.10106 15.1561C2.11793 12.3597 4.44276 10.106 7.29404 10.1223C7.82023 10.1225 8.26234 9.73407 8.32025 9.22115C8.84443 4.77627 12.943 1.58985 17.4746 2.10401C21.2843 2.53642 24.2897 5.48403 24.7303 9.22115C24.8169 9.7432 25.2781 10.1257 25.8174 10.1223C28.6687 10.1223 30.9799 12.3893 30.9799 15.186C30.9799 17.9825 28.6687 20.2495 25.8174 20.2495H20.6551C20.0849 20.2495 19.6226 20.7029 19.6226 21.2623C19.6226 21.8216 20.0849 22.275 20.6551 22.275H25.8177C29.8089 22.2505 33.0245 19.0572 32.9999 15.1421C32.9772 11.5768 30.2586 8.58278 26.6508 8.14963Z" fill="#DD2626"/>
<path d="M19.6949 18.4385C20.0866 18.8436 20.7326 18.8548 21.1381 18.4636C21.5435 18.0727 21.5547 17.4276 21.1632 17.0228C21.155 17.0141 21.1465 17.0059 21.1381 16.9977L16.8097 12.6745C16.4118 12.2759 15.7654 12.2751 15.3663 12.6725C15.3658 12.6732 15.365 12.6737 15.3645 12.6745L11.0362 16.9977C10.6308 17.3886 10.6196 18.0337 11.011 18.4385C11.4027 18.8434 12.0488 18.8546 12.4542 18.4636C12.4627 18.4554 12.4711 18.447 12.4794 18.4385L15.0666 15.854V28.6808C15.0666 29.2437 15.5235 29.7 16.0872 29.7C16.6507 29.7 17.1076 29.2437 17.1076 28.6808V15.854L19.6949 18.4385Z" fill="#DD2626"/>
</svg>
