<svg width="163" height="211" viewBox="0 0 163 211" fill="none" xmlns="http://www.w3.org/2000/svg">
<circle cx="80.5" cy="118.5" r="69.5" fill="#FFCAAC"/>
<path d="M136.183 171.322H124.087C124.869 171.094 125.444 170.38 125.444 169.524C125.444 168.822 125.056 168.218 124.486 167.894C124.722 167.61 124.952 167.315 125.164 166.999C128.187 162.507 135.191 148.357 138.602 137.949C140.146 133.238 140.123 128.158 138.532 123.463C135.447 114.356 129.553 95.2033 127.905 91.5513C124.791 84.7643 115.841 83.8993 104.21 80.7383L104.243 79.7743L95.76 75.4113L95.356 77.3053L93.634 76.4473L93.53 76.5434V76.4473V72.8013C105.18 67.8233 105.535 54.2223 105.786 49.9393C107.442 49.3763 108.642 47.8283 108.642 45.9813V43.2543C111.104 31.6373 114.38 -9.93166 74.936 2.19334C54.037 -4.75366 56.031 31.3703 58.245 42.8823V45.9794C58.245 47.8484 59.471 49.4133 61.162 49.9573C61.412 54.2563 61.784 67.7913 73.369 72.7793V75.1783V76.5453L73.259 76.4423C73.259 76.4423 72.514 76.8133 71.53 77.3033L71.126 75.4083L62.643 79.7713L62.676 80.7353C51.045 83.8963 42.095 84.7614 38.981 91.5484C37.334 95.1994 31.44 114.35 28.355 123.457C26.763 128.154 26.741 133.236 28.285 137.949C31.696 148.358 38.699 162.505 41.722 166.996C41.934 167.312 42.164 167.607 42.4 167.891C41.831 168.215 41.442 168.819 41.442 169.521C41.442 170.377 42.017 171.091 42.799 171.319H30.705C26.53 171.319 23.145 174.704 23.145 178.879C23.145 183.054 26.53 186.439 30.705 186.439H136.183C140.358 186.439 143.743 183.054 143.743 178.879C143.743 174.704 140.358 171.322 136.183 171.322Z" fill="#C8C8C8"/>
<path d="M93.527 78.546L90.385 77.097V66.272H70.225V77.097L67.071 78.459L67.911 106.778H70.225V111.119H90.385V106.778H92.687L93.527 78.546Z" fill="#F6CCB8"/>
<path d="M70.225 66.272V75.179L90.385 76.447V66.272H70.225Z" fill="#F6CCB8"/>
<path d="M93.809 78.6118L93.059 81.4248C91.763 85.1378 88.439 91.2119 80.549 91.2119C71.647 91.2119 68.25 83.4799 67.196 80.1299L66.792 78.6108C50.395 84.7718 55.426 136.122 55.426 136.122L55.323 178.772L80.34 178.776L106.701 178.772L106.014 136.122C106.015 136.122 110.206 84.7718 93.809 78.6118Z" fill="white"/>
<path d="M85.151 89.8239L83.216 93.5299H77.327L75.447 89.8239L80.299 85.8579L85.151 89.8239Z" fill="#F15D44"/>
<path d="M80.3 85.8579L74.1 92.3849L63.498 79.7379C63.516 79.7289 70.114 76.4429 70.114 76.4429L72.603 78.7459L80.3 85.8579Z" fill="#E6E7E8"/>
<path d="M90.489 76.4468L80.3 85.8568L86.5 92.3888L97.099 79.7338L90.489 76.4468Z" fill="#E6E7E8"/>
<path d="M83.216 94.416L85.613 171.594L80.299 177.469L74.985 171.594L77.327 94.416H83.216Z" fill="#F15D44"/>
<path d="M135.457 137.948C137.001 133.237 136.978 128.157 135.387 123.462C132.302 114.355 126.408 95.2017 124.76 91.5497C121.064 83.4937 109.163 83.7947 94.295 78.6787C93.766 78.4937 93.228 78.3087 92.69 78.1157C91.815 83.2217 80.299 132.582 80.299 132.582C80.299 132.582 68.783 83.2227 67.909 78.1167H67.908C67.37 78.3097 66.832 78.4947 66.303 78.6797C51.435 83.7957 39.533 83.4947 35.838 91.5507C34.191 95.2017 28.297 114.353 25.212 123.46C23.62 128.157 23.598 133.239 25.142 137.952C28.553 148.361 35.556 162.508 38.579 166.999C41.269 170.997 45.97 172.444 49.371 171.32C48.906 173.474 48.758 175.07 49.244 175.07C49.244 175.07 64.322 175.07 80.299 175.07L80.301 174.867L80.303 175.07C96.28 175.07 111.358 175.07 111.358 175.07C111.843 175.07 111.695 173.474 111.231 171.32C114.632 172.444 119.333 170.996 122.023 166.999C125.043 162.507 132.047 148.357 135.457 137.948Z" fill="#42404D"/>
<path d="M59.5 79.7727L59.828 89.4047L64.639 93.3627L60.895 98.4797L80.172 132.582L67.983 75.4087L59.5 79.7727Z" fill="#4F4C4D"/>
<path d="M101.099 79.7727L100.77 89.4047L95.96 93.3627L99.703 98.4797L80.426 132.582L92.615 75.4087L101.099 79.7727Z" fill="#4F4C4D"/>
<path d="M102.298 37.5468L102.981 28.6758C102.981 17.0758 91.893 7.67578 80.301 7.67578C68.701 7.67578 57.621 17.0758 57.621 28.6758L58.303 37.5388C57.654 37.6948 57.069 37.9928 56.58 38.4118C55.673 39.1848 55.101 40.3268 55.101 41.6118V45.9798C55.101 48.2898 56.96 50.1628 59.275 50.1768C59.275 61.1318 72.437 71.5158 80.301 71.5158C88.165 71.5158 101.327 61.1328 101.327 50.1788C103.632 50.1618 105.497 48.2908 105.497 45.9818V41.6138C105.498 39.6398 104.132 37.9968 102.298 37.5468Z" fill="#F6CCB8"/>
<path opacity="0.8" d="M102.298 37.5468L102.981 28.6758C102.981 17.0758 91.893 7.67578 80.301 7.67578C80.298 7.67578 80.298 37.4958 80.298 37.4958C77.234 44.0118 75.258 53.4558 75.258 53.4558H80.298V71.5158C88.169 71.5138 101.328 61.1318 101.328 50.1788C103.633 50.1618 105.498 48.2908 105.498 45.9818V41.6138C105.498 39.6398 104.132 37.9968 102.298 37.5468Z" fill="#F6CCB8"/>
<path d="M70.712 45.7649C72.5439 45.7649 74.029 44.2798 74.029 42.4479C74.029 40.6159 72.5439 39.1309 70.712 39.1309C68.88 39.1309 67.395 40.6159 67.395 42.4479C67.395 44.2798 68.88 45.7649 70.712 45.7649Z" fill="#F7CDB9"/>
<path d="M70.712 44.926C72.5439 44.926 74.029 43.4409 74.029 41.609C74.029 39.777 72.5439 38.292 70.712 38.292C68.88 38.292 67.395 39.777 67.395 41.609C67.395 43.4409 68.88 44.926 70.712 44.926Z" fill="#3C2415"/>
<path d="M71.838 43.9222C72.2958 43.9222 72.667 43.551 72.667 43.0932C72.667 42.6353 72.2958 42.2642 71.838 42.2642C71.3801 42.2642 71.009 42.6353 71.009 43.0932C71.009 43.551 71.3801 43.9222 71.838 43.9222Z" fill="white"/>
<path d="M90.032 45.7649C91.8639 45.7649 93.349 44.2798 93.349 42.4479C93.349 40.6159 91.8639 39.1309 90.032 39.1309C88.2001 39.1309 86.715 40.6159 86.715 42.4479C86.715 44.2798 88.2001 45.7649 90.032 45.7649Z" fill="#F7CDB9"/>
<path d="M90.032 44.926C91.8639 44.926 93.349 43.4409 93.349 41.609C93.349 39.777 91.8639 38.292 90.032 38.292C88.2001 38.292 86.715 39.777 86.715 41.609C86.715 43.4409 88.2001 44.926 90.032 44.926Z" fill="#3C2415"/>
<path d="M91.158 43.9222C91.6158 43.9222 91.987 43.551 91.987 43.0932C91.987 42.6353 91.6158 42.2642 91.158 42.2642C90.7001 42.2642 90.329 42.6353 90.329 43.0932C90.329 43.551 90.7001 43.9222 91.158 43.9222Z" fill="white"/>
<path d="M71.792 2.19288C49.05 -5.36712 53.417 38.0789 55.676 45.3099C56.087 46.6329 57.855 48.6709 57.864 48.6709C58.553 49.9609 56.041 74.6559 80.33 74.6559C104.618 74.6559 102.106 49.9609 102.795 48.6709C102.803 48.6709 104.572 46.6329 104.983 45.3099C107.243 38.0789 114.15 -10.8271 71.792 2.19288ZM100.056 47.9479C100.056 50.7029 98.362 54.7819 95.958 56.5899C94.925 57.3669 93.543 57.4949 92.355 56.9869C90.351 56.1309 85.873 55.3619 80.329 55.3619C74.785 55.3619 70.307 56.1309 68.303 56.9869C67.115 57.4949 65.733 57.3669 64.7 56.5899C62.296 54.7819 60.602 50.7029 60.602 47.9479C60.602 47.9479 57.256 35.8819 59.772 27.0159C61.018 22.6279 66.398 20.1549 70.824 21.2629C74.037 22.0669 77.373 22.3349 80.329 22.3409C83.284 22.3349 86.62 22.0669 89.834 21.2629C94.259 20.1549 99.64 22.6279 100.885 27.0159C103.402 35.8819 100.056 47.9479 100.056 47.9479Z" fill="#4F3C30"/>
<path d="M74.811 59.3159H85.796C86.143 59.3159 86.318 59.7459 86.061 59.9779C85.274 60.6899 83.57 61.7219 80.304 61.7219C77.038 61.7219 75.334 60.6909 74.547 59.9779C74.289 59.7459 74.464 59.3159 74.811 59.3159Z" fill="#F6CCB8"/>
<path d="M103.106 35.7076H98.56C97.123 34.9546 95.112 34.4746 92.298 34.4746C87.617 34.4746 84.441 35.3716 82.81 37.1226C82.039 36.6986 80.888 36.2166 79.586 36.2166C78.296 36.2166 77.154 36.6896 76.383 37.1106C74.749 35.3666 71.577 34.4736 66.907 34.4736C64.092 34.4736 62.081 34.9536 60.645 35.7066H56.066V38.9816L57.569 39.5086C57.415 40.1226 57.353 40.7456 57.353 41.3456C57.353 46.2856 58.916 49.1456 66.908 49.1456C73.658 49.1456 76.335 47.2206 77.517 41.5166C77.662 40.8186 77.677 40.1536 77.58 39.5286C77.953 39.2906 78.568 39.0816 79.586 39.0816C80.63 39.0816 81.252 39.3006 81.622 39.5466C81.528 40.1656 81.545 40.8246 81.688 41.5156C82.87 47.2196 85.547 49.1446 92.297 49.1446C100.288 49.1446 101.852 46.2846 101.852 41.3446C101.852 40.7406 101.788 40.1146 101.632 39.4966L103.105 38.9796V35.7076H103.106ZM75.872 41.1756C74.848 46.1136 72.921 47.4656 66.907 47.4656C59.58 47.4656 59.032 45.0426 59.032 41.3456C59.032 40.0606 59.032 36.1536 66.907 36.1536C72.34 36.1536 74.481 37.3826 75.321 38.4156C75.915 39.1446 76.1 40.0736 75.872 41.1756ZM92.298 47.4666C86.284 47.4666 84.357 46.1146 83.333 41.1766C83.104 40.0736 83.29 39.1456 83.884 38.4166C84.723 37.3846 86.865 36.1546 92.298 36.1546C100.173 36.1546 100.173 40.0626 100.173 41.3466C100.172 45.0426 99.624 47.4666 92.298 47.4666Z" fill="#43414D"/>
<path d="M133.038 171.322H27.56C23.385 171.322 20 174.707 20 178.882C20 183.057 23.385 186.442 27.56 186.442H133.038C137.213 186.442 140.598 183.057 140.598 178.882C140.598 174.707 137.213 171.322 133.038 171.322Z" fill="#686671"/>
<path d="M120.417 171.405H40.181C39.141 171.405 38.299 170.562 38.299 169.523C38.299 168.483 39.141 167.641 40.181 167.641H120.417C121.457 167.641 122.299 168.483 122.299 169.523C122.299 170.562 121.457 171.405 120.417 171.405Z" fill="#ADADAE"/>
<path d="M117.299 167.777H43.299C40.538 167.777 38.299 165.538 38.299 162.777V111.796C38.299 109.035 40.538 106.796 43.299 106.796H117.299C120.06 106.796 122.299 109.035 122.299 111.796V162.777C122.299 165.538 120.06 167.777 117.299 167.777Z" fill="#E1E1E1"/>
<path opacity="0.5" d="M80.299 142.218C84.0921 142.218 87.167 139.143 87.167 135.35C87.167 131.557 84.0921 128.482 80.299 128.482C76.5059 128.482 73.431 131.557 73.431 135.35C73.431 139.143 76.5059 142.218 80.299 142.218Z" fill="white"/>
<path opacity="0.2" d="M103.197 106.796H41.799C39.866 106.796 38.299 108.363 38.299 110.296V164.277C38.299 166.21 39.866 167.777 41.799 167.777H53.902C56.377 138.714 76.407 114.74 103.197 106.796Z" fill="white"/>
</svg>
