<svg width="304" height="102" viewBox="0 0 304 102" fill="none" xmlns="http://www.w3.org/2000/svg">
<g filter="url(#filter0_d)">
<path d="M20 46C20 29.4315 33.4315 16 50 16H254C270.569 16 284 29.4315 284 46V48C284 64.5685 270.569 78 254 78H50C33.4315 78 20 64.5685 20 48V46Z" fill="#DD2626"/>
<path d="M101.02 54.26C98.9133 54.26 97.1667 53.5667 95.78 52.18C94.3933 50.78 93.7 49.0533 93.7 47C93.7 44.9467 94.3933 43.2267 95.78 41.84C97.1667 40.44 98.9133 39.74 101.02 39.74C102.287 39.74 103.453 40.04 104.52 40.64C105.6 41.24 106.44 42.0533 107.04 43.08L105.04 44.24C104.667 43.5467 104.12 43 103.4 42.6C102.693 42.1867 101.9 41.98 101.02 41.98C99.5267 41.98 98.3133 42.4533 97.38 43.4C96.46 44.3467 96 45.5467 96 47C96 48.4533 96.46 49.6533 97.38 50.6C98.3133 51.5467 99.5267 52.02 101.02 52.02C101.9 52.02 102.7 51.82 103.42 51.42C104.14 51.0067 104.68 50.4533 105.04 49.76L107.04 50.9C106.453 51.9267 105.62 52.7467 104.54 53.36C103.473 53.96 102.3 54.26 101.02 54.26ZM112.068 45.68C112.615 44.44 113.642 43.82 115.148 43.82V46.16C114.322 46.1067 113.602 46.3067 112.988 46.76C112.375 47.2 112.068 47.9333 112.068 48.96V54H109.908V44H112.068V45.68ZM118.976 49.92C119.136 50.68 119.502 51.2667 120.076 51.68C120.649 52.08 121.349 52.28 122.176 52.28C123.322 52.28 124.182 51.8667 124.756 51.04L126.536 52.08C125.549 53.5333 124.089 54.26 122.156 54.26C120.529 54.26 119.216 53.7667 118.216 52.78C117.216 51.78 116.716 50.52 116.716 49C116.716 47.5067 117.209 46.26 118.196 45.26C119.182 44.2467 120.449 43.74 121.996 43.74C123.462 43.74 124.662 44.2533 125.596 45.28C126.542 46.3067 127.016 47.5533 127.016 49.02C127.016 49.2467 126.989 49.5467 126.936 49.92H118.976ZM118.956 48.16H124.836C124.689 47.3467 124.349 46.7333 123.816 46.32C123.296 45.9067 122.682 45.7 121.976 45.7C121.176 45.7 120.509 45.92 119.976 46.36C119.442 46.8 119.102 47.4 118.956 48.16ZM137.778 44H139.938V54H137.778V52.56C136.964 53.6933 135.798 54.26 134.278 54.26C132.904 54.26 131.731 53.7533 130.758 52.74C129.784 51.7133 129.298 50.4667 129.298 49C129.298 47.52 129.784 46.2733 130.758 45.26C131.731 44.2467 132.904 43.74 134.278 43.74C135.798 43.74 136.964 44.3 137.778 45.42V44ZM132.358 51.3C132.958 51.9 133.711 52.2 134.618 52.2C135.524 52.2 136.278 51.9 136.878 51.3C137.478 50.6867 137.778 49.92 137.778 49C137.778 48.08 137.478 47.32 136.878 46.72C136.278 46.1067 135.524 45.8 134.618 45.8C133.711 45.8 132.958 46.1067 132.358 46.72C131.758 47.32 131.458 48.08 131.458 49C131.458 49.92 131.758 50.6867 132.358 51.3ZM149.035 46.08H146.555V50.88C146.555 51.2933 146.649 51.5933 146.835 51.78C147.022 51.9533 147.295 52.0533 147.655 52.08C148.029 52.0933 148.489 52.0867 149.035 52.06V54C147.382 54.2 146.195 54.06 145.475 53.58C144.755 53.0867 144.395 52.1867 144.395 50.88V46.08H142.555V44H144.395V41.84L146.555 41.2V44H149.035V46.08ZM153.284 49.92C153.444 50.68 153.811 51.2667 154.384 51.68C154.958 52.08 155.658 52.28 156.484 52.28C157.631 52.28 158.491 51.8667 159.064 51.04L160.844 52.08C159.858 53.5333 158.398 54.26 156.464 54.26C154.838 54.26 153.524 53.7667 152.524 52.78C151.524 51.78 151.024 50.52 151.024 49C151.024 47.5067 151.518 46.26 152.504 45.26C153.491 44.2467 154.758 43.74 156.304 43.74C157.771 43.74 158.971 44.2533 159.904 45.28C160.851 46.3067 161.324 47.5533 161.324 49.02C161.324 49.2467 161.298 49.5467 161.244 49.92H153.284ZM153.264 48.16H159.144C158.998 47.3467 158.658 46.7333 158.124 46.32C157.604 45.9067 156.991 45.7 156.284 45.7C155.484 45.7 154.818 45.92 154.284 46.36C153.751 46.8 153.411 47.4 153.264 48.16ZM178.765 40H181.065V54H179.265L172.665 44.5V54H170.365V40H172.165L178.765 49.5V40ZM186.421 49.92C186.581 50.68 186.948 51.2667 187.521 51.68C188.094 52.08 188.794 52.28 189.621 52.28C190.768 52.28 191.628 51.8667 192.201 51.04L193.981 52.08C192.994 53.5333 191.534 54.26 189.601 54.26C187.974 54.26 186.661 53.7667 185.661 52.78C184.661 51.78 184.161 50.52 184.161 49C184.161 47.5067 184.654 46.26 185.641 45.26C186.628 44.2467 187.894 43.74 189.441 43.74C190.908 43.74 192.108 44.2533 193.041 45.28C193.988 46.3067 194.461 47.5533 194.461 49.02C194.461 49.2467 194.434 49.5467 194.381 49.92H186.421ZM186.401 48.16H192.281C192.134 47.3467 191.794 46.7333 191.261 46.32C190.741 45.9067 190.128 45.7 189.421 45.7C188.621 45.7 187.954 45.92 187.421 46.36C186.888 46.8 186.548 47.4 186.401 48.16ZM208.491 44H210.771L207.631 54H205.511L203.431 47.26L201.331 54H199.211L196.071 44H198.351L200.291 50.9L202.391 44H204.451L206.531 50.9L208.491 44Z" fill="white"/>
</g>
<defs>
<filter id="filter0_d" x="0" y="0" width="304" height="102" filterUnits="userSpaceOnUse" color-interpolation-filters="sRGB">
<feFlood flood-opacity="0" result="BackgroundImageFix"/>
<feColorMatrix in="SourceAlpha" type="matrix" values="0 0 0 0 0 0 0 0 0 0 0 0 0 0 0 0 0 0 127 0"/>
<feOffset dy="4"/>
<feGaussianBlur stdDeviation="10"/>
<feColorMatrix type="matrix" values="0 0 0 0 0.491667 0 0 0 0 0 0 0 0 0 0 0 0 0 0.31 0"/>
<feBlend mode="normal" in2="BackgroundImageFix" result="effect1_dropShadow"/>
<feBlend mode="normal" in="SourceGraphic" in2="effect1_dropShadow" result="shape"/>
</filter>
</defs>
</svg>
