<svg width="19" height="12" viewBox="0 0 19 12" fill="none" xmlns="http://www.w3.org/2000/svg">
<path d="M18.7079 5.6338C18.5397 5.40371 14.5321 0 9.4137 0C4.29527 0 0.287489 5.40371 0.119475 5.63358C-0.0398248 5.85186 -0.0398248 6.14792 0.119475 6.3662C0.287489 6.59629 4.29527 12 9.4137 12C14.5321 12 18.5397 6.59625 18.7079 6.36638C18.8674 6.14814 18.8674 5.85186 18.7079 5.6338ZM9.4137 10.7586C5.64343 10.7586 2.37798 7.17207 1.41134 5.99958C2.37673 4.82605 5.63534 1.24137 9.4137 1.24137C13.1838 1.24137 16.449 4.8273 17.4161 6.00042C16.4507 7.17391 13.1921 10.7586 9.4137 10.7586Z" fill="black"/>
<path d="M9.41361 2.27588C7.36015 2.27588 5.68945 3.94657 5.68945 6.00003C5.68945 8.05349 7.36015 9.72419 9.41361 9.72419C11.4671 9.72419 13.1378 8.05349 13.1378 6.00003C13.1378 3.94657 11.4671 2.27588 9.41361 2.27588ZM9.41361 8.48278C8.04456 8.48278 6.93086 7.36904 6.93086 6.00003C6.93086 4.63102 8.0446 3.51729 9.41361 3.51729C10.7826 3.51729 11.8963 4.63102 11.8963 6.00003C11.8963 7.36904 10.7827 8.48278 9.41361 8.48278Z" fill="black"/>
</svg>
