<svg width="38" height="38" viewBox="0 0 38 38" fill="none" xmlns="http://www.w3.org/2000/svg">
<path d="M37.8505 34.412L35.2418 26.8199C36.4966 24.2836 37.1602 21.4565 37.1646 18.6119C37.1722 13.7133 35.2769 9.08135 31.8276 5.56962C28.3779 2.05722 23.7808 0.0801839 18.8835 0.00247689C16.3177 -0.0387145 13.8279 0.434059 11.4797 1.4061C9.21473 2.34371 7.18359 3.70183 5.44272 5.44271C3.70177 7.18358 2.34364 9.21472 1.40611 11.4797C0.434067 13.8279 -0.0381865 16.3189 0.00241111 18.8835C0.0799696 23.7808 2.05708 28.3778 5.56948 31.8277C9.07439 35.2702 13.6944 37.1649 18.5824 37.1648C18.592 37.1648 18.6021 37.1648 18.6116 37.1648C21.4563 37.1604 24.2834 36.4968 26.8198 35.242L34.4118 37.8507C34.7038 37.9511 35.0031 38 35.299 38C36.0022 38 36.6862 37.7238 37.2048 37.205C37.9417 36.4681 38.1893 35.3978 37.8505 34.412ZM35.6117 35.6119C35.537 35.6867 35.377 35.8001 35.1439 35.7201L27.099 32.9557C26.98 32.9149 26.8563 32.8946 26.7329 32.8946C26.5511 32.8946 26.3701 32.9386 26.2061 33.0253C23.8811 34.2554 21.2537 34.9078 18.6081 34.9118C9.73523 34.9261 2.39559 27.7192 2.25502 18.8478C2.18429 14.3844 3.88212 10.1894 7.03575 7.03581C10.1894 3.88226 14.383 2.18473 18.8477 2.25531C27.7191 2.39596 34.9254 9.73195 34.9115 18.6084C34.9074 21.2541 34.2551 23.8815 33.0251 26.2064C32.8795 26.4816 32.8544 26.8048 32.9555 27.0992L35.7199 35.1441C35.7999 35.377 35.6865 35.5373 35.6117 35.6119Z" fill="black"/>
<path d="M18.3994 26.9229C17.8102 26.9229 17.2457 27.441 17.2729 28.0493C17.3002 28.6596 17.7679 29.1758 18.3994 29.1758C18.9886 29.1758 19.5531 28.6577 19.5259 28.0493C19.4986 27.439 19.0309 26.9229 18.3994 26.9229Z" fill="black"/>
<path d="M18.3995 9.47607C15.3092 9.47607 12.7949 11.9903 12.7949 15.0807C12.7949 15.7028 13.2993 16.2072 13.9214 16.2072C14.5435 16.2072 15.0479 15.7028 15.0479 15.0807C15.0479 13.2327 16.5515 11.7291 18.3995 11.7291C20.2476 11.7291 21.7512 13.2327 21.7512 15.0807C21.7512 16.9287 20.2476 18.4323 18.3995 18.4323C17.7774 18.4323 17.2731 18.9367 17.2731 19.5588V24.1533C17.2731 24.7754 17.7774 25.2798 18.3995 25.2798C19.0216 25.2798 19.526 24.7755 19.526 24.1533V20.5715C22.0783 20.0487 24.0042 17.7854 24.0042 15.0807C24.0042 11.9903 21.4899 9.47607 18.3995 9.47607Z" fill="black"/>
</svg>
