<svg width="25" height="25" viewBox="0 0 25 25" fill="none" xmlns="http://www.w3.org/2000/svg">
<g clip-path="url(#clip0)">
<path d="M25.0002 24.1666H0.000488281V24.9999H25.0002V24.1666Z" fill="black"/>
<path d="M24.1227 3.56392L22.4561 0.230633C22.3533 0.024698 22.1032 -0.0589468 21.8972 0.0438123C21.8971 0.0438644 21.897 0.0439165 21.8969 0.0439686L18.5636 1.71061C18.3577 1.81348 18.2741 2.06384 18.377 2.26977C18.4798 2.47571 18.7302 2.5593 18.9361 2.45644L21.3503 1.2502L20.6915 3.13101C17.7961 11.3772 10.3384 17.1623 1.63135 17.9167L1.70218 18.75C10.7373 17.9673 18.4756 11.9633 21.4786 3.40601L22.1511 1.48437L23.3769 3.93642C23.4798 4.14235 23.7301 4.22595 23.9361 4.12308C24.1421 4.02022 24.2256 3.76991 24.1227 3.56392Z" fill="black"/>
<path d="M5.00028 20H2.08365C1.85355 20 1.66699 20.1866 1.66699 20.4167V22.9166C1.66699 23.1467 1.85355 23.3333 2.08365 23.3333H5.00028C5.23039 23.3333 5.41695 23.1467 5.41695 22.9166V20.4167C5.41695 20.1866 5.23039 20 5.00028 20ZM4.58362 22.5H2.50032V20.8333H4.58362V22.5Z" fill="black"/>
<path d="M9.5833 18.75H6.66666C6.43656 18.75 6.25 18.9366 6.25 19.1667V22.9166C6.25 23.1467 6.43656 23.3333 6.66666 23.3333H9.5833C9.8134 23.3333 9.99996 23.1467 9.99996 22.9166V19.1667C9.99996 18.9366 9.8134 18.75 9.5833 18.75ZM9.16663 22.5H7.08332V19.5833H9.16663V22.5Z" fill="black"/>
<path d="M14.1668 16.6669H11.2502C11.0201 16.6669 10.8335 16.8534 10.8335 17.0835V22.9168C10.8335 23.1469 11.0201 23.3335 11.2502 23.3335H14.1668C14.3969 23.3335 14.5834 23.1469 14.5834 22.9168V17.0835C14.5834 16.8534 14.3969 16.6669 14.1668 16.6669ZM13.7501 22.5001H11.6668V17.5002H13.7501V22.5001Z" fill="black"/>
<path d="M18.7498 13.7502H15.8332C15.6031 13.7502 15.4165 13.9368 15.4165 14.1669V22.9168C15.4165 23.1469 15.6031 23.3335 15.8332 23.3335H18.7498C18.9799 23.3335 19.1665 23.1469 19.1665 22.9168V14.1669C19.1665 13.9368 18.9799 13.7502 18.7498 13.7502ZM18.3331 22.5001H16.2498V14.5836H18.3331V22.5001Z" fill="black"/>
<path d="M23.3333 7.91699H20.4167C20.1866 7.91699 20 8.10355 20 8.33365V22.9168C20 23.1469 20.1866 23.3335 20.4167 23.3335H23.3333C23.5634 23.3335 23.75 23.1469 23.75 22.9168V8.33365C23.75 8.10355 23.5634 7.91699 23.3333 7.91699ZM22.9166 22.5001H20.8333V8.75032H22.9166V22.5001Z" fill="black"/>
</g>
<defs>
<clipPath id="clip0">
<rect width="25" height="25" fill="white"/>
</clipPath>
</defs>
</svg>
