<svg width="22" height="22" viewBox="0 0 22 22" fill="none" xmlns="http://www.w3.org/2000/svg">
<path d="M17.1875 22H4.8125C3.675 22 2.75 21.075 2.75 19.9376V11.9169H1.14589C0.514282 11.9169 0 11.4026 0 10.771C0 10.4677 0.123871 10.1706 0.339218 9.95529L10.5243 0.191215C10.7902 -0.0637382 11.21 -0.0637382 11.4758 0.191215L21.6509 9.94421C21.8763 10.1706 22 10.4677 22 10.771C22 11.4026 21.4859 11.9169 20.8543 11.9169H19.25V19.9376C19.25 21.075 18.3252 22 17.1875 22ZM1.71338 10.5419H3.4375C3.817 10.5419 4.125 10.8499 4.125 11.2294V19.9376C4.125 20.317 4.433 20.625 4.8125 20.625H17.1875C17.567 20.625 17.875 20.317 17.875 19.9376V11.2294C17.875 10.8499 18.183 10.5419 18.5625 10.5419H20.2868L11 1.64037L1.71338 10.5419Z" fill="black"/>
</svg>
