<svg width="49" height="38" viewBox="0 0 49 38" fill="none" xmlns="http://www.w3.org/2000/svg">
<path d="M33.9576 0C32.174 0 30.7236 1.45049 30.7236 3.23401V3.8186L11.8271 11.3766C11.5207 11.5003 11.3193 11.797 11.3193 12.1276V23.4468C11.3193 23.7775 11.5207 24.0742 11.8271 24.1971L30.7236 31.7551V32.3405C30.7236 34.1241 32.1741 35.5745 33.9576 35.5745C35.7411 35.5745 37.1916 34.124 37.1916 32.3405V3.23401C37.1916 1.45039 35.7412 0 33.9576 0ZM35.5746 32.3404C35.5746 33.2321 34.8494 33.9574 33.9576 33.9574C33.0657 33.9574 32.3405 33.2322 32.3405 32.3404V31.2084C32.3405 30.8769 32.1392 30.5802 31.832 30.4574L12.9363 22.8994V12.675L31.832 5.11701C32.1393 4.99327 32.3405 4.69662 32.3405 4.36595V3.23401C32.3405 2.34225 33.0657 1.61696 33.9576 1.61696C34.8494 1.61696 35.5746 2.34215 35.5746 3.23401V32.3404Z" fill="black"/>
<path d="M12.1276 11.3191H6.46811C2.90173 11.3191 0 14.2208 0 17.7872C0 21.3536 2.90173 24.2553 6.46811 24.2553H12.1276C12.5739 24.2553 12.9361 23.8939 12.9361 23.4468V12.1277C12.9361 11.6813 12.5739 11.3191 12.1276 11.3191ZM11.3192 22.6383H6.46811C3.79273 22.6383 1.61705 20.4626 1.61705 17.7872C1.61705 15.1118 3.79273 12.9361 6.46811 12.9361H11.3192V22.6383Z" fill="black"/>
<path d="M41.4893 14.5945L36.6382 12.9774C36.3908 12.8958 36.1216 12.937 35.9097 13.0891C35.6987 13.241 35.5742 13.4852 35.5742 13.7448V21.8299C35.5742 22.0894 35.6987 22.3335 35.9097 22.4864C36.0496 22.5866 36.2154 22.6383 36.3827 22.6383C36.4684 22.6383 36.5549 22.6246 36.6382 22.5963L41.4893 20.9792C41.82 20.8701 42.0423 20.5612 42.0423 20.2127V15.3617C42.0422 15.0133 41.82 14.7053 41.4893 14.5945ZM40.4253 19.6298L37.1913 20.7076V14.8661L40.4253 15.9439V19.6298Z" fill="black"/>
<path d="M16.095 33.5474L15.2833 32.7348L12.912 23.251C12.8222 22.8913 12.4988 22.6382 12.1277 22.6382H5.65954C5.41216 22.6382 5.17927 22.7514 5.02568 22.9438C4.8721 23.1379 4.81544 23.391 4.8721 23.6319L8.1061 37.3766C8.19422 37.7477 8.52489 37.9999 8.89279 37.9999C8.94376 37.9999 8.99464 37.9951 9.04637 37.9846L15.1183 36.8123C15.1263 36.8107 15.1345 36.8091 15.1425 36.8074C15.4983 36.7274 15.8233 36.5495 16.082 36.2949C16.4507 35.9302 16.6552 35.4451 16.6585 34.926C16.6618 34.4077 16.4629 33.9194 16.095 33.5474ZM14.9461 35.1434C14.9049 35.1846 14.8531 35.2129 14.7965 35.2274L9.50315 36.2502L6.68063 24.2551H11.4962L13.7697 33.3444C13.8052 33.4867 13.8789 33.6169 13.9823 33.7204L14.9493 34.6874C15.031 34.7691 15.0423 34.8652 15.0423 34.9162C15.0415 34.9656 15.0286 35.0617 14.9461 35.1434Z" fill="black"/>
<path d="M48.5107 16.9788H43.6597V18.5958H48.5107V16.9788Z" fill="black"/>
<path d="M47.2843 7.39358L43.2422 9.81958L44.0743 11.206L48.1163 8.77996L47.2843 7.39358Z" fill="black"/>
<path d="M44.0815 24.37L43.2495 25.7566L47.2921 28.1822L48.1241 26.7955L44.0815 24.37Z" fill="black"/>
<path d="M32.3407 4.04248H30.7236V31.5318H32.3407V4.04248Z" fill="black"/>
<path d="M9.70201 14.5532H8.08496V17.7872H9.70201V14.5532Z" fill="black"/>
<path d="M6.46813 14.5532H4.85107V17.7872H6.46813V14.5532Z" fill="black"/>
</svg>
