<svg width="289" height="202" viewBox="0 0 289 202" fill="none" xmlns="http://www.w3.org/2000/svg">
<path opacity="0.1" d="M167.946 31.8511C149.425 31.2088 131.785 25.234 114.939 18.6987C98.0938 12.1635 81.4094 4.92198 63.3291 1.45989C51.7034 -0.768854 38.4051 -1.08359 29.0358 5.1446C20.02 11.1374 17.1078 21.4827 15.5403 31.0834C14.3621 38.307 13.6705 45.9067 16.8978 52.6697C19.1389 57.3626 23.1192 61.3083 25.8623 65.8042C35.4391 81.4514 28.6798 100.742 18.2911 116.021C13.4246 123.186 7.77438 130.023 4.01951 137.651C0.26463 145.279 -1.46681 154.02 1.83471 161.814C5.09269 169.526 12.8483 175.319 21.2673 179.396C38.3359 187.658 58.4652 190.028 78.0925 191.368C121.543 194.337 165.226 193.052 208.791 191.765C224.912 191.287 241.107 190.806 256.966 188.313C265.775 186.931 274.867 184.731 281.263 179.437C289.38 172.709 291.393 161.318 285.953 152.881C276.829 138.731 251.603 135.225 245.228 120.031C241.716 111.674 245.323 102.362 250.425 94.6115C261.367 77.9791 279.708 63.3938 280.674 44.3842C281.34 31.3342 272.521 18.2535 258.887 12.0765C244.595 5.60263 224.781 6.41634 214.236 17.1353C203.379 28.1715 184.3 32.4166 167.946 31.8511Z" fill="#DD2626"/>
<path d="M231.194 174.49C230.154 174.154 229.056 174.037 227.969 174.147C226.645 174.291 226.832 176.304 228.161 176.21C228.826 176.158 229.484 176.037 230.123 175.849L231.194 174.49Z" fill="#DD2626"/>
<path d="M231.596 174.508C232.074 175.49 232.343 176.561 232.385 177.653C232.428 178.983 230.405 179.078 230.313 177.75C230.273 177.085 230.302 176.418 230.4 175.759L231.596 174.508Z" fill="#DD2626"/>
<path d="M234.608 170.199C234.608 170.199 233.96 168.167 229.998 168.956C228.205 169.311 228.254 171.88 230.049 172.152H230.126C232.741 172.515 233.65 171.479 234.608 170.199Z" fill="#DD2626"/>
<path d="M235.02 170.079C235.02 170.079 237.149 170.245 237.282 174.275C237.344 176.09 234.831 176.64 234.157 174.956C234.157 174.93 234.139 174.907 234.129 174.882C233.189 172.423 233.991 171.302 235.02 170.079Z" fill="#DD2626"/>
<path d="M237.864 164.884C237.714 164.147 237.37 163.463 236.868 162.902C236.365 162.342 235.722 161.926 235.005 161.696C232.323 160.852 230.907 164.859 233.527 165.877C234.612 166.273 235.766 166.44 236.918 166.369L237.864 164.884Z" fill="#DD2626"/>
<path d="M241.134 158.193C241.134 158.193 240.051 155.634 237.241 155.122C234.262 154.577 233.361 159.048 236.304 159.762C237.624 160.048 238.99 160.059 240.315 159.795L241.134 158.193Z" fill="#DD2626"/>
<path d="M243.109 151.604C242.65 150.884 242.051 150.263 241.347 149.78C240.643 149.296 239.848 148.959 239.011 148.789C236.45 148.308 235.587 152.139 238.102 152.794C239.681 153.18 241.333 153.157 242.902 152.728L243.109 151.604Z" fill="#DD2626"/>
<path d="M244.971 145.181C244.154 143.835 242.882 142.825 241.385 142.333C238.824 141.548 237.559 145.427 240.105 146.271C241.614 146.772 243.246 146.765 244.751 146.253L244.971 145.181Z" fill="#DD2626"/>
<path d="M245.755 139.329C245.755 139.329 244.73 136.929 242.643 135.66C240.317 134.245 238.102 137.707 240.338 139.265C241.716 140.23 243.48 140.895 245.542 140.45L245.755 139.329Z" fill="#DD2626"/>
<path d="M246.142 132.387C246.142 132.387 245.012 129.964 242.845 128.805C240.422 127.525 238.314 131.062 240.596 132.587C242.09 133.582 243.954 134.227 245.934 133.449L246.142 132.387Z" fill="#DD2626"/>
<path d="M245.901 126.057C245.056 124.746 244.02 123.569 242.827 122.564C241.132 121.18 238.985 123.672 240.591 125.151C242.074 126.51 243.921 127.651 245.829 127.559L245.901 126.057Z" fill="#DD2626"/>
<path d="M245.258 119.982C244.29 118.35 243.123 116.845 241.785 115.499C240.458 114.22 238.496 116.169 239.736 117.518C241.168 119.053 243.099 120.645 245.419 121.341L245.258 119.982Z" fill="#DD2626"/>
<path d="M244.016 112.838C243.217 111.598 242.287 110.447 241.242 109.407C239.905 108.099 237.889 110.067 239.172 111.425C240.535 112.871 242.297 114.225 244.364 114.685L244.016 112.838Z" fill="#DD2626"/>
<path d="M242.93 106.172C242.109 105.062 241.218 104.005 240.264 103.007C239.193 101.904 237.482 103.455 238.491 104.617C239.677 105.983 241.198 107.193 242.948 107.388L242.93 106.172Z" fill="#DD2626"/>
<path d="M241.803 99.9901C241.054 98.5258 240.198 97.1189 239.241 95.7808C238.44 94.6856 236.77 95.8576 237.525 96.9834C238.514 98.4599 239.887 99.921 241.69 100.625L241.803 99.9901Z" fill="#DD2626"/>
<path d="M240.873 91.7734C240.873 91.7734 240.24 90.7013 239.336 89.4551C238.501 88.3062 236.739 89.4935 237.513 90.6834C238.383 92.0165 239.475 93.1526 240.745 93.3778L240.873 91.7734Z" fill="#DD2626"/>
<path d="M240.43 86.3285L239.628 82.3239C239.416 81.2646 237.835 81.5179 237.963 82.5798C238.25 84.719 238.988 86.8709 240.594 88.2834L240.43 86.3285Z" fill="#DD2626"/>
<path d="M240.906 74.9468C240.832 74.7697 240.695 74.6262 240.521 74.5433C240.348 74.4603 240.15 74.4438 239.965 74.4967C239.78 74.5497 239.621 74.6684 239.518 74.8306C239.415 74.9927 239.375 75.187 239.405 75.3766C239.584 76.489 239.854 77.5845 240.215 78.6519L240.906 74.9468Z" fill="#DD2626"/>
<path d="M238.043 164.805C238.758 164.569 239.524 164.528 240.26 164.686C240.997 164.845 241.678 165.197 242.233 165.706C244.282 167.617 241.511 170.823 239.326 169.06C238.445 168.314 237.728 167.395 237.218 166.361L238.043 164.805Z" fill="#DD2626"/>
<path d="M241.316 157.95C241.316 157.95 244.011 157.3 246.096 159.25C248.306 161.317 245.25 164.703 242.922 162.766C241.905 161.876 241.083 160.786 240.507 159.565L241.316 157.95Z" fill="#DD2626"/>
<path d="M243.286 152.054C243.982 151.556 244.772 151.204 245.609 151.018C246.445 150.833 247.31 150.818 248.152 150.975C250.714 151.486 250.076 155.358 247.497 155.028C245.888 154.795 244.364 154.156 243.071 153.173L243.286 152.054Z" fill="#DD2626"/>
<path d="M245.099 145.217C246.358 144.273 247.913 143.809 249.484 143.91C252.163 144.143 251.876 148.208 249.195 148.04C247.607 147.941 246.096 147.325 244.892 146.287L245.099 145.217Z" fill="#DD2626"/>
<path d="M245.722 139.496C245.722 139.496 247.143 137.305 249.412 136.41C251.93 135.414 253.546 139.184 251.1 140.343C249.564 141.067 247.712 141.433 245.745 140.637L245.722 139.496Z" fill="#DD2626"/>
<path d="M245.811 132.282C245.811 132.282 247.248 130.031 249.546 129.171C252.107 128.211 253.744 131.998 251.282 133.214C249.671 134.007 247.737 134.401 245.878 133.372L245.811 132.282Z" fill="#DD2626"/>
<path d="M245.33 125.99C245.875 124.53 246.634 123.159 247.584 121.922C248.941 120.205 251.582 122.178 250.322 123.969C249.164 125.614 247.617 127.121 245.711 127.441L245.33 125.99Z" fill="#DD2626"/>
<path d="M245.132 119.972C245.603 118.13 246.302 116.355 247.212 114.685C248.132 113.094 250.557 114.412 249.733 116.054C248.79 117.935 247.376 119.995 245.342 121.313L245.132 119.972Z" fill="#DD2626"/>
<path d="M243.647 112.505C244.2 111.086 244.91 109.732 245.762 108.47C246.818 106.935 249.156 108.439 248.191 110.026C247.14 111.755 245.66 113.495 243.675 114.376L243.647 112.505Z" fill="#DD2626"/>
<path d="M242.464 106.136C242.749 104.786 243.12 103.456 243.573 102.152C244.085 100.701 246.29 101.402 245.855 102.879C245.343 104.614 244.464 106.346 242.955 107.249L242.464 106.136Z" fill="#DD2626"/>
<path d="M241.641 99.8697C242.037 98.2721 242.551 96.706 243.178 95.1845C243.711 93.9358 245.606 94.6957 245.125 95.9649C244.5 97.6282 243.496 99.363 241.903 100.458L241.641 99.8697Z" fill="#DD2626"/>
<path d="M240.409 92.3364C240.409 92.3364 240.65 91.1159 241.088 89.6395C241.493 88.2782 243.552 88.813 243.217 90.1922C242.843 91.7274 242.192 93.1732 241.065 93.8078L240.409 92.3364Z" fill="#DD2626"/>
<path d="M240.696 86.0573L242.09 82.2191C242.458 81.1955 243.995 81.6919 243.696 82.7308C243.094 84.8035 242.049 86.825 240.243 87.9764L240.696 86.0573Z" fill="#DD2626"/>
<path d="M242.433 75.3485C242.433 75.3485 242.651 75.1745 242.984 74.9007C243.662 74.3377 244.549 75.3203 243.908 75.9242C242.793 76.9365 241.512 77.7485 240.12 78.3244L242.433 75.3485Z" fill="#DD2626"/>
<path d="M242.341 73.125C243.173 71.4263 244.101 69.7758 245.12 68.1813C245.178 68.0714 245.194 67.944 245.166 67.8229C245.137 67.7018 245.065 67.5954 244.963 67.5235C244.861 67.4517 244.737 67.4194 244.613 67.4326C244.489 67.4458 244.374 67.5037 244.29 67.5954C243.47 68.7161 242.666 70.3563 242.056 72.7668L242.341 73.125Z" fill="#DD2626"/>
<path d="M240.753 93.4421L241.05 93.4114C239.769 81.4847 240.309 74.1306 242.548 72.7053L242.387 72.4495C240.015 73.9668 239.451 81.2237 240.753 93.4421Z" fill="#444053"/>
<path d="M245.158 121.64L245.601 121.574C245.435 120.471 245.243 119.35 245.028 118.247C243.163 108.567 241.713 99.619 240.988 92.8228L240.663 92.5669C241.39 99.3759 242.712 108.634 244.59 118.327C244.8 119.422 244.992 120.54 245.158 121.64Z" fill="#444053"/>
<path d="M224.412 181.921C224.478 181.868 231.301 176.653 237.292 166.65C240.804 160.797 243.363 154.424 244.874 147.769C246.767 139.45 246.82 129.762 245.455 120.688L245.056 121.008C248.129 141.371 242.266 157.182 236.795 166.323C230.863 176.233 224.12 181.394 224.05 181.445L224.412 181.921Z" fill="#444053"/>
<path d="M49.6944 181.875C59.1084 181.875 66.7399 180.409 66.7399 178.6C66.7399 176.791 59.1084 175.324 49.6944 175.324C40.2805 175.324 32.6489 176.791 32.6489 178.6C32.6489 180.409 40.2805 181.875 49.6944 181.875Z" fill="#DD2626"/>
<path d="M49.4076 179.802C50.5039 179.802 51.3926 178.641 51.3926 177.208C51.3926 175.775 50.5039 174.613 49.4076 174.613C48.3113 174.613 47.4226 175.775 47.4226 177.208C47.4226 178.641 48.3113 179.802 49.4076 179.802Z" fill="#3F3D56"/>
<path d="M49.4076 176.629C50.5039 176.629 51.3926 175.468 51.3926 174.035C51.3926 172.602 50.5039 171.44 49.4076 171.44C48.3113 171.44 47.4226 172.602 47.4226 174.035C47.4226 175.468 48.3113 176.629 49.4076 176.629Z" fill="#3F3D56"/>
<path d="M49.4076 173.459C50.5039 173.459 51.3926 172.297 51.3926 170.864C51.3926 169.431 50.5039 168.27 49.4076 168.27C48.3113 168.27 47.4226 169.431 47.4226 170.864C47.4226 172.297 48.3113 173.459 49.4076 173.459Z" fill="#3F3D56"/>
<path d="M49.4076 170.286C50.5039 170.286 51.3926 169.125 51.3926 167.692C51.3926 166.259 50.5039 165.097 49.4076 165.097C48.3113 165.097 47.4226 166.259 47.4226 167.692C47.4226 169.125 48.3113 170.286 49.4076 170.286Z" fill="#3F3D56"/>
<path d="M49.4076 167.113C50.5039 167.113 51.3926 165.951 51.3926 164.518C51.3926 163.085 50.5039 161.924 49.4076 161.924C48.3113 161.924 47.4226 163.085 47.4226 164.518C47.4226 165.951 48.3113 167.113 49.4076 167.113Z" fill="#3F3D56"/>
<path d="M49.4076 163.943C50.5039 163.943 51.3926 162.781 51.3926 161.348C51.3926 159.915 50.5039 158.753 49.4076 158.753C48.3113 158.753 47.4226 159.915 47.4226 161.348C47.4226 162.781 48.3113 163.943 49.4076 163.943Z" fill="#3F3D56"/>
<path d="M49.4076 160.77C50.5039 160.77 51.3926 159.608 51.3926 158.175C51.3926 156.742 50.5039 155.581 49.4076 155.581C48.3113 155.581 47.4226 156.742 47.4226 158.175C47.4226 159.608 48.3113 160.77 49.4076 160.77Z" fill="#3F3D56"/>
<path d="M56.8354 136.466C57.1074 136.121 57.3548 135.758 57.5756 135.379L52.3608 134.524L57.9957 134.565C58.537 133.389 58.8324 132.116 58.8637 130.822C58.895 129.529 58.6615 128.242 58.1775 127.042L50.6114 130.962L57.5884 125.844C56.9361 124.713 56.0573 123.728 55.007 122.952C53.9566 122.175 52.7573 121.623 51.4838 121.33C50.2103 121.037 48.8901 121.009 47.6054 121.249C46.3208 121.489 45.0994 121.99 44.0176 122.722C42.9357 123.455 42.0165 124.402 41.3174 125.505C40.6183 126.608 40.1544 127.843 39.9545 129.133C39.7546 130.423 39.8231 131.741 40.1557 133.003C40.4884 134.266 41.0779 135.447 41.8876 136.471C41.4658 137.009 41.1026 137.589 40.8042 138.204L47.5737 141.717L40.3611 139.296C39.8548 140.793 39.7302 142.392 39.9986 143.95C40.2669 145.507 40.9197 146.972 41.8979 148.214C40.7943 149.615 40.1076 151.298 39.9164 153.07C39.7251 154.843 40.0371 156.633 40.8165 158.237C41.5959 159.84 42.8114 161.193 44.3238 162.139C45.8363 163.085 47.5847 163.586 49.3692 163.586C51.1537 163.586 52.9021 163.085 54.4146 162.139C55.927 161.193 57.1425 159.84 57.9219 158.237C58.7013 156.633 59.0133 154.843 58.822 153.07C58.6308 151.298 57.9441 149.615 56.8405 148.214C58.1594 146.54 58.8765 144.472 58.8765 142.343C58.8765 140.213 58.1594 138.145 56.8405 136.471L56.8354 136.466Z" fill="#DD2626"/>
<path opacity="0.1" d="M39.859 142.339C39.8568 144.468 40.5733 146.536 41.8927 148.209C40.7891 149.61 40.1024 151.292 39.9112 153.065C39.72 154.837 40.0319 156.628 40.8113 158.232C41.5907 159.835 42.8062 161.187 44.3187 162.133C45.8311 163.079 47.5796 163.581 49.364 163.581C51.1485 163.581 52.8969 163.079 54.4094 162.133C55.9219 161.187 57.1373 159.835 57.9167 158.232C58.6962 156.628 59.0081 154.837 58.8169 153.065C58.6256 151.292 57.9389 149.61 56.8354 148.209C58.1109 146.594 39.859 141.272 39.859 142.339Z" fill="black"/>
<path d="M59.4147 66.8481V179.874C59.4147 180.392 59.5168 180.905 59.7153 181.384C59.9138 181.863 60.2047 182.298 60.5715 182.664C60.9382 183.031 61.3736 183.321 61.8528 183.52C62.332 183.718 62.8456 183.82 63.3642 183.82H225.718C226.765 183.82 227.77 183.404 228.511 182.664C229.251 181.924 229.667 180.921 229.667 179.874V66.8481H59.4147Z" fill="white"/>
<path opacity="0.1" d="M111.371 76.9656H75.1026C73.879 76.9656 72.8871 77.9565 72.8871 79.179V98.6184C72.8871 99.8408 73.879 100.832 75.1026 100.832H111.371C112.594 100.832 113.586 99.8408 113.586 98.6184V79.179C113.586 77.9565 112.594 76.9656 111.371 76.9656Z" fill="black"/>
<path opacity="0.1" d="M162.676 76.9656H126.408C125.185 76.9656 124.193 77.9565 124.193 79.179V98.6184C124.193 99.8408 125.185 100.832 126.408 100.832H162.676C163.9 100.832 164.892 99.8408 164.892 98.6184V79.179C164.892 77.9565 163.9 76.9656 162.676 76.9656Z" fill="black"/>
<path d="M110.797 77.3008H75.6738C74.4502 77.3008 73.4583 78.2917 73.4583 79.5142V98.2806C73.4583 99.503 74.4502 100.494 75.6738 100.494H110.797C112.021 100.494 113.013 99.503 113.013 98.2806V79.5142C113.013 78.2917 112.021 77.3008 110.797 77.3008Z" fill="#DD2626"/>
<path opacity="0.1" d="M178.285 100.494H213.408C214.632 100.494 215.624 99.5032 215.624 98.2808V79.5143C215.624 78.2919 214.632 77.3009 213.408 77.3009H178.285C177.061 77.3009 176.069 78.2919 176.069 79.5143V98.2808C176.069 99.5032 177.061 100.494 178.285 100.494Z" fill="#444053"/>
<path d="M126.979 100.494H162.103C163.326 100.494 164.318 99.5032 164.318 98.2808V79.5143C164.318 78.2919 163.326 77.3009 162.103 77.3009H126.979C125.756 77.3009 124.764 78.2919 124.764 79.5143V98.2808C124.764 99.5032 125.756 100.494 126.979 100.494Z" fill="#DD2626"/>
<path opacity="0.1" d="M110.797 110.803H75.6738C74.4502 110.803 73.4583 111.794 73.4583 113.017V131.783C73.4583 133.006 74.4502 133.997 75.6738 133.997H110.797C112.021 133.997 113.013 133.006 113.013 131.783V113.017C113.013 111.794 112.021 110.803 110.797 110.803Z" fill="#444053"/>
<path opacity="0.1" d="M178.285 133.997H213.408C214.632 133.997 215.624 133.006 215.624 131.783V113.017C215.624 111.795 214.632 110.804 213.408 110.804H178.285C177.061 110.804 176.069 111.795 176.069 113.017V131.783C176.069 133.006 177.061 133.997 178.285 133.997Z" fill="#444053"/>
<path opacity="0.1" d="M126.979 133.997H162.103C163.326 133.997 164.318 133.006 164.318 131.783V113.017C164.318 111.795 163.326 110.804 162.103 110.804H126.979C125.756 110.804 124.764 111.795 124.764 113.017V131.783C124.764 133.006 125.756 133.997 126.979 133.997Z" fill="#444053"/>
<path opacity="0.1" d="M110.797 144.306H75.6738C74.4502 144.306 73.4583 145.297 73.4583 146.52V165.286C73.4583 166.509 74.4502 167.5 75.6738 167.5H110.797C112.021 167.5 113.013 166.509 113.013 165.286V146.52C113.013 145.297 112.021 144.306 110.797 144.306Z" fill="#444053"/>
<path opacity="0.1" d="M178.285 167.502H213.408C214.632 167.502 215.624 166.511 215.624 165.289V146.522C215.624 145.3 214.632 144.309 213.408 144.309H178.285C177.061 144.309 176.069 145.3 176.069 146.522V165.289C176.069 166.511 177.061 167.502 178.285 167.502Z" fill="#444053"/>
<path opacity="0.1" d="M126.979 167.502H162.103C163.326 167.502 164.318 166.511 164.318 165.289V146.522C164.318 145.3 163.326 144.309 162.103 144.309H126.979C125.756 144.309 124.764 145.3 124.764 146.522V165.289C124.764 166.511 125.756 167.502 126.979 167.502Z" fill="#444053"/>
<path d="M59.4147 46.8865V67.4211H229.667V46.8865C229.668 46.3681 229.566 45.8548 229.367 45.3758C229.169 44.8967 228.878 44.4615 228.511 44.0948C228.145 43.7281 227.709 43.4373 227.23 43.2388C226.75 43.0404 226.237 42.9382 225.718 42.9382H63.3642C62.8453 42.9382 62.3315 43.0404 61.8522 43.2388C61.3729 43.4373 60.9373 43.7281 60.5706 44.0948C60.2038 44.4615 59.9129 44.8967 59.7146 45.3758C59.5162 45.8548 59.4143 46.3681 59.4147 46.8865V46.8865ZM101.548 52.9612C100.925 52.9612 100.315 52.7764 99.7965 52.4303C99.278 52.0842 98.8739 51.5922 98.6352 51.0167C98.3966 50.4411 98.3341 49.8078 98.4558 49.1967C98.5775 48.5857 98.8777 48.0244 99.3187 47.5839C99.7597 47.1434 100.321 46.8434 100.933 46.7219C101.545 46.6003 102.179 46.6627 102.755 46.9011C103.331 47.1395 103.823 47.5432 104.17 48.0612C104.516 48.5792 104.701 49.1882 104.701 49.8112C104.701 50.6467 104.369 51.4478 103.778 52.0386C103.186 52.6293 102.384 52.9612 101.548 52.9612V52.9612ZM187.534 52.9612C186.91 52.9612 186.301 52.7764 185.782 52.4303C185.264 52.0842 184.86 51.5922 184.621 51.0167C184.382 50.4411 184.32 49.8078 184.441 49.1967C184.563 48.5857 184.863 48.0244 185.304 47.5839C185.745 47.1434 186.307 46.8434 186.919 46.7219C187.53 46.6003 188.164 46.6627 188.74 46.9011C189.317 47.1395 189.809 47.5432 190.155 48.0612C190.502 48.5792 190.687 49.1882 190.687 49.8112C190.687 50.2253 190.605 50.6354 190.446 51.0179C190.288 51.4004 190.055 51.7478 189.762 52.0404C189.468 52.3329 189.12 52.5649 188.737 52.7229C188.354 52.8809 187.943 52.9618 187.529 52.9612H187.534Z" fill="#DD2626"/>
<path opacity="0.1" d="M101.548 46.0881C100.811 46.0876 100.09 46.3056 99.477 46.7143C98.8638 47.1231 98.3857 47.7044 98.1033 48.3847C97.8208 49.0649 97.7466 49.8136 97.8901 50.536C98.0337 51.2584 98.3884 51.922 98.9095 52.4429C99.4306 52.9639 100.095 53.3187 100.818 53.4626C101.541 53.6065 102.29 53.5329 102.971 53.2512C103.652 52.9694 104.234 52.4922 104.644 51.8799C105.054 51.2676 105.272 50.5477 105.272 49.8112C105.273 49.3224 105.176 48.8383 104.989 48.3867C104.802 47.935 104.528 47.5245 104.182 47.1788C103.837 46.833 103.426 46.5587 102.974 46.3716C102.522 46.1845 102.037 46.0881 101.548 46.0881V46.0881ZM101.548 52.9611C100.925 52.9611 100.315 52.7764 99.7964 52.4303C99.2779 52.0842 98.8738 51.5922 98.6351 51.0166C98.3965 50.4411 98.3341 49.8077 98.4557 49.1967C98.5774 48.5857 98.8777 48.0244 99.3186 47.5839C99.7596 47.1434 100.321 46.8434 100.933 46.7218C101.545 46.6003 102.179 46.6627 102.755 46.9011C103.331 47.1395 103.823 47.5432 104.17 48.0612C104.516 48.5792 104.701 49.1882 104.701 49.8112C104.701 50.6466 104.369 51.4478 103.778 52.0386C103.186 52.6293 102.384 52.9611 101.548 52.9611V52.9611Z" fill="black"/>
<path opacity="0.1" d="M187.529 46.0881C186.792 46.0881 186.071 46.3065 185.458 46.7156C184.845 47.1247 184.368 47.7062 184.086 48.3865C183.804 49.0668 183.73 49.8154 183.874 50.5376C184.017 51.2598 184.372 51.9232 184.894 52.4438C185.415 52.9645 186.079 53.3191 186.802 53.4628C187.525 53.6064 188.274 53.5327 188.955 53.2509C189.636 52.9691 190.218 52.4919 190.627 51.8797C191.037 51.2674 191.255 50.5476 191.255 49.8112C191.255 48.8238 190.863 47.8768 190.164 47.1786C189.465 46.4804 188.517 46.0881 187.529 46.0881ZM187.529 52.9611C186.905 52.9611 186.296 52.7764 185.777 52.4303C185.259 52.0842 184.854 51.5922 184.616 51.0166C184.377 50.4411 184.315 49.8077 184.436 49.1967C184.558 48.5857 184.858 48.0244 185.299 47.5839C185.74 47.1434 186.302 46.8434 186.914 46.7218C187.525 46.6003 188.159 46.6627 188.735 46.9011C189.311 47.1395 189.804 47.5432 190.15 48.0612C190.497 48.5792 190.682 49.1882 190.682 49.8112C190.682 50.6466 190.349 51.4478 189.758 52.0386C189.167 52.6293 188.365 52.9611 187.529 52.9611Z" fill="black"/>
<path opacity="0.1" d="M264.609 111.364C266.769 111.364 268.52 109.615 268.52 107.457C268.52 105.299 266.769 103.549 264.609 103.549C262.449 103.549 260.698 105.299 260.698 107.457C260.698 109.615 262.449 111.364 264.609 111.364Z" fill="#DD2626"/>
<path opacity="0.1" d="M278.601 96.5817C282.222 96.5817 285.158 93.6489 285.158 90.0311C285.158 86.4133 282.222 83.4805 278.601 83.4805C274.98 83.4805 272.044 86.4133 272.044 90.0311C272.044 93.6489 274.98 96.5817 278.601 96.5817Z" fill="#DD2626"/>
<path opacity="0.1" d="M269.921 128.367C273.542 128.367 276.478 125.435 276.478 121.817C276.478 118.199 273.542 115.266 269.921 115.266C266.3 115.266 263.364 118.199 263.364 121.817C263.364 125.435 266.3 128.367 269.921 128.367Z" fill="#DD2626"/>
<path opacity="0.1" d="M9.28474 97.6997C14.4126 97.6997 18.5695 93.5468 18.5695 88.4239C18.5695 83.3011 14.4126 79.1482 9.28474 79.1482C4.15692 79.1482 0 83.3011 0 88.4239C0 93.5468 4.15692 97.6997 9.28474 97.6997Z" fill="#DD2626"/>
<path d="M237.087 189.449C236.504 189.011 235.865 188.652 235.187 188.382C235.135 188.356 235.078 188.341 235.02 188.339C233.617 187.332 232.306 186.204 231.102 184.966C231.358 184.761 231.593 184.562 231.844 184.365C230.308 183.633 229.455 181.957 228.625 180.445C226.431 176.424 223.539 172.825 220.085 169.815C220.001 169.49 219.507 169.559 219.243 169.35C219.157 169.267 219.094 169.163 219.061 169.049C219.028 168.934 219.027 168.813 219.056 168.697C219.097 168.462 219.204 168.244 219.263 168.014C219.404 167.474 219.281 166.906 219.22 166.351C219.158 165.795 219.184 165.176 219.553 164.762C219.671 164.626 219.822 164.521 219.937 164.383C220.058 164.22 220.143 164.034 220.188 163.836C220.232 163.638 220.234 163.433 220.193 163.234C220.165 162.835 220.079 162.443 219.937 162.07C221.192 158.658 222.446 155.24 223.699 151.817C224.578 149.427 225.464 146.985 225.554 144.437C225.626 142.39 225.098 140.263 223.858 138.7C224.084 138.646 224.309 138.59 224.532 138.526C223.067 136.586 222.908 134.017 222.87 131.574C222.849 130.356 222.807 129.137 222.744 127.917C223.169 128.104 223.6 128.27 224.04 128.413L224.45 128.539C225.115 128.733 225.794 128.879 226.481 128.974C226.783 129.017 227.091 129.051 227.395 129.071C226.955 127.969 226.515 126.865 226.076 125.76C225.848 125.271 225.709 124.745 225.667 124.207V124.207V124.104C225.667 124.043 225.667 123.982 225.679 123.92C225.697 123.774 225.73 123.63 225.779 123.49C225.802 123.421 225.828 123.354 225.859 123.288C225.95 123.087 226.06 122.894 226.186 122.712C226.279 122.572 226.381 122.436 226.484 122.298C226.865 121.853 227.175 121.351 227.403 120.811C227.493 120.538 227.541 120.252 227.544 119.964C227.549 119.672 227.523 119.381 227.467 119.094C227.431 118.905 227.385 118.713 227.334 118.529C227.301 118.414 227.265 118.298 227.229 118.186L227.198 118.094C227.17 118.007 227.142 117.922 227.111 117.838L227.08 117.751C227.047 117.659 227.014 117.569 226.978 117.477L226.957 117.423C226.468 116.167 225.818 114.969 225.421 113.677C225.316 113.333 225.231 112.984 225.164 112.631C225.147 112.541 225.134 112.449 225.118 112.359C225.103 112.27 225.095 112.206 225.085 112.129C225.075 112.052 225.062 111.95 225.052 111.86L225.029 111.605C225.029 111.523 225.016 111.441 225.011 111.349C225.011 111.193 224.995 111.036 224.993 110.88C224.993 110.824 224.993 110.77 224.993 110.714C224.993 110.596 224.993 110.476 224.993 110.358C224.993 110.294 224.993 110.23 224.993 110.169C224.993 110.051 225.011 109.934 225.021 109.818C225.021 109.762 225.021 109.706 225.039 109.652C225.056 109.482 225.079 109.311 225.108 109.14C225.134 108.989 225.162 108.836 225.193 108.682C225.285 108.262 225.334 107.833 225.336 107.403C225.336 107.321 225.336 107.237 225.318 107.147C225.3 107.058 225.298 107.009 225.285 106.942C225.284 106.922 225.284 106.901 225.285 106.881C225.285 106.835 225.262 106.789 225.252 106.743C225.241 106.697 225.239 106.699 225.231 106.679C225.223 106.658 225.203 106.589 225.188 106.546C225.172 106.502 225.175 106.507 225.167 106.487C225.159 106.466 225.131 106.395 225.111 106.351L225.093 106.305C225.067 106.249 225.039 106.195 225.011 106.141C224.912 105.955 224.797 105.777 224.668 105.609V105.609C223.825 104.504 222.424 103.662 221.653 102.444C221.203 101.655 220.91 100.786 220.79 99.8851C220.751 99.6804 220.718 99.4757 220.682 99.2736C220.646 99.0714 220.616 98.8718 220.58 98.6722C220.557 98.5494 220.534 98.4164 220.508 98.3038L220.493 98.2244C220.472 98.1272 220.452 98.0274 220.429 97.9302L220.413 97.8611C220.39 97.7587 220.367 97.6564 220.342 97.554L220.326 97.5003C220.301 97.3928 220.272 97.2854 220.244 97.1779C220.243 97.1651 220.243 97.1523 220.244 97.1395C220.213 97.0269 220.18 96.9143 220.147 96.8017V96.7787C220.111 96.661 220.075 96.5459 220.037 96.4307C219.998 96.313 219.957 96.1927 219.914 96.075C219.868 95.9548 219.824 95.8345 219.776 95.7168C219.453 94.8924 219.017 94.1172 218.479 93.4138C217.306 91.9093 215.493 90.8294 213.613 90.9011C212.604 90.9395 211.636 91.2926 210.685 91.6431L208.219 92.5515L208.908 92.2342C208.191 92.2982 207.458 92.3647 206.81 92.682C206.162 92.9993 205.614 93.6211 205.594 94.3478C205.581 94.77 205.747 95.1897 205.693 95.6093C205.604 96.3028 204.966 96.7736 204.636 97.3877C204.442 97.7577 204.353 98.1736 204.379 98.5904V98.6108C204.379 98.6594 204.379 98.7055 204.379 98.7541C204.378 98.7677 204.378 98.7814 204.379 98.7951V98.8769C203.355 98.4317 202.33 97.9686 201.306 97.4721C199.613 96.6405 197.899 95.6631 196.844 94.0868C196.506 93.5751 196.245 93.0223 195.909 92.5157C195.524 91.9704 195.096 91.457 194.629 90.9804L191.486 87.5823C191.245 88.0352 191.555 88.57 191.798 89.0203C192.057 89.4927 192.252 89.9968 192.38 90.5198C192.442 90.6902 192.436 90.8779 192.364 91.0444C192.25 91.1816 192.102 91.2866 191.934 91.3489C191.647 91.5294 191.428 91.7997 191.311 92.1177C191.193 92.4356 191.185 92.7834 191.286 93.1068C191.398 93.4252 191.59 93.7092 191.845 93.9308C192.099 94.1525 192.407 94.3041 192.738 94.3708C192.96 94.3961 193.178 94.4494 193.386 94.5295C193.765 94.7163 193.945 95.1513 194.216 95.4763C194.711 96.0699 195.497 96.2925 196.247 96.487C197.41 97.8278 198.619 99.1124 199.782 100.453C201.542 102.482 203.342 104.547 205.637 105.919C205.875 106.062 206.119 106.195 206.365 106.318C206.365 106.359 206.365 106.4 206.352 106.441C206.287 106.743 206.326 107.059 206.462 107.336C206.667 107.661 207.089 107.759 207.466 107.825L209.202 108.135C209.187 108.36 209.159 108.584 209.118 108.805C209.095 108.941 209.067 109.074 209.041 109.209L209.01 109.383C209.01 109.383 209.01 109.401 209.01 109.409C209.01 109.417 209.01 109.501 208.992 109.55C208.974 109.598 208.992 109.583 208.992 109.598V109.721V109.772C208.992 109.826 208.992 109.882 208.992 109.939C209.051 110.619 209.505 111.182 209.958 111.702L210.201 111.996C209.815 112.482 209.545 113.049 209.41 113.654C209.333 114.034 209.295 114.421 209.297 114.808C209.065 115.03 208.889 115.303 208.785 115.607C208.664 116.026 208.618 116.464 208.652 116.899V116.929C208.652 117.091 208.652 117.249 208.652 117.411C208.622 118.022 208.723 118.633 208.949 119.202C208.972 119.248 208.998 119.289 209.021 119.332C208.636 120.085 207.996 120.67 207.538 121.379C207.074 122.166 206.864 123.077 206.937 123.987C207.01 124.897 207.362 125.763 207.945 126.466C208.296 126.871 208.747 127.259 208.788 127.797C208.781 128.04 208.757 128.283 208.716 128.524C208.675 129.102 208.941 129.649 209.085 130.21C209.205 130.675 209.21 131.233 208.944 131.607C208.674 132 208.55 132.474 208.593 132.948C208.723 133.672 208.424 134.396 208.373 135.13C208.35 135.445 208.373 135.765 208.344 136.08C208.307 136.381 208.245 136.679 208.157 136.97C208.157 137.001 208.142 137.034 208.132 137.067C207.499 137.346 206.872 137.636 206.267 137.971C205.941 138.116 205.671 138.364 205.499 138.677C205.397 138.991 205.382 139.328 205.458 139.649L206.003 143.441L205.909 143.401C205.951 144.021 205.996 144.645 206.042 145.271C206.075 145.744 206.119 146.246 206.4 146.625C206.544 146.777 206.673 146.943 206.787 147.119C207.002 147.554 206.746 148.06 206.557 148.505C206.367 148.951 206.3 149.583 206.718 149.823C206.936 149.975 207.17 150.1 207.417 150.197C206.905 152.331 207.376 154.567 207.853 156.709C208.216 158.347 208.581 159.983 208.946 161.617C209.089 162.311 209.17 163.017 209.187 163.725C209.187 163.828 209.187 163.93 209.187 164.032C209.238 165.007 209.411 165.971 209.699 166.903C210.268 168.817 209.722 171.115 209.902 173.201C210.021 174.204 210.221 175.196 210.501 176.166C211.738 181.069 212.842 185.875 213.267 190.915C213.722 191.494 214.339 191.924 215.04 192.151C214.988 192.771 215.058 193.479 215.04 193.84C215.039 194.139 214.992 194.436 214.901 194.72C214.684 195.288 214.133 195.659 213.562 195.859C213.382 195.92 213.201 195.969 213.016 196.013L213.221 195.839C212.05 195.584 210.826 195.799 209.812 196.437C209.653 196.518 209.511 196.63 209.396 196.766C209.28 196.903 209.193 197.06 209.138 197.231C209.096 197.556 209.181 197.884 209.374 198.149C209.938 198.974 210.778 199.57 211.743 199.83C212.697 200.081 213.677 200.218 214.663 200.237L216.471 200.342C216.41 200.445 216.388 200.567 216.41 200.685C216.431 200.803 216.495 200.91 216.589 200.984C216.783 201.126 217.013 201.209 217.253 201.225C217.992 201.334 218.742 201.346 219.484 201.258C219.67 201.253 219.849 201.188 219.996 201.074C220.03 201.043 220.057 201.005 220.076 200.963C220.094 200.921 220.104 200.876 220.104 200.83C220.104 200.784 220.094 200.738 220.076 200.696C220.057 200.654 220.03 200.616 219.996 200.585C220.104 200.582 220.209 200.546 220.297 200.482C220.385 200.418 220.451 200.329 220.488 200.227C220.558 200.019 220.581 199.798 220.554 199.58C220.505 198.738 220.431 197.515 219.993 196.765C219.917 196.628 219.799 196.521 219.656 196.458C219.513 196.395 219.354 196.381 219.202 196.417C218.918 194.919 218.747 193.401 218.69 191.878C219.141 191.708 219.581 191.51 220.006 191.284C218.748 189.255 218.725 186.678 219.11 184.319C219.262 183.574 219.374 182.821 219.445 182.064C219.53 180.555 219.302 178.845 218.464 177.597C219.991 178.567 221.342 179.788 222.46 181.21C224.23 183.513 225.308 186.302 227.477 188.221C227.763 187.943 228.051 187.667 228.343 187.392C228.801 188.166 229.234 188.957 229.642 189.764C229.962 190.357 230.214 190.985 230.395 191.634C230.594 192.628 230.618 193.649 230.464 194.651C230.404 195.184 230.332 195.713 230.246 196.24C230.212 196.466 230.159 196.688 230.09 196.906C230.089 196.836 230.072 196.768 230.041 196.706C229.905 196.468 229.529 196.576 229.324 196.739C228.959 197.013 228.658 197.362 228.44 197.763C228.321 197.959 228.265 198.187 228.282 198.415C228.315 198.553 228.378 198.682 228.466 198.792C228.555 198.903 228.667 198.993 228.794 199.055C229.744 199.61 230.938 199.209 231.957 198.799C232.239 198.698 232.507 198.563 232.756 198.397C233.268 198.029 233.548 197.423 234.057 197.064C234.329 196.915 234.592 196.749 234.844 196.568C235.318 196.135 235.356 195.406 235.702 194.859C236.275 193.914 237.559 193.671 238.061 192.671C238.642 191.565 237.963 190.171 237.087 189.449Z" fill="url(#paint0_linear)"/>
<path d="M215.006 193.953C215.005 194.248 214.957 194.542 214.865 194.823C214.65 195.383 214.097 195.749 213.528 195.946C212.96 196.143 212.355 196.202 211.777 196.373C211.522 196.431 211.287 196.553 211.093 196.727C210.58 197.238 210.888 198.16 211.487 198.541C212.086 198.922 212.85 198.909 213.562 198.861C215.073 198.773 216.574 198.56 218.049 198.223C218.582 198.098 219.204 197.852 219.289 197.313C219.305 197.141 219.291 196.968 219.248 196.801C218.884 194.969 218.691 193.108 218.672 191.24C218.672 191.118 215.7 191.038 215.424 191.217C214.804 191.624 215.04 193.323 215.006 193.953Z" fill="#A1616A"/>
<path d="M228.253 187.435C228.745 188.249 229.207 189.079 229.639 189.925C229.959 190.51 230.212 191.129 230.392 191.77C230.591 192.75 230.614 193.758 230.461 194.746C230.401 195.27 230.328 195.792 230.241 196.314C230.156 196.826 230.021 197.407 229.583 197.701C229.778 197.817 229.997 197.887 230.223 197.907C230.449 197.927 230.677 197.896 230.889 197.817C231.312 197.653 231.701 197.415 232.039 197.113C234.234 195.304 235.881 192.676 235.963 189.833C235.986 189.611 235.944 189.387 235.843 189.188C235.739 189.049 235.608 188.932 235.458 188.845C233.82 187.731 232.299 186.454 230.917 185.035C230.836 184.926 230.717 184.85 230.584 184.823C230.479 184.823 230.377 184.853 230.287 184.907C229.444 185.329 228.036 185.931 227.685 186.89C227.925 187.011 228.123 187.201 228.253 187.435V187.435Z" fill="#A1616A"/>
<path d="M218.008 196.923C216.164 197.691 214.166 197.967 212.171 198.231C211.915 198.262 211.641 198.282 211.472 198.103C211.405 198.019 211.364 197.918 211.356 197.811C211.348 197.704 211.372 197.597 211.426 197.504C211.534 197.32 211.68 197.159 211.853 197.033L213.178 195.926C212.023 195.681 210.818 195.888 209.812 196.504C209.496 196.661 209.255 196.937 209.141 197.271C209.098 197.593 209.183 197.919 209.377 198.18C209.943 198.996 210.782 199.584 211.743 199.838C212.697 200.085 213.676 200.22 214.661 200.24L216.453 200.342C216.392 200.444 216.37 200.565 216.392 200.682C216.414 200.799 216.479 200.904 216.574 200.977C216.769 201.119 216.999 201.203 217.24 201.22C217.978 201.327 218.727 201.337 219.468 201.25C219.654 201.247 219.834 201.183 219.98 201.069C220.014 201.038 220.041 201.001 220.06 200.96C220.079 200.919 220.088 200.874 220.088 200.828C220.088 200.783 220.079 200.738 220.06 200.696C220.041 200.655 220.014 200.618 219.98 200.588C220.089 200.584 220.193 200.549 220.281 200.485C220.369 200.422 220.435 200.334 220.472 200.232C220.541 200.027 220.563 199.81 220.539 199.595C220.49 198.766 220.416 197.548 219.978 196.824C219.54 196.1 218.628 196.668 218.008 196.923Z" fill="#3F3D56"/>
<path d="M237.041 189.608C236.457 189.175 235.818 188.821 235.141 188.556C235.114 188.535 235.082 188.521 235.049 188.514C235.016 188.507 234.981 188.508 234.948 188.516C234.915 188.525 234.884 188.541 234.858 188.563C234.832 188.584 234.811 188.612 234.798 188.643C233.588 190.283 232.643 192.102 231.998 194.035C231.632 195.135 231.342 196.307 230.6 197.197C230.502 197.315 230.343 197.435 230.21 197.366C230.018 197.269 230.136 196.959 230.028 196.773C229.895 196.537 229.531 196.645 229.314 196.806C228.948 197.077 228.647 197.427 228.433 197.829C228.31 198.02 228.254 198.246 228.274 198.472C228.306 198.607 228.367 198.733 228.453 198.842C228.54 198.951 228.649 199.039 228.773 199.101C229.724 199.651 230.917 199.255 231.934 198.845C232.215 198.746 232.482 198.613 232.731 198.449C233.243 198.088 233.522 197.486 234.032 197.136C234.304 196.988 234.566 196.824 234.818 196.645C235.289 196.217 235.33 195.498 235.673 194.956C236.247 194.027 237.53 193.786 238.032 192.799C238.593 191.696 237.917 190.319 237.041 189.608Z" fill="#3F3D56"/>
<path d="M222.747 138.495C224.76 140.005 225.605 142.689 225.515 145.202C225.426 147.715 224.542 150.125 223.666 152.482C222.411 155.854 221.158 159.226 219.906 162.597C220.046 162.967 220.132 163.354 220.162 163.748C220.202 163.944 220.2 164.146 220.156 164.341C220.111 164.536 220.026 164.72 219.906 164.879C219.788 165.015 219.65 165.12 219.522 165.253C219.153 165.662 219.13 166.276 219.189 166.821C219.248 167.367 219.373 167.929 219.233 168.462C219.174 168.689 219.066 168.904 219.025 169.135C218.997 169.249 218.999 169.369 219.032 169.482C219.064 169.596 219.127 169.698 219.212 169.779C219.468 169.984 219.98 169.918 220.055 170.24C223.499 173.204 226.387 176.756 228.584 180.731C229.414 182.223 230.251 183.876 231.801 184.598C230.291 185.793 228.844 187.064 227.465 188.408C225.3 186.514 224.222 183.758 222.455 181.499C221.336 180.094 219.987 178.888 218.464 177.934C219.302 179.165 219.53 180.854 219.445 182.341C219.374 183.088 219.262 183.83 219.11 184.564C218.713 186.893 218.748 189.426 220.006 191.437C218.664 192.133 217.122 192.65 215.624 192.443C214.684 192.309 213.83 191.823 213.237 191.082C212.811 186.107 211.7 181.358 210.473 176.53C210.192 175.566 209.992 174.581 209.876 173.584C209.697 171.537 210.242 169.26 209.671 167.372C209.383 166.453 209.211 165.503 209.159 164.542C209.159 164.439 209.159 164.339 209.159 164.237C209.142 163.539 209.061 162.843 208.918 162.159L207.827 157.318C207.351 155.202 206.874 152.996 207.389 150.89C207.144 150.795 206.91 150.673 206.692 150.524C206.275 150.286 206.342 149.665 206.531 149.224C206.721 148.784 206.974 148.285 206.762 147.855C206.648 147.681 206.519 147.517 206.375 147.367C206.093 146.993 206.05 146.499 206.016 146.034L205.883 144.186C206.656 144.492 207.3 145.055 207.707 145.78C206.698 144.219 207.194 141.993 207.94 140.289C208.078 139.767 208.382 139.304 208.806 138.968C209.23 138.633 209.751 138.444 210.291 138.429C214.397 137.728 219.412 135.99 222.747 138.495Z" fill="#3F3D56"/>
<path opacity="0.1" d="M220.874 149.002C220.874 149.002 218.856 150.348 218.856 151.356C218.856 152.364 218.344 161.438 218.344 161.438V167.835C218.344 167.835 218.679 171.197 218.344 172.036C218.008 172.876 218.344 176.742 218.344 177.246C218.344 177.75 218.856 172.036 218.856 172.036V165.977L219.368 152.195L220.874 149.002Z" fill="black"/>
<path d="M209.617 102.395L208.442 101.937C206.039 100.975 203.634 100.01 201.309 98.882C199.618 98.0606 197.905 97.0909 196.852 95.5428C196.514 95.031 196.253 94.4936 195.917 93.9896C195.531 93.4504 195.103 92.9429 194.636 92.4722L191.496 89.1201C191.255 89.5679 191.563 90.095 191.809 90.5377C192.066 91.0043 192.261 91.5023 192.39 92.0193C192.45 92.1858 192.444 92.3692 192.372 92.531C192.259 92.668 192.111 92.7722 191.944 92.833C191.658 93.0081 191.439 93.2738 191.322 93.5877C191.205 93.9016 191.196 94.2457 191.296 94.5653C191.409 94.8812 191.602 95.1625 191.856 95.3814C192.11 95.6004 192.417 95.7494 192.746 95.814C192.968 95.8396 193.185 95.892 193.394 95.9701C193.773 96.1569 193.953 96.5842 194.224 96.9041C194.718 97.49 195.505 97.7127 196.253 97.902C197.415 99.2249 198.622 100.492 199.785 101.814C201.542 103.815 203.34 105.852 205.635 107.208C206.45 107.706 207.342 108.064 208.275 108.268C208.584 106.281 209.032 104.319 209.617 102.395V102.395Z" fill="#A1616A"/>
<path opacity="0.15" d="M209.617 102.395L208.442 101.937C206.039 100.975 203.634 100.01 201.309 98.882C199.618 98.0606 197.905 97.0909 196.852 95.5428C196.514 95.031 196.253 94.4936 195.917 93.9896C195.531 93.4504 195.103 92.9429 194.636 92.4722L191.496 89.1201C191.255 89.5679 191.563 90.095 191.809 90.5377C192.066 91.0043 192.261 91.5023 192.39 92.0193C192.45 92.1858 192.444 92.3692 192.372 92.531C192.259 92.668 192.111 92.7722 191.944 92.833C191.658 93.0081 191.439 93.2738 191.322 93.5877C191.205 93.9016 191.196 94.2457 191.296 94.5653C191.409 94.8812 191.602 95.1625 191.856 95.3814C192.11 95.6004 192.417 95.7494 192.746 95.814C192.968 95.8396 193.185 95.892 193.394 95.9701C193.773 96.1569 193.953 96.5842 194.224 96.9041C194.718 97.49 195.505 97.7127 196.253 97.902C197.415 99.2249 198.622 100.492 199.785 101.814C201.542 103.815 203.34 105.852 205.635 107.208C206.45 107.706 207.342 108.064 208.275 108.268C208.584 106.281 209.032 104.319 209.617 102.395V102.395Z" fill="black"/>
<path d="M207.466 109.076C207.089 109.01 206.667 108.918 206.462 108.595C206.326 108.322 206.287 108.011 206.352 107.712C206.556 105.784 206.985 103.886 207.632 102.057C208.204 103.114 209.328 103.731 210.394 104.286C211.345 104.814 212.336 105.266 213.359 105.637C213.103 105.555 212.476 109.491 212.122 109.731C211.677 110.043 210.601 109.621 210.107 109.537L207.466 109.076Z" fill="#DD2626"/>
<path d="M210.194 107.915C213.167 107.915 215.578 105.507 215.578 102.536C215.578 99.5656 213.167 97.1575 210.194 97.1575C207.22 97.1575 204.81 99.5656 204.81 102.536C204.81 105.507 207.22 107.915 210.194 107.915Z" fill="#A1616A"/>
<path d="M209.1 106.988C209.1 106.988 212.632 110.013 211.118 112.029C209.605 114.046 208.762 115.391 210.78 115.56C212.799 115.729 219.527 112.198 219.527 112.198C219.527 112.198 213.303 107.157 214.312 104.133C215.322 101.108 209.1 106.988 209.1 106.988Z" fill="#FBBEBE"/>
<path d="M212.489 111.722C211.736 111.903 211.048 112.289 210.502 112.838C209.956 113.386 209.574 114.075 209.397 114.829C209 116.64 209.843 118.667 209.049 120.335C208.675 121.128 207.981 121.722 207.512 122.467C207.05 123.242 206.841 124.141 206.914 125.04C206.986 125.939 207.337 126.793 207.917 127.485C208.268 127.884 208.718 128.27 208.759 128.797C208.753 129.038 208.729 129.277 208.688 129.514C208.647 130.084 208.913 130.627 209.056 131.18C209.177 131.638 209.182 132.188 208.916 132.556C208.647 132.942 208.524 133.411 208.567 133.879C208.695 134.596 208.396 135.31 208.344 136.034C208.321 136.346 208.344 136.658 208.316 136.97C208.279 137.267 208.217 137.561 208.132 137.848L207.681 139.509C210.125 140.553 212.722 140.929 215.365 140.88C217.732 140.834 220.065 140.345 222.38 139.857C223.085 139.708 223.789 139.56 224.483 139.368C223.018 137.454 222.862 134.918 222.821 132.51C222.757 128.496 222.457 124.488 221.922 120.509C222.631 119.171 222.946 117.679 223.238 116.192C223.37 115.594 223.425 114.981 223.402 114.368C223.331 113.089 222.742 111.873 222.165 110.714C221.638 109.655 221.066 108.539 219.891 108.081C219.607 107.962 219.297 107.916 218.991 107.95C218.685 107.984 218.393 108.095 218.141 108.273C217.253 108.943 217.516 110.1 217.289 111.088C216.989 112.367 215.808 113.286 214.55 113.646C213.612 113.892 212.639 113.983 211.672 113.915C211.577 113.91 211.485 113.878 211.407 113.824C211.33 113.769 211.268 113.695 211.231 113.608C211.193 113.52 211.18 113.425 211.194 113.331C211.207 113.237 211.247 113.149 211.308 113.076C211.72 112.62 212.135 112.157 212.489 111.722Z" fill="#DD2626"/>
<path d="M216.659 132.513C214.666 134.14 212.65 135.783 210.35 136.934C209 137.61 207.566 138.109 206.252 138.836C205.927 138.978 205.657 139.222 205.484 139.532C205.379 139.841 205.365 140.174 205.443 140.491L206.027 144.514C206.188 145.604 207.235 146.305 208.076 147.001C208.029 146.635 207.955 146.351 208.129 146.026C208.19 145.924 208.256 145.826 208.327 145.732C208.685 145.189 208.698 144.485 208.611 143.841C208.524 143.196 208.355 142.561 208.388 141.901C208.381 141.792 208.402 141.683 208.45 141.584C208.497 141.485 208.57 141.401 208.66 141.338C211.521 139.964 214.602 138.91 217.494 137.605C218.259 137.296 218.979 136.887 219.637 136.389C220.298 135.883 220.743 135.145 220.882 134.324C220.895 134.271 220.898 134.216 220.889 134.162C220.88 134.108 220.86 134.056 220.831 134.01C220.773 133.946 220.697 133.901 220.613 133.882C219.317 133.411 217.949 132.978 216.659 132.513Z" fill="#A1616A"/>
<path opacity="0.1" d="M211.124 115.635C210.135 115.801 209.095 116.313 208.759 117.26C208.639 117.675 208.594 118.108 208.626 118.539C208.596 119.145 208.698 119.75 208.926 120.312C209.094 120.623 209.295 120.914 209.525 121.182C211.892 124.212 213.08 128.017 215.386 131.095C215.59 131.366 215.964 131.719 215.849 132.039C215.807 132.122 215.77 132.208 215.739 132.295C215.729 132.378 215.738 132.462 215.768 132.54C215.797 132.618 215.845 132.688 215.908 132.743C216.031 132.856 216.126 132.995 216.187 133.15C216.231 133.311 216.123 133.521 215.957 133.508C216.233 134.363 217.081 134.862 217.885 135.266C219.222 135.939 220.703 136.469 222.191 136.323C222.47 135.205 222.859 133.941 222.703 132.802C222.54 131.932 222.251 131.091 221.845 130.304L220.844 128.119C219.991 126.254 219.13 124.376 217.942 122.705C217.514 122.176 217.153 121.596 216.869 120.978C216.564 120.187 215.726 119.632 215.219 118.953C214.466 117.93 213.682 116.906 212.673 116.167C212.268 115.855 211.618 115.553 211.124 115.635Z" fill="black"/>
<path d="M211.123 115.131C210.135 115.297 209.095 115.809 208.759 116.753C208.639 117.168 208.594 117.601 208.626 118.032C208.595 118.638 208.698 119.243 208.926 119.806C209.094 120.116 209.295 120.407 209.525 120.676C211.892 123.705 213.08 127.51 215.385 130.588C215.59 130.86 215.964 131.213 215.849 131.533C215.807 131.616 215.77 131.701 215.739 131.788C215.728 131.871 215.738 131.955 215.768 132.033C215.797 132.111 215.845 132.181 215.908 132.236C216.031 132.349 216.126 132.488 216.187 132.643C216.231 132.804 216.123 133.014 215.957 133.001C216.233 133.856 217.081 134.355 217.885 134.759C219.222 135.432 220.703 135.962 222.191 135.816C222.47 134.698 222.859 133.434 222.703 132.295C222.54 131.426 222.251 130.584 221.845 129.798L220.844 127.613C219.991 125.747 219.13 123.869 217.942 122.198C217.513 121.669 217.152 121.087 216.868 120.468C216.564 119.68 215.726 119.125 215.219 118.447C214.466 117.423 213.682 116.4 212.673 115.66C212.268 115.351 211.618 115.049 211.123 115.131Z" fill="#DD2626"/>
<path d="M208.867 93.7004C208.152 93.7619 207.417 93.8284 206.772 94.1406C206.126 94.4527 205.576 95.0669 205.555 95.7833C205.555 96.2004 205.709 96.6149 205.655 97.0269C205.565 97.7127 204.928 98.1758 204.6 98.7823C204.026 99.8365 204.472 101.177 205.214 102.109C205.957 103.04 206.964 103.757 207.727 104.683C208.329 105.424 208.765 106.285 209.004 107.209C209.244 108.132 209.282 109.096 209.115 110.036C209.021 110.401 208.975 110.777 208.98 111.154C209.038 111.825 209.492 112.38 209.943 112.892C212.135 115.453 214.165 118.151 216.018 120.967C216.574 121.785 217.074 122.64 217.514 123.526C217.949 124.442 218.282 125.42 218.887 126.231C219.445 126.927 220.128 127.513 220.902 127.958C222.855 129.161 225.069 129.875 227.357 130.038L226.038 126.771C225.805 126.19 225.564 125.578 225.641 124.957C225.787 123.779 226.975 123.007 227.362 121.886C227.618 121.164 227.503 120.369 227.293 119.634C226.827 117.979 225.894 116.489 225.392 114.844C224.952 113.401 224.854 111.876 225.106 110.389C225.216 109.734 225.395 109.076 225.313 108.419C225.07 106.418 222.721 105.461 221.635 103.764C220.933 102.674 220.797 101.331 220.562 100.057C220.221 98.1963 219.614 96.3386 218.441 94.8545C217.268 93.3704 215.46 92.2956 213.575 92.375C212.565 92.4134 211.6 92.7639 210.65 93.1068L208.18 94.0049" fill="#3F3D56"/>
<g opacity="0.1">
<path opacity="0.1" d="M219.888 97.8788C220.101 99.0277 220.234 100.233 220.772 101.259C220.698 100.86 220.636 100.458 220.562 100.064C220.388 99.061 220.112 98.0784 219.737 97.1316C219.801 97.3798 219.845 97.628 219.888 97.8788Z" fill="black"/>
<path opacity="0.1" d="M224.432 108.211C224.182 109.7 224.28 111.225 224.719 112.669C224.839 113.06 224.975 113.437 225.139 113.82C224.926 112.69 224.914 111.531 225.106 110.397C225.216 109.742 225.395 109.084 225.313 108.426C225.238 107.863 225.007 107.331 224.647 106.891C224.609 107.336 224.506 107.774 224.432 108.211Z" fill="black"/>
<path opacity="0.1" d="M227.293 119.642C227.151 119.161 226.98 118.689 226.781 118.229C226.867 118.723 226.834 119.23 226.683 119.708C226.297 120.826 225.106 121.602 224.962 122.779C224.885 123.401 225.124 124.012 225.359 124.593C225.446 124.811 225.533 125.031 225.615 125.248C225.609 125.154 225.609 125.059 225.615 124.964C225.761 123.787 226.95 123.014 227.337 121.894C227.613 121.172 227.503 120.376 227.293 119.642Z" fill="black"/>
<path opacity="0.1" d="M220.232 125.78C219.458 125.334 218.774 124.748 218.216 124.051C217.609 123.239 217.276 122.259 216.84 121.346C216.401 120.46 215.901 119.605 215.345 118.787C213.492 115.97 211.464 113.272 209.272 110.709C209.192 110.619 209.115 110.527 209.039 110.435C208.986 110.672 208.966 110.915 208.98 111.157C209.039 111.827 209.492 112.382 209.943 112.894C212.136 115.456 214.165 118.153 216.018 120.97C216.574 121.788 217.074 122.643 217.514 123.529C217.949 124.445 218.282 125.422 218.887 126.233C219.445 126.93 220.129 127.516 220.903 127.96C222.855 129.163 225.069 129.877 227.357 130.041L226.461 127.84C224.252 127.647 222.119 126.942 220.232 125.78V125.78Z" fill="black"/>
<path opacity="0.1" d="M207.054 102.508C206.285 101.581 205.284 100.878 204.541 99.936C204.474 99.849 204.41 99.7595 204.346 99.6648C204.331 100.56 204.639 101.432 205.215 102.119C205.957 103.063 206.964 103.767 207.727 104.693C208.025 105.053 208.283 105.444 208.496 105.86C208.337 104.63 207.837 103.469 207.054 102.508V102.508Z" fill="black"/>
</g>
<path d="M107.073 76.2416L105.216 74.3763C105.124 74.2838 105.015 74.2104 104.895 74.1603C104.775 74.1103 104.646 74.0845 104.515 74.0845C104.385 74.0845 104.256 74.1103 104.136 74.1603C104.016 74.2104 103.907 74.2838 103.815 74.3763L92.1532 85.9191L87.2201 80.955C87.0357 80.7708 86.7855 80.6673 86.5247 80.6673C86.2639 80.6673 86.0138 80.7708 85.8293 80.955L83.9519 82.8102C83.7675 82.9965 83.6641 83.248 83.6641 83.51C83.6641 83.772 83.7675 84.0235 83.9519 84.2098L91.4437 91.7507C91.6298 91.9348 91.8811 92.038 92.143 92.038C92.4048 92.038 92.6561 91.9348 92.8422 91.7507L107.073 77.6413C107.165 77.5497 107.239 77.4407 107.289 77.3206C107.339 77.2005 107.365 77.0716 107.365 76.9415C107.365 76.8113 107.339 76.6825 107.289 76.5624C107.239 76.4423 107.165 76.3332 107.073 76.2416V76.2416Z" fill="#3ACC6C"/>
<path d="M158.555 76.2416L156.698 74.3763C156.606 74.2838 156.497 74.2104 156.377 74.1603C156.257 74.1103 156.128 74.0845 155.998 74.0845C155.867 74.0845 155.738 74.1103 155.618 74.1603C155.498 74.2104 155.389 74.2838 155.297 74.3763L143.636 85.9191L138.702 80.955C138.518 80.7708 138.268 80.6673 138.007 80.6673C137.746 80.6673 137.496 80.7708 137.312 80.955L135.434 82.8102C135.25 82.9965 135.146 83.248 135.146 83.51C135.146 83.772 135.25 84.0235 135.434 84.2098L142.926 91.7507C143.112 91.9348 143.363 92.038 143.625 92.038C143.887 92.038 144.138 91.9348 144.325 91.7507L158.555 77.6413C158.648 77.5497 158.721 77.4407 158.771 77.3206C158.821 77.2005 158.847 77.0716 158.847 76.9415C158.847 76.8113 158.821 76.6825 158.771 76.5624C158.721 76.4423 158.648 76.3332 158.555 76.2416Z" fill="#3ACC6C"/>
<defs>
<linearGradient id="paint0_linear" x1="214.76" y1="201.315" x2="214.76" y2="87.5772" gradientUnits="userSpaceOnUse">
<stop stop-color="#808080" stop-opacity="0.25"/>
<stop offset="0.54" stop-color="#808080" stop-opacity="0.12"/>
<stop offset="1" stop-color="#808080" stop-opacity="0.1"/>
</linearGradient>
</defs>
</svg>
