<svg width="223" height="230" viewBox="0 0 223 230" fill="none" xmlns="http://www.w3.org/2000/svg">
<path d="M133.682 86.2773C144.547 94.3985 159.923 92.1943 168.026 81.3541C176.128 70.514 173.888 55.1428 163.023 47.0217C152.158 38.9006 136.782 41.1048 128.679 51.9449C120.577 62.7851 122.817 78.1562 133.682 86.2773Z" fill="#F0F0F0"/>
<path d="M137.172 81.607C145.452 87.7956 157.169 86.1161 163.343 77.8556C169.517 69.5951 167.81 57.8817 159.531 51.6931C151.251 45.5044 139.533 47.184 133.359 55.4445C127.185 63.705 128.892 75.4183 137.172 81.607Z" fill="#F5F5F5"/>
<path d="M163.689 77.3794C163.596 77.315 164.023 76.6091 164.64 75.2802C165.246 73.954 166.026 71.9644 166.345 69.3927C166.502 68.1112 166.545 66.6917 166.397 65.1849C166.235 63.6814 165.9 62.09 165.296 60.5047C164.997 59.7115 164.644 58.9155 164.211 58.142C163.783 57.3662 163.301 56.597 162.737 55.8687C162.177 55.1404 161.564 54.4279 160.875 53.7722C160.188 53.1153 159.443 52.4994 158.647 51.9342C157.842 51.3794 157.008 50.8906 156.156 50.47C155.304 50.0472 154.425 49.7161 153.549 49.4384C152.671 49.158 151.783 48.9692 150.908 48.8328C150.033 48.6921 149.164 48.6332 148.316 48.6239C146.62 48.5999 145.009 48.8306 143.542 49.1951C142.076 49.572 140.757 50.0985 139.607 50.6855C137.301 51.8671 135.701 53.2817 134.663 54.3057C133.627 55.3406 133.11 55.9849 133.017 55.9189C132.947 55.872 133.309 55.1164 134.248 53.932C135.187 52.7618 136.749 51.1612 139.12 49.7957C140.303 49.1176 141.678 48.5011 143.227 48.0483C144.775 47.6086 146.491 47.3157 148.312 47.3031C149.222 47.2939 150.156 47.3408 151.1 47.4782C152.044 47.6103 153.003 47.8028 153.952 48.0947C154.902 48.3844 155.853 48.7363 156.776 49.1874C157.698 49.6364 158.6 50.1623 159.467 50.7608C160.326 51.3701 161.128 52.0363 161.866 52.7487C162.605 53.4607 163.262 54.2342 163.859 55.0264C164.46 55.818 164.968 56.6532 165.416 57.4949C165.868 58.3351 166.234 59.1976 166.537 60.0541C167.149 61.7693 167.463 63.4812 167.581 65.0878C167.685 66.6955 167.579 68.2012 167.347 69.5443C166.877 72.2399 165.909 74.2573 165.133 75.5409C164.343 76.8301 163.757 77.428 163.689 77.3794Z" fill="#E0E0E0"/>
<path d="M143.361 76.8553L141.448 79.4947L139.092 77.7855L140.954 75.2171C138.724 73.3835 137.014 71.03 136.454 69.077L139.834 67.1414C140.38 68.8686 141.616 70.7343 143.193 72.1304L146.046 68.1943C143.892 65.6619 141.602 62.6707 144.046 59.3009C145.857 56.8028 149.226 55.9747 153.257 58.2507L155.155 55.6343L157.512 57.3435L155.648 59.9124C157.313 61.3352 158.692 63.0537 159.389 64.8179L156.109 66.8632C155.402 65.3084 154.467 64.0193 153.393 63.0226L150.487 67.0296C152.658 69.5385 154.901 72.4959 152.492 75.8177C150.715 78.2688 147.386 79.0904 143.361 76.8553ZM148.559 64.7306L150.984 61.3843C149.531 60.7613 148.541 61.0864 147.975 61.8638C147.379 62.6887 147.761 63.6494 148.559 64.7306ZM148.493 73.3497C149.092 72.5243 148.732 71.5816 147.976 70.4921L145.618 73.7441C146.984 74.3404 147.947 74.1036 148.493 73.3497Z" fill="#E0E0E0"/>
<path d="M56.1658 149.702C71.6514 147.451 82.3849 133.102 80.1399 117.652C77.8948 102.202 63.5212 91.5015 48.0356 93.7518C32.55 96.002 21.8165 110.351 24.0615 125.801C26.3066 141.251 40.6802 151.952 56.1658 149.702Z" fill="#F0F0F0"/>
<path d="M55.1981 143.046C66.9991 141.331 75.1787 130.397 73.4679 118.623C71.7571 106.85 60.8036 98.6956 49.0027 100.41C37.2018 102.125 29.0221 113.06 30.733 124.833C32.4438 136.607 43.3972 144.761 55.1981 143.046Z" fill="#F5F5F5"/>
<path d="M73.3689 117.952C73.2396 117.976 73.0126 117.052 72.4305 115.465C71.8419 113.889 70.8534 111.63 69.0138 109.274C68.0957 108.101 66.9718 106.91 65.6205 105.802C64.2616 104.709 62.6893 103.684 60.9027 102.886C60.0118 102.483 59.0735 102.124 58.0893 101.845C57.1073 101.562 56.0872 101.329 55.0326 101.196C53.9808 101.06 52.9001 100.98 51.803 101.007C50.707 101.034 49.5974 101.139 48.4861 101.329C47.3776 101.533 46.2985 101.816 45.2603 102.168C44.2205 102.52 43.2337 102.967 42.292 103.457C41.3477 103.945 40.4699 104.516 39.6451 105.119C38.8164 105.719 38.0603 106.38 37.362 107.064C35.9599 108.429 34.8356 109.932 33.9371 111.427C33.05 112.931 32.4052 114.437 31.9469 115.855C31.032 118.7 30.882 121.16 30.8722 122.842C30.8727 124.532 30.978 125.478 30.8482 125.5C30.7533 125.519 30.4309 124.608 30.229 122.876C30.0392 121.156 30.0059 118.575 30.8237 115.527C31.2339 114.008 31.852 112.383 32.7445 110.751C33.6479 109.128 34.8072 107.488 36.2813 105.991C37.015 105.241 37.8153 104.517 38.6969 103.858C39.5747 103.195 40.5136 102.569 41.5261 102.031C42.5365 101.492 43.5986 101.002 44.7192 100.617C45.8381 100.23 47.0023 99.9228 48.197 99.7029C49.395 99.4978 50.5925 99.386 51.7758 99.3642C52.9601 99.3407 54.1265 99.4351 55.2601 99.5933C56.3954 99.7488 57.4925 100.014 58.5443 100.335C59.5988 100.65 60.601 101.055 61.547 101.505C63.446 102.403 65.0995 103.542 66.507 104.756C67.9053 105.981 69.0471 107.295 69.9554 108.579C71.7732 111.159 72.6307 113.594 73.0459 115.274C73.454 116.97 73.4643 117.937 73.3689 117.952Z" fill="#E0E0E0"/>
<path d="M56.3723 134.12L56.9675 137.834L53.6517 138.364L53.0734 134.751C49.7587 135.077 46.444 134.554 44.3922 133.42L45.5673 129.083C47.4222 130.044 49.9524 130.557 52.3779 130.407L51.4908 124.869C47.6671 124.564 43.359 123.995 42.6001 119.253C42.0377 115.738 44.1074 112.312 49.2503 110.877L48.6611 107.195L51.9774 106.664L52.5563 110.279C55.075 110.08 57.6014 110.355 59.6107 111.223L58.6063 115.568C56.7607 114.877 54.9468 114.59 53.2562 114.655L54.1591 120.293C57.9773 120.565 62.2194 121.145 62.9679 125.82C63.5206 129.269 61.4775 132.657 56.3723 134.12ZM50.7112 119.994L49.9567 115.286C48.2634 115.966 47.7211 117.039 47.8962 118.134C48.0817 119.293 49.1777 119.765 50.7112 119.994ZM57.6942 127.073C57.5076 125.912 56.4454 125.437 54.9397 125.167L55.6724 129.743C57.2719 129.113 57.8633 128.134 57.6942 127.073Z" fill="#E0E0E0"/>
<path d="M121.199 30.4105C128.8 31.8221 136.104 26.819 137.512 19.2357C138.92 11.6524 133.9 4.36063 126.3 2.94902C118.699 1.5374 111.396 6.54052 109.987 14.1238C108.579 21.7071 113.599 28.9989 121.199 30.4105Z" fill="#F0F0F0"/>
<path d="M121.806 27.1432C127.598 28.2189 133.164 24.4062 134.237 18.6273C135.311 12.8484 131.485 7.2916 125.693 6.21586C119.901 5.14012 114.335 8.9528 113.262 14.7317C112.189 20.5106 116.014 26.0674 121.806 27.1432Z" fill="#F5F5F5"/>
<path d="M134.293 18.2991C134.229 18.2893 134.269 17.8212 134.25 16.9865C134.225 16.1562 134.123 14.9424 133.637 13.5474C133.395 12.8529 133.058 12.1165 132.603 11.3838C132.141 10.656 131.569 9.9272 130.861 9.26928C130.508 8.93923 130.127 8.62172 129.711 8.33531C129.296 8.04672 128.857 7.77504 128.384 7.54482C127.914 7.31406 127.421 7.10402 126.904 6.94254C126.387 6.78052 125.851 6.6534 125.301 6.56503C124.75 6.48429 124.2 6.44501 123.659 6.44446C123.117 6.44337 122.584 6.49574 122.066 6.57485C121.546 6.65286 121.045 6.77997 120.563 6.93109C120.08 7.07947 119.621 7.26878 119.186 7.47717C118.313 7.89288 117.548 8.4166 116.89 8.97251C116.236 9.53496 115.695 10.1367 115.255 10.7264C114.375 11.9113 113.913 13.0384 113.64 13.8235C113.372 14.6134 113.27 15.0733 113.206 15.0624C113.159 15.0564 113.153 14.579 113.334 13.7373C113.519 12.9026 113.914 11.6904 114.781 10.3947C115.215 9.7499 115.762 9.08816 116.44 8.46679C117.12 7.85142 117.923 7.26932 118.851 6.80397C119.314 6.56994 119.803 6.35827 120.32 6.19024C120.836 6.01948 121.375 5.87601 121.934 5.78599C122.492 5.69489 123.067 5.63488 123.652 5.63269C124.237 5.62997 124.83 5.67143 125.424 5.75871C126.017 5.85364 126.595 5.99221 127.152 6.17005C127.709 6.34736 128.24 6.57758 128.745 6.8318C129.251 7.08493 129.722 7.38389 130.163 7.70139C130.606 8.01671 131.01 8.36532 131.381 8.72701C132.126 9.44876 132.718 10.2453 133.183 11.0363C133.643 11.8317 133.968 12.6276 134.188 13.3728C134.627 14.8693 134.641 16.1442 134.568 16.9963C134.489 17.8534 134.34 18.3067 134.293 18.2991Z" fill="#E0E0E0"/>
<path d="M123.771 23.1563L123.459 24.9883L121.824 24.7084L122.129 22.9261C120.526 22.5513 119.059 21.7794 118.28 20.9224L119.52 19.0806C120.234 19.8258 121.336 20.4679 122.494 20.7838L122.96 18.0528C121.22 17.3016 119.296 16.3502 119.696 14.0114C119.992 12.2782 121.505 11.0055 124.139 11.1522L124.449 9.33667L126.085 9.61599L125.78 11.3988C126.99 11.7065 128.127 12.2373 128.929 12.9629L127.767 14.8352C127.014 14.2187 126.211 13.7954 125.411 13.557L124.936 16.3376C126.678 17.0725 128.57 18.019 128.176 20.3244C127.886 22.0249 126.392 23.284 123.771 23.1563ZM123.372 15.6486L123.768 13.3268C122.868 13.3748 122.443 13.791 122.351 14.3306C122.253 14.9023 122.69 15.2973 123.372 15.6486ZM125.51 20.0708C125.609 19.4979 125.187 19.1068 124.526 18.7407L124.14 20.9976C124.989 20.9578 125.421 20.5939 125.51 20.0708Z" fill="#E0E0E0"/>
<path d="M222.172 229.829C222.172 229.908 151.708 229.972 104.786 229.972C57.8477 229.972 0 229.908 0 229.829C0 229.75 57.8477 229.686 104.786 229.686C151.708 229.686 222.172 229.75 222.172 229.829Z" fill="#263238"/>
<path d="M40.7946 207.539C50.1599 200.996 52.2848 188.851 51.9138 177.934C51.8522 176.112 52.0518 174.191 51.1855 172.592C50.3181 170.994 48.2958 169.901 46.6641 170.669C45.3111 171.305 44.7208 172.88 43.9642 174.181C42.9571 175.914 41.4563 177.347 39.6904 178.263C38.53 178.865 37.0942 179.234 35.9491 178.602C34.3773 177.735 34.1919 175.563 34.2033 173.75C34.2246 170.372 34.2453 166.994 34.2666 163.617C34.2781 161.805 34.2835 159.954 33.72 158.234C33.1564 156.514 31.911 154.916 30.1865 154.433C28.462 153.95 26.3301 154.945 25.9662 156.718C25.8151 157.457 25.9651 158.223 25.9149 158.975C25.8647 159.727 25.5139 160.56 24.7998 160.77C24.0764 160.982 23.3514 160.468 22.8097 159.938C20.939 158.108 19.6695 155.751 18.483 153.406C17.297 151.062 16.1453 148.661 14.4481 146.666C12.751 144.67 10.4029 143.088 7.80779 142.941C5.2121 142.794 2.4462 144.396 1.79046 146.944C1.13253 149.499 2.6235 152.092 4.2454 154.16C6.65233 157.229 9.49897 159.942 12.6686 162.189C13.2398 162.595 13.8589 163.033 14.0777 163.704C14.4716 164.913 13.3265 166.113 12.1334 166.51C10.7826 166.96 9.31676 166.82 7.90381 166.986C6.49031 167.153 4.95951 167.776 4.42488 169.112C3.6824 170.964 5.23174 172.906 6.75598 174.178C9.8083 176.724 13.2938 178.736 17.0127 180.098C18.346 180.587 19.7492 181.014 20.8239 181.951C21.8992 182.888 22.5478 184.517 21.8986 185.793C21.2489 187.072 19.5811 187.48 18.1846 187.22C16.7885 186.962 15.5381 186.204 14.2076 185.702C11.7171 184.761 8.50063 184.933 6.90492 187.086C5.85639 188.501 5.76419 190.471 6.29446 192.158C6.82472 193.844 7.89999 195.297 9.04235 196.637C13.0341 201.32 18.1447 205.091 23.9226 207.094C29.6993 209.096 35.0527 209.638 40.7946 207.539Z" fill="#E8505B"/>
<path d="M4.40794 144.459C4.40357 144.463 4.46358 144.522 4.5836 144.631C4.71726 144.751 4.89565 144.909 5.12151 145.111C5.59613 145.53 6.29606 146.15 7.17602 146.971C8.93757 148.608 11.4116 151.073 14.0984 154.443C15.447 156.123 16.8485 158.024 18.316 160.093C19.7802 162.166 21.3307 164.39 22.8729 166.789C24.4152 169.187 25.959 171.758 27.3442 174.535C28.043 175.92 28.6655 177.37 29.3016 178.849C29.9339 180.326 30.5749 181.826 31.2241 183.343C33.7996 189.421 36.0647 195.296 37.6828 200.784C39.3107 206.267 40.2795 211.349 40.7034 215.656C41.1377 219.964 41.0493 223.48 40.8736 225.892C40.7787 227.099 40.6865 228.035 40.6014 228.667C40.5665 228.97 40.5387 229.209 40.5179 229.387C40.501 229.55 40.495 229.634 40.5005 229.636C40.5065 229.636 40.5234 229.554 40.5518 229.393C40.5801 229.215 40.6194 228.978 40.6685 228.677C40.7749 228.046 40.8889 227.111 41.0035 225.903C41.219 223.488 41.3444 219.96 40.938 215.633C40.5425 211.308 39.5943 206.201 37.9768 200.696C36.3702 195.186 34.1078 189.293 31.5301 183.211C30.8804 181.693 30.2377 180.193 29.6049 178.715C28.9693 177.241 28.3398 175.779 27.6355 174.386C26.2384 171.595 24.6825 169.019 23.1288 166.619C21.5762 164.219 20.0148 161.997 18.5402 159.93C17.0602 157.865 15.6445 155.967 14.2806 154.292C11.5622 150.93 9.05323 148.483 7.26221 146.874C6.36862 146.066 5.6545 145.462 5.1646 145.059C4.92893 144.868 4.74399 144.718 4.60542 144.605C4.47831 144.504 4.41121 144.455 4.40794 144.459Z" fill="#263238"/>
<path d="M27.5401 174.373C27.5624 174.376 27.6241 174.101 27.7168 173.6C27.8123 173.099 27.9258 172.37 28.0534 171.467C28.3098 169.663 28.5782 167.159 28.8646 164.397C29.1505 161.634 29.4544 159.141 29.7375 157.345C29.8766 156.447 29.9961 155.721 30.0855 155.221C30.1723 154.719 30.2094 154.439 30.187 154.434C30.1647 154.429 30.0845 154.699 29.9595 155.194C29.8308 155.687 29.6753 156.409 29.5062 157.305C29.1625 159.097 28.8204 161.596 28.534 164.362C28.2591 167.088 28.0103 169.555 27.8199 171.439C27.7288 172.29 27.6514 173.007 27.5892 173.582C27.5362 174.087 27.5172 174.37 27.5401 174.373Z" fill="#263238"/>
<path d="M4.23889 170.018C4.23835 170.041 4.56949 170.08 5.1685 170.13C5.76641 170.183 6.63219 170.255 7.69818 170.379C9.83234 170.609 12.7695 171.031 15.9893 171.638C19.2091 172.25 22.0994 172.929 24.1757 173.48C25.2166 173.748 26.0519 173.988 26.6312 174.15C27.21 174.315 27.533 174.395 27.5406 174.373C27.5477 174.351 27.2373 174.228 26.67 174.025C26.1015 173.824 25.2734 173.549 24.2379 173.25C22.1714 172.638 19.28 171.921 16.0504 171.306C12.8214 170.698 9.8678 170.312 7.72054 170.142C6.64801 170.049 5.77678 170.012 5.17504 169.999C4.57276 169.989 4.23998 169.995 4.23889 170.018Z" fill="#263238"/>
<path d="M37.6903 200.266C37.7012 200.271 37.7553 200.173 37.8502 199.982C37.9576 199.754 38.0891 199.476 38.2484 199.139C38.591 198.406 39.0596 197.331 39.6205 195.996C40.7448 193.327 42.1818 189.59 43.7115 185.447C45.2428 181.3 46.6427 177.556 47.7098 174.867C48.2324 173.56 48.6628 172.485 48.9825 171.686C49.1189 171.339 49.2318 171.053 49.324 170.818C49.3988 170.618 49.4331 170.511 49.4222 170.506C49.4113 170.501 49.3573 170.599 49.2624 170.791C49.1549 171.018 49.0234 171.296 48.8641 171.633C48.5215 172.367 48.0535 173.441 47.4921 174.776C46.3677 177.445 44.9308 181.181 43.4005 185.327C41.8703 189.472 40.4699 193.216 39.4033 195.905C38.8802 197.212 38.4497 198.288 38.1306 199.086C37.9942 199.433 37.8813 199.72 37.7891 199.954C37.7138 200.155 37.6794 200.262 37.6903 200.266Z" fill="#263238"/>
<path d="M6.72649 190.287C6.72376 190.299 6.8296 190.342 7.03363 190.414C7.27585 190.495 7.57317 190.594 7.93269 190.715C8.763 190.985 9.88464 191.348 11.2485 191.79C14.0482 192.698 17.9003 193.996 22.155 195.437C26.4113 196.878 30.2792 198.142 33.0986 198.992C34.5077 199.418 35.6517 199.751 36.4471 199.965C36.8148 200.061 37.1176 200.14 37.3641 200.205C37.5747 200.256 37.6877 200.278 37.6904 200.267C37.6931 200.255 37.5873 200.212 37.3832 200.14C37.1421 200.059 36.8448 199.96 36.4842 199.839C35.6539 199.57 34.5333 199.207 33.1689 198.764C30.3692 197.857 26.5166 196.558 22.2603 195.117C18.0056 193.676 14.1377 192.412 11.3183 191.562C9.90919 191.137 8.76518 190.804 7.96924 190.59C7.60154 190.493 7.29876 190.414 7.05218 190.349C6.8416 190.297 6.72977 190.276 6.72649 190.287Z" fill="#263238"/>
<path d="M129.753 202.596L69.2037 202.315C61.9213 202.282 56.0442 196.352 56.0747 189.07L56.7168 37.2706C56.7474 29.9843 62.6807 24.1028 69.9675 24.1366L130.518 24.4165C137.8 24.4503 143.677 30.3798 143.646 37.6617L143.004 189.462C142.973 196.748 137.04 202.629 129.753 202.596Z" fill="#263238"/>
<path d="M130.43 29.6554L118.691 29.6008C117.116 29.5937 115.834 30.9221 115.828 32.5675L115.818 34.6973C115.812 36.3432 114.529 37.6716 112.955 37.664L90.0723 37.5581C88.4984 37.551 87.2273 36.2106 87.2343 34.5653L87.2436 32.436C87.2507 30.7901 85.9796 29.4497 84.4052 29.4426L80.2765 29.4235L70.0017 29.3761C64.8987 29.3526 60.7439 33.4715 60.7221 38.5745L60.0958 186.742C60.074 191.843 64.1901 195.995 69.2904 196.019L129.72 196.298C134.822 196.321 138.977 192.203 138.999 187.1L139.626 38.9318C139.647 33.831 135.531 29.6789 130.43 29.6554Z" fill="white"/>
<path d="M116.699 102.934H77.7808V140.421H116.699V102.934Z" fill="#E8505B"/>
<path d="M88.5121 92.489L77.7808 102.934H116.699L124.139 92.489H88.5121Z" fill="#E8505B"/>
<path opacity="0.1" d="M88.5121 92.489L77.7808 102.934H116.699L124.139 92.489H88.5121Z" fill="black"/>
<path d="M116.699 140.421L124.139 129.833V92.489L116.699 102.934V140.421Z" fill="#E8505B"/>
<path opacity="0.3" d="M116.699 140.421L124.139 129.833V92.489L116.699 102.934V140.421Z" fill="black"/>
<path d="M106.52 118.501H86.2018V120.804H106.52V118.501Z" fill="#E8505B"/>
<path opacity="0.2" d="M106.52 118.501H86.2018V120.804H106.52V118.501Z" fill="black"/>
<path d="M102.845 122.526H89.8771V124.697H102.845V122.526Z" fill="#E8505B"/>
<path opacity="0.2" d="M102.845 122.526H89.8771V124.697H102.845V122.526Z" fill="black"/>
<path d="M85.7184 90.994C85.6797 90.9967 85.7118 90.4735 85.4805 89.5832C85.2525 88.7098 84.6655 87.4278 83.3513 86.4381C82.6999 85.9548 81.881 85.5451 80.9378 85.3814C80.0011 85.2238 78.9455 85.2559 77.9417 85.6405C77.4365 85.8168 76.9493 86.0835 76.5014 86.419C76.0486 86.7486 75.6378 87.1572 75.2996 87.6302C74.5997 88.5625 74.2058 89.7594 74.1943 90.994C74.2058 92.2285 74.5997 93.426 75.2991 94.3584C75.6378 94.8313 76.0486 95.2399 76.5014 95.5695C76.9488 95.905 77.4359 96.1717 77.9417 96.3479C78.9455 96.7326 80.0016 96.7642 80.9383 96.6065C81.8816 96.4434 82.6999 96.0332 83.3513 95.5498C84.6655 94.5602 85.252 93.2782 85.4805 92.4048C85.7113 91.5139 85.6797 90.9913 85.7184 90.994C85.7184 90.994 85.792 91.5155 85.5913 92.4326C85.3922 93.3305 84.8215 94.6666 83.4768 95.714C82.8107 96.2257 81.9645 96.6633 80.9831 96.8449C80.0082 97.0201 78.9051 96.9961 77.85 96.6011C77.3192 96.4194 76.8069 96.1434 76.3356 95.7937C75.8593 95.4505 75.4262 95.0234 75.0688 94.5275C74.3313 93.5504 73.9134 92.2902 73.9025 90.9929C73.9139 89.6967 74.3313 88.4365 75.0694 87.4599C75.4267 86.9646 75.8599 86.538 76.3361 86.1943C76.8075 85.8446 77.3197 85.5685 77.85 85.3869C78.9051 84.9919 80.0082 84.9679 80.9831 85.143C81.9645 85.3241 82.8107 85.7617 83.4768 86.2734C84.8221 87.3208 85.3927 88.6569 85.5913 89.5554C85.7915 90.473 85.7184 90.994 85.7184 90.994Z" fill="#263238"/>
<path d="M77.2701 90.1998C77.2701 89.3815 77.7295 88.8359 78.4043 88.8359C79.0715 88.8359 79.5385 89.3738 79.5385 90.1998C79.5385 91.0257 79.0715 91.5637 78.4043 91.5637C77.7295 91.5631 77.2701 91.0176 77.2701 90.1998ZM79.179 90.1998C79.179 89.5462 78.8707 89.1589 78.4043 89.1589C77.9308 89.1589 77.6291 89.5533 77.6291 90.1998C77.6291 90.8457 77.9308 91.2401 78.4043 91.2401C78.8707 91.2396 79.179 90.8523 79.179 90.1998ZM81.4462 88.8714H81.8701L78.4398 93.8953H78.0164L81.4462 88.8714ZM80.3486 92.568C80.3486 91.7497 80.815 91.2041 81.4828 91.2041C82.1576 91.2041 82.617 91.7497 82.617 92.568C82.617 93.3858 82.1576 93.9313 81.4828 93.9313C80.815 93.9308 80.3486 93.3858 80.3486 92.568ZM82.2574 92.568C82.2574 91.9215 81.9563 91.5271 81.4828 91.5271C81.0163 91.5271 80.7081 91.9144 80.7081 92.568C80.7081 93.2205 81.0163 93.6083 81.4828 93.6083C81.9563 93.6083 82.2574 93.2134 82.2574 92.568Z" fill="#263238"/>
<path d="M110.587 153.102C110.587 154.181 109.794 155.123 108.052 155.123C107.207 155.123 106.319 154.888 105.727 154.47L106.284 153.389C106.746 153.738 107.381 153.938 108.017 153.938C108.722 153.938 109.158 153.642 109.158 153.145C109.158 152.666 108.845 152.353 107.739 152.353H106.18L106.493 148.921H110.213V150.053H107.669L107.573 151.211H108.069C109.872 151.212 110.587 152.022 110.587 153.102Z" fill="#263238"/>
<path d="M111.162 151.969C111.162 149.957 112.277 148.816 113.775 148.816C115.282 148.816 116.387 149.957 116.387 151.969C116.387 153.981 115.282 155.123 113.775 155.123C112.277 155.123 111.162 153.982 111.162 151.969ZM114.968 151.969C114.968 150.584 114.48 150.01 113.774 150.01C113.078 150.01 112.59 150.585 112.59 151.969C112.59 153.355 113.078 153.929 113.774 153.929C114.48 153.929 114.968 153.355 114.968 151.969Z" fill="#263238"/>
<path d="M120.038 150.257C120.038 151.114 119.524 151.593 118.773 151.593C118.51 151.593 118.259 151.533 118.084 151.422L118.298 151.001C118.432 151.093 118.592 151.125 118.762 151.125C119.174 151.125 119.443 150.88 119.461 150.401C119.315 150.547 119.103 150.625 118.843 150.625C118.365 150.625 117.989 150.32 117.989 149.852C117.989 149.345 118.404 149.025 118.929 149.025C119.617 149.025 120.038 149.455 120.038 150.257ZM119.396 149.824C119.396 149.611 119.237 149.455 118.964 149.455C118.719 149.455 118.549 149.597 118.549 149.824C118.549 150.05 118.716 150.196 118.97 150.196C119.222 150.196 119.396 150.04 119.396 149.824Z" fill="#263238"/>
<path d="M122.294 150.257C122.294 151.114 121.781 151.593 121.029 151.593C120.767 151.593 120.515 151.533 120.341 151.422L120.554 151.001C120.689 151.093 120.849 151.125 121.019 151.125C121.43 151.125 121.7 150.88 121.717 150.401C121.572 150.547 121.359 150.625 121.1 150.625C120.622 150.625 120.246 150.32 120.246 149.852C120.246 149.345 120.661 149.025 121.186 149.025C121.873 149.025 122.294 149.455 122.294 150.257ZM121.653 149.824C121.653 149.611 121.493 149.455 121.22 149.455C120.976 149.455 120.805 149.597 120.805 149.824C120.805 150.05 120.972 150.196 121.227 150.196C121.48 150.196 121.653 150.04 121.653 149.824Z" fill="#263238"/>
<path d="M122.273 152.441H117.918V152.994H122.273V152.441Z" fill="#263238"/>
<path d="M97.5168 150.708H75.0388V151.405H97.5168V150.708Z" fill="#263238"/>
<path d="M88.6829 152.936H75.0388V153.633H88.6829V152.936Z" fill="#263238"/>
<path d="M123.398 181.72L78.4621 181.513C77.9973 181.511 77.6219 181.004 77.6246 180.381L77.6743 168.626C77.6765 168.003 78.0562 167.501 78.5215 167.502L123.457 167.71C123.922 167.712 124.297 168.219 124.294 168.842L124.245 180.596C124.242 181.219 123.863 181.722 123.398 181.72Z" fill="#E8505B"/>
<path d="M99.0999 175.137C99.0978 175.735 98.6728 176.075 97.8299 176.071L96.28 176.064L96.2948 172.545L97.7486 172.552C98.4993 172.555 98.9308 172.889 98.9286 173.462C98.927 173.864 98.7191 174.129 98.4104 174.259C98.8435 174.362 99.1021 174.66 99.0999 175.137ZM98.7442 175.106C98.7459 174.648 98.4246 174.446 97.8321 174.442L96.6434 174.437L96.6379 175.759L97.8266 175.765C98.4186 175.767 98.7421 175.568 98.7442 175.106ZM96.6505 172.853L96.645 174.13L97.7181 174.135C98.2571 174.138 98.5708 173.922 98.5724 173.5C98.574 173.078 98.2625 172.861 97.723 172.858L96.6505 172.853Z" fill="white"/>
<path d="M99.8865 174.578L99.8952 172.562L100.251 172.564L100.242 174.565C100.238 175.399 100.613 175.783 101.267 175.786C101.927 175.789 102.304 175.409 102.307 174.574L102.316 172.574L102.662 172.576L102.654 174.591C102.65 175.602 102.127 176.122 101.266 176.118C100.405 176.114 99.8827 175.588 99.8865 174.578Z" fill="white"/>
<path d="M104.833 174.887L104.827 176.104L104.476 176.102L104.481 174.885L103.143 172.577L103.523 172.579L104.67 174.56L105.833 172.589L106.189 172.591L104.833 174.887Z" fill="white"/>
<path d="M86.2302 62.5615H69.2415V71.2345H86.2302V62.5615Z" fill="#E8505B"/>
<path d="M72.9075 59.5217L69.2415 62.5615H86.2302L88.7337 59.5217H72.9075Z" fill="#E8505B"/>
<path opacity="0.2" d="M72.9075 59.5217L69.2415 62.5615H86.2302L88.7337 59.5217H72.9075Z" fill="black"/>
<path d="M86.2301 71.2351L88.7336 67.9264V59.5217L86.2301 62.5615V71.2351Z" fill="#E8505B"/>
<path opacity="0.1" d="M86.2301 71.2351L88.7336 67.9264V59.5217L86.2301 62.5615V71.2351Z" fill="black"/>
<path d="M83.3355 65.3782H71.7559V66.2706H83.3355V65.3782Z" fill="#E8505B"/>
<path opacity="0.1" d="M83.3355 65.3782H71.7559V66.2706H83.3355V65.3782Z" fill="black"/>
<path d="M81.239 66.9944H74.0476V67.8869H81.239V66.9944Z" fill="#E8505B"/>
<path opacity="0.1" d="M81.239 66.9944H74.0476V67.8869H81.239V66.9944Z" fill="black"/>
<path d="M81.7866 75.908H74.0476V77.0896H81.7866V75.908Z" fill="#263238"/>
<path d="M69.2415 62.5611C69.2415 62.5409 69.5344 62.5218 70.0636 62.5044C70.6479 62.4924 71.4013 62.4766 72.3063 62.458C74.1999 62.4313 76.8158 62.4149 79.7044 62.4149C82.1697 62.4269 84.4337 62.4384 86.2302 62.4471L86.1424 62.4886C86.8979 61.6026 87.528 60.8639 88.0076 60.3015C88.4565 59.787 88.7157 59.5061 88.7337 59.5208C88.7511 59.5355 88.5258 59.8432 88.1069 60.3833C87.647 60.9621 87.043 61.7221 86.318 62.6337L86.2853 62.6746H86.2302C84.4337 62.6839 82.1697 62.6948 79.7044 62.7068C76.8158 62.7068 74.1999 62.6904 72.3063 62.6642C71.4013 62.6451 70.6479 62.6298 70.0636 62.6178C69.5339 62.6009 69.2415 62.5818 69.2415 62.5611Z" fill="#E8505B"/>
<g opacity="0.2">
<path opacity="0.2" d="M69.2415 62.5611C69.2415 62.5409 69.5344 62.5218 70.0636 62.5044C70.6479 62.4924 71.4013 62.4766 72.3063 62.458C74.1999 62.4313 76.8158 62.4149 79.7044 62.4149C82.1697 62.4269 84.4337 62.4384 86.2302 62.4471L86.1424 62.4886C86.8979 61.6026 87.528 60.8639 88.0076 60.3015C88.4565 59.787 88.7157 59.5061 88.7337 59.5208C88.7511 59.5355 88.5258 59.8432 88.1069 60.3833C87.647 60.9621 87.043 61.7221 86.318 62.6337L86.2853 62.6746H86.2302C84.4337 62.6839 82.1697 62.6948 79.7044 62.7068C76.8158 62.7068 74.1999 62.6904 72.3063 62.6642C71.4013 62.6451 70.6479 62.6298 70.0636 62.6178C69.5339 62.6009 69.2415 62.5818 69.2415 62.5611Z" fill="black"/>
</g>
<path d="M86.2301 71.235C86.3108 71.235 86.3763 69.2935 86.3763 66.8985C86.3763 64.5035 86.3108 62.562 86.2301 62.562C86.1493 62.562 86.0839 64.5035 86.0839 66.8985C86.0839 69.2935 86.1493 71.235 86.2301 71.235Z" fill="#E8505B"/>
<g opacity="0.2">
<path opacity="0.2" d="M86.2301 71.235C86.3108 71.235 86.3763 69.2935 86.3763 66.8985C86.3763 64.5035 86.3108 62.562 86.2301 62.562C86.1493 62.562 86.0839 64.5035 86.0839 66.8985C86.0839 69.2935 86.1493 71.235 86.2301 71.235Z" fill="black"/>
</g>
<path d="M106.017 75.908H98.2783V77.0896H106.017V75.908Z" fill="#263238"/>
<path d="M95.8389 57.7494L95.7247 71.1812L107.907 71.2847L108.021 57.8529L95.8389 57.7494Z" fill="#E8505B"/>
<path d="M99.3698 55.0413L95.7747 57.8033H107.957L110.461 55.0413H99.3698Z" fill="#E8505B"/>
<path d="M107.957 71.2351L110.461 67.9264V55.0413L107.957 57.8033V71.2351Z" fill="#E8505B"/>
<path d="M104.578 63.2314H98.4164V64.124H104.578V63.2314Z" fill="#E8505B"/>
<path opacity="0.2" d="M104.578 63.2314H98.4164V64.124H104.578V63.2314Z" fill="black"/>
<path d="M103.462 64.8477H99.6356V65.7402H103.462V64.8477Z" fill="#E8505B"/>
<path opacity="0.2" d="M103.462 64.8477H99.6356V65.7402H103.462V64.8477Z" fill="black"/>
<path d="M95.7747 57.8034C95.7747 57.7832 95.9972 57.7641 96.3998 57.7467C96.8657 57.7341 97.4347 57.7183 98.1047 57.7003C99.5444 57.6741 101.533 57.6572 103.729 57.6572C105.275 57.6654 106.718 57.673 107.957 57.6796L107.866 57.7205C108.629 56.8978 109.268 56.2192 109.721 55.7506C110.174 55.2825 110.441 55.0239 110.461 55.0414C110.48 55.0588 110.249 55.3501 109.827 55.8471C109.406 56.3441 108.793 57.0462 108.049 57.8869L108.013 57.9273H107.957C106.718 57.9338 105.276 57.9414 103.729 57.9496C101.533 57.9496 99.5444 57.9333 98.1047 57.9071C97.4347 57.8885 96.8657 57.8732 96.3998 57.8607C95.9972 57.8432 95.7747 57.8236 95.7747 57.8034Z" fill="#E8505B"/>
<g opacity="0.3">
<path opacity="0.3" d="M95.7747 57.8034C95.7747 57.7832 95.9972 57.7641 96.3998 57.7467C96.8657 57.7341 97.4347 57.7183 98.1047 57.7003C99.5444 57.6741 101.533 57.6572 103.729 57.6572C105.275 57.6654 106.718 57.673 107.957 57.6796L107.866 57.7205C108.629 56.8978 109.268 56.2192 109.721 55.7506C110.174 55.2825 110.441 55.0239 110.461 55.0414C110.48 55.0588 110.249 55.3501 109.827 55.8471C109.406 56.3441 108.793 57.0462 108.049 57.8869L108.013 57.9273H107.957C106.718 57.9338 105.276 57.9414 103.729 57.9496C101.533 57.9496 99.5444 57.9333 98.1047 57.9071C97.4347 57.8885 96.8657 57.8732 96.3998 57.8607C95.9972 57.8432 95.7747 57.8236 95.7747 57.8034Z" fill="black"/>
</g>
<path d="M107.957 71.235C108.038 71.235 108.104 68.2283 108.104 64.5193C108.104 60.8104 108.038 57.8037 107.957 57.8037C107.877 57.8037 107.811 60.8104 107.811 64.5193C107.811 68.2283 107.877 71.235 107.957 71.235Z" fill="#E8505B"/>
<g opacity="0.3">
<path opacity="0.3" d="M107.957 71.235C108.038 71.235 108.104 68.2283 108.104 64.5193C108.104 60.8104 108.038 57.8037 107.957 57.8037C107.877 57.8037 107.811 60.8104 107.811 64.5193C107.811 68.2283 107.877 71.235 107.957 71.235Z" fill="black"/>
</g>
<path d="M127.589 75.908H119.85V77.0896H127.589V75.908Z" fill="#263238"/>
<path d="M118.19 62.7802C118.19 62.7398 118.921 62.7032 120.102 62.6771C121.284 62.6509 122.917 62.6345 124.72 62.6345C126.321 62.6345 127.787 62.647 128.903 62.6689L128.821 62.7054C129.315 62.1801 129.721 61.7567 130.009 61.4681C130.295 61.1801 130.463 61.0268 130.48 61.0415C130.496 61.0568 130.36 61.2384 130.101 61.5521C129.843 61.8658 129.461 62.3121 128.987 62.8555L128.955 62.8909L128.903 62.892C127.787 62.9133 126.321 62.9264 124.72 62.9264C122.917 62.9264 121.284 62.91 120.102 62.8833C118.921 62.8565 118.19 62.8205 118.19 62.7802Z" fill="#E8505B"/>
<path d="M128.903 62.7803H118.19V71.2351H128.903V62.7803Z" fill="#E8505B"/>
<path opacity="0.2" d="M128.903 62.7803H118.19V71.2351H128.903V62.7803Z" fill="black"/>
<path d="M120.453 61.0415L118.19 62.7802H128.903L130.48 61.0415H120.453Z" fill="#E8505B"/>
<path d="M128.903 71.235L130.479 69.1526V61.0415L128.903 62.7802V71.235Z" fill="#E8505B"/>
<path opacity="0.1" d="M128.903 71.235L130.479 69.1526V61.0415L128.903 62.7802V71.235Z" fill="black"/>
<path d="M126.131 66.0085H121.225V66.6654H126.131V66.0085Z" fill="#E8505B"/>
<path d="M125.243 67.1978H122.197V67.8541H125.243V67.1978Z" fill="#E8505B"/>
<path d="M128.904 71.2351C128.984 71.2351 129.05 69.3424 129.05 67.0077C129.05 64.6729 128.984 62.7803 128.904 62.7803C128.823 62.7803 128.757 64.6729 128.757 67.0077C128.757 69.3424 128.823 71.2351 128.904 71.2351Z" fill="#E8505B"/>
<path d="M144.196 22.043L143.085 24.0713L141.058 25.1809L143.085 26.2895L144.196 28.3178L145.306 26.2895L147.334 25.1809L145.306 24.0713L144.196 22.043Z" fill="#E8505B"/>
<path d="M49.2876 74.2444L48.178 76.2722L46.1497 77.3823L48.178 78.4909L49.2876 80.5192L50.3978 78.4909L52.4261 77.3823L50.3978 76.2722L49.2876 74.2444Z" fill="#E8505B"/>
<path d="M152.285 30.6487L151.602 31.8958L150.358 32.5772L151.602 33.2591L152.285 34.5046L152.968 33.2591L154.213 32.5772L152.968 31.8958L152.285 30.6487Z" fill="#E8505B"/>
<path d="M43.2019 62.5801L42.5195 63.8272L41.2745 64.5086L42.5195 65.1899L43.2019 66.4359L43.8844 65.1899L45.1293 64.5086L43.8844 63.8272L43.2019 62.5801Z" fill="#E8505B"/>
<path d="M197.315 204.502L193.301 201.345L199.165 193.788L205.086 198.344L204.753 198.836C203.251 201.011 196.96 209.79 195.456 210.856C193.778 212.045 197.315 204.502 197.315 204.502Z" fill="#E8505B"/>
<path d="M199.759 204.366C197.031 207.835 194.877 210.693 194.949 210.749C195.02 210.805 197.289 208.038 200.016 204.568C202.744 201.099 204.898 198.241 204.827 198.185C204.756 198.129 202.487 200.897 199.759 204.366Z" fill="#263238"/>
<path d="M198.03 205.278C198.016 205.369 197.755 205.402 197.445 205.399C197.136 205.396 196.876 205.358 196.864 205.267C196.851 205.179 197.112 205.068 197.449 205.072C197.786 205.074 198.044 205.191 198.03 205.278Z" fill="#263238"/>
<path d="M197.917 205.966C197.891 206.054 197.603 206.046 197.263 206C196.923 205.954 196.643 205.885 196.641 205.794C196.639 205.705 196.94 205.626 197.307 205.676C197.675 205.725 197.943 205.88 197.917 205.966Z" fill="#263238"/>
<path d="M203.02 200.425C202.977 200.437 202.882 200.266 202.774 199.97C202.67 199.674 202.545 199.242 202.562 198.737C202.578 198.229 202.778 197.785 203.005 197.538C203.231 197.286 203.441 197.227 203.459 197.262C203.487 197.304 203.338 197.427 203.191 197.676C203.041 197.922 202.905 198.307 202.888 198.749C202.873 199.194 202.952 199.608 202.997 199.912C203.047 200.217 203.063 200.414 203.02 200.425Z" fill="#263238"/>
<path d="M197.257 204.708C197.224 204.623 197.389 204.479 197.603 204.342C197.819 204.206 198.019 204.117 198.082 204.184C198.143 204.248 198.023 204.463 197.778 204.618C197.535 204.773 197.29 204.791 197.257 204.708Z" fill="#263238"/>
<path d="M196.962 204.285C196.897 204.223 197 203.978 197.194 203.738C197.388 203.498 197.606 203.345 197.681 203.396C197.755 203.448 197.651 203.693 197.449 203.944C197.246 204.194 197.028 204.348 196.962 204.285Z" fill="#263238"/>
<path d="M170.716 139.565C170.716 139.565 158.737 171.394 160.351 177.34C161.965 183.287 194.271 206.897 194.271 206.897L203.042 194.275C203.042 194.275 177.844 174.333 177.765 173.232C177.685 172.13 187.768 145.689 187.768 145.689L170.716 139.565Z" fill="#263238"/>
<path d="M193.718 197.19C193.715 197.194 193.677 197.173 193.605 197.127C193.519 197.071 193.415 197.002 193.288 196.919C192.993 196.717 192.593 196.443 192.088 196.097C191.054 195.372 189.561 194.315 187.746 192.97C184.111 190.286 179.176 186.456 173.937 181.971C172.625 180.852 171.357 179.744 170.141 178.666C169.535 178.124 168.939 177.591 168.356 177.07C167.779 176.549 167.185 176.017 166.816 175.324C166.427 174.627 166.447 173.804 166.59 173.112C166.73 172.409 166.908 171.748 167.076 171.103C167.421 169.819 167.765 168.63 168.08 167.545C168.704 165.396 169.212 163.648 169.572 162.409C169.736 161.82 169.866 161.353 169.963 161.009C170.003 160.863 170.038 160.744 170.065 160.645C170.09 160.563 170.105 160.522 170.11 160.523C170.115 160.524 170.11 160.568 170.094 160.652C170.074 160.753 170.05 160.874 170.02 161.023C169.95 161.348 169.837 161.826 169.682 162.439C169.371 163.664 168.884 165.427 168.279 167.602C167.977 168.69 167.645 169.881 167.311 171.165C167.149 171.806 166.976 172.474 166.844 173.159C166.712 173.84 166.7 174.568 167.056 175.198C167.395 175.831 167.965 176.345 168.544 176.863C169.129 177.382 169.725 177.912 170.332 178.451C171.55 179.525 172.818 180.631 174.129 181.748C179.362 186.228 184.271 190.08 187.871 192.804C189.664 194.144 191.122 195.233 192.156 196.005C192.647 196.369 193.037 196.659 193.324 196.872C193.444 196.965 193.542 197.04 193.624 197.103C193.688 197.157 193.721 197.186 193.718 197.19Z" fill="#455A64"/>
<path d="M194.516 195.91C192.399 198.693 190.735 200.99 190.799 201.038C190.863 201.087 192.632 198.87 194.749 196.087C196.866 193.303 198.531 191.007 198.466 190.958C198.402 190.909 196.634 193.126 194.516 195.91Z" fill="#455A64"/>
<path d="M191.871 79.0396C192.939 81.1803 193.503 83.0335 195.627 84.1376C196.583 84.6352 197.75 84.9189 198.326 85.8294C198.954 86.8212 198.658 88.257 199.451 89.1223C200.605 90.3797 202.963 89.3612 204.259 90.4719C205.415 91.4637 205.043 93.5908 206.29 94.4653C206.991 94.9568 207.948 94.8477 208.746 95.157C210.055 95.6639 210.675 97.1745 210.848 98.5672C210.986 99.6823 210.921 100.854 210.436 101.867C209.95 102.881 208.99 103.709 207.872 103.827C206.387 103.983 204.704 102.958 203.502 103.844C203.076 104.158 202.828 104.652 202.5 105.068C201.753 106.018 200.524 106.567 199.319 106.491C198.113 106.414 196.963 105.715 196.341 104.679C195.512 103.297 195.566 101.391 194.351 100.332C193.716 99.7778 192.857 99.5798 192.067 99.2846C191.278 98.9889 190.462 98.5001 190.224 97.6911C189.994 96.9055 189.537 96.4053 189.082 95.7244C188.475 94.8161 187.664 95.9257 186.861 95.4784C186.058 95.031 186.363 94.156 186.296 93.2389" fill="#263238"/>
<path d="M177.762 109.959L167.408 106.497C167.408 106.497 162.833 119.679 161.43 119.806C153.661 120.514 145.348 117.938 142.433 116.92C142.138 116.587 141.8 116.189 141.423 115.7C141.101 115.281 140.856 114.808 140.692 114.304C140.494 113.694 140.263 112.873 140.276 112.385C140.292 111.78 139.565 111.47 139.228 111.905C138.892 112.339 138.807 114.004 139.573 115.795C140.34 117.586 137.626 116.161 136.627 115.66C135.629 115.159 132.467 113.752 132.07 113.937C131.487 114.208 131.67 114.882 132.679 115.359C133.7 115.843 136.612 117.482 136.322 117.997C136.036 118.504 130.988 115.882 130.988 115.882C130.988 115.882 129.999 115.147 129.644 115.73C129.004 116.783 134.575 119.175 135.112 119.39C135.484 119.539 135.189 120.109 134.797 119.928C134.394 119.741 129.823 117.195 129.16 118.261C128.652 119.078 133.725 120.271 134.38 121.326C135.035 122.381 130.624 120.03 130.171 120.831C130.002 121.129 129.917 121.375 132.645 122.359C133.969 122.837 136.465 123.425 138.724 123.911L138.714 123.939C138.714 123.939 165.962 136.123 171.839 124.378C178.074 111.915 177.762 109.959 177.762 109.959Z" fill="#E5BAAB"/>
<path d="M187.999 99.0457L192.521 99.1269L196.114 109.42L193.189 121.215C192.334 124.66 196.214 131.553 196.114 135.356L170.746 139.465L170.211 122.525L170.199 121.957L161.42 117.577L164.317 110.48C168.775 100.039 176.558 99.403 176.558 99.403L187.999 99.0457Z" fill="#E8505B"/>
<g opacity="0.2">
<g opacity="0.2">
<g opacity="0.2">
<g opacity="0.2">
<path opacity="0.2" d="M187.999 99.0457L192.521 99.1269L196.114 109.42L193.189 121.215C192.334 124.66 196.214 131.553 196.114 135.356L170.746 139.465L170.211 122.525L170.199 121.957L161.42 117.577L164.317 110.48C168.775 100.039 176.558 99.403 176.558 99.403L187.999 99.0457Z" fill="white"/>
</g>
</g>
</g>
</g>
<path d="M192.709 99.1568C192.711 99.1628 192.661 99.1825 192.562 99.2163C192.463 99.249 192.314 99.2938 192.116 99.3385C191.722 99.4427 191.114 99.4711 190.361 99.5136L190.414 99.4105C190.884 100.173 191.469 101.119 192.148 102.218L192.264 102.407L192.044 102.368C191.148 102.213 190.112 102.151 189.007 102.27L189.113 102.139C189.231 103.207 189.216 104.393 189.601 105.555L189.678 105.786L189.443 105.726C188.367 105.451 187.217 105.152 186.138 104.516L186.352 104.425C186.147 105.44 185.933 106.503 185.714 107.591L185.667 107.825L185.481 107.677C185.043 107.328 184.597 106.932 184.174 106.504C183.766 106.093 183.386 105.662 183.035 105.217L183.24 105.241C182.243 106.027 181.273 106.792 180.338 107.53L180.158 107.672L180.112 107.448C179.906 106.436 179.706 105.457 179.515 104.517L179.69 104.616C178.594 105 177.559 105.363 176.589 105.703L176.373 105.779L176.431 105.559C176.762 104.324 177.063 103.2 177.331 102.198L177.41 102.32C176.369 102.141 175.473 101.987 174.716 101.857L174.604 101.837L174.667 101.745C175.167 101.014 175.561 100.439 175.846 100.021C175.973 99.8426 176.077 99.6975 176.16 99.5796C176.233 99.4814 176.272 99.4334 176.278 99.4372C176.283 99.4405 176.254 99.4961 176.193 99.6014C176.117 99.7247 176.024 99.8758 175.91 100.063C175.638 100.491 175.263 101.078 174.787 101.825L174.739 101.713C175.499 101.828 176.397 101.965 177.442 102.124L177.549 102.14L177.522 102.247C177.266 103.253 176.979 104.38 176.664 105.619L176.506 105.475C177.473 105.128 178.506 104.757 179.599 104.364L179.743 104.312L179.775 104.463C179.971 105.401 180.175 106.38 180.387 107.391L180.161 107.308C181.095 106.569 182.063 105.801 183.058 105.013L183.172 104.922L183.263 105.037C183.607 105.473 183.98 105.895 184.38 106.299C184.796 106.718 185.232 107.106 185.661 107.449L185.427 107.534C185.649 106.446 185.866 105.383 186.073 104.368L186.112 104.173L186.287 104.276C187.301 104.88 188.446 105.192 189.505 105.467L189.346 105.638C188.953 104.421 188.981 103.211 188.875 102.165L188.863 102.045L188.981 102.034C190.112 101.923 191.169 102 192.079 102.172L191.976 102.322C191.319 101.21 190.754 100.254 190.298 99.482L190.239 99.3821L190.351 99.3789C191.12 99.3554 191.705 99.3505 192.103 99.2692C192.499 99.201 192.705 99.1421 192.709 99.1568Z" fill="#455A64"/>
<path d="M197.716 103.483C197.71 103.495 197.541 103.398 197.185 103.296C196.833 103.201 196.273 103.101 195.583 103.271L195.624 103.209C195.73 103.81 195.893 104.53 196.117 105.355C196.336 106.18 196.615 107.112 196.859 108.16L196.895 108.316L196.74 108.272C195.446 107.897 193.925 107.611 192.322 107.069L192.473 106.95C192.639 108.507 192.629 110.248 192.723 112.077L192.732 112.236L192.572 112.213C191.172 112.006 189.744 111.559 188.287 111.083C188.116 111.033 187.909 110.964 187.863 111.039C187.762 111.114 187.697 111.303 187.621 111.484C187.472 111.845 187.322 112.21 187.171 112.577C186.867 113.312 186.559 114.059 186.247 114.815L186.154 115.041L186.001 114.85C185.07 113.694 184.093 112.483 183.1 111.249L182.884 110.981L183.081 111.01C181.484 112.107 179.924 113.179 178.414 114.216L178.259 114.323L178.198 114.145C177.672 112.633 177.162 111.165 176.67 109.752L176.874 109.821C175.145 110.944 173.382 111.802 171.683 112.435L171.489 112.507L171.518 112.303C171.851 109.939 172.15 107.82 172.408 105.984L172.542 106.087C170.973 106.707 169.519 106.828 168.37 106.761L168.276 106.755L168.309 106.668C168.731 105.536 169.06 104.656 169.29 104.039C169.4 103.757 169.486 103.534 169.551 103.365C169.612 103.215 169.646 103.139 169.652 103.141C169.658 103.143 169.635 103.223 169.586 103.378C169.53 103.55 169.454 103.776 169.358 104.064C169.142 104.686 168.835 105.573 168.438 106.715L168.377 106.623C169.51 106.668 170.938 106.529 172.469 105.906L172.625 105.842L172.603 106.01C172.359 107.848 172.077 109.969 171.763 112.335L171.597 112.203C173.275 111.566 175.018 110.708 176.725 109.591L176.871 109.495L176.929 109.661C177.424 111.073 177.939 112.539 178.468 114.05L178.252 113.98C179.761 112.941 181.32 111.867 182.916 110.768L183.027 110.691L183.112 110.797L183.328 111.065C184.32 112.299 185.296 113.511 186.226 114.668L185.98 114.704C186.294 113.947 186.604 113.202 186.908 112.467C187.061 112.1 187.212 111.736 187.362 111.375C187.443 111.204 187.485 110.992 187.692 110.816C187.751 110.775 187.795 110.744 187.89 110.728C187.966 110.72 188.02 110.73 188.076 110.738C188.183 110.758 188.279 110.787 188.374 110.818C189.832 111.299 191.235 111.744 192.615 111.955L192.464 112.09C192.379 110.246 192.398 108.517 192.246 106.97L192.229 106.792L192.398 106.85C193.979 107.399 195.49 107.698 196.796 108.09L196.677 108.201C196.447 107.158 196.18 106.224 195.973 105.392C195.761 104.562 195.611 103.833 195.518 103.226L195.51 103.176L195.559 103.165C196.278 103.007 196.849 103.128 197.202 103.242C197.558 103.364 197.716 103.483 197.716 103.483Z" fill="#455A64"/>
<path d="M170.351 121.832C170.342 121.849 170.135 121.768 169.806 121.545C169.484 121.316 169.025 120.944 168.633 120.336C168.234 119.74 167.957 118.866 168.036 117.914C168.072 116.969 168.376 115.918 169.022 115.02C169.515 114.321 170.144 113.778 170.82 113.412L170.743 113.518C170.953 111.962 171.143 110.626 171.289 109.679C171.435 108.733 171.537 108.177 171.569 108.181C171.602 108.186 171.559 108.75 171.462 109.703C171.364 110.656 171.209 111.998 171.019 113.557L171.01 113.625L170.942 113.663C170.334 114.002 169.719 114.531 169.259 115.19C168.649 116.039 168.354 117.026 168.304 117.93C168.216 118.837 168.452 119.643 168.808 120.227C169.159 120.819 169.581 121.204 169.875 121.454C170.175 121.699 170.36 121.813 170.351 121.832Z" fill="#455A64"/>
<path d="M170.755 109.598C170.991 110.08 171.241 110.442 171.314 110.407C171.386 110.371 171.254 109.952 171.018 109.47C170.782 108.988 170.532 108.626 170.459 108.661C170.387 108.697 170.519 109.116 170.755 109.598Z" fill="#455A64"/>
<path d="M187.694 99.1946L188.475 81.3674L181.395 76.0042L174.96 79.1503C174.96 79.1503 174.745 87.2303 174.96 90.7338C175.174 94.2373 178.707 94.6115 178.707 94.6115C178.707 94.6115 178.625 96.6649 178.544 98.8225C178.445 101.434 180.55 103.597 183.163 103.573C185.597 103.55 187.588 101.627 187.694 99.1946Z" fill="#E5BAAB"/>
<path d="M176.109 85.4893C176.357 85.4893 176.558 85.2883 176.558 85.0403C176.558 84.7923 176.357 84.5913 176.109 84.5913C175.861 84.5913 175.66 84.7923 175.66 85.0403C175.66 85.2883 175.861 85.4893 176.109 85.4893Z" fill="#263238"/>
<path d="M175.226 84.5512C175.284 84.609 175.615 84.3275 176.098 84.3019C176.58 84.2686 176.943 84.5081 176.993 84.4437C177.019 84.4148 176.959 84.3079 176.8 84.1993C176.644 84.0913 176.381 83.992 176.081 84.0105C175.781 84.0291 175.531 84.1589 175.389 84.2855C175.244 84.412 175.198 84.5255 175.226 84.5512Z" fill="#263238"/>
<path d="M181.305 85.4884C181.553 85.4884 181.754 85.2877 181.754 85.04C181.754 84.7923 181.553 84.5916 181.305 84.5916C181.058 84.5916 180.857 84.7923 180.857 85.04C180.857 85.2877 181.058 85.4884 181.305 85.4884Z" fill="#263238"/>
<path d="M180.578 84.5512C180.636 84.609 180.967 84.3275 181.451 84.3019C181.933 84.2686 182.296 84.5081 182.346 84.4437C182.371 84.4148 182.312 84.3079 182.152 84.1993C181.997 84.0913 181.733 83.992 181.433 84.0105C181.133 84.0291 180.883 84.1589 180.741 84.2855C180.597 84.412 180.55 84.5255 180.578 84.5512Z" fill="#263238"/>
<path d="M180.431 89.0862C179.83 89.384 178.766 89.8123 178.097 89.8903C178.097 89.8903 178.692 90.7402 179.698 90.3447C180.739 89.9339 180.431 89.0862 180.431 89.0862Z" fill="white"/>
<path d="M178.704 94.6121C178.704 94.6121 181.064 94.6383 183.347 93.0442C183.347 93.0442 182.295 95.6164 178.781 95.4719L178.704 94.6121Z" fill="#D78776"/>
<path d="M198.668 91.4397C198.357 91.4572 197.894 91.4065 197.397 91.1528C196.898 90.9084 196.404 90.4447 196.013 89.8102C195.616 89.1817 195.308 88.4033 194.978 87.5904C194.324 85.962 193.83 84.4502 193.495 83.3488C193.443 83.1742 193.395 83.0149 193.349 82.8627C193.32 82.6751 193.29 82.5076 193.257 82.3854C191.345 75.0784 184.924 73.7161 183.653 73.7161C182.291 73.7161 179.907 72.9666 176.433 76.577C175.85 77.1825 175.429 77.7952 175.115 78.3964C174.219 79.5202 173.746 80.7618 173.566 81.6963C173.355 82.7634 173.444 83.4383 173.485 83.4355C173.551 83.4383 173.562 82.7738 173.835 81.7602C173.968 81.2517 174.186 80.6533 174.507 80.0346C173.999 82.297 174.863 84.07 174.863 84.07L176.109 83.7269L180.571 82.2086C180.165 80.8262 180.762 79.1105 181.1 78.3107L181.134 78.2796C182.156 83.5245 187.033 84.0078 187.033 84.0078L187.858 95.4828C193.79 94.2149 193.655 86.2773 193.617 84.6652C193.886 85.5746 194.236 86.6182 194.675 87.7115C195.008 88.5271 195.327 89.316 195.76 89.9728C196.183 90.6313 196.746 91.1255 197.299 91.3606C197.85 91.6078 198.357 91.6241 198.683 91.5652C199.012 91.5019 199.168 91.3961 199.161 91.3814C199.15 91.3563 198.98 91.4185 198.668 91.4397Z" fill="#263238"/>
<path d="M178.836 88.6291C178.837 88.6024 178.535 88.5669 178.046 88.5304C177.923 88.5244 177.803 88.5064 177.777 88.4158C177.743 88.3214 177.791 88.1785 177.845 88.0263C177.95 87.7093 178.06 87.3755 178.176 87.0258C178.406 86.3138 178.603 85.6663 178.737 85.1944C178.87 84.7225 178.94 84.4268 178.914 84.4186C178.889 84.4104 178.773 84.6914 178.606 85.1524C178.438 85.6134 178.221 86.2544 177.991 86.9663C177.88 87.3176 177.774 87.6532 177.674 87.9718C177.632 88.1207 177.558 88.2903 177.626 88.4764C177.662 88.5691 177.753 88.6329 177.832 88.6504C177.911 88.6711 177.98 88.6684 178.042 88.669C178.531 88.669 178.836 88.6564 178.836 88.6291Z" fill="#263238"/>
<path d="M188.846 88.4835C188.825 87.8998 188.824 87.2986 189.034 86.7536C189.245 86.2086 189.714 85.7258 190.294 85.6653C190.963 85.596 191.61 86.1514 191.717 86.8153C191.823 87.4787 191.436 88.1704 190.85 88.4999C190.265 88.8294 189.522 88.8202 188.905 88.5545" fill="#E5BAAB"/>
<path d="M189.868 87.9736C189.889 87.9349 190.058 88.0205 190.305 87.9452C190.554 87.8852 190.809 87.6015 190.83 87.2006C190.844 87.0042 190.801 86.822 190.705 86.7341C190.606 86.6403 190.448 86.6136 190.323 86.6201C190.061 86.643 189.876 86.7129 189.86 86.6681C189.849 86.6392 189.979 86.505 190.292 86.4161C190.448 86.3812 190.674 86.3713 190.88 86.5296C191.086 86.6981 191.138 86.9785 191.12 87.2202C191.105 87.4706 191.01 87.7068 190.859 87.8749C190.711 88.0462 190.507 88.1324 190.344 88.1482C189.998 88.182 189.839 87.9949 189.868 87.9736Z" fill="#D78776"/>
<path d="M184.499 227.296V222.189L194.065 222.128L194.144 229.599L193.551 229.641C190.912 229.804 180.123 230.286 178.355 229.762C176.384 229.179 184.499 227.296 184.499 227.296Z" fill="#E8505B"/>
<path d="M186.121 229.458C190.534 229.458 194.112 229.385 194.112 229.295C194.112 229.204 190.534 229.131 186.121 229.131C181.707 229.131 178.13 229.204 178.13 229.295C178.13 229.385 181.707 229.458 186.121 229.458Z" fill="#263238"/>
<path d="M184.331 228.338C184.252 228.383 184.065 228.198 183.875 227.953C183.687 227.708 183.557 227.48 183.619 227.414C183.681 227.35 183.929 227.486 184.134 227.754C184.341 228.02 184.409 228.296 184.331 228.338Z" fill="#263238"/>
<path d="M183.721 228.675C183.636 228.709 183.464 228.477 183.29 228.182C183.117 227.886 182.997 227.624 183.068 227.566C183.136 227.509 183.384 227.697 183.572 228.016C183.76 228.335 183.804 228.643 183.721 228.675Z" fill="#263238"/>
<path d="M191.23 229.261C191.194 229.234 191.27 229.054 191.436 228.786C191.604 228.521 191.867 228.156 192.274 227.857C192.684 227.556 193.156 227.439 193.49 227.465C193.828 227.487 194.004 227.615 193.988 227.651C193.972 227.698 193.783 227.658 193.496 227.696C193.211 227.73 192.824 227.861 192.465 228.122C192.106 228.385 191.83 228.703 191.619 228.927C191.411 229.153 191.267 229.288 191.23 229.261Z" fill="#263238"/>
<path d="M184.302 227.378C184.348 227.299 184.564 227.34 184.804 227.423C185.043 227.509 185.237 227.612 185.224 227.702C185.212 227.791 184.968 227.828 184.695 227.732C184.423 227.636 184.257 227.455 184.302 227.378Z" fill="#263238"/>
<path d="M184.452 226.885C184.461 226.795 184.717 226.725 185.026 226.729C185.334 226.733 185.589 226.81 185.595 226.9C185.601 226.99 185.344 227.059 185.021 227.056C184.699 227.052 184.444 226.975 184.452 226.885Z" fill="#263238"/>
<path d="M175.956 138.691L170.715 139.565L173.732 143.277C174.599 160.751 174.389 177.675 175.189 186.116C175.311 187.396 180.722 227.597 180.184 226.656L196.115 227.321L191.36 186.949L193.615 151.092C196.058 146.856 196.773 141.839 195.609 137.089L195.214 135.476" fill="#455A64"/>
<path d="M199.695 172.144L128.416 151.371C126.172 150.717 124.883 148.368 125.537 146.123L138.216 102.615C138.871 100.37 141.22 99.0807 143.465 99.7353L214.743 120.508C216.988 121.163 218.277 123.512 217.623 125.756L204.943 169.264C204.29 171.508 201.94 172.798 199.695 172.144Z" fill="#E8505B"/>
<g opacity="0.3">
<g opacity="0.3">
<path opacity="0.3" d="M199.695 172.144L128.416 151.371C126.172 150.717 124.883 148.368 125.537 146.123L138.216 102.615C138.871 100.37 141.22 99.0807 143.465 99.7353L214.743 120.508C216.988 121.163 218.277 123.512 217.623 125.756L204.943 169.264C204.29 171.508 201.94 172.798 199.695 172.144Z" fill="black"/>
</g>
</g>
<path d="M198.128 134.406C201.281 134.406 203.837 131.85 203.837 128.698C203.837 125.545 201.281 122.989 198.128 122.989C194.975 122.989 192.419 125.545 192.419 128.698C192.419 131.85 194.975 134.406 198.128 134.406Z" fill="white"/>
<path d="M204.74 136.614C204.178 136.614 203.612 136.534 203.056 136.373C201.52 135.925 200.25 134.906 199.481 133.504C198.711 132.101 198.534 130.483 198.982 128.947C199.43 127.411 200.449 126.141 201.851 125.371C203.253 124.602 204.872 124.425 206.408 124.872C209.578 125.797 211.406 129.128 210.482 132.298C210.035 133.834 209.016 135.104 207.613 135.874C206.717 136.364 205.734 136.614 204.74 136.614ZM204.724 125.191C203.824 125.191 202.932 125.418 202.121 125.863C200.851 126.561 199.928 127.711 199.521 129.103C199.115 130.495 199.276 131.962 199.973 133.232C200.67 134.503 201.821 135.427 203.213 135.832C204.606 136.239 206.072 136.079 207.343 135.38C208.614 134.683 209.537 133.532 209.943 132.14C210.78 129.267 209.124 126.248 206.25 125.411C205.747 125.264 205.234 125.191 204.724 125.191Z" fill="white"/>
<path d="M136.814 133.616L135.53 138.024L135.076 137.893L136.244 133.887L135.205 133.585L135.322 133.181L136.814 133.616Z" fill="white"/>
<path d="M140.18 138.942L140.063 139.346L136.971 138.444L137.064 138.124L139.42 136.863C140.061 136.516 140.241 136.247 140.329 135.945C140.478 135.435 140.211 135.016 139.537 134.819C139.021 134.669 138.578 134.71 138.191 134.96L137.951 134.589C138.408 134.286 139.022 134.219 139.696 134.415C140.59 134.675 141.025 135.294 140.81 136.031C140.687 136.453 140.445 136.792 139.684 137.199L137.756 138.236L140.18 138.942Z" fill="white"/>
<path d="M145.041 139.539L144.16 139.283L143.822 140.441L143.368 140.309L143.706 139.15L141.219 138.426L141.314 138.098L144.502 135.857L145.006 136.003L141.922 138.193L143.836 138.751L144.134 137.73L144.575 137.858L144.278 138.879L145.16 139.136L145.041 139.539Z" fill="white"/>
<path d="M151.797 141.508L150.915 141.251L150.577 142.409L150.124 142.277L150.461 141.119L147.974 140.394L148.069 140.066L151.258 137.825L151.761 137.972L148.677 140.162L150.592 140.72L150.889 139.699L151.33 139.827L151.033 140.848L151.915 141.105L151.797 141.508Z" fill="white"/>
<path d="M155.69 142.492C155.471 143.243 154.778 143.676 153.701 143.362C153.066 143.177 152.525 142.779 152.285 142.334L152.611 142.039C152.807 142.417 153.249 142.778 153.816 142.944C154.566 143.162 155.069 142.913 155.225 142.377C155.39 141.81 155.141 141.354 154.019 141.028L153.081 140.754L153.951 138.61L156.364 139.313L156.247 139.717L154.231 139.129L153.67 140.489L154.237 140.655C155.565 141.042 155.918 141.711 155.69 142.492Z" fill="white"/>
<path d="M160.052 143.743C159.812 144.568 159.009 144.908 158.152 144.659C156.98 144.318 156.582 143.319 156.987 141.928C157.424 140.429 158.47 139.886 159.666 140.234C160.063 140.35 160.415 140.528 160.642 140.779L160.353 141.091C160.17 140.874 159.885 140.729 159.558 140.633C158.607 140.357 157.817 140.789 157.469 141.986C157.439 142.086 157.409 142.214 157.384 142.349C157.745 141.929 158.34 141.809 158.951 141.987C159.827 142.242 160.287 142.937 160.052 143.743ZM159.601 143.624C159.77 143.045 159.45 142.549 158.77 142.351C158.096 142.155 157.515 142.436 157.355 142.983C157.214 143.469 157.483 144.046 158.246 144.269C158.881 144.454 159.43 144.211 159.601 143.624Z" fill="white"/>
<path d="M166.069 145.551C165.853 146.289 165.153 146.7 164.089 146.389C163.452 146.204 162.906 145.804 162.667 145.36L162.992 145.064C163.189 145.442 163.637 145.805 164.21 145.972C164.94 146.186 165.443 145.963 165.602 145.415C165.756 144.886 165.486 144.432 164.667 144.193L164.353 144.102L164.451 143.767L166.118 142.593L163.863 141.936L163.981 141.533L166.815 142.358L166.721 142.679L165.017 143.885C165.946 144.211 166.274 144.846 166.069 145.551Z" fill="white"/>
<path d="M170.503 146.788C170.263 147.613 169.459 147.953 168.603 147.704C167.431 147.363 167.032 146.364 167.437 144.973C167.874 143.473 168.921 142.931 170.117 143.28C170.514 143.395 170.866 143.574 171.093 143.824L170.804 144.136C170.621 143.919 170.336 143.775 170.009 143.679C169.058 143.401 168.268 143.834 167.92 145.031C167.89 145.132 167.86 145.259 167.835 145.395C168.196 144.974 168.792 144.854 169.402 145.033C170.278 145.288 170.738 145.983 170.503 146.788ZM170.052 146.67C170.221 146.09 169.901 145.595 169.221 145.396C168.547 145.201 167.966 145.482 167.806 146.029C167.665 146.515 167.934 147.092 168.696 147.314C169.332 147.499 169.881 147.257 170.052 146.67Z" fill="white"/>
<path d="M175.459 144.878L175.365 145.199L172.329 148.749L171.838 148.606L174.819 145.129L172.552 144.469L172.312 145.293L171.864 145.163L172.222 143.935L175.459 144.878Z" fill="white"/>
<path d="M181.761 146.715L181.667 147.036L178.63 150.584L178.14 150.441L181.121 146.965L178.854 146.304L178.614 147.129L178.167 146.999L178.524 145.771L181.761 146.715Z" fill="white"/>
<path d="M185.172 151.159C184.944 151.939 184.141 152.232 183.09 151.926C182.032 151.617 181.531 150.945 181.759 150.164C181.913 149.635 182.323 149.352 182.925 149.328C182.529 149.021 182.38 148.617 182.514 148.157C182.724 147.439 183.465 147.169 184.397 147.441C185.328 147.713 185.822 148.342 185.613 149.06C185.478 149.52 185.13 149.779 184.625 149.824C185.125 150.168 185.324 150.636 185.172 151.159ZM184.708 151.016C184.865 150.475 184.498 149.999 183.717 149.772C182.936 149.544 182.377 149.75 182.219 150.291C182.06 150.839 182.421 151.314 183.202 151.542C183.983 151.769 184.548 151.564 184.708 151.016ZM183.822 149.412C184.508 149.612 185.008 149.424 185.148 148.945C185.292 148.447 184.945 148.018 184.285 147.825C183.616 147.631 183.107 147.811 182.963 148.302C182.822 148.786 183.135 149.212 183.822 149.412Z" fill="white"/>
<path d="M189.748 151.393C189.311 152.892 188.265 153.435 187.069 153.086C186.672 152.971 186.32 152.792 186.093 152.542L186.382 152.229C186.564 152.447 186.849 152.591 187.178 152.687C188.128 152.964 188.918 152.531 189.266 151.335C189.296 151.234 189.326 151.105 189.352 150.97C188.99 151.39 188.394 151.511 187.783 151.333C186.908 151.078 186.448 150.384 186.683 149.577C186.923 148.752 187.726 148.413 188.582 148.662C189.754 149.003 190.154 150.001 189.748 151.393ZM189.38 150.336C189.522 149.851 189.253 149.273 188.489 149.051C187.854 148.867 187.305 149.109 187.135 149.695C186.965 150.275 187.285 150.771 187.966 150.969C188.639 151.165 189.221 150.884 189.38 150.336Z" fill="white"/>
<path d="M194.849 150.528L193.565 154.937L193.111 154.805L194.279 150.8L193.24 150.497L193.357 150.094L194.849 150.528Z" fill="white"/>
<path d="M198.215 155.855L198.098 156.258L195.006 155.357L195.099 155.036L197.454 153.775C198.095 153.429 198.276 153.16 198.364 152.858C198.513 152.347 198.246 151.928 197.572 151.732C197.055 151.581 196.612 151.623 196.226 151.873L195.985 151.502C196.443 151.198 197.057 151.131 197.731 151.328C198.625 151.588 199.059 152.207 198.844 152.944C198.722 153.365 198.479 153.705 197.719 154.112L195.79 155.149L198.215 155.855Z" fill="white"/>
<path d="M202.421 156.144C202.206 156.882 201.505 157.293 200.441 156.982C199.805 156.797 199.258 156.398 199.019 155.953L199.345 155.657C199.541 156.036 199.989 156.399 200.562 156.566C201.293 156.779 201.795 156.556 201.955 156.009C202.109 155.479 201.838 155.025 201.019 154.786L200.705 154.694L200.802 154.36L202.47 153.187L200.215 152.53L200.333 152.126L203.167 152.952L203.073 153.273L201.369 154.478C202.299 154.804 202.627 155.439 202.421 156.144Z" fill="white"/>
<path d="M167.253 150.827L166.696 152.742L202.004 163.032L202.562 161.117L167.253 150.827Z" fill="white"/>
<path d="M183.34 159.663L182.782 161.577L200.891 166.854L201.449 164.94L183.34 159.663Z" fill="white"/>
<path d="M147.441 132.614L137.824 129.811C136.389 129.393 135.564 127.89 135.983 126.454L137.693 120.586C138.112 119.151 139.614 118.326 141.051 118.745L150.665 121.547C152.101 121.965 152.926 123.468 152.508 124.904L150.798 130.771C150.38 132.207 148.877 133.032 147.441 132.614Z" fill="#263238"/>
<path d="M136.117 125.99L136.325 125.28L143.952 127.503C144.832 127.759 145.758 127.252 146.015 126.371C146.27 125.491 145.755 124.554 144.883 124.31L137.255 122.087L137.463 121.377L145.09 123.601C146.361 123.972 147.095 125.307 146.724 126.578C146.353 127.85 145.017 128.584 143.746 128.214L136.117 125.99Z" fill="white"/>
<path d="M151.512 128.357L151.719 127.647L146.484 126.119L146.276 126.829L151.512 128.357Z" fill="white"/>
<path d="M180.948 120.482L142.85 109.378L141.897 112.648L179.995 123.752L180.948 120.482Z" fill="white"/>
<path d="M186.936 75.5918C186.144 75.2868 185.499 74.5956 185.3 73.7707C185.1 72.9459 185.375 72.0119 186.022 71.4636C186.669 70.9154 187.669 70.8052 188.397 71.2416C188.99 71.5978 189.35 72.2443 189.577 72.8984C189.728 73.3343 189.832 73.8078 189.72 74.2552C189.551 74.9256 188.919 75.3997 188.251 75.5792C187.583 75.7592 186.877 75.6976 186.189 75.6349" fill="#263238"/>
<path d="M200.996 85.3144C200.964 85.3073 201.12 85.0575 201.03 84.6003C200.98 84.3777 200.867 84.1115 200.649 83.8709C200.435 83.6309 200.107 83.4372 199.711 83.3303C199.314 83.2206 198.855 83.1988 198.363 83.2343C197.87 83.2659 197.339 83.3538 196.761 83.3674C196.188 83.3783 195.546 83.3025 194.986 82.9468C194.403 82.5905 194.121 81.9141 193.925 81.3063C193.546 80.0712 192.905 79.0129 192.178 78.1727C191.448 77.3342 190.644 76.7145 189.919 76.2863C188.454 75.4319 187.375 75.2961 187.397 75.2295C187.399 75.2192 187.465 75.2246 187.59 75.2437C187.714 75.2672 187.901 75.2857 188.131 75.3539C188.598 75.4636 189.262 75.6949 190.021 76.1062C190.776 76.5208 191.617 77.14 192.381 77.9938C193.14 78.8448 193.816 79.9512 194.202 81.2114C194.4 81.8224 194.65 82.4018 195.142 82.7051C195.624 83.0177 196.215 83.1017 196.758 83.0968C197.309 83.0919 197.841 83.0139 198.349 82.9915C198.857 82.9659 199.344 82.9992 199.768 83.1312C200.191 83.2588 200.548 83.4858 200.773 83.7635C201 84.039 201.106 84.3357 201.142 84.5801C201.175 84.8273 201.135 85.0215 201.091 85.142C201.047 85.2648 201.002 85.3177 200.996 85.3144Z" fill="#263238"/>
<path d="M190.919 88.4502C190.937 88.4229 191.182 88.6313 191.178 89.1026C191.174 89.3279 191.082 89.6187 190.848 89.8337C190.622 90.0464 190.272 90.185 189.904 90.1266C189.537 90.0639 189.25 89.8211 189.104 89.5467C188.95 89.2685 188.956 88.9635 189.024 88.7486C189.171 88.3007 189.47 88.1817 189.478 88.2139C189.512 88.2472 189.294 88.4191 189.225 88.7971C189.192 88.9821 189.211 89.2106 189.337 89.4136C189.459 89.6165 189.686 89.7933 189.951 89.838C190.216 89.8806 190.488 89.7851 190.669 89.6324C190.854 89.4807 190.943 89.2696 190.972 89.0841C191.028 88.7038 190.877 88.4714 190.919 88.4502Z" fill="#E0E0E0"/>
<path d="M189.506 76.2792C189.437 76.3381 188.735 75.4532 187.535 74.8291C186.342 74.1876 185.216 74.1052 185.227 74.0157C185.214 73.9442 186.41 73.8951 187.671 74.5711C188.939 75.2334 189.572 76.2492 189.506 76.2792Z" fill="#E8505B"/>
<path d="M191.542 87.7817C191.542 87.7441 191.696 87.731 191.794 87.911C191.837 87.995 191.862 88.121 191.8 88.2558C191.736 88.3921 191.582 88.4789 191.429 88.4827C191.277 88.4903 191.123 88.4162 191.045 88.3038C190.966 88.1947 190.951 88.0763 190.962 87.9874C190.987 87.8035 191.093 87.7381 191.121 87.761C191.156 87.7834 191.137 87.8712 191.168 87.9808C191.2 88.0948 191.279 88.1979 191.418 88.1903C191.557 88.1838 191.608 88.091 191.599 87.9797C191.593 87.8772 191.53 87.8215 191.542 87.7817Z" fill="#E0E0E0"/>
<path d="M187.808 98.6463C187.822 98.6447 187.871 98.852 187.869 99.2355C187.867 99.6168 187.798 100.177 187.55 100.822C187.298 101.46 186.855 102.185 186.145 102.774C185.442 103.369 184.459 103.769 183.401 103.836C182.341 103.897 181.318 103.618 180.548 103.112C179.772 102.612 179.245 101.946 178.918 101.343C178.595 100.732 178.458 100.184 178.411 99.8056C178.362 99.4253 178.387 99.2137 178.401 99.2137C178.464 99.1984 178.429 100.083 179.097 101.241C179.433 101.807 179.952 102.426 180.691 102.884C181.422 103.347 182.384 103.6 183.383 103.544C184.381 103.48 185.304 103.113 185.975 102.565C186.653 102.022 187.094 101.346 187.36 100.743C187.884 99.5126 187.743 98.6381 187.808 98.6463Z" fill="#455A64"/>
<path d="M186.664 223.668C186.659 223.668 186.648 223.619 186.632 223.52C186.615 223.406 186.593 223.263 186.567 223.086C186.514 222.68 186.441 222.12 186.347 221.41C186.161 219.954 185.913 217.845 185.624 215.237C185.044 210.02 184.329 202.805 183.687 194.823C183.046 186.839 182.6 179.601 182.339 174.359C182.208 171.738 182.117 169.616 182.068 168.15C182.047 167.434 182.03 166.87 182.017 166.461C182.015 166.282 182.013 166.138 182.011 166.021C182.012 165.922 182.015 165.871 182.02 165.871C182.025 165.871 182.032 165.922 182.041 166.02C182.051 166.136 182.062 166.28 182.076 166.458C182.101 166.866 182.137 167.43 182.181 168.145C182.268 169.633 182.393 171.746 182.545 174.347C182.858 179.585 183.337 186.818 183.978 194.8C184.62 202.779 185.302 209.995 185.829 215.215C186.094 217.808 186.309 219.914 186.46 221.397C186.53 222.11 186.585 222.672 186.626 223.079C186.64 223.257 186.652 223.402 186.661 223.517C186.668 223.616 186.669 223.667 186.664 223.668Z" fill="#263238"/>
<path d="M195.566 223.707C195.568 223.727 195.35 223.757 194.957 223.792C194.563 223.829 193.992 223.866 193.286 223.899C191.874 223.968 189.92 224.001 187.765 223.968C185.608 223.937 183.659 223.868 182.248 223.814C181.593 223.783 181.035 223.758 180.577 223.736C180.183 223.711 179.965 223.688 179.965 223.668C179.966 223.647 180.184 223.632 180.579 223.622C180.974 223.611 181.546 223.606 182.252 223.608C183.664 223.609 185.615 223.644 187.768 223.675C189.921 223.709 191.869 223.708 193.28 223.693C193.935 223.687 194.493 223.682 194.951 223.678C195.347 223.677 195.565 223.687 195.566 223.707Z" fill="#263238"/>
<path d="M198.672 117.147L189.315 110.993C189.315 110.993 184.739 124.174 183.337 124.302C175.568 125.01 167.255 122.434 164.34 121.416C164.044 121.084 163.706 120.685 163.329 120.197C163.007 119.777 162.763 119.303 162.598 118.8C162.4 118.191 162.169 117.37 162.182 116.881C162.199 116.276 161.471 115.966 161.135 116.401C160.799 116.835 160.713 118.5 161.479 120.291C162.247 122.082 159.532 120.658 158.534 120.156C157.535 119.654 154.373 118.248 153.976 118.432C153.394 118.704 153.577 119.378 154.585 119.855C155.607 120.338 158.519 121.978 158.228 122.492C157.943 122.999 152.894 120.377 152.894 120.377C152.894 120.377 151.906 119.642 151.551 120.225C150.91 121.278 156.482 123.67 157.018 123.884C157.39 124.033 157.095 124.604 156.703 124.423C156.301 124.236 151.729 121.69 151.066 122.756C150.558 123.573 155.631 124.766 156.286 125.821C156.941 126.876 152.53 124.525 152.077 125.326C151.908 125.624 151.823 125.87 154.551 126.854C155.875 127.332 158.371 127.92 160.631 128.406L160.621 128.434C160.621 128.434 188.476 140.903 193.745 128.873C199.355 116.062 198.672 117.147 198.672 117.147Z" fill="#E5BAAB"/>
<path d="M192.521 99.1274C192.521 99.1274 201.035 100.132 200.135 110.254C199.216 120.58 194.949 128.21 194.949 128.21L183.79 122.35C186.295 117.276 188.215 112.027 189.417 106.562L192.521 99.1274Z" fill="#E8505B"/>
<g opacity="0.2">
<g opacity="0.2">
<g opacity="0.2">
<g opacity="0.2">
<g opacity="0.2">
<path opacity="0.2" d="M192.521 99.1274C192.521 99.1274 201.035 100.132 200.135 110.254C199.216 120.58 194.949 128.21 194.949 128.21L183.79 122.35C186.295 117.276 188.215 112.027 189.417 106.562L192.521 99.1274Z" fill="white"/>
</g>
</g>
</g>
</g>
</g>
<path d="M192.708 99.157C192.728 99.2252 191.783 99.4772 190.363 99.576L190.466 99.3779C190.789 99.9033 191.142 100.477 191.516 101.084C191.747 101.472 191.97 101.845 192.181 102.197L192.341 102.465L192.036 102.407C190.296 102.076 188.997 102.231 188.994 102.152C188.99 102.122 189.309 102.049 189.859 102.011C190.408 101.973 191.192 101.981 192.086 102.133L191.942 102.342C191.728 101.993 191.501 101.622 191.266 101.237C190.903 100.623 190.559 100.045 190.245 99.5149L190.133 99.3256L190.349 99.3163C191.05 99.2874 191.641 99.2427 192.053 99.2039C192.466 99.1674 192.701 99.1286 192.708 99.157Z" fill="#455A64"/>
<path d="M197.716 103.483C197.708 103.53 196.925 103.337 195.568 103.305L195.657 103.2C195.979 104.481 196.408 106.183 196.902 108.146L196.959 108.375L196.734 108.313C195.657 108.018 194.486 107.696 193.265 107.361C192.946 107.272 192.63 107.185 192.319 107.098L192.506 106.952C192.583 108.834 192.654 110.578 192.716 112.078L192.722 112.243L192.569 112.2C191.225 111.823 190.093 111.506 189.239 111.267C188.875 111.157 188.57 111.065 188.319 110.989C188.107 110.921 187.997 110.88 188 110.868C188.004 110.856 188.121 110.873 188.338 110.919C188.595 110.977 188.904 111.048 189.275 111.133C190.132 111.345 191.27 111.628 192.621 111.963L192.475 112.086C192.399 110.587 192.311 108.845 192.216 106.964L192.206 106.764L192.402 106.818C192.712 106.904 193.028 106.991 193.346 107.08C194.563 107.42 195.73 107.746 196.802 108.046L196.635 108.213C196.179 106.238 195.783 104.524 195.486 103.235L195.46 103.124L195.575 103.13C196.259 103.17 196.8 103.254 197.163 103.332C197.527 103.41 197.719 103.467 197.716 103.483Z" fill="#455A64"/>
<path d="M198.406 117.312C198.398 117.322 198.234 117.202 198.009 116.906C197.778 116.615 197.532 116.134 197.168 115.578L197.318 115.573C196.679 116.823 195.661 118.599 194.23 120.479L194.118 120.627L194.005 120.48C193.482 119.798 192.923 119.069 192.345 118.317C191.917 117.755 191.497 117.205 191.092 116.674L191.301 116.695C190.594 117.312 189.92 117.9 189.29 118.449C188.978 118.721 188.677 118.982 188.387 119.232C188.244 119.357 188.103 119.478 187.966 119.596L187.764 119.771L187.714 119.814L187.688 119.836L187.663 119.856C187.651 119.862 187.652 119.864 187.629 119.872C187.611 119.917 187.449 119.803 187.488 119.752C187.494 119.718 187.491 119.74 187.493 119.73L187.497 119.719L187.505 119.703C187.509 119.698 187.505 119.697 187.504 119.717C187.494 119.742 187.541 119.808 187.56 119.803C187.59 119.809 187.564 119.805 187.554 119.808L187.461 119.838L187.429 119.734C187.102 118.659 186.871 117.779 186.743 117.16C186.607 116.543 186.614 116.183 186.638 116.184C186.658 116.185 186.691 116.527 186.862 117.132C187.025 117.736 187.287 118.606 187.638 119.666L187.513 119.592C187.545 119.59 187.563 119.576 187.634 119.594C187.672 119.596 187.738 119.68 187.725 119.729C187.721 119.77 187.709 119.789 187.703 119.803C187.692 119.797 187.724 119.828 187.676 119.791C187.649 119.775 187.591 119.762 187.599 119.761C187.594 119.744 187.583 119.722 187.567 119.706C187.557 119.693 187.557 119.702 187.536 119.673L187.536 119.672L187.539 119.671L187.542 119.668L187.566 119.646L187.614 119.602L187.813 119.423C187.948 119.302 188.086 119.178 188.227 119.051C188.511 118.796 188.809 118.53 189.117 118.254C189.741 117.699 190.41 117.105 191.111 116.481L191.226 116.379L191.32 116.501C191.727 117.031 192.147 117.58 192.578 118.141C193.152 118.895 193.709 119.626 194.23 120.31L194.005 120.31C195.44 118.453 196.481 116.715 197.165 115.491L197.239 115.359L197.316 115.486C197.668 116.069 197.885 116.554 198.087 116.854C198.281 117.157 198.42 117.299 198.406 117.312Z" fill="#455A64"/>
<path d="M188.764 109.534C188.784 109.539 188.749 109.727 188.67 110.064C188.591 110.4 188.462 110.883 188.29 111.476C187.946 112.662 187.413 114.285 186.723 116.04C186.031 117.795 185.315 119.347 184.759 120.449C184.48 121.001 184.246 121.442 184.073 121.742C183.903 122.042 183.799 122.203 183.781 122.194C183.743 122.174 184.065 121.483 184.572 120.36C185.079 119.238 185.762 117.681 186.45 115.933C187.137 114.186 187.7 112.582 188.093 111.415C188.487 110.248 188.723 109.522 188.764 109.534Z" fill="#455A64"/>
<path d="M192.709 99.157C192.728 99.2252 191.783 99.4772 190.363 99.576L190.466 99.3779C190.789 99.9033 191.142 100.477 191.516 101.084C191.747 101.472 191.97 101.845 192.181 102.197L192.341 102.465L192.036 102.407C190.296 102.076 188.997 102.231 188.994 102.152C188.99 102.122 189.309 102.049 189.859 102.011C190.409 101.973 191.192 101.981 192.086 102.133L191.942 102.342C191.728 101.993 191.501 101.622 191.266 101.237C190.903 100.623 190.56 100.045 190.245 99.5149L190.133 99.3256L190.349 99.3163C191.051 99.2874 191.641 99.2427 192.053 99.2039C192.466 99.1674 192.701 99.1286 192.709 99.157Z" fill="#455A64"/>
<path d="M197.716 103.483C197.708 103.53 196.924 103.337 195.568 103.305L195.657 103.2C195.979 104.481 196.408 106.183 196.902 108.146L196.959 108.375L196.734 108.313C195.657 108.018 194.486 107.696 193.265 107.361C192.946 107.272 192.63 107.185 192.319 107.098L192.506 106.952C192.583 108.834 192.654 110.578 192.716 112.078L192.722 112.243L192.569 112.2C191.225 111.823 190.093 111.506 189.239 111.267C188.875 111.157 188.57 111.065 188.319 110.989C188.107 110.921 187.997 110.88 188 110.868C188.004 110.856 188.121 110.873 188.338 110.919C188.595 110.977 188.904 111.048 189.275 111.133C190.132 111.345 191.27 111.628 192.621 111.963L192.475 112.086C192.399 110.587 192.311 108.845 192.216 106.964L192.206 106.764L192.402 106.818C192.712 106.904 193.028 106.991 193.346 107.08C194.563 107.42 195.73 107.746 196.802 108.046L196.635 108.213C196.179 106.238 195.783 104.524 195.486 103.235L195.46 103.124L195.575 103.13C196.259 103.17 196.8 103.254 197.163 103.332C197.527 103.41 197.719 103.467 197.716 103.483Z" fill="#455A64"/>
<path d="M198.406 117.313C198.398 117.323 198.234 117.202 198.009 116.906C197.778 116.615 197.532 116.134 197.168 115.578L197.318 115.573C196.679 116.823 195.661 118.6 194.23 120.48L194.118 120.627L194.005 120.48C193.482 119.798 192.923 119.069 192.345 118.318C191.916 117.755 191.497 117.205 191.092 116.674L191.301 116.695C190.594 117.313 189.92 117.9 189.29 118.45C188.978 118.721 188.677 118.982 188.387 119.232C188.244 119.357 188.103 119.478 187.966 119.596L187.764 119.771L187.714 119.814L187.688 119.836L187.663 119.856C187.651 119.863 187.652 119.864 187.629 119.872C187.611 119.917 187.449 119.804 187.488 119.752C187.494 119.719 187.491 119.74 187.493 119.731L187.497 119.719L187.505 119.703C187.509 119.698 187.505 119.697 187.504 119.717C187.494 119.743 187.541 119.808 187.56 119.803C187.59 119.809 187.564 119.805 187.554 119.808L187.461 119.838L187.429 119.734C187.102 118.66 186.871 117.779 186.743 117.161C186.607 116.544 186.614 116.183 186.638 116.185C186.658 116.186 186.691 116.527 186.862 117.132C187.025 117.737 187.287 118.606 187.638 119.667L187.513 119.593C187.545 119.59 187.563 119.577 187.634 119.595C187.672 119.596 187.738 119.68 187.725 119.729C187.721 119.77 187.709 119.789 187.703 119.804C187.692 119.798 187.724 119.828 187.676 119.792C187.649 119.775 187.591 119.762 187.599 119.762C187.594 119.744 187.583 119.722 187.567 119.707C187.557 119.693 187.557 119.703 187.536 119.673L187.536 119.673L187.539 119.671L187.542 119.668L187.566 119.647L187.614 119.602L187.813 119.423C187.948 119.302 188.086 119.178 188.227 119.051C188.511 118.797 188.809 118.53 189.117 118.254C189.741 117.7 190.41 117.105 191.111 116.481L191.226 116.379L191.32 116.501C191.727 117.031 192.147 117.58 192.578 118.141C193.152 118.895 193.709 119.626 194.23 120.31L194.005 120.31C195.44 118.453 196.481 116.715 197.165 115.492L197.239 115.359L197.316 115.486C197.668 116.069 197.885 116.554 198.087 116.854C198.281 117.157 198.42 117.299 198.406 117.313Z" fill="#455A64"/>
<path d="M188.764 109.534C188.784 109.539 188.749 109.727 188.67 110.064C188.591 110.4 188.462 110.883 188.29 111.476C187.946 112.662 187.413 114.285 186.723 116.04C186.031 117.795 185.315 119.347 184.759 120.449C184.48 121.001 184.246 121.442 184.073 121.742C183.903 122.042 183.799 122.203 183.781 122.194C183.743 122.174 184.065 121.483 184.572 120.36C185.079 119.238 185.762 117.681 186.45 115.933C187.137 114.186 187.7 112.582 188.093 111.415C188.487 110.248 188.723 109.522 188.764 109.534Z" fill="#455A64"/>
</svg>
