<svg width="28" height="25" viewBox="0 0 28 25" fill="none" xmlns="http://www.w3.org/2000/svg">
<path d="M26.3889 4.16667H20.3704V2.31481C20.3688 1.03692 19.3335 0.0015824 18.0556 0H9.72222C8.44433 0.0015824 7.40899 1.03692 7.40741 2.31481V4.16667H1.38889C0.62188 4.16667 0 4.78855 0 5.55556V15.861C0.00293873 16.4483 0.372993 16.9707 0.925926 17.1681V23.6111C0.925926 24.3781 1.54781 25 2.31482 25H25.463C26.23 25 26.8519 24.3781 26.8519 23.6111V17.1685C27.4048 16.9709 27.7751 16.4483 27.7778 15.861V5.55556C27.7778 4.78855 27.1559 4.16667 26.3889 4.16667ZM8.33333 2.31481C8.33333 1.54781 8.95521 0.925926 9.72222 0.925926H18.0556C18.8226 0.925926 19.4444 1.54781 19.4444 2.31481V4.16667H18.5185V2.31481C18.5185 2.05915 18.3112 1.85185 18.0556 1.85185H9.72222C9.46655 1.85185 9.25926 2.05915 9.25926 2.31481V4.16667H8.33333V2.31481ZM17.5926 4.16667H10.1852V2.77778H17.5926V4.16667ZM25.9259 23.6111C25.9259 23.8668 25.7186 24.0741 25.463 24.0741H2.31482C2.05915 24.0741 1.85185 23.8668 1.85185 23.6111V17.3272L12.037 18.7319V19.9074C12.037 20.6744 12.6589 21.2963 13.4259 21.2963H14.3519C15.1189 21.2963 15.7407 20.6744 15.7407 19.9074V18.7319L25.9259 17.3272V23.6111ZM14.8148 19.9074C14.8148 20.1631 14.6075 20.3704 14.3519 20.3704H13.4259C13.1703 20.3704 12.963 20.1631 12.963 19.9074V17.1296C12.963 16.874 13.1703 16.6667 13.4259 16.6667H14.3519C14.6075 16.6667 14.8148 16.874 14.8148 17.1296V19.9074ZM26.8519 15.861C26.8521 16.0918 26.6823 16.2876 26.4538 16.3199L26.3254 16.3375L15.7407 17.7972V17.1296C15.7407 16.3626 15.1189 15.7407 14.3519 15.7407H13.4259C12.6589 15.7407 12.037 16.3626 12.037 17.1296V17.7972L1.32446 16.3199C1.09592 16.2878 0.9257 16.092 0.925926 15.861V5.55556C0.925926 5.29989 1.13322 5.09259 1.38889 5.09259H26.3889C26.6446 5.09259 26.8519 5.29989 26.8519 5.55556V15.861Z" fill="black"/>
</svg>
