<svg width="22" height="22" viewBox="0 0 22 22" fill="none" xmlns="http://www.w3.org/2000/svg">
<path d="M21.7316 9.42475C21.4999 9.08033 21.1487 8.84299 20.7404 8.75303C21.0038 8.25704 20.9931 7.63819 20.6575 7.13952C20.4189 6.78452 20.0588 6.55524 19.6669 6.46846C19.7368 6.33721 19.7884 6.19555 19.8193 6.04616C19.9049 5.63074 19.8213 5.20743 19.5835 4.85411C19.3518 4.50952 19.0006 4.27219 18.5923 4.18239C18.8557 3.6864 18.845 3.06755 18.5094 2.56871C18.019 1.83942 17.0169 1.63884 16.2759 2.1219L14.6717 3.16792C13.8165 2.74092 12.907 2.43796 11.963 2.26541C11.6647 1.81944 11.3177 1.40486 10.9294 1.03426L10.2657 0.40097C9.77964 -0.0629583 9.01741 -0.132615 8.45311 0.235473C7.78549 0.6707 7.60205 1.55962 8.04412 2.2169C8.0615 2.24292 8.07855 2.26911 8.09543 2.29529C5.91989 2.72867 3.93716 3.86533 2.46963 5.53087C0.87714 7.33841 0 9.65336 0 12.0492C0 12.5084 0.0318805 12.9685 0.0949595 13.4163C0.581009 16.8976 2.93642 19.8977 6.24176 21.246C7.46754 21.7462 8.76816 22 10.107 22C12.2273 22 14.2569 21.3607 15.9766 20.1513C17.6589 18.968 18.9176 17.335 19.6167 15.429C19.682 15.2514 19.5884 15.0552 19.4081 14.9911C19.2275 14.9269 19.0284 15.0189 18.9633 15.1967C18.3122 16.9716 17.1398 18.4923 15.5725 19.5946C13.9715 20.7207 12.0815 21.3159 10.107 21.3159C9.08611 21.3159 8.08929 21.1572 7.13527 20.8444L9.96223 19.0012C9.9624 19.0011 9.96257 19.0011 9.96274 19.0009C9.96291 19.0009 9.96291 19.0007 9.96308 19.0006L12.3125 17.4688H12.3127C12.5236 17.3312 12.6676 17.121 12.7181 16.8768C12.7686 16.6326 12.7195 16.3835 12.5797 16.1759L12.5486 16.1296L13.005 15.832C13.3307 15.6196 13.7223 15.5364 14.1079 15.5973C14.6662 15.6856 15.2333 15.5648 15.7045 15.2574L19.4899 12.7894C19.464 13.1127 19.4214 13.4341 19.3619 13.7502C19.3267 13.936 19.4514 14.1146 19.6401 14.149C19.6614 14.153 19.6829 14.1548 19.7039 14.1548C19.868 14.1548 20.014 14.0397 20.045 13.875C20.1413 13.365 20.1967 12.8424 20.211 12.3193L21.2778 11.6237C21.6366 11.3897 21.8816 11.0321 21.9672 10.6168C22.053 10.2014 21.9692 9.77807 21.7316 9.42475ZM13.9971 3.60768L12.9355 4.29988L12.7265 3.74549C12.6392 3.51419 12.5391 3.28743 12.4283 3.06554C12.9668 3.19998 13.4912 3.38126 13.9971 3.60768ZM2.99455 5.97919C4.40496 4.37844 6.32615 3.30237 8.42787 2.92925C8.76509 3.73357 8.8459 4.63222 8.64439 5.48874L7.79725 9.09191C7.66411 8.95193 7.49124 8.85541 7.29654 8.81647C7.04832 8.76662 6.79549 8.81513 6.5846 8.95276L4.18504 10.5171C4.18487 10.5171 4.18487 10.5171 4.1847 10.5173C4.1847 10.5173 4.18453 10.5173 4.18453 10.5174L0.723704 12.7738C0.704781 12.5334 0.694893 12.2912 0.694893 12.0492C0.694893 9.81818 1.51168 7.66236 2.99455 5.97919ZM12.0372 16.7404C12.0237 16.8055 11.9852 16.8617 11.9288 16.8985H11.9289L9.8654 18.2438L6.03547 12.6204C5.92858 12.4634 5.71275 12.4217 5.55334 12.5269C5.39411 12.6321 5.35149 12.8445 5.45838 13.0014L9.28592 18.6216L6.34013 20.5423C3.41292 19.2817 1.31818 16.6197 0.814572 13.5221L4.27949 11.2704L4.67825 11.8562C4.74542 11.9545 4.85521 12.0077 4.96722 12.0077C5.03371 12.0077 5.10105 11.9891 5.16038 11.9498C5.31978 11.8446 5.3624 11.6321 5.25551 11.4752L4.85947 10.8936L6.96836 9.52311C7.02445 9.48635 7.09179 9.47359 7.15794 9.48685C7.22409 9.50011 7.2812 9.53805 7.31854 9.59344L12.0004 16.5537C12.0375 16.6089 12.0507 16.6752 12.0372 16.7404ZM21.2863 10.4805C21.2375 10.7168 21.0982 10.9203 20.894 11.0534L19.6745 11.8485C19.6742 11.8486 19.6738 11.849 19.6733 11.8491L15.3207 14.6871C14.9951 14.8994 14.6035 14.9828 14.2179 14.9217C13.6597 14.8336 13.0927 14.9543 12.6213 15.2616L12.1649 15.5592L8.33036 9.85863L9.32155 5.64316C9.57677 4.55719 9.44225 3.41332 8.95603 2.41681C8.9516 2.4064 8.94683 2.39633 8.94137 2.38643C8.84795 2.19811 8.74191 2.01532 8.62342 1.83908C8.39293 1.49634 8.48857 1.03291 8.83687 0.805817C9.13112 0.613968 9.52869 0.650223 9.78203 0.89209L10.4457 1.52554C11.1636 2.21086 11.7271 3.06084 12.0749 3.98366L12.4363 4.94223C12.437 4.94408 12.4377 4.94559 12.4383 4.94727C12.4392 4.94945 12.4402 4.9518 12.4411 4.95398C12.4436 4.95986 12.446 4.96523 12.4486 4.96976C12.4556 4.9842 12.4632 4.99846 12.4724 5.01206C12.5785 5.16967 12.794 5.2128 12.9539 5.1084L16.6597 2.69241C17.0811 2.41765 17.6511 2.53162 17.9301 2.94653C18.2092 3.36145 18.0935 3.92256 17.672 4.19733L17.3503 4.40714C17.3503 4.40714 17.3502 4.40714 17.35 4.40731L16.6324 4.87526C16.6314 4.87593 16.6307 4.87661 16.6297 4.87711C16.6256 4.87996 16.6217 4.88265 16.6184 4.88533C16.4701 4.99259 16.4318 5.19652 16.5346 5.34926C16.6404 5.50687 16.8561 5.55001 17.0162 5.44561L17.7343 4.97731C17.9383 4.84455 18.1826 4.79772 18.4225 4.84572C18.6624 4.89373 18.8692 5.03086 19.0042 5.23194C19.1394 5.43285 19.1871 5.67371 19.1384 5.90987C19.0896 6.1462 18.9503 6.34963 18.7461 6.48273L17.7065 7.16066C17.5464 7.2649 17.5026 7.47706 17.6086 7.63466C17.6754 7.73403 17.7859 7.78791 17.8986 7.78791C17.9644 7.78791 18.0311 7.76944 18.0901 7.73101L18.251 7.6261L18.8078 7.26305C19.2294 6.98829 19.7992 7.10225 20.0782 7.51717C20.3573 7.93226 20.2416 8.4932 19.8201 8.76813L19.3008 9.10668C19.2981 9.10836 19.2954 9.11021 19.2926 9.11205L18.7805 9.4459C18.6204 9.55013 18.5766 9.76246 18.6827 9.92007C18.7495 10.0194 18.86 10.0733 18.9726 10.0733C19.0385 10.0733 19.1051 10.0548 19.1641 10.0164L19.325 9.91151C19.325 9.91151 19.325 9.91134 19.3252 9.91134L19.882 9.54845C20.0861 9.41535 20.3306 9.36835 20.5706 9.41653C20.8106 9.46436 21.0173 9.60166 21.1525 9.80257C21.2875 10.0035 21.335 10.2443 21.2863 10.4805Z" fill="#0062F4"/>
</svg>
