<svg width="371" height="257" viewBox="0 0 371 257" fill="none" xmlns="http://www.w3.org/2000/svg">
<g id="Group 636">
<path id="Vector2" d="M22.7513 256.872C22.7513 256.872 -22.8304 195.671 15.0427 129.412C48.6463 70.6235 87.8244 74.6422 116.569 98.4992C128.812 108.66 164.109 99.7515 194.151 39.9316C235.12 -41.6466 377.135 7.83079 351.241 133.341C338.71 194.079 389.377 196.287 363.56 257L22.7513 256.872Z" fill="#FFF4F4"/>
<g id="undraw_business_shop_qw5t 1" clip-path="url(#clip0)">
<path id="Vector" d="M187.651 255C263.507 255 325 250.195 325 244.268C325 238.342 263.507 233.537 187.651 233.537C111.795 233.537 50.3018 238.342 50.3018 244.268C50.3018 250.195 111.795 255 187.651 255Z" fill="#3F3D56"/>
<path id="Vector_2" d="M304.321 224.332L305.609 233.774L296.597 234.632L297.885 223.045L304.321 224.332Z" fill="#A0616A"/>
<path id="Vector_3" d="M261.84 94.7288C261.84 94.7288 262.698 106.316 262.698 106.745C262.698 107.174 256.69 136.786 256.69 136.786C256.69 136.786 248.108 153.093 256.69 152.664C265.272 152.235 262.698 137.215 262.698 137.215L271.709 112.324L267.847 94.7288L261.84 94.7288Z" fill="#A0616A"/>
<path id="Vector_4" d="M276 224.332L274.713 233.774L283.724 234.632L282.437 223.045L276 224.332Z" fill="#A0616A"/>
<path id="Vector_5" d="M266.131 135.927L263.985 138.932C263.985 138.932 262.698 151.806 263.985 156.098C265.273 160.389 267.847 180.13 267.847 181.417C267.847 182.705 268.276 183.563 267.847 183.992C267.418 184.421 266.131 184.421 266.989 185.28C267.847 186.138 267.847 188.713 267.847 188.713V190.859L273.426 222.616C273.426 222.616 269.993 226.478 272.567 226.478C275.142 226.478 284.582 226.478 284.153 222.187L283.295 221.758C283.295 221.758 282.008 193.434 282.437 192.146C282.866 190.859 282.437 188.284 282.437 188.284C282.437 188.284 281.579 186.996 282.437 186.567C283.295 186.138 283.295 182.705 283.295 182.705L287.157 156.527C287.157 156.527 290.59 174.122 292.735 175.838C294.881 177.555 294.452 181.847 294.452 181.847L296.168 219.612C296.168 219.612 294.452 223.903 296.168 224.762C297.885 225.62 305.179 228.624 305.609 224.332C306.038 220.041 308.183 182.705 308.183 180.988C308.183 179.272 307.754 178.413 308.183 177.126C308.612 175.838 307.754 175.838 308.183 175.838C308.612 175.838 307.325 174.551 307.325 173.693V152.664C307.325 152.664 307.754 148.373 308.183 147.515C308.612 146.656 307.754 145.798 308.183 144.511C308.612 143.223 307.325 138.932 307.325 138.932L288.015 133.782L266.131 135.927Z" fill="#2F2E41"/>
<path id="Vector_6" d="M281.15 232.057C281.15 232.057 283.295 229.911 280.291 229.911C278.363 229.95 276.464 230.389 274.713 231.199L272.567 238.923C272.567 238.923 263.771 246.004 273.64 245.146C283.51 244.288 282.008 244.931 282.008 244.931C282.008 244.931 285.012 244.073 285.441 243.215C285.87 242.357 284.582 229.911 284.582 229.911C284.582 229.911 283.295 233.344 281.15 232.057Z" fill="#2F2E41"/>
<path id="Vector_7" d="M299.601 232.057C299.601 232.057 297.455 229.911 300.459 229.911C302.388 229.95 304.287 230.389 306.038 231.199L308.183 238.923C308.183 238.923 316.98 246.004 307.11 245.146C297.241 244.288 297.455 244.931 297.455 244.931C297.455 244.931 294.452 244.073 294.023 243.215C293.594 242.356 296.168 229.911 296.168 229.911C296.168 229.911 297.455 233.344 299.601 232.057Z" fill="#2F2E41"/>
<path id="Vector_8" d="M271.709 60.8261C277.871 60.8261 282.866 55.8305 282.866 49.6682C282.866 43.5058 277.871 38.5103 271.709 38.5103C265.548 38.5103 260.552 43.5058 260.552 49.6682C260.552 55.8305 265.548 60.8261 271.709 60.8261Z" fill="#A0616A"/>
<path id="Vector_9" d="M267.847 57.822C267.847 57.822 269.564 66.405 269.564 67.6925C269.564 68.9799 276.858 72.8423 276.858 72.8423L285.011 62.5427C285.011 62.5427 279.862 55.2471 279.862 53.5305L267.847 57.822Z" fill="#A0616A"/>
<path id="Vector_10" d="M274.284 68.9798C274.284 68.9798 270.544 67.9842 269.41 66.3362C269.41 66.3362 257.549 77.9919 257.549 80.1377L266.989 96.8745C266.989 96.8745 266.989 102.883 267.847 103.312C268.705 103.741 267.847 103.312 267.847 105.028C267.847 106.745 265.273 117.903 266.131 119.62C266.989 121.336 267.847 120.049 266.989 122.624C266.131 125.198 263.985 138.931 263.985 138.931C263.985 138.931 271.709 136.356 282.866 140.648C294.023 144.939 307.325 138.931 307.325 138.931C307.325 138.931 303.892 131.207 304.75 128.632C305.609 126.057 302.605 121.336 302.605 121.336L300.459 81.8543C300.459 81.8543 303.463 64.2591 301.317 63.4008L297.026 61.6842L283.285 59.9951C283.285 59.9951 279.862 68.5506 274.284 68.9798Z" fill="#D0CDE1"/>
<path id="Vector_11" d="M261.84 77.1335L257.549 80.1376C257.549 80.1376 255.403 86.5748 257.549 89.5789C259.694 92.583 260.553 96.8745 260.553 96.8745L269.135 96.0162L261.84 77.1335Z" fill="#D0CDE1"/>
<path id="Vector_12" d="M263.191 37.876L261.256 37.1012C261.256 37.1012 265.302 32.6458 270.932 33.0332L269.349 31.2898C269.349 31.2898 273.219 29.7401 276.738 33.8081C278.588 35.9465 280.728 38.4601 282.062 41.2917H284.135L283.27 43.1965L286.297 45.1014L283.19 44.7592C283.484 46.4037 283.383 48.0946 282.896 49.6925L282.979 51.1981C282.979 51.1981 279.377 45.6245 279.377 44.8497V46.7868C279.377 46.7868 277.442 45.0434 277.442 43.8811L276.386 45.2371L275.858 43.1063L269.349 45.2371L270.404 43.4937L266.358 44.0749L267.941 41.944C267.941 41.944 263.367 44.4623 263.191 46.5931C263.015 48.724 260.728 51.436 260.728 51.436L259.672 49.4988C259.672 49.4988 258.089 40.7817 263.191 37.876Z" fill="#2F2E41"/>
<path id="Vector_13" d="M265.779 124.391H95.26V244.187H265.779V124.391Z" fill="#F2F2F2"/>
<path id="Vector_14" d="M152.429 170.099H109.614V244.848H152.429V170.099Z" fill="#3F3D56"/>
<path id="Vector_15" d="M129.067 174.583H117.534V185.335H129.067V174.583Z" fill="#F2F2F2"/>
<path id="Vector_16" d="M144.51 174.583H132.977V185.335H144.51V174.583Z" fill="#F2F2F2"/>
<path id="Vector_17" d="M129.067 189.246H117.534V200.389H129.067V189.246Z" fill="#F2F2F2"/>
<path id="Vector_18" d="M144.51 189.246H132.977V200.389H144.51V189.246Z" fill="#F2F2F2"/>
<path id="Vector_19" d="M146.985 215.228C148.488 215.228 149.707 214.009 149.707 212.506C149.707 211.002 148.488 209.783 146.985 209.783C145.481 209.783 144.262 211.002 144.262 212.506C144.262 214.009 145.481 215.228 146.985 215.228Z" fill="#DD2626"/>
<path id="Vector_20" d="M251.425 163.003H166.784V234.039H251.425V163.003Z" fill="#3F3D56"/>
<path id="Vector_21" d="M283.598 146.944H77.4409L91.1864 118.203L94.2626 111.768L98.287 103.352L101.363 96.9171L104.929 89.4622H267.355L269.461 96.9171L271.28 103.352L273.659 111.768L275.478 118.203L283.598 146.944Z" fill="#3F3D56"/>
<path id="Vector_22" d="M172.724 192.457H169.754V210.773H172.724V192.457Z" fill="#DD2626"/>
<path id="Vector_23" d="M172.724 195.18H169.754V197.407H172.724V195.18Z" fill="#F2F2F2"/>
<path id="Vector_24" d="M172.724 205.823H169.754V208.05H172.724V205.823Z" fill="#F2F2F2"/>
<path id="Vector_25" d="M181.386 192.457H174.208V210.773H181.386V192.457Z" fill="#DD2626"/>
<path id="Vector_26" d="M181.386 195.18H174.208V197.407H181.386V195.18Z" fill="#F2F2F2"/>
<path id="Vector_27" d="M181.386 205.823H174.208V208.05H181.386V205.823Z" fill="#F2F2F2"/>
<path id="Vector_28" d="M186.088 192.457H183.118V210.773H186.088V192.457Z" fill="#DD2626"/>
<path id="Vector_29" d="M186.088 195.18H183.118V197.407H186.088V195.18Z" fill="#F2F2F2"/>
<path id="Vector_30" d="M186.088 205.823H183.118V208.05H186.088V205.823Z" fill="#F2F2F2"/>
<path id="Vector_31" d="M190.543 192.457H187.573V210.773H190.543V192.457Z" fill="#DD2626"/>
<path id="Vector_32" d="M190.543 195.18H187.573V197.407H190.543V195.18Z" fill="#F2F2F2"/>
<path id="Vector_33" d="M190.543 205.823H187.573V208.05H190.543V205.823Z" fill="#F2F2F2"/>
<path id="Vector_34" d="M193.404 192.522L190.625 193.57L197.085 210.708L199.864 209.661L193.404 192.522Z" fill="#DD2626"/>
<path id="Vector_35" d="M194.365 195.07L191.586 196.117L192.371 198.202L195.15 197.154L194.365 195.07Z" fill="#F2F2F2"/>
<path id="Vector_36" d="M198.118 205.029L195.339 206.076L196.125 208.161L198.904 207.113L198.118 205.029Z" fill="#F2F2F2"/>
<path id="Vector_37" d="M248.702 192.457H241.525V210.773H248.702V192.457Z" fill="#DD2626"/>
<path id="Vector_38" d="M248.702 195.18H241.525V197.407H248.702V195.18Z" fill="#F2F2F2"/>
<path id="Vector_39" d="M248.702 205.823H241.525V208.05H248.702V205.823Z" fill="#F2F2F2"/>
<path id="Vector_40" d="M239.793 192.457H236.823V210.773H239.793V192.457Z" fill="#DD2626"/>
<path id="Vector_41" d="M239.793 195.18H236.823V197.407H239.793V195.18Z" fill="#F2F2F2"/>
<path id="Vector_42" d="M239.793 205.823H236.823V208.05H239.793V205.823Z" fill="#F2F2F2"/>
<path id="Vector_43" d="M235.338 192.457H232.368V210.773H235.338V192.457Z" fill="#DD2626"/>
<path id="Vector_44" d="M235.338 195.18H232.368V197.407H235.338V195.18Z" fill="#F2F2F2"/>
<path id="Vector_45" d="M235.338 205.823H232.368V208.05H235.338V205.823Z" fill="#F2F2F2"/>
<path id="Vector_46" d="M229.506 192.522L223.046 209.661L225.825 210.708L232.285 193.57L229.506 192.522Z" fill="#DD2626"/>
<path id="Vector_47" d="M228.546 195.07L227.76 197.154L230.539 198.202L231.325 196.117L228.546 195.07Z" fill="#F2F2F2"/>
<path id="Vector_48" d="M224.792 205.029L224.007 207.113L226.786 208.161L227.571 206.076L224.792 205.029Z" fill="#F2F2F2"/>
<path id="Vector_49" d="M251.425 210.773H166.784V212.506H251.425V210.773Z" fill="#F2F2F2"/>
<path id="Vector_50" d="M219.251 192.457H203.659V210.773H219.251V192.457Z" fill="#DD2626"/>
<path id="Vector_51" d="M215.415 196.417H207.495V199.882H215.415V196.417Z" fill="#F2F2F2"/>
<path id="Vector_52" d="M209.847 163.003H208.362V178.844H209.847V163.003Z" fill="#F2F2F2"/>
<path id="Vector_53" d="M209.104 181.319C210.471 181.319 211.579 180.211 211.579 178.844C211.579 177.477 210.471 176.369 209.104 176.369C207.737 176.369 206.629 177.477 206.629 178.844C206.629 180.211 207.737 181.319 209.104 181.319Z" fill="#F2F2F2"/>
<path id="Vector_54" d="M271.28 103.353H98.2871L101.363 96.9172H269.461L271.28 103.353Z" fill="#DD2626"/>
<path id="Vector_55" d="M275.478 118.203H91.1865L94.2627 111.768H273.659L275.478 118.203Z" fill="#DD2626"/>
<path id="Vector_56" d="M293.594 80.9961C293.594 80.9961 291.109 87.3865 291.628 93.7091C291.723 94.8411 292.104 95.9304 292.735 96.8747L262.293 111.329C262.293 111.329 248.537 112.753 251.97 118.761C255.403 124.769 267.847 115.757 267.847 115.757C267.847 115.757 300.459 111.037 303.034 106.316C305.609 101.595 307.325 81.8544 307.325 81.8544L293.594 80.9961Z" fill="#A0616A"/>
<path id="Vector_57" d="M294.881 63.4009H301.318C301.318 63.4009 306.038 64.2592 307.325 72.8422C308.612 81.4252 309.9 83.571 308.612 83.571C307.325 83.571 291.877 83.1418 291.877 82.7127C291.877 82.2835 294.881 63.4009 294.881 63.4009Z" fill="#D0CDE1"/>
<path id="Vector_58" d="M80.0166 191.602C98.2512 191.602 113.033 176.818 113.033 158.582C113.033 140.345 98.2512 125.562 80.0166 125.562C61.782 125.562 47 140.345 47 158.582C47 176.818 61.782 191.602 80.0166 191.602Z" fill="#DD2626"/>
<path id="Vector_59" opacity="0.1" d="M80.0166 186.979C95.6984 186.979 108.411 174.265 108.411 158.582C108.411 142.898 95.6984 130.184 80.0166 130.184C64.3349 130.184 51.6223 142.898 51.6223 158.582C51.6223 174.265 64.3349 186.979 80.0166 186.979Z" fill="black"/>
<path id="Vector_60" d="M78.6561 175.339V171.205C76.567 171.165 74.4058 170.428 73.1453 169.405L74.0096 166.663C75.5077 167.786 77.3244 168.402 79.1964 168.423C81.7538 168.423 83.4827 166.745 83.4827 164.412C83.4827 162.162 82.0779 160.77 79.4125 159.543C75.7386 157.906 73.4694 156.023 73.4694 152.463C73.4694 149.066 75.5945 146.488 78.9083 145.875V141.741H81.1414V145.711C82.8066 145.734 84.4309 146.23 85.8239 147.143L84.9233 149.844C83.5873 148.929 82.0041 148.444 80.385 148.453C77.6117 148.453 76.567 150.335 76.567 151.972C76.567 154.1 77.8997 155.164 81.0334 156.637C84.7432 158.356 86.6164 160.484 86.6164 164.126C86.6164 167.359 84.6353 170.387 80.9253 171.082V175.339H78.6561Z" fill="#F2F2F2"/>
</g>
</g>
<defs>
<clipPath id="clip0">
<rect width="278" height="224" fill="white" transform="translate(47 31)"/>
</clipPath>
</defs>
</svg>
