<svg width="228" height="209" viewBox="0 0 228 209" fill="none" xmlns="http://www.w3.org/2000/svg">
<path opacity="0.1" d="M127.725 32.6889C115.228 32.256 103.326 28.227 91.9668 23.8224C80.6077 19.4178 69.3373 14.5308 57.1403 12.1837C49.2943 10.6817 40.3234 10.4678 34.0018 14.669C27.9202 18.7137 25.9522 25.6948 24.8977 32.1726C24.1147 37.0466 23.6344 42.1761 25.8139 46.7372C27.3251 49.9057 30.0109 52.5682 31.8667 55.6037C38.3293 66.1601 33.7616 79.1783 26.7587 89.4869C23.4752 94.3218 19.6645 98.935 17.1301 104.091C14.5957 109.246 13.4211 115.135 15.6397 120.387C17.8374 125.602 23.0759 129.498 28.7502 132.25C40.2764 137.833 53.8568 139.432 67.1004 140.334C96.4171 142.337 125.888 141.471 155.283 140.595C166.159 140.271 177.085 139.945 187.786 138.266C193.729 137.332 199.866 135.851 204.18 132.268C209.661 127.728 211.013 120.043 207.344 114.35C201.186 104.803 184.169 102.429 179.865 92.1834C177.497 86.5427 179.93 80.2605 183.37 75.0319C190.754 63.8183 203.128 53.966 203.781 41.1304C204.23 32.3238 198.279 23.5016 189.081 19.3317C179.439 14.9637 166.068 15.5139 158.955 22.7454C151.631 30.2089 138.758 33.0723 127.725 32.6889Z" fill="#FF1E4A"/>
<path opacity="0.1" d="M102.903 209C146.721 209 182.242 204.199 182.242 198.277C182.242 192.354 146.721 187.553 102.903 187.553C59.0853 187.553 23.564 192.354 23.564 198.277C23.564 204.199 59.0853 209 102.903 209Z" fill="#FF1E4A"/>
<path d="M122.484 54.6596C122.484 54.6596 120.028 49.8169 120.36 48.3774C120.691 46.9379 118.632 43.8632 118.632 43.8632L118.765 38.7624C118.765 38.7624 118.48 39.2839 116.998 39.7403C116.872 39.576 116.737 39.4143 116.596 39.2605C116.059 38.7019 115.462 38.2042 114.816 37.7766L112.206 32.149L109.682 28.2868C109.682 28.2868 105.701 20.2026 101.59 18.4189L100.943 17.1541C100.964 17.1415 100.98 17.1214 100.987 17.0978C100.995 17.0742 100.993 17.0487 100.982 17.0263L100.324 15.7407C100.313 15.7184 100.293 15.7013 100.269 15.6927C100.246 15.684 100.22 15.6844 100.196 15.6937L99.5675 14.4629C99.3272 12.8677 98.7 11.3555 97.7404 10.0583C97.6751 9.96699 97.6047 9.88354 97.5368 9.79749L98.56 9.76098C99.4578 9.72708 100.46 9.64884 101.063 8.97864C101.279 8.72884 101.439 8.43525 101.53 8.11806C101.608 7.86949 101.659 7.61333 101.682 7.35397C101.682 7.31486 101.682 7.27574 101.682 7.23923C101.682 7.15056 101.682 7.06364 101.682 6.97845C101.682 6.90804 101.682 6.84024 101.682 6.76982C101.682 6.69941 101.682 6.65769 101.682 6.60292C101.682 6.54816 101.653 6.42299 101.637 6.34214C101.637 6.30824 101.637 6.27434 101.616 6.24044C101.595 6.13828 101.568 6.03732 101.535 5.93794C101.528 5.91845 101.522 5.89839 101.517 5.87796C101.481 5.77364 101.442 5.66933 101.397 5.56763C101.39 5.55422 101.384 5.54027 101.379 5.5259C101.332 5.4242 101.28 5.3251 101.225 5.22861L101.209 5.19732C101.19 5.15684 101.168 5.11764 101.144 5.07997C100.437 3.96904 99.1942 3.3197 98.0118 2.73294C96.9085 2.15336 95.776 1.6311 94.6187 1.16826C90.3158 -0.443996 85.5628 -0.376954 81.3072 1.35602C80.8869 1.51504 80.4887 1.72712 80.1222 1.98711C79.6114 2.41909 79.175 2.9318 78.8302 3.50485L76.8074 6.49079C76.5247 6.85402 76.3034 7.26099 76.1523 7.6956C75.7738 9.11424 76.9614 10.5355 76.8283 11.9985C76.7604 12.7261 76.3689 13.3937 76.2932 14.1212C76.1966 15.06 76.6325 15.9649 77.058 16.8125L79.9526 22.5497C79.7986 23.3033 79.6289 24.0752 79.4436 24.8211C78.1098 26.198 77.6609 26.949 77.5382 27.3558L77.4991 27.3767C77.2349 27.5471 77.0077 27.7688 76.8309 28.0287L74.0798 30.699C74.0798 30.699 69.2981 31.9404 68.3037 33.5129C68.3037 33.5129 60.7996 33.1843 60.8649 43.6546C60.8649 43.6546 60.5334 47.582 60.3429 48.1061C60.1523 48.6303 60.3429 53.9294 60.3429 53.9294L60.2541 64.6631C60.2541 64.6631 59.967 70.3559 60.2541 72.3848C60.5413 74.4137 60.8727 82.1354 60.8727 82.1354C60.8727 82.1354 62.6659 89.6615 62.0029 92.345C61.366 94.9137 62.0029 100.531 63.0469 100.554C63.2453 100.964 63.4724 101.165 63.7204 101.05C63.8283 101.003 63.939 100.963 64.0518 100.93V107.342C64.0518 107.342 62.7598 116.326 64.2084 118.034C63.2479 119.401 62.1204 121.732 61.8333 122.345L51.68 121.8L50.388 122.163L49.203 122.494L48.4852 138.993L48.7723 139.014L48.7514 139.518L49.4301 139.567L48.4852 156.184L62.5406 157.339C61.922 158.724 61.2042 160.208 60.9249 160.351C60.4029 160.612 59.2649 159.83 58.9987 160.153C58.7325 160.476 57.9364 160.873 57.0072 160.675C56.078 160.476 55.4803 161.525 55.4803 161.525C55.4803 161.525 55.616 161.645 55.8196 161.866C54.3109 161.684 52.403 162.492 51.3668 163.014C50.9022 163.249 50.6124 163.423 50.6124 163.423H47.8718L49.3779 173.023L50.4402 173.748L50.7012 181.31C50.7012 181.31 54.9504 194.399 56.8976 194.313C57.024 194.308 57.1479 194.277 57.261 194.22C57.3741 194.163 57.4736 194.083 57.5527 193.984C58.5967 192.779 57.8737 188.641 57.8737 188.641V181.751C57.8737 181.751 59.4659 181.052 59.2884 180.528C59.1109 180.004 61.8567 174.269 62.1021 173.748C62.1091 173.743 62.1148 173.737 62.1185 173.73C62.1222 173.722 62.1237 173.714 62.123 173.706C62.123 173.117 63.3184 172.462 63.2505 172.201C63.1827 171.94 66.1738 170.303 66.3827 168.863C66.5915 167.424 68.5725 168.209 68.5725 168.209L71.0939 165.314C71.1696 168.842 71.3131 171.312 71.5611 171.938C72.7565 174.95 73.2211 179.662 73.2211 179.662C73.2211 179.662 72.4903 183.261 73.2211 184.44C73.67 185.159 74.7141 185.931 75.4397 186.57C74.6854 188.855 74.7924 193.71 74.7924 193.71V196.501L80.3702 198.065C80.3702 198.065 80.5451 196.67 80.8113 196.67C81.0775 196.67 84.6194 199.375 84.6194 199.375C84.6194 199.375 98.2546 199.549 101.705 199.375C103.01 199.309 103.365 198.749 103.164 198.071C102.833 196.941 100.972 195.478 99.3169 195.366C96.6598 195.192 93.2954 192.401 93.2954 192.401C93.2954 192.401 93.5564 191.788 92.1443 190.917C91.1682 190.318 88.4667 187.89 86.7962 186.468C86.8745 186.362 86.9555 186.255 87.0312 186.14C87.0312 186.14 84.7734 183.011 85.2406 181.623C85.7078 180.236 85.0396 178.233 85.0396 178.233C85.0396 178.233 83.779 174.371 83.779 172.407C83.779 171.163 83.591 164.088 83.4553 159.071L84.6194 159.167L84.6429 158.667L85.1649 158.714L90.1006 159.167L89.9492 153.897C92.327 152.854 94.3055 151.886 95.1251 151.268C97.9127 149.182 100.304 149.044 100.304 149.044C100.304 149.044 105.947 146.034 106.81 144.791C107.674 143.547 107.594 134.516 107.594 134.516L107.129 115.161V115.145C107.129 115.145 106.732 105.788 105.933 103.759C105.641 103.008 104.918 100.505 104.127 97.6466C104.582 97.5999 105.041 97.6192 105.49 97.704C105.518 98.4029 105.537 98.8827 105.537 99.047C105.537 100.158 107.129 101.102 107.129 101.102L106.001 76.067V59.0355C109.478 60.1412 117.885 60.4854 117.885 60.4854C123.943 60.1673 122.484 54.6596 122.484 54.6596ZM89.6908 33.1504H89.6726C89.796 32.494 89.9572 31.8454 90.1554 31.2076L89.6908 33.1504ZM66.8734 119.018C68.9327 119.357 71.3105 119.258 71.4906 118.859C71.5089 118.819 71.5324 118.749 71.5637 118.658C71.629 118.772 71.6916 118.89 71.7569 119.01L71.5559 122.786V122.872L64.7696 122.507C65.2447 120.486 66.1425 119.5 66.8734 119.018ZM89.4951 138.07L89.3202 131.955C89.623 130.828 89.8944 129.806 90.1267 128.93C90.2311 129.657 90.3199 130.328 90.3877 130.946C91.0298 136.748 90.0824 137.88 89.4951 138.07ZM108.81 46.385C108.421 46.5336 106.941 45.6027 105.537 44.6378C105.537 44.4604 105.55 44.2857 105.558 44.1162C105.756 40.1237 99.249 37.6384 97.2575 37.1794C96.7743 37.0548 96.3054 36.88 95.8585 36.6579C94.7975 36.1328 93.7658 35.5504 92.7681 34.9133L92.7943 34.8376C92.7943 34.8376 90.2259 33.213 90.1711 31.1867C90.7564 29.3437 91.495 27.5528 92.3792 25.8329C92.4288 25.7312 92.4837 25.6243 92.5359 25.5226C93.7496 25.1454 94.8826 24.5458 95.8768 23.7545C96.2761 28.9701 103.83 33.4581 103.83 33.4581L104.636 34.762L104.827 35.0697C104.42 35.3096 104.224 35.5026 104.362 35.6148C104.936 36.0737 106.325 38.6711 106.899 39.769C107.056 40.0663 107.16 40.2514 107.16 40.2514C107.16 40.2514 108.395 43.6077 109.102 46.4163C109.008 46.3771 108.905 46.3662 108.805 46.385H108.81Z" fill="url(#paint0_linear)"/>
<path d="M111.728 32.8583L111.639 32.9756L111.336 33.3798L105.529 37.4793L104.297 35.4556L103.514 34.1517C103.514 34.1517 91.9381 27.215 96.9156 20.5286C101.893 13.8422 109.248 29.0039 109.248 29.0039L111.728 32.8583Z" fill="#FFC5D3"/>
<path d="M100.048 16.5235C100.023 16.4747 99.9637 16.455 99.9147 16.4796C99.8658 16.5042 99.8461 16.5638 99.8708 16.6127L100.516 17.8937C100.541 17.9426 100.601 17.9622 100.65 17.9376C100.699 17.913 100.718 17.8534 100.694 17.8046L100.048 16.5235Z" fill="#3A3768"/>
<path d="M93.4206 18.3148L93.4183 18.3159C93.3912 18.3296 93.3804 18.3625 93.394 18.3895L93.5865 18.7715C93.6001 18.7985 93.6331 18.8094 93.6601 18.7957L93.6624 18.7946C93.6895 18.781 93.7004 18.748 93.6868 18.721L93.4942 18.3391C93.4806 18.312 93.4476 18.3012 93.4206 18.3148Z" fill="#3A3768"/>
<path d="M93.9478 19.2191C93.9322 19.1882 93.8945 19.1758 93.8636 19.1913C93.8327 19.2069 93.8203 19.2445 93.8359 19.2754L94.201 19.9997C94.2165 20.0306 94.2542 20.043 94.2851 20.0275C94.316 20.0119 94.3284 19.9743 94.3129 19.9434L93.9478 19.2191Z" fill="#3A3768"/>
<path d="M94.5106 20.3465C94.4957 20.3169 94.4596 20.305 94.43 20.3199C94.4004 20.3348 94.3885 20.3709 94.4034 20.4005L94.7744 21.1365C94.7893 21.1661 94.8254 21.178 94.855 21.1631C94.8846 21.1482 94.8965 21.1121 94.8816 21.0825L94.5106 20.3465Z" fill="#3A3768"/>
<path d="M98.0224 14.0083L93.1456 16.4621C92.8572 16.6072 92.7412 16.9584 92.8864 17.2466L98.4206 28.2261C98.5658 28.5142 98.9173 28.6302 99.2057 28.4851L104.083 26.0312C104.371 25.8861 104.487 25.5349 104.342 25.2468L98.8076 14.2673C98.6623 13.9791 98.3108 13.8632 98.0224 14.0083Z" fill="#3A3768"/>
<path d="M97.3985 14.7053C97.3705 14.7191 97.3456 14.7384 97.3252 14.7619C97.3047 14.7855 97.2892 14.8129 97.2795 14.8425C97.2698 14.8721 97.2661 14.9034 97.2686 14.9344C97.2711 14.9655 97.2797 14.9958 97.2941 15.0235L97.3149 15.0678C97.3293 15.0957 97.338 15.1261 97.3406 15.1574C97.3431 15.1886 97.3394 15.2201 97.3297 15.2499C97.32 15.2798 97.3045 15.3074 97.284 15.3312C97.2635 15.3549 97.2386 15.3745 97.2105 15.3885L94.6996 16.6507C94.6719 16.665 94.6416 16.6737 94.6105 16.6762C94.5794 16.6787 94.5482 16.675 94.5185 16.6653C94.4889 16.6556 94.4615 16.6401 94.4379 16.6196C94.4143 16.5992 94.395 16.5743 94.3812 16.5464L94.3577 16.5021C94.3438 16.4742 94.3246 16.4493 94.301 16.4288C94.2775 16.4083 94.2502 16.3926 94.2206 16.3827C94.1911 16.3728 94.1598 16.3688 94.1287 16.3709C94.0976 16.373 94.0672 16.3813 94.0393 16.3952L93.5512 16.6429C93.4977 16.6692 93.45 16.7059 93.4108 16.7508C93.3717 16.7958 93.3419 16.848 93.3232 16.9046C93.3044 16.9612 93.2972 17.0209 93.3018 17.0803C93.3065 17.1397 93.3229 17.1975 93.3502 17.2505L98.6852 27.8304C98.74 27.9375 98.8349 28.0187 98.9493 28.0563C99.0636 28.094 99.1883 28.0849 99.296 28.0312L103.676 25.8276C103.783 25.7729 103.864 25.6781 103.902 25.5638C103.94 25.4495 103.93 25.325 103.877 25.2174L98.5391 14.6323C98.5122 14.579 98.4751 14.5315 98.4299 14.4926C98.3846 14.4536 98.3321 14.424 98.2754 14.4053C98.2186 14.3867 98.1588 14.3794 98.0992 14.3839C98.0397 14.3883 97.9816 14.4045 97.9283 14.4315L97.3985 14.7053Z" fill="#FF1E4A"/>
<path d="M95.9393 15.5067L95.2796 15.8386C95.2333 15.8619 95.2146 15.9184 95.2379 15.9647C95.2613 16.011 95.3178 16.0296 95.3641 16.0063L96.0238 15.6744C96.0702 15.6511 96.0888 15.5946 96.0655 15.5483C96.0422 15.502 95.9857 15.4834 95.9393 15.5067Z" fill="#E6E8EC"/>
<path d="M96.2813 15.5373C96.3404 15.5373 96.3883 15.4895 96.3883 15.4304C96.3883 15.3714 96.3404 15.3235 96.2813 15.3235C96.2222 15.3235 96.1743 15.3714 96.1743 15.4304C96.1743 15.4895 96.2222 15.5373 96.2813 15.5373Z" fill="#E6E8EC"/>
<path d="M101.157 55.2854L99.5257 99.0235C99.5257 99.0235 105.007 97.1981 105.855 98.5672C106.703 99.9363 104.942 76.6616 104.942 76.6616L101.157 55.2854Z" fill="#5F5570"/>
<path opacity="0.15" d="M101.157 55.2854L99.5257 99.0235C99.5257 99.0235 105.007 97.1981 105.855 98.5672C106.703 99.9363 104.942 76.6616 104.942 76.6616L101.157 55.2854Z" fill="black"/>
<path d="M101.418 199.453C98.0249 199.627 84.6272 199.453 84.6272 199.453C84.6272 199.453 81.1454 196.759 80.8844 196.759C80.6234 196.759 80.4511 198.149 80.4511 198.149L74.9699 196.584V193.804C74.9699 193.804 74.795 185.89 76.4472 185.545C78.0994 185.201 85.4103 185.545 85.4103 185.545C85.6713 185.459 90.6305 190.153 92.0216 191.022C93.4128 191.89 93.1518 192.5 93.1518 192.5C93.1518 192.5 96.4588 195.28 99.0689 195.455C100.695 195.565 102.525 197.02 102.851 198.149C103.049 198.829 102.697 199.388 101.418 199.453Z" fill="#BC8487"/>
<path opacity="0.1" d="M101.418 199.453C98.0248 199.628 84.6272 199.453 84.6272 199.453C84.6272 199.453 81.1453 196.759 80.8843 196.759C80.6233 196.759 80.4511 198.149 80.4511 198.149L74.9698 196.584V193.859L80.1013 195.716L84.1913 198.149H102.851C103.049 198.83 102.697 199.388 101.418 199.453Z" fill="black"/>
<g opacity="0.1">
<path d="M86.1829 195.369C86.1829 195.369 90.359 191.371 93.1518 192.501L86.1829 195.369Z" fill="black"/>
<path d="M86.1829 195.369C86.1829 195.369 90.359 191.371 93.1518 192.501" stroke="black" stroke-miterlimit="10"/>
</g>
<path d="M59.7426 180.677C59.9175 181.198 58.3514 181.894 58.3514 181.894V188.761C58.3514 188.761 59.0614 192.884 58.0356 194.086C57.9586 194.183 57.8613 194.263 57.7504 194.319C57.6395 194.376 57.5178 194.407 57.3935 194.412C55.4803 194.498 51.3041 181.459 51.3041 181.459L51.0431 173.925L49.9991 173.203L48.5192 163.64H51.218C51.218 163.64 51.5025 163.465 51.9593 163.23C53.2643 162.565 55.9971 161.405 57.4822 162.511L62.5276 173.868C62.5276 173.868 59.5703 180.155 59.7426 180.677Z" fill="#BC8487"/>
<path opacity="0.1" d="M58.0356 194.086C57.9586 194.184 57.8613 194.263 57.7504 194.319C57.6395 194.376 57.5178 194.407 57.3935 194.412C55.4803 194.498 51.3041 181.459 51.3041 181.459L51.0431 173.925L49.9991 173.203L48.5192 163.64H51.218C51.218 163.64 51.5025 163.465 51.9593 163.23L52.6092 173.028L52.9563 181.459C52.9563 181.459 56.2346 190.638 58.0356 194.086Z" fill="black"/>
<path d="M106.442 145.059C105.594 146.298 100.048 149.297 100.048 149.297C100.048 149.297 97.6986 149.427 94.958 151.514C93.5407 152.593 88.6155 154.734 84.1913 156.552C80.0595 158.249 76.361 159.663 76.361 159.663L72.1014 164.618L68.857 168.391C68.857 168.391 66.8994 167.609 66.7037 169.043C66.5079 170.477 63.5715 172.107 63.6368 172.368C63.7021 172.629 62.5275 173.281 62.5275 173.868C62.5275 174.454 58.1556 169.63 58.2208 166.696C58.2861 163.762 56.0023 161.741 56.0023 161.741C56.0023 161.741 56.5895 160.698 57.5031 160.894C58.4166 161.089 59.1996 160.698 59.4606 160.372C59.7217 160.046 60.8309 160.829 61.353 160.568C61.875 160.307 63.9631 155.157 63.9631 155.157L72.0987 149.704L88.2814 138.866L89.0278 138.365C89.0278 138.365 91.1812 139.351 90.3068 131.274C90.1371 129.71 89.8526 127.809 89.4194 125.493C86.744 111.215 96.3361 109.585 96.3361 109.585L104.754 112.389L106.777 115.518V115.534L107.233 134.816C107.233 134.816 107.291 143.82 106.442 145.059Z" fill="#433A59"/>
<path opacity="0.1" d="M84.1261 154.186C84.1261 154.186 84.1522 155.112 84.1913 156.552C80.0596 158.249 76.361 159.663 76.361 159.663L72.1014 164.618C72.0309 160.51 72.0466 155.175 72.1014 149.706L88.284 138.868C86.282 146.282 84.1261 154.186 84.1261 154.186Z" fill="black"/>
<path opacity="0.1" d="M106.769 115.526V115.541L94.1097 115.787C94.1097 115.787 91.8911 124.458 91.5649 126.283C91.484 126.732 90.9933 128.648 90.299 131.282C90.1293 129.717 89.8448 127.816 89.4115 125.501C86.7362 111.223 96.3283 109.593 96.3283 109.593L104.746 112.396L106.769 115.526Z" fill="black"/>
<path d="M73.4247 91.86L71.7934 123.154C71.7934 123.154 70.6188 169.116 71.7934 172.115C72.9679 175.114 73.4247 179.808 73.4247 179.808C73.4247 179.808 72.7069 183.394 73.4247 184.568C74.1425 185.741 76.4263 187.045 76.3611 187.697C76.2958 188.349 83.3431 191.869 86.9972 186.263C86.9972 186.263 84.7786 183.133 85.2354 181.764C85.6922 180.395 85.0396 178.374 85.0396 178.374C85.0396 178.374 83.7998 174.528 83.7998 172.564C83.7998 170.6 83.3431 154.179 83.3431 154.179C83.3431 154.179 90.4556 128.101 90.7819 126.275C91.1081 124.45 93.3267 115.779 93.3267 115.779L106.769 115.518C106.769 115.518 106.377 106.195 105.594 104.174C104.811 102.153 100.961 87.3538 100.961 87.3538L73.4247 91.86Z" fill="#433A59"/>
<path d="M50.9909 122.538L49.8242 122.872L49.7772 124.025L84.7578 124.476V124.022L50.9909 122.538Z" fill="#7B728F"/>
<path d="M92.2514 26.5656C87.1617 36.8795 90.3225 39.0362 90.8263 39.3022C89.7483 38.8015 75.7373 32.2246 77.58 30.5556C78.778 29.4681 79.8038 24.7376 80.4067 21.3474C80.7643 19.3238 80.9731 17.7773 80.9731 17.7773L95.6758 20.4712C94.2507 22.7661 93.1179 24.7871 92.2514 26.5656Z" fill="#FFC5D3"/>
<path opacity="0.1" d="M111.65 32.9757L111.347 33.3799L105.529 37.4794L104.297 35.4557C106.09 34.4126 111.467 32.5872 111.467 32.5872L111.65 32.9757Z" fill="black"/>
<path d="M117.013 42.377C116.491 44.2024 107.682 42.377 107.682 42.377L106.769 40.9427C106.769 40.9427 106.677 40.7601 106.523 40.4628C105.96 39.3702 104.595 36.7832 104.031 36.3242C103.313 35.7375 111.731 32.8689 111.731 32.8689L114.309 38.4757C114.945 38.9027 115.531 39.3986 116.058 39.9543C116.711 40.661 117.251 41.5451 117.013 42.377Z" fill="#E5E8EF"/>
<path d="M102.397 43.2166C102.397 43.2166 107.617 47.3317 108.4 47.0344C109.183 46.7371 121.842 55.2777 121.842 55.2777C121.842 55.2777 123.278 60.754 117.34 61.08C117.34 61.08 104.746 60.5585 104.224 58.733C103.702 56.9075 102.397 43.2166 102.397 43.2166Z" fill="#5F5570"/>
<path opacity="0.1" d="M88.1718 34.9446L82.4948 40.8122L90.4556 91.4036L93.5877 89.5781C93.5877 89.5781 101.679 93.1639 102.332 89.8389C102.984 86.514 102.804 73.4097 102.804 73.4097L101.744 49.7361C101.744 49.7361 98.0249 41.4563 98.0249 41.1955C98.0249 40.9347 92.6612 36.8926 92.6612 36.8926L90.1294 34.9368L88.1718 34.9446Z" fill="black"/>
<path d="M88.1718 34.1624L82.4948 40.0299L90.4556 90.6214L93.5877 88.7959C93.5877 88.7959 101.679 92.3816 102.332 89.0567C102.984 85.7317 102.804 72.6275 102.804 72.6275L101.744 48.9538C101.744 48.9538 98.0249 40.6741 98.0249 40.4133C98.0249 40.1525 92.6612 36.1104 92.6612 36.1104L90.1294 34.1545L88.1718 34.1624Z" fill="#E5E8EF"/>
<path opacity="0.1" d="M88.498 35.0097L86.9319 38.2043L88.498 39.855C88.498 39.855 94.1097 51.1781 93.0004 57.8932L94.175 79.9943L97.9596 83.7105L100.961 80.2473L99.5257 60.1672C99.5257 60.1672 95.6758 43.6076 91.6301 38.4572L90.4556 33.8936L88.498 35.0097Z" fill="black"/>
<path d="M88.498 34.4882L86.9319 37.6828L88.498 39.3335C88.498 39.3335 94.1097 50.6566 93.0004 57.3717L94.175 79.4729L97.9596 83.189L100.961 79.7258L99.5257 59.6457C99.5257 59.6457 95.6758 43.0861 91.6301 37.9357L90.4556 33.3721L88.498 34.4882Z" fill="#BC8487"/>
<path opacity="0.1" d="M95.6758 20.4713C94.2507 22.7662 93.1284 24.7872 92.2514 26.5657C91.3276 26.8379 90.3694 26.9758 89.4064 26.9752C86.1803 26.9752 84.3219 24.7455 82.4948 22.3776C82.0772 21.8404 80.7043 21.9656 80.4067 21.3345C80.7643 19.3108 80.9731 17.7644 80.9731 17.7644L95.6758 20.4713Z" fill="black"/>
<path d="M99.4109 16.716C99.4107 19.0966 98.5603 21.3989 97.0124 23.2088C95.4646 25.0187 93.3212 26.2172 90.9677 26.5887C88.6142 26.9602 86.2053 26.4803 84.1744 25.2354C82.1435 23.9904 80.624 22.0622 79.8893 19.7976C79.1547 17.5331 79.253 15.0809 80.1667 12.8823C81.0804 10.6837 82.7495 8.88314 84.8736 7.80456C86.9976 6.72598 89.4373 6.44022 91.7534 6.9987C94.0696 7.55718 96.1102 8.92323 97.5081 10.851C98.7451 12.5569 99.411 14.6095 99.4109 16.716Z" fill="#FFC5D3"/>
<path opacity="0.1" d="M86.2142 38.9866L77.9924 29.0769C77.9924 29.0769 77.2328 28.7718 79.7986 26.0884C79.7986 26.0884 89.221 33.4267 89.8057 34.6733C90.3903 35.9198 86.2142 38.9866 86.2142 38.9866Z" fill="black"/>
<path d="M85.9532 38.4651L77.7314 28.5554C77.7314 28.5554 76.9718 28.2503 79.5376 25.5669C79.5376 25.5669 88.96 32.9053 89.5447 34.1518C90.1294 35.3983 85.9532 38.4651 85.9532 38.4651Z" fill="#E5E8EF"/>
<path d="M106.769 101.535C106.769 101.535 105.203 100.596 105.203 99.4877C105.203 98.3794 104.42 82.7326 104.42 82.7326C104.42 82.7326 103.271 73.394 102.071 65.9722C101.366 61.5989 100.643 57.888 100.131 57.1526L100.11 57.1213C98.7401 55.361 99.0011 46.7553 90.453 34.1726C90.5678 34.2508 93.5146 36.3162 95.6732 37.3541C96.1125 37.5747 96.5735 37.7495 97.0487 37.8757C99.0063 38.3321 105.401 40.8095 105.205 44.7864C105.01 48.7633 105.662 57.8906 105.662 57.8906V76.5964L106.769 101.535Z" fill="#5F5570"/>
<path d="M106.769 40.9425C106.769 40.9425 109.509 48.5051 109.118 50.3958C108.726 52.2865 115.447 59.7187 115.447 59.7187L121.842 55.2854C121.842 55.2854 119.428 50.461 119.754 49.0267C120.08 47.5924 118.057 44.5282 118.057 44.5282L118.188 39.4482C118.188 39.4482 117.013 41.6518 106.769 40.9425Z" fill="#5F5570"/>
<path opacity="0.1" d="M97.5081 10.8512L92.5489 11.0389C92.0646 11.0358 91.5819 11.0963 91.1134 11.2189C89.3411 11.7639 88.5241 13.6468 88.4589 15.3392C88.3936 17.0317 87.4148 18.9276 85.5173 19.0762C85.3284 19.1082 85.1345 19.0652 84.977 18.9562C84.8566 18.8283 84.7767 18.6678 84.7473 18.4947C84.4751 17.5085 84.0544 16.5694 83.4997 15.7095C82.7167 15.8503 82.1372 16.5936 81.9336 17.3707C81.73 18.1478 81.7849 18.9667 81.7875 19.7725C81.7898 20.7959 81.691 21.817 81.4925 22.821C80.6834 21.7715 80.0911 20.5718 79.7501 19.2917C79.4091 18.0115 79.3263 16.6763 79.5063 15.3639C79.6863 14.0514 80.1257 12.7878 80.7988 11.6464C81.4719 10.5051 82.3654 9.50885 83.4273 8.71558C84.4893 7.92231 85.6984 7.34785 86.9845 7.02559C88.2706 6.70334 89.6079 6.63972 90.9188 6.83844C92.2297 7.03715 93.488 7.49423 94.6206 8.18311C95.7531 8.87199 96.7373 9.77892 97.5159 10.8512H97.5081Z" fill="black"/>
<path d="M90.8549 10.958C91.3235 10.8354 91.8062 10.7749 92.2905 10.778L98.312 10.5538C99.1942 10.5199 100.178 10.4416 100.771 9.78708C100.983 9.53714 101.14 9.24459 101.23 8.92911C101.385 8.42506 101.431 7.89374 101.364 7.3707C101.297 6.84765 101.118 6.34495 100.841 5.89623C100.144 4.78792 98.9228 4.14379 97.7587 3.54921C96.6752 2.97089 95.5627 2.44864 94.4256 1.98452C90.2017 0.381859 85.525 0.44901 81.349 2.17229C80.9363 2.33052 80.5452 2.53992 80.1849 2.79555C79.6815 3.22647 79.2529 3.73753 78.9163 4.30808L76.9353 7.29141C76.6619 7.65569 76.4511 8.06285 76.3115 8.49622C75.9382 9.91226 77.0945 11.3283 76.9744 12.7861C76.9066 13.511 76.5229 14.176 76.4524 14.901C76.3584 15.8372 76.7865 16.7265 77.2067 17.5792L80.6886 24.5968C81.2509 22.9604 81.5358 21.2417 81.5317 19.5116C81.5317 18.7058 81.4638 17.8869 81.6778 17.1098C81.8919 16.3327 82.4609 15.5894 83.2439 15.4486C83.8 16.3081 84.2216 17.2472 84.4941 18.2338C84.5229 18.4071 84.6029 18.5678 84.7238 18.6953C84.8812 18.8046 85.0752 18.8476 85.2641 18.8153C87.1721 18.6667 88.1352 16.789 88.2057 15.0783C88.2762 13.3676 89.0827 11.503 90.8549 10.958Z" fill="#8F7080"/>
<path d="M49.8242 122.872L52.2621 122.176L89.0201 124.176L84.9744 124.698L49.8242 122.872Z" fill="#7B728F"/>
<path opacity="0.1" d="M49.8242 122.872L52.2621 122.176L89.0201 124.176L84.9744 124.698L49.8242 122.872Z" fill="black"/>
<path d="M90.0197 159.381L85.1702 158.93L83.4684 158.774V131.824L83.9173 125.568L84.0165 124.176H89.0201L90.0197 159.381Z" fill="#7B728F"/>
<path opacity="0.1" d="M88.6938 158.424L84.8256 157.996L83.4684 157.848V132.296L83.826 126.366L83.9043 125.044H87.8951L88.6938 158.424Z" fill="black"/>
<path d="M62.1674 122.872C62.1674 122.872 64.5817 117.581 65.5944 117.417C66.6071 117.252 68.4655 117.417 68.4655 117.417L68.3011 118.95C68.3011 118.95 65.8215 119.146 65.0385 123.284L62.1674 122.872Z" fill="#7B728F"/>
<path opacity="0.1" d="M62.1674 122.872C62.1674 122.872 64.5817 117.581 65.5944 117.417C66.6071 117.252 68.4655 117.417 68.4655 117.417L68.3011 118.95C68.3011 118.95 65.8215 119.146 65.0385 123.284L62.1674 122.872Z" fill="black"/>
<path d="M71.5324 116.864C71.5324 116.864 78.0237 120.089 77.1754 123.871L73.6518 123.675C73.6518 123.675 71.9552 118.037 70.6189 117.742C69.2825 117.448 71.5324 116.864 71.5324 116.864Z" fill="#7B728F"/>
<path d="M95.6758 65.7819V65.9723L95.5453 87.6875C95.5453 87.6875 92.2174 105.942 91.3039 106.659C90.3903 107.376 70.3578 105.421 70.3578 105.421L61.2877 44.3327C61.2225 33.9015 68.596 34.2275 68.596 34.2275C69.5748 32.6628 74.273 31.4241 74.273 31.4241L76.8831 28.8815L76.9666 28.7641C77.14 28.5058 77.3637 28.2849 77.6243 28.1148C78.162 27.8044 78.5039 28.2139 78.6997 28.6181C78.7878 28.8078 78.856 29.0062 78.9033 29.21C89.4768 36.9578 95.6758 65.7819 95.6758 65.7819Z" fill="#5F5570"/>
<path opacity="0.1" d="M95.4148 66.0426V66.233C92.1339 60.2351 79.4932 37.5106 76.0348 36.3788L77.3659 35.4661C77.3659 35.4661 78.2534 34.9446 76.6221 34.423C76.6221 34.423 74.0772 34.749 74.012 31.6848L76.7056 29.0248L77.3633 28.3755L78.4387 28.8788C78.5268 29.0686 78.595 29.267 78.6423 29.4708C89.2158 37.2186 95.4148 66.0426 95.4148 66.0426Z" fill="black"/>
<path d="M95.6758 65.7819V65.9723C92.3949 59.9743 79.7542 37.2499 76.2958 36.1181L77.6269 35.2054C77.6269 35.2054 78.5144 34.6838 76.883 34.1622C76.883 34.1622 74.3382 34.4882 74.2729 31.4241L76.9666 28.7641L77.6243 28.1147L78.6997 28.6181C78.7878 28.8078 78.856 29.0062 78.9033 29.21C89.4768 36.9578 95.6758 65.7819 95.6758 65.7819Z" fill="#433A59"/>
<path opacity="0.1" d="M100.395 57.4031L100.374 57.3718C99.0037 55.6115 99.2647 47.0058 90.7166 34.4231C90.8315 34.5013 93.7783 36.5667 95.9368 37.6046L95.3339 39.5918L96.6389 40.2881L100.395 57.4031Z" fill="black"/>
<path d="M100.134 57.1423L100.113 57.111C98.7427 55.3508 99.0037 46.745 90.4556 34.1624C90.5705 34.2406 93.5173 36.306 95.6758 37.3439L95.0729 39.331L96.3779 40.0273L100.134 57.1423Z" fill="#433A59"/>
<path opacity="0.1" d="M90.0797 32.1543L89.5447 34.4127C89.5447 34.4127 89.9362 36.6736 92.2827 36.8692L92.6612 35.7922C92.6612 35.7922 90.1293 34.1701 90.0797 32.1543Z" fill="black"/>
<path d="M90.0797 31.8936L89.5447 34.1519C89.5447 34.1519 89.9362 36.4129 92.2827 36.6085L92.6612 35.5314C92.6612 35.5314 90.1293 33.9094 90.0797 31.8936Z" fill="#E5E8EF"/>
<path opacity="0.1" d="M86.7049 124.541L85.1702 158.93L83.4684 158.774V131.825L83.9173 125.568L86.7049 124.541Z" fill="black"/>
<path d="M50.1739 137.823L49.1299 156.424L84.6272 159.381L86.1828 124.541L50.1739 137.823Z" fill="#7B728F"/>
<path opacity="0.1" d="M49.3909 139.823L50.0852 123.394L86.4438 125.063L84.7133 142.431L49.3909 139.823Z" fill="black"/>
<path d="M49.1299 139.301L49.8242 122.872L86.1828 124.541L84.4524 141.909L49.1299 139.301Z" fill="#7B728F"/>
<path d="M68.7918 139.322H64.4199V144.407H68.7918V139.322Z" fill="#C3BBC8"/>
<path d="M65.0724 106.007L64.4198 107.768C64.4198 107.768 63.0495 117.416 64.7461 118.59C66.4427 119.764 71.4671 119.829 71.7281 119.242C71.9891 118.655 73.8162 112.005 73.8162 112.005C73.8162 112.005 75.4475 116.895 76.2958 116.504C77.1441 116.113 74.3382 106.818 74.3382 106.818L65.0724 106.007Z" fill="#FFC5D3"/>
<path opacity="0.1" d="M64.4199 98.7055V108.028C64.4199 108.028 71.3366 109.332 74.3382 107.079C74.3382 107.079 71.5324 98.0535 72.5764 95.7717C73.6205 93.4898 64.4199 98.7055 64.4199 98.7055Z" fill="black"/>
<path d="M64.4199 98.4447V107.768C64.4199 107.768 71.3366 109.072 74.3382 106.818C74.3382 106.818 71.5324 97.7928 72.5764 95.5109C73.6205 93.2291 64.4199 98.4447 64.4199 98.4447Z" fill="#E5E8EF"/>
<path opacity="0.1" d="M63.6368 43.8764L61.8098 44.8543C61.8098 44.8543 61.4835 48.766 61.2878 49.2876C61.092 49.8092 61.2878 55.09 61.2878 55.09L61.199 65.782C61.199 65.782 60.9171 71.4539 61.199 73.475C61.4809 75.496 61.7967 83.1891 61.7967 83.1891C61.7967 83.1891 63.5612 90.6865 62.9086 93.3595C62.2561 96.0325 62.9739 102.03 64.0832 101.509C65.1925 100.987 75.4371 98.9663 75.9591 98.5751C76.4812 98.184 76.2201 94.533 75.9591 94.0767C75.6981 93.6203 74.1321 87.4268 74.2626 85.9925C74.3931 84.5582 73.8058 71.9755 73.8058 71.9755C73.8058 71.9755 74.7846 58.5453 75.1761 55.4159C75.5676 52.2866 74.3931 43.0941 73.349 42.9637C72.305 42.8333 69.2486 35.727 63.6368 43.8764Z" fill="black"/>
<path d="M63.1148 43.3547L61.2877 44.3326C61.2877 44.3326 60.9615 48.2443 60.7657 48.7659C60.57 49.2874 60.7657 54.5682 60.7657 54.5682L60.677 65.2602C60.677 65.2602 60.3951 70.9322 60.677 72.9533C60.9589 74.9743 61.2747 82.6673 61.2747 82.6673C61.2747 82.6673 63.0391 90.1648 62.3866 92.8378C61.7341 95.5108 62.4519 101.509 63.5611 100.987C64.6704 100.466 74.9151 98.4446 75.4371 98.0534C75.9591 97.6622 75.6981 94.0113 75.4371 93.5549C75.1761 93.0986 73.61 86.905 73.7405 85.4707C73.8711 84.0364 73.2838 71.4538 73.2838 71.4538C73.2838 71.4538 74.2626 58.0236 74.6541 54.8942C75.0456 51.7648 73.8711 42.5723 72.827 42.4419C71.783 42.3115 68.7265 35.2053 63.1148 43.3547Z" fill="#5F5570"/>
<g opacity="0.1">
<path opacity="0.1" d="M82.8498 14.4707C82.0667 14.6115 81.4873 15.3547 81.2837 16.1319C81.0801 16.909 81.1349 17.7279 81.1375 18.5337C81.1425 20.2637 80.8585 21.9823 80.2971 23.6189L76.8126 16.6013C76.7447 16.4631 76.6742 16.3196 76.6064 16.1762C76.7676 16.6591 76.9675 17.1283 77.2041 17.5792L80.6886 24.5968C81.25 22.9603 81.5341 21.2416 81.529 19.5116C81.529 18.7058 81.4638 17.8869 81.6752 17.1098C81.8866 16.3327 82.4582 15.5895 83.2413 15.4486C83.494 15.8442 83.7199 16.2563 83.9173 16.6821C83.6521 15.9046 83.2937 15.1621 82.8498 14.4707Z" fill="black"/>
<path opacity="0.1" d="M100.904 6.0083C101.057 6.64987 101.035 7.32072 100.841 7.95111C100.75 8.26675 100.593 8.55929 100.379 8.80908C99.7867 9.46364 98.8132 9.54188 97.9205 9.57578L91.9016 9.80005C91.4164 9.79686 90.9329 9.85736 90.4634 9.97999C88.6938 10.525 87.8742 12.4079 87.809 14.1003C87.7437 15.7928 86.7649 17.6887 84.8674 17.8373C84.6785 17.8694 84.4846 17.8263 84.3271 17.7173C84.3871 17.8869 84.4445 18.059 84.4941 18.2389C84.521 18.4123 84.6002 18.5734 84.7212 18.7005C84.8787 18.8094 85.0726 18.8525 85.2615 18.8204C87.1721 18.6718 88.1326 16.7942 88.2031 15.0835C88.2736 13.3727 89.0879 11.5082 90.8576 10.9631C91.327 10.8405 91.8105 10.78 92.2957 10.7832L98.3146 10.5589C99.1968 10.525 100.181 10.4468 100.773 9.79223C100.987 9.54243 101.144 9.2499 101.235 8.93426C101.383 8.44983 101.43 7.94022 101.373 7.43695C101.316 6.93367 101.156 6.44744 100.904 6.0083Z" fill="black"/>
</g>
<path opacity="0.1" d="M91.1029 112.968C91.1029 112.968 93.3633 111.794 94.235 111.859C95.1068 111.925 102.934 121.871 102.934 121.871L91.1029 112.968Z" fill="black"/>
<path opacity="0.1" d="M67.9174 45.6548C67.9174 45.6548 63.7856 47.4177 63.8952 48.6355C64.0048 49.8534 67.9174 45.6548 67.9174 45.6548Z" fill="black"/>
<path opacity="0.1" d="M65.905 51.4182C65.905 51.4182 61.5696 56.9572 62.5275 57.1423C63.4855 57.3275 65.905 51.4182 65.905 51.4182Z" fill="black"/>
<path opacity="0.1" d="M80.4067 59.7188C80.4067 59.7188 80.8035 72.1058 77.6244 73.6705L80.4067 59.7188Z" fill="black"/>
<path opacity="0.1" d="M63.8848 92.7937C63.8848 92.7937 66.9438 91.0569 67.6459 91.4037C68.3481 91.7506 63.8848 92.7937 63.8848 92.7937Z" fill="black"/>
<path opacity="0.1" d="M64.4199 95.1954C64.4199 95.1954 66.3513 95.3336 67.2675 94.9346C68.1836 94.5356 64.4199 95.1954 64.4199 95.1954Z" fill="black"/>
<path opacity="0.1" d="M110.527 49.5823C110.527 49.5823 112.923 56.4591 114.304 56.4591L110.527 49.5823Z" fill="black"/>
<path opacity="0.1" d="M76.455 181.287C76.455 181.287 80.9496 180.069 81.6126 181.287C82.2755 182.505 76.455 181.287 76.455 181.287Z" fill="black"/>
<path opacity="0.1" d="M62.1674 163.23C62.1674 163.23 61.0476 164.944 62.5275 165.465C64.0075 165.987 62.1674 163.23 62.1674 163.23Z" fill="black"/>
<path opacity="0.1" d="M92.0217 139.322C92.0217 139.322 95.4148 142.342 97.0174 142.431C98.62 142.519 92.0217 139.322 92.0217 139.322Z" fill="black"/>
<path d="M225.669 15.6025C225.669 15.6025 203.695 14.2699 206.284 29.656C206.284 29.656 205.762 32.3759 208.236 33.612C208.236 33.612 208.276 32.4698 210.491 32.8584C211.28 32.9891 212.08 33.0276 212.877 32.9731C213.953 32.9 214.976 32.48 215.793 31.7761C215.793 31.7761 221.971 29.2283 224.372 19.1387C224.372 19.1387 226.15 16.9377 226.079 16.3718L222.37 17.9548C222.37 17.9548 223.639 20.6278 222.631 22.8496C222.631 22.8496 222.511 18.0513 221.798 18.1556C221.652 18.179 219.87 19.0813 219.87 19.0813C219.87 19.0813 222.052 23.7389 220.405 27.1212C220.405 27.1212 221.031 21.384 219.191 19.4178L216.581 20.9407C216.581 20.9407 219.131 25.7495 217.403 29.6743C217.403 29.6743 217.847 23.6554 216.033 21.311L213.668 23.1547C213.668 23.1547 216.061 27.8957 214.602 31.1503C214.602 31.1503 214.412 24.1431 213.154 23.6137C213.154 23.6137 211.087 25.4392 210.771 26.185C210.771 26.185 212.41 29.6273 211.392 31.4423C211.392 31.4423 210.768 26.7744 210.257 26.7483C210.257 26.7483 208.195 29.8412 207.981 31.9639C207.981 31.9639 208.069 28.8085 209.758 26.4536C209.758 26.4536 207.764 26.7952 206.6 28.0887C206.6 28.0887 206.921 25.9008 210.254 25.7104C210.254 25.7104 211.956 23.3634 212.413 23.2199C212.413 23.2199 209.085 22.9435 207.067 23.8354C207.067 23.8354 208.845 21.7726 213.023 22.7114L215.372 20.8077C215.372 20.8077 210.99 20.2079 209.134 20.8703C209.134 20.8703 211.272 19.0448 216.001 20.3748L218.544 18.8545C218.544 18.8545 214.809 18.0513 212.585 18.3329C212.585 18.3329 214.934 17.0681 219.288 18.4398L221.115 17.6236C221.115 17.6236 218.379 17.0864 217.578 17.0029C216.777 16.9195 216.732 16.6952 216.732 16.6952C218.466 16.4065 220.246 16.6042 221.874 17.2663C221.874 17.2663 225.737 15.8346 225.669 15.6025Z" fill="#FF1E4A"/>
<path d="M182.052 12.653C182.052 12.653 172.133 12.0558 173.292 19.0082C173.292 19.0082 173.06 20.2365 174.175 20.7945C174.175 20.7945 174.193 20.273 175.192 20.4529C175.549 20.5141 175.912 20.5317 176.273 20.5051C176.755 20.469 177.213 20.2788 177.578 19.9627C177.578 19.9627 180.368 18.81 181.454 14.2516C181.454 14.2516 182.258 13.258 182.237 13.0024L180.556 13.717C180.556 13.717 181.128 14.9244 180.679 15.9284C180.679 15.9284 180.624 13.7613 180.3 13.8108C180.235 13.8108 179.431 14.2307 179.431 14.2307C179.431 14.2307 180.415 16.3352 179.671 17.8634C179.671 17.8634 179.956 15.2712 179.123 14.3819L177.946 15.0704C177.946 15.0704 179.097 17.2427 178.317 19.016C178.317 19.016 178.518 16.2961 177.698 15.2373L176.631 16.0718C176.631 16.0718 177.711 18.2128 177.051 19.6836C177.051 19.6836 176.965 16.5177 176.398 16.2778C176.398 16.2778 175.464 17.1019 175.32 17.4409C175.32 17.4409 176.062 19.0056 175.602 19.8166C175.602 19.8166 175.32 17.7069 175.08 17.6965C175.08 17.6965 174.148 19.0943 174.052 20.0435C174.097 19.1582 174.374 18.3002 174.856 17.5556C174.318 17.6568 173.821 17.9134 173.428 18.2937C173.428 18.2937 173.574 17.3053 175.085 17.2192C175.085 17.2192 175.855 16.1579 176.062 16.0953C176.062 16.0953 174.558 15.9675 173.645 16.3717C173.645 16.3717 174.449 15.4407 176.336 15.8501L177.38 14.9896C177.38 14.9896 175.399 14.7288 174.561 15.0183C174.561 15.0183 175.527 14.1942 177.662 14.794L178.813 14.1081C178.813 14.1081 177.124 13.7456 176.119 13.876C176.119 13.876 177.179 13.3049 179.149 13.923L179.969 13.5553C179.969 13.5553 178.734 13.3127 178.372 13.2736C178.009 13.2345 177.991 13.1354 177.991 13.1354C178.774 13.0068 179.578 13.0971 180.313 13.3962C180.313 13.3962 182.083 12.7625 182.052 12.653Z" fill="#FF1E4A"/>
<path opacity="0.1" d="M220.971 189.7C224.853 189.7 228 189.168 228 188.513C228 187.858 224.853 187.326 220.971 187.326C217.089 187.326 213.942 187.858 213.942 188.513C213.942 189.168 217.089 189.7 220.971 189.7Z" fill="#FF1E4A"/>
<path opacity="0.1" d="M7.029 172.037C10.911 172.037 14.058 171.506 14.058 170.85C14.058 170.195 10.911 169.664 7.029 169.664C3.14699 169.664 0 170.195 0 170.85C0 171.506 3.14699 172.037 7.029 172.037Z" fill="#FF1E4A"/>
<path opacity="0.1" d="M216.08 166.717C219.962 166.717 223.109 166.186 223.109 165.531C223.109 164.875 219.962 164.344 216.08 164.344C212.198 164.344 209.051 164.875 209.051 165.531C209.051 166.186 212.198 166.717 216.08 166.717Z" fill="#FF1E4A"/>
<path opacity="0.1" d="M34.2158 178.403C38.0978 178.403 41.2448 177.871 41.2448 177.216C41.2448 176.561 38.0978 176.03 34.2158 176.03C30.3338 176.03 27.1868 176.561 27.1868 177.216C27.1868 177.871 30.3338 178.403 34.2158 178.403Z" fill="#FF1E4A"/>
<path opacity="0.1" d="M184.748 179.422C188.63 179.422 191.777 178.891 191.777 178.236C191.777 177.58 188.63 177.049 184.748 177.049C180.866 177.049 177.719 177.58 177.719 178.236C177.719 178.891 180.866 179.422 184.748 179.422Z" fill="#FF1E4A"/>
<path d="M205.587 203.002C211.383 203.002 216.082 202.208 216.082 201.229C216.082 200.249 211.383 199.455 205.587 199.455C199.791 199.455 195.092 200.249 195.092 201.229C195.092 202.208 199.791 203.002 205.587 203.002Z" fill="#FF1E4A"/>
<path d="M209.925 198.329C210.403 197.939 210.752 197.414 210.925 196.822C211.055 196.222 210.799 195.518 210.225 195.286C209.583 195.04 208.897 195.484 208.377 195.932C207.858 196.381 207.26 196.895 206.579 196.801C206.93 196.483 207.192 196.081 207.341 195.632C207.489 195.183 207.519 194.704 207.427 194.24C207.397 194.048 207.315 193.867 207.19 193.718C206.835 193.338 206.187 193.502 205.762 193.802C204.405 194.756 204.026 196.597 204.018 198.256C203.883 197.656 203.998 197.033 203.992 196.43C203.987 195.828 203.823 195.126 203.303 194.808C202.983 194.636 202.623 194.551 202.259 194.561C201.648 194.54 200.97 194.6 200.555 195.046C200.033 195.598 200.171 196.529 200.62 197.132C201.069 197.734 201.755 198.123 202.387 198.545C202.893 198.846 203.324 199.257 203.648 199.748C203.687 199.815 203.719 199.887 203.742 199.961H207.568C208.424 199.526 209.216 198.976 209.925 198.329Z" fill="#FF1E4A"/>
<path d="M34.5786 148.05C34.5786 148.05 36.0142 149.923 33.9183 152.744C31.8223 155.566 30.0945 157.96 30.7861 159.723C30.7861 159.723 33.9496 154.471 36.5283 154.398C39.1071 154.325 37.4106 151.216 34.5786 148.05Z" fill="#FF1E4A"/>
<path opacity="0.1" d="M34.5786 148.05C34.7042 148.231 34.8026 148.428 34.8709 148.637C37.3818 151.584 38.7208 154.335 36.3065 154.406C34.0592 154.468 31.3629 158.484 30.7156 159.499C30.7369 159.577 30.7622 159.655 30.7913 159.731C30.7913 159.731 33.9548 154.479 36.5335 154.406C39.1123 154.333 37.4105 151.216 34.5786 148.05Z" fill="black"/>
<path d="M37.2435 150.444C37.2435 151.104 37.1705 151.639 37.0791 151.639C36.9878 151.639 36.9147 151.117 36.9147 150.444C36.9147 149.771 37.006 150.095 37.0974 150.095C37.1887 150.095 37.2435 149.784 37.2435 150.444Z" fill="#FFD037"/>
<path d="M38.1597 151.232C37.5802 151.547 37.0739 151.738 37.0321 151.66C36.9903 151.581 37.421 151.258 38.0004 150.942C38.5799 150.627 38.3528 150.856 38.3946 150.942C38.4363 151.028 38.7391 150.919 38.1597 151.232Z" fill="#FFD037"/>
<path d="M27.0067 148.05C27.0067 148.05 25.5711 149.923 27.667 152.744C29.7629 155.566 31.4908 157.96 30.7992 159.723C30.7992 159.723 27.6383 154.471 25.0569 154.398C22.4756 154.325 24.1747 151.216 27.0067 148.05Z" fill="#FF1E4A"/>
<path opacity="0.1" d="M27.0067 148.05C26.8808 148.231 26.7815 148.428 26.7117 148.637C24.2008 151.584 22.8645 154.335 25.2762 154.406C27.5261 154.468 30.2223 158.484 30.8696 159.499C30.8487 159.578 30.8225 159.655 30.7913 159.731C30.7913 159.731 27.6305 154.479 25.0491 154.406C22.4677 154.333 24.1747 151.216 27.0067 148.05Z" fill="black"/>
<path d="M24.3392 150.444C24.3392 151.104 24.4149 151.639 24.5062 151.639C24.5976 151.639 24.6707 151.117 24.6707 150.444C24.6707 149.771 24.5793 150.095 24.488 150.095C24.3966 150.095 24.3392 149.784 24.3392 150.444Z" fill="#FFD037"/>
<path d="M23.4283 151.232C24.0077 151.547 24.5115 151.738 24.5558 151.66C24.6002 151.581 24.1643 151.258 23.5849 150.942C23.0054 150.627 23.2351 150.856 23.1908 150.942C23.1464 151.028 22.8462 150.919 23.4283 151.232Z" fill="#FFD037"/>
<path d="M24.796 159.493C24.796 159.493 28.8051 159.371 30.0162 158.51C31.2272 157.65 36.1838 156.625 36.4814 158.004C36.7789 159.384 42.5081 164.86 37.9822 164.897C33.4563 164.933 27.4635 164.193 26.2576 163.457C25.0518 162.722 24.796 159.493 24.796 159.493Z" fill="#A8A8A8"/>
<path opacity="0.2" d="M38.0605 164.417C33.5346 164.454 27.5418 163.713 26.3359 162.978C25.4198 162.419 25.0518 160.414 24.9291 159.488H24.796C24.796 159.488 25.057 162.719 26.255 163.452C27.453 164.185 33.4537 164.928 37.9796 164.892C39.2846 164.892 39.7362 164.417 39.7127 163.729C39.53 164.148 39.0314 164.409 38.0605 164.417Z" fill="black"/>
<defs>
<linearGradient id="paint0_linear" x1="85.2563" y1="199.453" x2="85.2563" y2="-3.72284e-05" gradientUnits="userSpaceOnUse">
<stop stop-color="#808080" stop-opacity="0.25"/>
<stop offset="0.54" stop-color="#808080" stop-opacity="0.12"/>
<stop offset="1" stop-color="#808080" stop-opacity="0.1"/>
</linearGradient>
</defs>
</svg>
