<svg width="159" height="159" viewBox="0 0 159 159" fill="none" xmlns="http://www.w3.org/2000/svg">
<mask id="mask0" mask-type="alpha" maskUnits="userSpaceOnUse" x="0" y="0" width="159" height="159">
<circle cx="79.5" cy="79.5" r="79" fill="white" stroke="#FFC5D3"/>
</mask>
<g mask="url(#mask0)">
<path d="M96.9111 93.1857L96.9916 94.7764L97.6567 107.923L79.0788 124.827L72.5814 118.886L62.0457 109.251L61.2273 93.0898L96.9111 93.1857Z" fill="#E2A77D"/>
<path d="M76.3418 43.4587C78.4482 44.026 81.304 41.3121 82.6648 40.2062C85.1315 38.1995 87.9336 36.601 90.9197 35.5085C93.1066 34.7093 95.512 34.1764 97.7487 34.8108C101.04 35.7442 103.211 39.0543 103.821 42.4218C105.063 49.2776 101.62 56.371 102.722 63.2383C102.876 64.1986 103.14 66.3778 104.673 65.3275C105.308 64.8924 104.902 63.7156 105.582 63.1943C107.081 62.0424 107.817 63.8804 107.934 64.992C108.353 68.946 107.962 73.3026 106.26 76.9921C105.273 79.1291 103.78 79.8 102.331 81.3831C100.727 83.1387 101.174 86.397 100.65 88.513C100.294 89.9524 99.7113 91.2748 98.891 92.4478C97.1411 94.9509 93.9442 96.2408 91.9106 98.5369C90.0074 100.689 88.2556 102.828 85.5608 104.291C83.9374 105.172 81.6183 105.305 79.4794 105.314C79.2014 105.341 78.9216 105.366 78.6398 105.387L75.487 43.2728C75.7707 43.3303 76.0658 43.3839 76.3418 43.4587Z" fill="#FFC28E"/>
<path d="M47.0941 68.0741C47.0979 66.9586 47.6422 65.0554 49.2522 66.0482C49.9805 66.4967 49.6949 67.7099 50.3715 68.0798C52.0026 68.9691 52.0428 66.7746 52.0984 65.8029C52.3111 62.1076 50.3619 58.6691 50.6494 55.0333C50.9139 51.7003 50.5747 48.2733 51.6269 45.0036C52.5373 42.1708 54.3351 39.5622 56.89 38.0404C59.2532 36.6355 62.1991 36.2388 64.8478 36.971C67.1842 37.6149 68.8018 39.0256 70.3735 40.7831C72.085 42.6979 72.8919 42.6787 75.4871 43.2652L78.6399 105.379C76.7558 105.525 74.8085 105.523 73.327 104.904C70.5 103.722 68.5411 101.77 66.4271 99.8212C64.1751 97.7416 60.865 96.7833 58.8698 94.4718C57.9364 93.3889 57.2215 92.1297 56.7213 90.7363C55.9853 88.6855 56.1003 85.3966 54.3274 83.8154C52.727 82.3855 51.1726 81.8681 49.9748 79.8441C47.9067 76.3463 47.0768 72.0511 47.0941 68.0741Z" fill="#F0B784"/>
<path d="M106.097 60.2733C105.614 62.5311 105.275 64.7851 105.342 67.0237L102.506 67.1675C102.448 66.6135 102.45 66.0884 102.45 65.7645C102.46 64.2407 102.337 63.0371 102.176 61.5249C101.473 54.9336 103.84 33.1683 90.2834 40.0203C88.292 41.0246 86.5383 42.4467 84.5891 43.5334C78.9695 46.6691 71.7591 46.7438 66.0763 43.727C62.91 42.0461 57.8559 38.1496 54.5363 41.7222C52.3705 44.0548 53.1908 50.2033 53.0068 53.0649C52.7538 57.0323 52.3628 60.6452 52.6829 64.6969C52.8113 66.3356 53.2368 67.9207 53.2828 69.5747C48.9186 71.2096 49.8559 66.3605 49.0106 63.8402C47.6096 59.6542 47.2856 55.8191 47.0556 51.5239C46.8333 47.3246 45.3537 42.7342 46.6742 38.5521C49.2674 30.3566 60.2766 25.8257 67.9125 24.1295C76.154 22.2972 85.2139 22.7227 93.2753 25.199C96.6102 26.2224 101.747 27.8247 104.097 30.5962C106.467 33.3945 106.707 38.5751 107.359 42.1477C108.445 48.1353 107.349 54.4046 106.097 60.2733Z" fill="#2B0D04"/>
<path d="M62.2584 105.987L53.2694 113.665C54.956 116.948 57.0989 120.598 59.8224 124.406C63.3758 129.372 67.0385 133.376 70.314 136.519C70.314 136.519 72.7807 126.827 79.2609 122.004C69.3864 118.692 62.2584 105.987 62.2584 105.987Z" fill="white"/>
<path d="M79.2742 160.998L79.2589 121.999C79.2589 121.999 74.9465 131.064 70.0035 128.649L62.3773 109.953L55.6575 112.987L47.8454 116.531L45.438 117.257L39.0518 119.22L29.9095 122.003C23.4217 123.977 17.5491 127.58 12.8476 132.467L11.7839 133.573C10.3215 135.101 9.32293 136.989 8.93386 139.061C8.49112 141.401 7.8184 156.64 7 160.996H79.2742V160.998Z" fill="#414042"/>
<path d="M151.669 160.998C150.849 156.642 150.178 141.401 149.734 139.062C149.346 136.991 148.344 135.103 146.883 133.575C141.486 127.961 134.74 123.825 127.29 121.556L119.616 119.22L113.227 117.257L110.822 116.531L103.01 112.987L96.2901 109.953L88.6639 128.649C83.7209 131.066 79.4065 121.999 79.4065 121.999L79.3931 160.998H151.669Z" fill="#231F20"/>
<path d="M94.4559 160.998L98.4215 138.911L81.1622 120.007H78.8392C78.8392 120.007 60.6887 138.723 60.8209 140.082L64.7405 161H94.4559V160.998Z" fill="#BAD1DD"/>
<path d="M76.2843 132.579L72.5258 160.998H86.6648L82.9063 132.579C82.7108 131.71 82.8373 130.802 83.2647 130.016L85.5934 125.717C85.7007 125.456 85.6355 125.161 85.4362 124.964C84.5373 124.09 83.6403 123.214 82.7433 122.34C82.1358 121.744 81.4017 121.186 81.0452 120.408C80.7922 119.848 80.0965 118.599 79.2877 119.13C78.5805 119.593 78.3428 120.322 77.8847 120.939C77.4286 121.552 76.7136 122.083 76.1636 122.62C75.3624 123.4 74.5613 124.182 73.7601 124.964C73.5589 125.161 73.4956 125.456 73.601 125.717L75.9317 130.016C76.3533 130.802 76.4817 131.71 76.2843 132.579Z" fill="#3D5872"/>
<path d="M80.062 118.464C79.7975 118.715 79.395 118.715 79.1306 118.464L61.7946 101.983L57.9211 113.945L65.4132 140.078L79.029 119.89C79.3069 119.478 79.8857 119.478 80.1636 119.89L93.7813 140.078L101.271 113.945L97.398 101.983L80.062 118.464Z" fill="#E4F4FF"/>
<path d="M104.371 160.998L118.791 132.408L103.7 128.364L120.25 122.943C117.873 120.137 116.336 118.828 112.712 116.233C106.004 112.318 101.457 110.393 99.9758 109.954L92.3917 137.592L88.3591 161H104.371V160.998Z" fill="#414042"/>
<path d="M40.405 132.408L54.7337 160.998H70.7031L64.4511 130.773L59.2129 109.952C57.7333 110.382 51.6192 111.685 46.475 115.743C43.5579 117.836 41.4035 120.007 38.9368 122.943L55.485 128.364L40.405 132.408Z" fill="#231F20"/>
<path d="M106.611 62.3549L105.806 60.3616C105.806 60.3616 96.8862 60.4421 92.568 60.5801C88.338 60.7143 83.2973 62.0271 81.2293 64.6395L81.166 64.5303C79.97 65.1589 78.9446 65.3966 78.0994 65.4292C77.2542 65.4522 76.2172 65.2797 74.981 64.7277L74.9274 64.8408C72.6945 62.3664 67.5809 61.3793 63.3509 61.5154C59.0327 61.6534 48.4836 63.1618 48.4836 63.1618L47.876 65.9026L52.2689 68.1124C52.2382 68.4766 52.2364 68.8503 52.2804 69.2298C52.9014 74.7804 58.6111 77.5116 63.9259 77.341C64.0715 77.3372 64.2153 77.3295 64.361 77.3199C65.3519 77.2586 66.3274 77.0918 67.2627 76.8254C71.234 75.6985 74.3313 72.8523 75.7649 69.0133C75.9642 68.4843 76.0524 67.9572 76.0409 67.4454C76.8172 67.6237 77.5321 67.6965 78.1742 67.6793C78.8181 67.6544 79.5253 67.5374 80.2901 67.3094C80.3111 67.823 80.4319 68.3405 80.6638 68.8599C82.339 72.5974 85.6126 75.2404 89.6471 76.1125C90.5978 76.3176 91.5829 76.421 92.5738 76.421C92.7175 76.4191 92.8632 76.4172 93.0108 76.4134C98.3256 76.2428 103.847 73.1532 104.114 67.5739C104.133 67.1925 104.106 66.8187 104.054 66.4584L106.611 62.3549ZM73.5493 68.2715C72.3725 71.4263 69.8368 73.7626 66.5958 74.6845C65.831 74.9011 65.0279 75.0391 64.2134 75.0909L63.8531 75.1081C59.6173 75.2423 55.0844 73.1839 54.6149 68.9883C54.498 67.9553 54.7759 67.087 55.4639 66.3319C56.8343 64.8331 59.8089 63.8671 63.4218 63.7521C67.8243 63.6103 71.9758 64.7526 73.2906 66.468C73.7199 67.0238 73.8004 67.5969 73.5493 68.2715ZM92.9341 74.1767L92.5738 74.1843C91.7592 74.1843 90.9485 74.1 90.1703 73.9314C86.8775 73.2184 84.1981 71.0487 82.822 67.9764C82.5287 67.319 82.5728 66.7401 82.9619 66.1594C84.1655 64.3635 88.2346 62.9586 92.639 62.8187C96.2537 62.7018 99.282 63.4761 100.744 64.8848C101.48 65.5921 101.812 66.4431 101.762 67.48C101.561 71.6985 97.168 74.0425 92.9341 74.1767Z" fill="#020202"/>
</g>
</svg>
