<svg width="38" height="38" viewBox="0 0 38 38" fill="none" xmlns="http://www.w3.org/2000/svg">
<path d="M13.5199 0H2.76554C1.24033 0 0 1.24053 0 2.76514V13.5205C0 15.0453 1.24053 16.2857 2.76554 16.2857H13.5199C15.0451 16.2857 16.2855 15.0452 16.2855 13.5201V2.76494C16.2855 1.24053 15.0451 0 13.5199 0ZM13.5199 14.9285H2.76514C1.98842 14.9285 1.35682 14.2971 1.35682 13.5203V2.76514C1.35682 1.98842 1.98862 1.35702 2.76514 1.35702H13.5195C14.2963 1.35702 14.9279 1.98842 14.9279 2.76514V13.5203H14.9281C14.9281 14.2971 14.2965 14.9285 13.5199 14.9285Z" fill="black"/>
<path d="M35.2348 0H24.4804C22.9552 0 21.7148 1.24053 21.7148 2.76514V13.5205C21.7148 15.0453 22.9554 16.2857 24.4804 16.2857H35.2348C36.7598 16.2857 38.0003 15.0452 38.0003 13.5201V2.76494C38.0003 1.24053 36.7598 0 35.2348 0ZM36.6427 13.5203C36.6427 14.2971 36.0109 14.9285 35.2344 14.9285H24.48C23.7033 14.9285 23.0717 14.2971 23.0717 13.5203V2.76514C23.0717 1.98842 23.7035 1.35702 24.48 1.35702H35.2344C36.0111 1.35702 36.6427 1.98842 36.6427 2.76514V13.5203Z" fill="black"/>
<path d="M13.5199 21.7144H2.76554C1.24072 21.7144 0 22.9549 0 24.4795V35.2349C0 36.7597 1.24053 38 2.76554 38H13.5199C15.0451 38 16.2855 36.7595 16.2855 35.2345V24.4793C16.2855 22.9547 15.0451 21.7144 13.5199 21.7144ZM13.5199 36.6428H2.76514C1.98842 36.6428 1.35682 36.0114 1.35682 35.2347V24.4795C1.35682 23.7028 1.98862 23.0714 2.76514 23.0714H13.5195C14.2963 23.0714 14.9279 23.7028 14.9279 24.4795V35.2347H14.9281C14.9281 36.0114 14.2965 36.6428 13.5199 36.6428Z" fill="black"/>
<path d="M35.2348 21.7144H24.4804C22.9552 21.7144 21.7148 22.9549 21.7148 24.4795V35.2349C21.7148 36.7597 22.9554 38 24.4804 38H35.2348C36.7598 38 38.0003 36.7595 38.0003 35.2345V24.4793C38.0003 22.9547 36.7598 21.7144 35.2348 21.7144ZM36.6427 35.2347C36.6427 36.0114 36.0109 36.6428 35.2344 36.6428H24.48C23.7033 36.6428 23.0717 36.0114 23.0717 35.2347V24.4795C23.0717 23.7028 23.7035 23.0714 24.48 23.0714H35.2344C36.0111 23.0714 36.6427 23.7028 36.6427 24.4795V35.2347Z" fill="black"/>
</svg>
