<svg width="25" height="25" viewBox="0 0 25 25" fill="none" xmlns="http://www.w3.org/2000/svg">
<g clip-path="url(#clip0)">
<path d="M25 1.70309C25.0019 1.24659 24.8257 0.818029 24.504 0.496252C24.1822 0.174475 23.7528 -0.00140437 23.2972 0.000255787C22.842 0.00216008 22.4135 0.181018 22.0906 0.503869C21.9539 0.640588 21.7052 0.9359 21.5691 1.09982C21.4263 1.27194 21.4499 1.52731 21.622 1.67013C21.7941 1.813 22.0495 1.78937 22.1923 1.61725C22.4054 1.36061 22.5815 1.15851 22.6633 1.07667C22.8341 0.90592 23.0604 0.811291 23.3005 0.810265C23.3019 0.810265 23.3031 0.810265 23.3044 0.810265C23.5418 0.810265 23.7643 0.902062 23.9312 1.06901C24.099 1.23683 24.191 1.4608 24.1899 1.69967C24.1889 1.93976 24.0943 2.16603 23.9235 2.33688C23.7707 2.48976 23.2452 2.9066 22.4923 3.43253C22.0469 2.67111 21.2209 2.15817 20.277 2.15817H14.3461C13.5455 2.15817 12.7929 2.46993 12.2267 3.036L0.371729 14.8911C0.132031 15.1308 0 15.4495 0 15.7885C0 16.1275 0.132031 16.4462 0.371729 16.6859L8.31445 24.6286C8.56191 24.876 8.88682 24.9997 9.21182 24.9997C9.53682 24.9997 9.86182 24.8759 10.1092 24.6286L21.9643 12.7735C22.5303 12.2074 22.8421 11.4548 22.8421 10.6542V4.72335C22.8421 4.5483 22.8244 4.3774 22.7908 4.21212C23.6478 3.62242 24.2769 3.12911 24.4963 2.90968C24.8192 2.58683 24.9981 2.15831 25 1.70309ZM22.0321 10.6542C22.0321 11.2384 21.8045 11.7877 21.3915 12.2007L9.53643 24.0558C9.35752 24.2348 9.06621 24.2348 8.88726 24.0558L0.944531 16.1131C0.857861 16.0264 0.810059 15.9111 0.810059 15.7885C0.810059 15.6658 0.857812 15.5506 0.944531 15.4639L12.7996 3.6089C13.2127 3.19581 13.7619 2.96832 14.3461 2.96832H20.2769C20.9429 2.96832 21.5235 3.34122 21.8208 3.88917C21.3423 4.20597 20.8066 4.54283 20.2383 4.87408C20.2206 4.85465 20.2025 4.83541 20.1837 4.81661C19.5204 4.15333 18.4412 4.15333 17.7779 4.81661C17.1146 5.47989 17.1146 6.55909 17.7779 7.22237C18.1096 7.55401 18.5452 7.71979 18.9808 7.71979C19.4164 7.71979 19.8521 7.55401 20.1837 7.22237C20.6264 6.77965 20.7731 6.15177 20.6249 5.5858C21.1192 5.29806 21.5938 5.00397 22.0319 4.71945C22.0319 4.72081 22.032 4.72208 22.032 4.7234V10.6542H22.0321ZM18.6191 6.20148C18.6902 6.34293 18.833 6.42457 18.9812 6.42457C19.0424 6.42457 19.1046 6.41066 19.163 6.38126C19.4004 6.26183 19.637 6.13761 19.8712 6.01036C19.8735 6.24156 19.7871 6.4735 19.611 6.64957C19.2636 6.99698 18.6983 6.99698 18.3509 6.64957C18.0035 6.30211 18.0035 5.73688 18.3509 5.38942C18.5246 5.21569 18.7528 5.12887 18.981 5.12887C19.1616 5.12887 19.3417 5.18424 19.4954 5.29308C19.2662 5.41769 19.0335 5.53971 18.799 5.65773C18.599 5.75817 18.5185 6.00167 18.6191 6.20148Z" fill="black"/>
<path d="M12.0681 8.25024C11.8444 8.25024 11.6631 8.43154 11.6631 8.65527V17.2089C11.6631 17.4326 11.8444 17.614 12.0681 17.614C12.2918 17.614 12.4731 17.4326 12.4731 17.2089V8.65527C12.4731 8.43154 12.2918 8.25024 12.0681 8.25024Z" fill="black"/>
<path d="M10.2161 11.7292C9.55288 11.0658 8.47363 11.0659 7.81045 11.7292C7.14717 12.3924 7.14717 13.4716 7.81045 14.1349C8.14214 14.4666 8.57769 14.6324 9.01333 14.6323C9.44888 14.6323 9.88457 14.4665 10.2162 14.1349C10.5375 13.8136 10.7145 13.3864 10.7145 12.932C10.7145 12.4776 10.5375 12.0504 10.2161 11.7292ZM9.64336 13.5621C9.2959 13.9095 8.73066 13.9095 8.38325 13.5621C8.03584 13.2146 8.03584 12.6494 8.38325 12.3019C8.55698 12.1282 8.78516 12.0414 9.01333 12.0414C9.2415 12.0414 9.46968 12.1282 9.64341 12.3019C9.81172 12.4702 9.9044 12.694 9.9044 12.932C9.90435 13.17 9.81167 13.3938 9.64336 13.5621Z" fill="black"/>
<path d="M16.326 11.729C15.6627 11.0657 14.5834 11.0658 13.9203 11.729C13.257 12.3923 13.257 13.4715 13.9203 14.1348C14.252 14.4664 14.6875 14.6322 15.1232 14.6322C15.5588 14.6322 15.9944 14.4664 16.326 14.1348C16.9893 13.4715 16.9893 12.3923 16.326 11.729ZM15.7532 13.562C15.4057 13.9094 14.8405 13.9094 14.4931 13.562C14.1457 13.2145 14.1457 12.6493 14.4931 12.3018C14.6668 12.1281 14.895 12.0413 15.1231 12.0413C15.3513 12.0413 15.5795 12.1281 15.7532 12.3018C16.1006 12.6493 16.1006 13.2145 15.7532 13.562Z" fill="black"/>
</g>
<defs>
<clipPath id="clip0">
<rect width="25" height="25" fill="white"/>
</clipPath>
</defs>
</svg>
