<svg width="26" height="23" viewBox="0 0 26 23" fill="none" xmlns="http://www.w3.org/2000/svg">
<path d="M11.8267 16.5756C11.6379 16.4518 11.3722 16.488 11.2334 16.6567L11.181 16.7204C11.0424 16.8891 11.0828 17.126 11.2713 17.2501C11.3471 17.3 11.4353 17.3241 11.5227 17.3241C11.6528 17.3241 11.7812 17.2708 11.8644 17.1702L11.9176 17.1056C12.0563 16.9368 12.0156 16.6995 11.8267 16.5756Z" fill="black"/>
<path d="M11.9373 20.1826L10.8458 18.4095L11.8649 17.1696C12.0037 17.0009 11.963 16.7636 11.774 16.6396C11.5851 16.5156 11.3195 16.552 11.1808 16.7209L10.0013 18.1559C9.90346 18.2749 9.89189 18.4337 9.97146 18.563L11.1936 20.548V20.5479C11.2709 20.6734 11.4161 20.7444 11.5659 20.7444C11.6351 20.7444 11.7052 20.7293 11.77 20.6974C11.9754 20.5965 12.0503 20.366 11.9373 20.1826Z" fill="black"/>
<path d="M15.1005 18.1558L13.9258 16.7266C13.8284 16.6082 13.6633 16.5506 13.5018 16.5791C13.3404 16.6075 13.2119 16.7167 13.1719 16.8592C13.1413 16.9687 13.1668 17.0846 13.2416 17.1756L14.2557 18.4095L13.1716 20.1705C13.1372 20.2264 13.1191 20.2894 13.1191 20.3534C13.1191 20.5264 13.2503 20.6775 13.438 20.7206C13.4731 20.7287 13.5086 20.7326 13.5436 20.7326C13.6955 20.7326 13.8395 20.6593 13.9154 20.5361L15.1302 18.563C15.2099 18.4336 15.1982 18.2748 15.1005 18.1558Z" fill="black"/>
<path d="M15.7732 12.1977C15.6336 12.1322 15.4649 12.1411 15.335 12.2211C15.0826 12.3765 14.8483 12.5411 14.6388 12.7102C13.4966 13.6326 12.4115 13.5078 12.369 13.5024C12.3434 13.4988 12.3174 13.4971 12.2916 13.4979C11.8402 13.5082 11.0264 13.1397 10.1654 12.5357C10.0337 12.4433 9.8987 12.3553 9.76387 12.274C9.63385 12.1955 9.46583 12.1876 9.32728 12.2534C9.18868 12.3192 9.10205 12.4479 9.10205 12.5882V13.8888C9.10205 14.0038 9.16064 14.1125 9.26105 14.1845C9.27291 14.1931 9.28527 14.2009 9.29801 14.2082L12.3074 16.0046C12.3079 16.0049 12.3083 16.0052 12.3088 16.0055L12.3167 16.0103C12.3876 16.0521 12.4692 16.0733 12.5511 16.0733C12.6201 16.0733 12.689 16.0584 12.752 16.0283C12.7653 16.0219 12.778 16.015 12.7903 16.0075C12.7917 16.0067 12.7931 16.0059 12.7946 16.005C12.7963 16.004 12.7979 16.003 12.7996 16.002L15.8018 14.2098C15.8139 14.203 15.8257 14.1956 15.837 14.1878C15.94 14.1159 16.0002 14.0057 16.0002 13.8889V12.5333C16.0002 12.3924 15.9128 12.2632 15.7732 12.1977ZM15.1513 13.686L12.5511 15.2382L9.95086 13.686V13.3412C10.584 13.7522 11.5154 14.2563 12.2746 14.2563C12.2761 14.2563 12.2779 14.2563 12.2795 14.2563C12.5344 14.2815 13.8343 14.3499 15.1514 13.3177V13.686H15.1513Z" fill="black"/>
<path d="M12.9694 15.632C12.9414 15.4816 12.8153 15.3609 12.6493 15.3255C12.4832 15.2903 12.3097 15.347 12.2087 15.4699L11.2332 16.6569C11.0945 16.8257 11.1352 17.063 11.3242 17.1869C11.3998 17.2365 11.4878 17.2605 11.575 17.2605C11.7055 17.2605 11.8343 17.2068 11.9175 17.1056L12.8879 15.9249C12.9431 15.8604 12.9753 15.7802 12.9753 15.6944C12.9752 15.6736 12.9733 15.6526 12.9694 15.632Z" fill="black"/>
<path d="M19.0167 3.4092C19.0083 3.34981 18.8095 2.06803 17.4589 1.56238C17.4981 1.33726 17.494 1.04793 17.334 0.766444C17.119 0.388118 16.6946 0.141581 16.0727 0.0335752C16.046 0.0289326 16.019 0.0266113 15.9918 0.0266113H10.2954C7.9824 0.0266113 6.10059 1.70766 6.10059 3.77404V5.77082C6.10059 6.29106 6.2991 6.79837 6.65945 7.1992C6.8381 7.39796 7.05814 7.74506 7.09133 8.26984C7.10427 8.47473 7.29627 8.63306 7.52704 8.62736C7.75668 8.62158 7.93946 8.45357 7.93946 8.24838V5.64504C8.22764 4.58036 9.21118 4.37315 9.38027 4.34516H11.2228C11.4396 4.34516 11.6527 4.3156 11.8564 4.25726C12.2068 4.15688 12.7626 3.97214 13.1672 3.83483C13.438 3.7429 13.7377 3.73953 14.0112 3.82537L15.9837 4.44397C16.9699 4.76895 17.1459 5.54233 17.1677 5.66383V8.78823C17.1677 8.98668 17.3389 9.15132 17.5604 9.16607C17.5712 9.16678 17.5818 9.16717 17.5924 9.16717C17.8006 9.16713 17.9803 9.03087 18.0118 8.84416C18.0135 8.83439 18.1829 7.85652 18.7294 7.07359C18.9195 6.80104 19.0201 6.49029 19.0201 6.17495V3.45707C19.0201 3.44109 19.019 3.4251 19.0167 3.4092ZM18.1712 6.17477C18.1712 6.34414 18.1177 6.51215 18.0164 6.66154V5.6379C18.0164 5.62419 18.0156 5.61057 18.0139 5.59695C18.0073 5.54189 17.8319 4.24259 16.2736 3.7312C16.2717 3.73059 16.2697 3.72998 16.2678 3.72937L14.2923 3.1098C14.0695 3.03994 13.8365 3.00508 13.6036 3.00508C13.3532 3.00508 13.1029 3.04542 12.8658 3.12601C12.2992 3.31828 11.8605 3.45979 11.5971 3.53521C11.4774 3.5695 11.3514 3.58694 11.2228 3.58694H9.34595C9.32777 3.58694 9.30953 3.58799 9.29144 3.59004C9.21961 3.59837 7.52684 3.81341 7.10084 5.51912C7.09408 5.54623 7.09065 5.57391 7.09065 5.60168V6.38198C6.99823 6.1912 6.9493 5.98281 6.9493 5.77087V3.77413C6.9493 2.12593 8.45037 0.78497 10.2953 0.78497H15.9489C16.183 0.829513 16.4674 0.920919 16.5753 1.10688C16.7075 1.3345 16.557 1.64792 16.5568 1.64818C16.5025 1.75133 16.5032 1.87076 16.5583 1.97347C16.6135 2.07617 16.7176 2.15124 16.8416 2.17792C17.9221 2.41026 18.1425 3.33602 18.1712 3.48576V6.17477H18.1712Z" fill="black"/>
<path d="M18.0142 5.59697C18.0075 5.54191 17.8321 4.24261 16.2738 3.73123C16.2719 3.73061 16.27 3.73 16.2681 3.72939L14.2925 3.10982C13.8302 2.96485 13.3236 2.97063 12.866 3.12594C12.2994 3.31821 11.8606 3.45972 11.5973 3.53519C11.4775 3.56948 11.3516 3.58687 11.2229 3.58687H9.34613C9.32794 3.58687 9.3097 3.58792 9.29161 3.58998C9.21979 3.5983 7.52702 3.81335 7.10102 5.51905C7.09425 5.54616 7.09082 5.57384 7.09082 5.60161V8.86087C7.09082 8.86367 7.09087 8.86647 7.09092 8.86928C7.09371 8.98249 7.18338 11.6562 9.25136 12.879L9.26205 12.8858C9.27092 12.8914 9.27979 12.897 9.28906 12.9025C9.40697 12.9737 9.52537 13.0509 9.64118 13.1321C10.2436 13.5547 11.379 14.2564 12.2746 14.2564C12.2763 14.2564 12.2778 14.2564 12.2795 14.2564C12.3282 14.2611 12.415 14.2675 12.5328 14.2675C13.0403 14.2675 14.1233 14.1487 15.2079 13.2728C15.39 13.1258 15.5947 12.9821 15.8166 12.8455L15.8483 12.8257C15.8586 12.8191 15.869 12.8126 15.8797 12.8062C16.5695 12.3923 17.7642 11.3243 18.015 8.82198C18.0161 8.81076 18.0167 8.79942 18.0167 8.78812V5.63792C18.0167 5.62425 18.0158 5.61063 18.0142 5.59697ZM17.1678 8.77099C16.9365 11.0293 15.8595 11.9048 15.4064 12.1766C15.3903 12.1863 15.3744 12.1963 15.3585 12.2063L15.335 12.2211C15.0825 12.3764 14.8483 12.541 14.6387 12.7102C13.5009 13.6292 12.4193 13.5086 12.3662 13.502C12.3416 13.4987 12.3166 13.4973 12.2916 13.4979C11.8402 13.5083 11.0263 13.1398 10.1654 12.5357C10.0337 12.4433 9.89867 12.3553 9.76404 12.2741L9.7536 12.2675C9.7434 12.2611 9.73325 12.2546 9.72129 12.2475C8.05249 11.2608 7.94331 8.95175 7.93963 8.85539V5.64501C8.22884 4.57644 9.21846 4.37159 9.37976 4.34514H11.223C11.4397 4.34514 11.6529 4.31558 11.8566 4.25724C12.2069 4.15685 12.7628 3.97211 13.1674 3.83481C13.4382 3.74288 13.7379 3.7395 14.0113 3.82535L15.9839 4.44395C16.97 4.76893 17.146 5.54231 17.1679 5.6638V8.77099H17.1678Z" fill="black"/>
<path d="M12.9306 15.5249C12.8644 15.4067 12.7342 15.3278 12.5869 15.3166C12.4398 15.3057 12.2963 15.3635 12.2088 15.47L11.1922 16.707C11.0536 16.8757 11.0941 17.1128 11.2828 17.2368C11.3585 17.2865 11.4466 17.3106 11.5339 17.3106C11.6641 17.3106 11.7927 17.2572 11.8759 17.1563L12.8926 15.924C12.9463 15.8588 12.9754 15.7755 12.9754 15.6945C12.9754 15.6357 12.96 15.5776 12.9306 15.5249Z" fill="black"/>
<path d="M12.958 21.6293C12.7986 21.4804 12.5351 21.4724 12.3649 21.6116L12.2679 21.6909C12.1226 21.8095 12.0878 22.0019 12.1838 22.1554L12.1867 22.1602C12.2516 22.264 12.3672 22.3346 12.4989 22.3509C12.5184 22.3533 12.5379 22.3545 12.5573 22.3545C12.6691 22.3545 12.7773 22.315 12.8574 22.2434L12.9514 22.1594C13.1145 22.0137 13.1175 21.7782 12.958 21.6293Z" fill="black"/>
<path d="M12.8342 21.6908L12.7372 21.6116C12.567 21.4725 12.3035 21.4804 12.1441 21.6293C11.9846 21.7783 11.9875 22.0138 12.1507 22.1595L12.2448 22.2435C12.325 22.3151 12.4331 22.3545 12.5449 22.3545C12.5648 22.3545 12.5849 22.3533 12.6049 22.3507C12.7371 22.3339 12.8527 22.2623 12.917 22.1578L12.92 22.153C13.014 21.9997 12.9786 21.8088 12.8342 21.6908Z" fill="black"/>
<path d="M12.8414 21.6967L12.8409 21.6962C12.7754 21.6415 12.6906 21.6054 12.5972 21.5962C12.4721 21.5841 12.3503 21.6219 12.2617 21.6956L12.2604 21.6967C12.1746 21.7666 12.1247 21.8649 12.1222 21.9686C12.1197 22.0724 12.1649 22.1725 12.2472 22.2456L12.2517 22.2496C12.3345 22.3232 12.4427 22.3599 12.5509 22.3599C12.6596 22.3599 12.7682 22.3228 12.851 22.2489L12.8554 22.2449C12.9374 22.1717 12.9823 22.0717 12.9796 21.9681C12.9771 21.8645 12.9271 21.7665 12.8414 21.6967Z" fill="black"/>
<path d="M12.6886 15.3275C12.5128 15.2772 12.32 15.3355 12.2129 15.4699C12.0932 15.6205 12.113 15.8257 12.2588 15.9566C12.3409 16.0303 12.4498 16.068 12.5596 16.068C12.6449 16.068 12.7306 16.0453 12.8045 15.9987C12.9175 15.9278 12.9847 15.8121 12.9847 15.6887V15.6878C12.9847 15.5228 12.8646 15.3776 12.6886 15.3275Z" fill="black"/>
<path d="M12.8958 15.4667L12.8921 15.4623C12.7832 15.3307 12.592 15.2765 12.418 15.3277C12.244 15.3789 12.1265 15.5241 12.1265 15.6877V15.6942C12.1265 15.8338 12.2142 15.961 12.3518 16.0271C12.4142 16.057 12.483 16.0717 12.5518 16.0717C12.6347 16.0717 12.7175 16.0503 12.7887 16.0082C12.8857 15.9508 12.9521 15.8603 12.9724 15.7579C12.9926 15.6556 12.9649 15.5503 12.8958 15.4667Z" fill="black"/>
<path d="M17.5996 14.2757C17.5557 14.1718 17.4629 14.0905 17.346 14.053L15.7187 13.5319C15.7055 13.5277 15.6918 13.524 15.6782 13.521C15.5621 13.495 15.439 13.5141 15.3395 13.5736L12.3244 15.3734C12.3236 15.3739 12.3227 15.3743 12.3219 15.3749L12.5586 15.6893L12.3166 15.3781C12.2281 15.4303 12.1648 15.5104 12.1391 15.6023C12.125 15.6528 12.1227 15.7055 12.1322 15.7567C12.1432 15.8153 12.1694 15.8709 12.2088 15.9188L14.4162 18.6046C14.4964 18.7022 14.6237 18.7593 14.7583 18.7593C14.7675 18.7593 14.7767 18.759 14.786 18.7585C14.9306 18.75 15.0604 18.6763 15.1302 18.5628L17.5745 14.5926C17.6345 14.4953 17.6437 14.3794 17.5996 14.2757ZM14.7069 17.677L13.1554 15.7893L15.6333 14.3101L16.591 14.6168L14.7069 17.677Z" fill="black"/>
<path d="M12.969 15.6289C12.949 15.5271 12.8835 15.4371 12.7874 15.3795L9.76226 13.5736C9.66597 13.5161 9.54727 13.4964 9.43416 13.5188C9.41681 13.5222 9.39975 13.5267 9.38303 13.532L7.75576 14.0531C7.63878 14.0906 7.54607 14.172 7.50209 14.2758C7.45812 14.3796 7.46724 14.4954 7.52715 14.5927L9.97151 18.5629C10.0413 18.6763 10.1711 18.7501 10.3157 18.7586C10.3249 18.7591 10.3342 18.7593 10.3434 18.7593C10.4779 18.7593 10.6051 18.7022 10.6855 18.6045L11.865 17.1695C11.8659 17.1684 11.8669 17.1672 11.8678 17.166L12.893 15.9186C12.9614 15.8353 12.9889 15.7307 12.969 15.6289ZM11.1809 16.7206C11.1798 16.7218 11.1789 16.723 11.1778 16.7242L10.3947 17.6771L8.51059 14.6169L9.46829 14.3102L11.9462 15.7894L11.1809 16.7206Z" fill="black"/>
<path d="M25.0812 20.748L24.5337 17.7946C24.3612 16.8639 23.6371 16.0863 22.644 15.7654L17.3474 14.0535C17.1841 14.0008 17.0015 14.0421 16.8861 14.1578C16.7707 14.2736 16.7458 14.4405 16.8232 14.5793L17.9291 16.5604L16.844 16.5753C16.6966 16.5774 16.561 16.6475 16.4857 16.7606C16.4104 16.8738 16.4062 17.0137 16.4745 17.1303L16.9196 17.8895L12.3648 21.6117C12.3602 21.6155 12.3556 21.6194 12.3511 21.6234L12.2571 21.7074C12.1239 21.8264 12.0944 22.0097 12.1849 22.1574L12.1882 22.1628C12.2627 22.2843 12.4055 22.3599 12.5606 22.3599H23.5511C24.0077 22.3599 24.4388 22.1815 24.734 21.8705C25.0293 21.5594 25.1558 21.1503 25.0812 20.748ZM24.0868 21.3801C23.953 21.5209 23.7578 21.6017 23.5512 21.6017H13.6346L17.7338 18.2519C17.876 18.1358 17.9128 17.9487 17.8233 17.7962L17.5464 17.324L18.6165 17.3093C18.7624 17.3073 18.8967 17.2385 18.9726 17.1272C19.0483 17.0158 19.0549 16.8776 18.9898 16.761L18.0565 15.0889L22.3555 16.4783C23.0602 16.7061 23.5741 17.2579 23.6965 17.9184L24.244 20.8719C24.244 20.8719 24.244 20.8719 24.244 20.8719C24.2777 21.0541 24.2205 21.2392 24.0868 21.3801Z" fill="black"/>
<path d="M12.845 21.6998L12.8401 21.6958C12.6721 21.56 12.4141 21.566 12.2543 21.7096L12.2499 21.7136C12.129 21.8222 12.0932 21.9851 12.159 22.1265C12.2248 22.2679 12.3795 22.36 12.5509 22.36H12.5602C12.7357 22.36 12.8931 22.2635 12.9561 22.1172C13.0193 21.9709 12.9752 21.805 12.845 21.6998Z" fill="black"/>
<path d="M12.8319 21.6889C12.7355 21.6114 12.6049 21.5775 12.4769 21.5969C12.3491 21.6163 12.2382 21.6868 12.1759 21.7883L12.1729 21.7931C12.0834 21.9388 12.1106 22.1196 12.24 22.2391L12.2415 22.2405C12.3247 22.3173 12.4355 22.356 12.5466 22.356C12.6488 22.356 12.7513 22.3232 12.8325 22.2569L12.837 22.2533C12.8755 22.2219 12.9073 22.1844 12.9306 22.1427C13.0161 21.9901 12.9738 21.8029 12.8319 21.6889Z" fill="black"/>
<path d="M12.8502 21.7119L12.8484 21.7103C12.8473 21.7093 12.8461 21.7082 12.845 21.7073L12.7509 21.6233C12.7465 21.6193 12.7419 21.6154 12.7373 21.6117L8.18254 17.8894L8.62765 17.1303C8.69605 17.0137 8.69178 16.8737 8.61652 16.7606C8.54122 16.6474 8.40561 16.5773 8.25828 16.5753L7.17306 16.5603L8.27892 14.5792C8.35639 14.4404 8.33138 14.2735 8.21602 14.1578C8.10066 14.042 7.91788 14.0006 7.75477 14.0534L2.45819 15.7653C1.4651 16.0861 0.740961 16.8638 0.568433 17.7946L0.0209445 20.748C-0.0536261 21.1504 0.0729626 21.5595 0.368206 21.8705C0.663498 22.1815 1.09469 22.3599 1.55114 22.3599H12.551C12.7229 22.3599 12.8778 22.2672 12.9433 22.1253C13.0088 21.9834 12.9721 21.8201 12.8502 21.7119ZM1.55119 21.6016C1.34449 21.6016 1.14926 21.5209 1.01561 21.38C0.881964 21.2392 0.8247 21.054 0.858431 20.8718L1.40592 17.9184C1.52834 17.2578 2.0422 16.706 2.74697 16.4783L7.04593 15.0889L6.11265 16.7608C6.04754 16.8774 6.05401 17.0157 6.12986 17.127C6.2056 17.2384 6.34009 17.3071 6.48594 17.3091L7.55601 17.3239L7.27911 17.7961C7.18973 17.9485 7.2265 18.1356 7.36858 18.2518L11.4678 21.6016H1.55119Z" fill="black"/>
<path d="M13.9956 17.0428C14.0262 16.9334 14.0007 16.8174 13.9259 16.7265L12.8931 15.4699C12.7845 15.3378 12.5931 15.2853 12.4189 15.3364C12.3248 15.3639 12.2473 15.4196 12.1957 15.4907L11.1818 16.7197C11.1673 16.7372 11.1544 16.756 11.1434 16.7756C11.074 16.8997 11.086 17.0478 11.1747 17.1618L11.6065 17.7157L11.1465 20.3057C11.1318 20.3889 11.1484 20.4741 11.1938 20.5479L12.1792 22.1483C12.2538 22.2695 12.3963 22.3447 12.5511 22.3447C12.7058 22.3447 12.8484 22.2695 12.9229 22.1483L13.9156 20.536C13.9501 20.48 13.9681 20.4172 13.9681 20.3533V20.3531C13.9681 20.3332 13.9663 20.3133 13.9629 20.2937L13.505 17.7157L13.9322 17.1679C13.9615 17.13 13.9831 17.0875 13.9956 17.0428ZM12.5511 21.1789L12.0076 20.2962L12.4716 17.6837C12.4888 17.5869 12.4633 17.4881 12.4007 17.4077L12.045 16.9514L12.5523 16.3366L13.0622 16.9569L12.7108 17.4077C12.6481 17.488 12.6227 17.5869 12.6399 17.6837L13.1018 20.2843L12.5511 21.1789Z" fill="black"/>
</svg>
