<svg width="22" height="22" viewBox="0 0 22 22" fill="none" xmlns="http://www.w3.org/2000/svg">
<path d="M19.9375 0H2.0625C0.923398 0 0 0.923398 0 2.0625V19.9375C0 21.0766 0.923398 22 2.0625 22H19.9375C21.0766 22 22 21.0766 22 19.9375V2.0625C22 0.923398 21.0766 0 19.9375 0ZM20.625 19.9375C20.625 20.3172 20.3172 20.625 19.9375 20.625H2.0625C1.68279 20.625 1.375 20.3172 1.375 19.9375V2.0625C1.375 1.68279 1.68279 1.375 2.0625 1.375H19.9375C20.3172 1.375 20.625 1.68279 20.625 2.0625V19.9375Z" fill="#DD2626"/>
<path d="M14.9238 11.8868C14.6556 11.6203 14.2226 11.6203 13.9544 11.8868L12.3732 13.4681L9.42378 10.5187C9.15561 10.2521 8.72258 10.2521 8.45441 10.5187L3.64191 15.3312C3.3761 15.6024 3.38036 16.0376 3.65149 16.3034C3.7776 16.4271 3.94651 16.4975 4.12316 16.5H17.8732C18.2528 16.5022 18.5624 16.1962 18.5647 15.8165C18.5657 15.6317 18.4924 15.4544 18.3613 15.3243L14.9238 11.8868Z" fill="#DD2626"/>
<path d="M13.0625 9.625C14.2016 9.625 15.125 8.70159 15.125 7.5625C15.125 6.42341 14.2016 5.5 13.0625 5.5C11.9234 5.5 11 6.42341 11 7.5625C11 8.70159 11.9234 9.625 13.0625 9.625Z" fill="#DD2626"/>
</svg>
