<svg width="23" height="23" viewBox="0 0 23 23" fill="none" xmlns="http://www.w3.org/2000/svg">
<path d="M3.0625 8.51807C1.37113 8.51807 0 9.85291 0 11.4995C0 13.1461 1.37113 14.481 3.0625 14.481C4.75387 14.481 6.125 13.1461 6.125 11.4995C6.125 9.85291 4.75387 8.51807 3.0625 8.51807ZM3.0625 13.2641C2.06151 13.2641 1.25 12.474 1.25 11.4995C1.25 10.525 2.06151 9.73499 3.0625 9.73499C4.06349 9.73499 4.875 10.525 4.875 11.4995C4.875 12.474 4.06355 13.2641 3.0625 13.2641Z" fill="#9996A3"/>
<path d="M22.375 10.8916H8.25C7.90481 10.8916 7.625 11.164 7.625 11.5001C7.625 11.8361 7.90481 12.1085 8.25 12.1085H22.375C22.7202 12.1085 23 11.8361 23 11.5001C23 11.164 22.7202 10.8916 22.375 10.8916Z" fill="#9996A3"/>
<path d="M3.0625 0C1.37113 0 0 1.33484 0 2.98145C0 4.62807 1.37113 5.96291 3.0625 5.96291C4.75387 5.96291 6.125 4.62807 6.125 2.98145C6.125 1.33484 4.75387 0 3.0625 0ZM3.0625 4.74598C2.06151 4.74598 1.25 3.95596 1.25 2.98145C1.25 2.00695 2.06151 1.21692 3.0625 1.21692C4.06349 1.21692 4.875 2.00695 4.875 2.98145C4.875 3.95596 4.06355 4.74598 3.0625 4.74598Z" fill="#9996A3"/>
<path d="M8.25 3.58997H22.375C22.7202 3.58997 23 3.31757 23 2.98151C23 2.64546 22.7202 2.37305 22.375 2.37305H8.25C7.90481 2.37305 7.625 2.64546 7.625 2.98151C7.625 3.31757 7.90481 3.58997 8.25 3.58997Z" fill="#9996A3"/>
<path d="M3.0625 17.0371C1.37113 17.0371 0 18.372 0 20.0186C0 21.6652 1.37113 23 3.0625 23C4.75387 23 6.125 21.6652 6.125 20.0186C6.125 18.372 4.75387 17.0371 3.0625 17.0371ZM4.875 20.0186C4.875 20.9931 4.06349 21.7831 3.0625 21.7831C2.06151 21.7831 1.25 20.9931 1.25 20.0186C1.25 19.0441 2.06151 18.254 3.0625 18.254C4.06349 18.254 4.875 19.0441 4.875 20.0186Z" fill="#9996A3"/>
<path d="M22.375 19.4102H8.25C7.90481 19.4102 7.625 19.6826 7.625 20.0186C7.625 20.3547 7.90481 20.6271 8.25 20.6271H22.375C22.7202 20.6271 23 20.3547 23 20.0186C23 19.6826 22.7202 19.4102 22.375 19.4102Z" fill="#9996A3"/>
</svg>
