<svg width="343" height="111" viewBox="0 0 343 111" fill="none" xmlns="http://www.w3.org/2000/svg">
<path d="M10.357 16.5417L13.9388 18.9115C14.5947 19.3458 15.3973 18.7038 15.2247 17.8918L14.2753 13.4353L17.4428 10.4329C18.0211 9.88526 17.7104 8.84667 16.9509 8.78058L12.7822 8.39347L11.151 4.18247C10.8576 3.41769 9.8564 3.41769 9.56295 4.18247L7.93174 8.38403L3.76308 8.77114C3.00358 8.83723 2.69287 9.87582 3.27113 10.4234L6.43862 13.4259L5.48924 17.8824C5.31662 18.6944 6.11928 19.3364 6.77522 18.9021L10.357 16.5417Z" fill="#DD2626"/>
<path d="M32.7979 16.5417L36.3797 18.9115C37.0356 19.3458 37.8383 18.7038 37.6657 17.8918L36.7163 13.4353L39.8838 10.4329C40.462 9.88526 40.1513 8.84667 39.3918 8.78058L35.2231 8.39347L33.5919 4.18247C33.2985 3.41769 32.2973 3.41769 32.0039 4.18247L30.3727 8.38403L26.204 8.77114C25.4445 8.83723 25.1338 9.87582 25.712 10.4234L28.8795 13.4259L27.9302 17.8824C27.7575 18.6944 28.5602 19.3364 29.2161 18.9021L32.7979 16.5417Z" fill="#DD2626"/>
<path d="M55.2369 16.5417L58.8186 18.9115C59.4746 19.3458 60.2772 18.7038 60.1046 17.8918L59.1552 13.4353L62.3227 10.4329C62.901 9.88526 62.5903 8.84667 61.8308 8.78058L57.6621 8.39347L56.0309 4.18247C55.7375 3.41769 54.7363 3.41769 54.4428 4.18247L52.8116 8.38403L48.643 8.77114C47.8835 8.83723 47.5728 9.87582 48.151 10.4234L51.3185 13.4259L50.3691 17.8824C50.1965 18.6944 50.9992 19.3364 51.6551 18.9021L55.2369 16.5417Z" fill="#DD2626"/>
<path d="M77.6753 16.5417L81.2571 18.9115C81.913 19.3458 82.7157 18.7038 82.5431 17.8918L81.5937 13.4353L84.7612 10.4329C85.3395 9.88526 85.0288 8.84667 84.2692 8.78058L80.1006 8.39347L78.4694 4.18247C78.1759 3.41769 77.1748 3.41769 76.8813 4.18247L75.2501 8.38403L71.0814 8.77114C70.3219 8.83723 70.0112 9.87582 70.5895 10.4234L73.757 13.4259L72.8076 17.8824C72.635 18.6944 73.4376 19.3364 74.0936 18.9021L77.6753 16.5417Z" fill="#DD2626"/>
<path d="M96.4937 15.6309L100.131 17.9328C100.797 18.3547 101.612 17.7311 101.437 16.9424L100.473 12.6136L103.69 9.69722C104.277 9.1653 103.961 8.15649 103.19 8.09229L98.9566 7.71628L97.3 3.62599C97.002 2.88313 95.9853 2.88313 95.6873 3.62599L94.0307 7.70711L89.7973 8.08312C89.026 8.14732 88.7105 9.15613 89.2978 9.68805L92.5144 12.6044L91.5503 16.9332C91.375 17.7219 92.1901 18.3455 92.8563 17.9237L96.4937 15.6309Z" fill="#DD2626"/>
<path d="M32.357 40.5417L35.9388 42.9115C36.5947 43.3458 37.3973 42.7038 37.2247 41.8918L36.2753 37.4353L39.4428 34.4329C40.0211 33.8853 39.7104 32.8467 38.9509 32.7806L34.7822 32.3935L33.151 28.1825C32.8576 27.4177 31.8564 27.4177 31.563 28.1825L29.9317 32.384L25.7631 32.7711C25.0036 32.8372 24.6929 33.8758 25.2711 34.4234L28.4386 37.4259L27.4892 41.8824C27.3166 42.6944 28.1193 43.3364 28.7752 42.9021L32.357 40.5417Z" fill="#DD2626"/>
<path d="M54.7959 40.5417L58.3777 42.9115C59.0337 43.3458 59.8363 42.7038 59.6637 41.8918L58.7143 37.4353L61.8818 34.4329C62.4601 33.8853 62.1494 32.8467 61.3898 32.7806L57.2212 32.3935L55.59 28.1825C55.2965 27.4177 54.2954 27.4177 54.0019 28.1825L52.3707 32.384L48.202 32.7711C47.4425 32.8372 47.1318 33.8758 47.7101 34.4234L50.8776 37.4259L49.9282 41.8824C49.7556 42.6944 50.5582 43.3364 51.2142 42.9021L54.7959 40.5417Z" fill="#DD2626"/>
<path d="M77.2344 40.5417L80.8162 42.9115C81.4721 43.3458 82.2748 42.7038 82.1022 41.8918L81.1528 37.4353L84.3203 34.4329C84.8985 33.8853 84.5878 32.8467 83.8283 32.7806L79.6597 32.3935L78.0285 28.1825C77.735 27.4177 76.7338 27.4177 76.4404 28.1825L74.8092 32.384L70.6405 32.7711C69.881 32.8372 69.5703 33.8758 70.1486 34.4234L73.3161 37.4259L72.3667 41.8824C72.1941 42.6944 72.9967 43.3364 73.6527 42.9021L77.2344 40.5417Z" fill="#DD2626"/>
<path d="M96.0527 39.6309L99.6901 41.9328C100.356 42.3547 101.171 41.7311 100.996 40.9424L100.032 36.6136L103.249 33.6972C103.836 33.1653 103.52 32.1565 102.749 32.0923L98.5156 31.7163L96.8591 27.626C96.5611 26.8831 95.5444 26.8831 95.2464 27.626L93.5898 31.7071L89.3564 32.0831C88.5851 32.1473 88.2696 33.1561 88.8568 33.6881L92.0735 36.6044L91.1094 40.9332C90.9341 41.7219 91.7492 42.3455 92.4153 41.9237L96.0527 39.6309Z" fill="#DD2626"/>
<path d="M55.357 64.5417L58.9388 66.9115C59.5947 67.3458 60.3973 66.7038 60.2247 65.8918L59.2753 61.4353L62.4428 58.4329C63.0211 57.8853 62.7104 56.8467 61.9509 56.7806L57.7822 56.3935L56.151 52.1825C55.8576 51.4177 54.8564 51.4177 54.563 52.1825L52.9317 56.384L48.7631 56.7711C48.0036 56.8372 47.6929 57.8758 48.2711 58.4234L51.4386 61.4259L50.4892 65.8824C50.3166 66.6944 51.1193 67.3364 51.7752 66.9021L55.357 64.5417Z" fill="#DD2626"/>
<path d="M77.7959 64.5417L81.3777 66.9115C82.0337 67.3458 82.8363 66.7038 82.6637 65.8918L81.7143 61.4353L84.8818 58.4329C85.4601 57.8853 85.1494 56.8467 84.3898 56.7806L80.2212 56.3935L78.59 52.1825C78.2965 51.4177 77.2954 51.4177 77.0019 52.1825L75.3707 56.384L71.202 56.7711C70.4425 56.8372 70.1318 57.8758 70.7101 58.4234L73.8776 61.4259L72.9282 65.8824C72.7556 66.6944 73.5582 67.3364 74.2142 66.9021L77.7959 64.5417Z" fill="#DD2626"/>
<path d="M96.6138 63.6309L100.251 65.9328C100.917 66.3547 101.732 65.7311 101.557 64.9424L100.593 60.6136L103.81 57.6972C104.397 57.1653 104.081 56.1565 103.31 56.0923L99.0767 55.7163L97.4201 51.626C97.1221 50.8831 96.1054 50.8831 95.8074 51.626L94.1509 55.7071L89.9175 56.0831C89.1462 56.1473 88.8306 57.1561 89.4179 57.6881L92.6346 60.6044L91.6704 64.9332C91.4951 65.7219 92.3103 66.3455 92.9764 65.9237L96.6138 63.6309Z" fill="#DD2626"/>
<path d="M77.357 88.5417L80.9388 90.9115C81.5947 91.3458 82.3973 90.7038 82.2247 89.8918L81.2753 85.4353L84.4428 82.4329C85.0211 81.8853 84.7104 80.8467 83.9509 80.7806L79.7822 80.3935L78.151 76.1825C77.8576 75.4177 76.8564 75.4177 76.563 76.1825L74.9317 80.384L70.7631 80.7711C70.0036 80.8372 69.6929 81.8758 70.2711 82.4234L73.4386 85.4259L72.4892 89.8824C72.3166 90.6944 73.1193 91.3364 73.7752 90.9021L77.357 88.5417Z" fill="#DD2626"/>
<path d="M96.1753 87.6309L99.8127 89.9328C100.479 90.3547 101.294 89.7311 101.119 88.9424L100.155 84.6136L103.371 81.6972C103.958 81.1653 103.643 80.1565 102.872 80.0923L98.6382 79.7163L96.9817 75.626C96.6837 74.8831 95.6669 74.8831 95.3689 75.626L93.7124 79.7071L89.479 80.0831C88.7077 80.1473 88.3922 81.1561 88.9794 81.6881L92.1961 84.6044L91.2319 88.9332C91.0567 89.7219 91.8718 90.3455 92.5379 89.9237L96.1753 87.6309Z" fill="#DD2626"/>
<path d="M96.5 108.562L100.137 110.864C100.804 111.286 101.619 110.662 101.443 109.874L100.479 105.545L103.696 102.628C104.283 102.096 103.968 101.088 103.196 101.023L98.9629 100.647L97.3064 96.5571C97.0084 95.8143 95.9916 95.8143 95.6936 96.5571L94.0371 100.638L89.8037 101.014C89.0324 101.078 88.7169 102.087 89.3041 102.619L92.5208 105.536L91.5567 109.864C91.3814 110.653 92.1965 111.277 92.8626 110.855L96.5 108.562Z" fill="#DD2626"/>
<path d="M341 13C342.105 13 343 12.1046 343 11C343 9.89543 342.105 9 341 9L118 9C116.895 9 116 9.89543 116 11C116 12.1046 116.895 13 118 13L341 13Z" fill="#EBEBEB"/>
<path d="M279 13C280.105 13 281 12.1046 281 11C281 9.89543 280.105 9 279 9L118 9C116.895 9 116 9.89543 116 11C116 12.1046 116.895 13 118 13L279 13Z" fill="#DD2626"/>
<path d="M341 37C342.105 37 343 36.1046 343 35C343 33.8954 342.105 33 341 33L118 33C116.895 33 116 33.8954 116 35C116 36.1046 116.895 37 118 37L341 37Z" fill="#EBEBEB"/>
<path d="M199 37C200.105 37 201 36.1046 201 35C201 33.8954 200.105 33 199 33L118 33C116.895 33 116 33.8954 116 35C116 36.1046 116.895 37 118 37L199 37Z" fill="#DD2626"/>
<path d="M341 61C342.105 61 343 60.1046 343 59C343 57.8954 342.105 57 341 57L118 57C116.895 57 116 57.8954 116 59C116 60.1046 116.895 61 118 61L341 61Z" fill="#EBEBEB"/>
<path d="M140 61C141.105 61 142 60.1046 142 59C142 57.8954 141.105 57 140 57L118 57C116.895 57 116 57.8954 116 59C116 60.1046 116.895 61 118 61L140 61Z" fill="#DD2626"/>
<path d="M341 85C342.105 85 343 84.1046 343 83C343 81.8954 342.105 81 341 81L118 81C116.895 81 116 81.8954 116 83C116 84.1046 116.895 85 118 85L341 85Z" fill="#EBEBEB"/>
<path d="M148 85C149.105 85 150 84.1046 150 83C150 81.8954 149.105 81 148 81H118C116.895 81 116 81.8954 116 83C116 84.1046 116.895 85 118 85H148Z" fill="#DD2626"/>
<path d="M341 106C342.105 106 343 105.105 343 104C343 102.895 342.105 102 341 102L118 102C116.895 102 116 102.895 116 104C116 105.105 116.895 106 118 106L341 106Z" fill="#EBEBEB"/>
<path d="M127 106C128.105 106 129 105.105 129 104C129 102.895 128.105 102 127 102H118C116.895 102 116 102.895 116 104C116 105.105 116.895 106 118 106H127Z" fill="#DD2626"/>
</svg>
