<svg width="28" height="28" viewBox="0 0 28 28" fill="none" xmlns="http://www.w3.org/2000/svg">
<path d="M27.8633 3.87007L24.1299 0.136733C24.0424 0.0492103 23.9238 2.64308e-05 23.8 0H2.33333C1.71472 0.000741 1.12166 0.246812 0.684236 0.684236C0.246812 1.12166 0.000741 1.71472 0 2.33333V25.6667C0.000741 26.2853 0.246812 26.8783 0.684236 27.3158C1.12166 27.7532 1.71472 27.9993 2.33333 28H25.6667C26.2853 27.9993 26.8783 27.7532 27.3158 27.3158C27.7532 26.8783 27.9993 26.2853 28 25.6667V4.2C28 4.07624 27.9508 3.95756 27.8633 3.87007ZM21.4667 0.933333V8.4C21.4667 8.52377 21.4175 8.64247 21.33 8.72998C21.2425 8.8175 21.1238 8.86667 21 8.86667H7C6.87623 8.86667 6.75753 8.8175 6.67002 8.72998C6.5825 8.64247 6.53333 8.52377 6.53333 8.4V0.933333H21.4667ZM3.73333 27.0667V15.4C3.73333 15.0287 3.88083 14.6726 4.14338 14.4101C4.40593 14.1475 4.76203 14 5.13333 14H22.8667C23.238 14 23.5941 14.1475 23.8566 14.4101C24.1192 14.6726 24.2667 15.0287 24.2667 15.4V27.0667H3.73333ZM27.0667 25.6667C27.0667 26.038 26.9192 26.3941 26.6566 26.6566C26.3941 26.9192 26.038 27.0667 25.6667 27.0667H25.2V15.4C25.1993 14.7814 24.9532 14.1883 24.5158 13.7509C24.0783 13.3135 23.4853 13.0674 22.8667 13.0667H5.13333C4.51472 13.0674 3.92166 13.3135 3.48424 13.7509C3.04681 14.1883 2.80074 14.7814 2.8 15.4V27.0667H2.33333C1.96203 27.0667 1.60593 26.9192 1.34338 26.6566C1.08083 26.3941 0.933333 26.038 0.933333 25.6667V2.33333C0.933333 1.96203 1.08083 1.60593 1.34338 1.34338C1.60593 1.08083 1.96203 0.933333 2.33333 0.933333H5.6V8.4C5.6 8.7713 5.7475 9.1274 6.01005 9.38995C6.2726 9.6525 6.6287 9.8 7 9.8H21C21.3713 9.8 21.7274 9.6525 21.9899 9.38995C22.2525 9.1274 22.4 8.7713 22.4 8.4V0.933333H23.6068L27.0667 4.3932V25.6667Z" fill="black"/>
<path d="M17.2667 7.93337H20.0667C20.1905 7.93337 20.3092 7.8842 20.3967 7.79668C20.4842 7.70917 20.5334 7.59047 20.5334 7.4667V2.33337C20.5334 2.2096 20.4842 2.0909 20.3967 2.00338C20.3092 1.91587 20.1905 1.8667 20.0667 1.8667H17.2667C17.1429 1.8667 17.0242 1.91587 16.9367 2.00338C16.8492 2.0909 16.8 2.2096 16.8 2.33337V7.4667C16.8 7.59047 16.8492 7.70917 16.9367 7.79668C17.0242 7.8842 17.1429 7.93337 17.2667 7.93337ZM17.7334 2.80003H19.6V7.00003H17.7334V2.80003Z" fill="black"/>
<path d="M21 20.0669H6.99999C6.87622 20.0669 6.75753 20.1161 6.67001 20.2036C6.58249 20.2911 6.53333 20.4098 6.53333 20.5336C6.53333 20.6573 6.58249 20.776 6.67001 20.8635C6.75753 20.9511 6.87622 21.0002 6.99999 21.0002H21C21.1238 21.0002 21.2425 20.9511 21.33 20.8635C21.4175 20.776 21.4667 20.6573 21.4667 20.5336C21.4667 20.4098 21.4175 20.2911 21.33 20.2036C21.2425 20.1161 21.1238 20.0669 21 20.0669Z" fill="black"/>
<path d="M21 17.2666H6.99999C6.87622 17.2666 6.75753 17.3158 6.67001 17.4033C6.58249 17.4908 6.53333 17.6095 6.53333 17.7333C6.53333 17.857 6.58249 17.9757 6.67001 18.0633C6.75753 18.1508 6.87622 18.1999 6.99999 18.1999H21C21.1238 18.1999 21.2425 18.1508 21.33 18.0633C21.4175 17.9757 21.4667 17.857 21.4667 17.7333C21.4667 17.6095 21.4175 17.4908 21.33 17.4033C21.2425 17.3158 21.1238 17.2666 21 17.2666Z" fill="black"/>
<path d="M21 22.8667H6.99999C6.87622 22.8667 6.75753 22.9159 6.67001 23.0034C6.58249 23.0909 6.53333 23.2096 6.53333 23.3334C6.53333 23.4571 6.58249 23.5758 6.67001 23.6633C6.75753 23.7509 6.87622 23.8 6.99999 23.8H21C21.1238 23.8 21.2425 23.7509 21.33 23.6633C21.4175 23.5758 21.4667 23.4571 21.4667 23.3334C21.4667 23.2096 21.4175 23.0909 21.33 23.0034C21.2425 22.9159 21.1238 22.8667 21 22.8667Z" fill="black"/>
</svg>
