<svg width="38" height="35" viewBox="0 0 38 35" fill="none" xmlns="http://www.w3.org/2000/svg">
<path d="M37.4001 13.4346L33.9242 12.6576C33.741 12.1997 33.526 11.7411 33.2818 11.286L35.1287 8.53582C35.3158 8.25748 35.2663 7.90111 35.0097 7.67184L29.86 3.07074C29.6033 2.84074 29.2029 2.79791 28.8928 2.96439L25.8135 4.61505C25.3048 4.39678 24.7914 4.20477 24.2789 4.04114L23.409 0.935944C23.3209 0.621009 23.0047 0.400024 22.6414 0.400024H15.3587C14.9953 0.400024 14.6791 0.621009 14.591 0.935944L13.7212 4.04107C13.2086 4.20477 12.6953 4.39678 12.1866 4.61498L9.10723 2.96432C8.79566 2.79857 8.39674 2.84067 8.14009 3.07067L2.99042 7.67177C2.73377 7.90104 2.68427 8.25742 2.87138 8.53575L4.71831 11.2859C4.47398 11.7411 4.25904 12.1996 4.07587 12.6576L0.59991 13.4346C0.247371 13.5133 0 13.7958 0 14.1204V20.6263C0 20.951 0.247371 21.2334 0.59991 21.3122L4.0758 22.0892C4.25904 22.547 4.47398 23.0057 4.71823 23.4608L2.8713 26.211C2.6842 26.4893 2.7337 26.8457 2.99035 27.0749L8.14002 31.6753C8.39518 31.9039 8.79485 31.9474 9.10716 31.7817L12.1857 30.1317C12.6952 30.35 13.2085 30.542 13.7211 30.7056L14.5909 33.8108C14.6791 34.1257 14.9952 34.3467 15.3586 34.3467H22.6413C23.0047 34.3467 23.3209 34.1257 23.409 33.8108L24.2788 30.7056C24.7914 30.5419 25.3047 30.3499 25.8142 30.1317L28.8928 31.7817C29.2043 31.9481 29.6033 31.9053 29.8599 31.6753L35.0096 27.0749C35.2662 26.8457 35.3157 26.4893 35.1286 26.211L33.2817 23.4608C33.526 23.0057 33.741 22.5471 33.9241 22.0892L37.4 21.3122C37.7526 21.2334 37.9999 20.951 37.9999 20.6263V14.1204C38 13.7958 37.7526 13.5133 37.4001 13.4346ZM36.4167 20.0745L33.1217 20.8107C32.8565 20.8694 32.6439 21.047 32.5604 21.279C32.333 21.9075 32.0354 22.5436 31.6759 23.17C31.5506 23.3869 31.5607 23.6466 31.7014 23.8565L33.4533 26.4651L29.1772 30.2851L26.2579 28.7201C26.0237 28.5958 25.7345 28.5861 25.4895 28.6973C24.7875 29.0185 24.0754 29.2843 23.3719 29.4874C23.1122 29.562 22.9135 29.752 22.8477 29.9889L22.0236 32.9324H15.9763L15.1522 29.9889C15.0865 29.752 14.8878 29.562 14.628 29.4874C13.9245 29.2843 13.2124 29.0185 12.5105 28.6973C12.2661 28.5847 11.9755 28.5944 11.742 28.7201L8.82275 30.2851L4.54664 26.465L6.2985 23.8564C6.43922 23.6465 6.44924 23.3868 6.32403 23.17C5.96452 22.5435 5.6669 21.9074 5.43957 21.2789C5.35607 21.0469 5.14343 20.8694 4.87825 20.8107L1.58331 20.0745V14.6722L4.87832 13.936C5.14351 13.8773 5.35614 13.6998 5.43964 13.4677C5.66697 12.8392 5.96459 12.2031 6.32411 11.5767C6.44939 11.3598 6.43929 11.1001 6.29857 10.8902L4.54664 8.28168L8.82275 4.46103L11.7428 6.02675C11.9779 6.15312 12.2685 6.1628 12.5113 6.04956C13.2125 5.72839 13.9246 5.46252 14.6281 5.25944C14.8878 5.18485 15.0865 4.99489 15.1523 4.75799L15.9764 1.81445H22.0237L22.8478 4.75799C22.9135 4.99489 23.1122 5.18485 23.372 5.25944C24.0755 5.46252 24.7876 5.72839 25.4888 6.04956C25.7308 6.16148 26.0223 6.1518 26.2573 6.02675L29.1773 4.46103L33.4534 8.28168L31.7016 10.8903C31.5609 11.1003 31.5508 11.3599 31.676 11.5768C32.0356 12.2032 32.3332 12.8393 32.5605 13.4678C32.644 13.6998 32.8566 13.8773 33.1218 13.9361L36.4168 14.6723V20.0745H36.4167Z" fill="black"/>
<path d="M19 8.88672C13.7614 8.88672 9.5 12.6936 9.5 17.3734C9.5 22.0532 13.7614 25.8601 19 25.8601C24.2386 25.8601 28.5 22.0532 28.5 17.3734C28.5 12.6936 24.2386 8.88672 19 8.88672ZM19 24.4456C14.635 24.4456 11.0833 21.2728 11.0833 17.3734C11.0833 13.474 14.635 10.3011 19 10.3011C23.365 10.3011 26.9167 13.474 26.9167 17.3734C26.9167 21.2727 23.365 24.4456 19 24.4456Z" fill="black"/>
</svg>
