<svg width="33" height="33" viewBox="0 0 33 33" fill="none" xmlns="http://www.w3.org/2000/svg">
<path d="M17.5355 0H15.4644C13.7894 0 12.4265 1.3628 12.4265 3.03787V3.73854C11.7144 3.96606 11.0225 4.25326 10.3577 4.59725L9.8612 4.1007C8.65857 2.89659 6.73213 2.93191 5.56443 4.10115L4.10064 5.56488C2.93088 6.73335 2.89723 8.65915 4.10102 9.86165L4.59718 10.3578C4.2532 11.0225 3.96606 11.7143 3.73847 12.4266H3.03787C1.36286 12.4266 0 13.7894 0 15.4644V17.5356C0 19.2106 1.36286 20.5734 3.03793 20.5734H3.73854C3.96612 21.2856 4.25326 21.9775 4.59725 22.6422L4.1007 23.1387C2.89762 24.3405 2.93081 26.2665 4.10109 27.4354L5.56501 28.8993C6.73542 30.0713 8.6614 30.1006 9.86171 28.8989L10.3578 28.4028C11.0225 28.7467 11.7144 29.0339 12.4266 29.2615V29.9621C12.4266 31.6372 13.7894 33 15.4645 33H17.5356C19.2106 33 20.5734 31.6372 20.5734 29.9621V29.2615C21.2856 29.0339 21.9775 28.7467 22.6422 28.4028L23.1387 28.8993C24.3414 30.1034 26.2678 30.0681 27.4355 28.8988L28.8993 27.4351C30.0691 26.2666 30.1027 24.3409 28.8989 23.1383L28.4028 22.6422C28.7467 21.9775 29.0339 21.2857 29.2615 20.5734H29.9621C31.6371 20.5734 33 19.2106 33 17.5356V15.4644C33 13.7894 31.6371 12.4266 29.9621 12.4266H29.2615C29.0339 11.7144 28.7467 11.0225 28.4028 10.3578L28.8993 9.86126C30.1024 8.65947 30.0692 6.73348 28.8989 5.5645L27.435 4.10064C26.2646 2.92862 24.3386 2.89936 23.1383 4.10102L22.6422 4.59712C21.9775 4.2532 21.2856 3.966 20.5734 3.73841V3.03774C20.5734 1.3628 19.2106 0 17.5355 0ZM10.681 6.62771C11.6044 6.0816 12.5983 5.66904 13.6349 5.40149C14.0619 5.29134 14.3602 4.9063 14.3602 4.46538V3.03787C14.3602 2.42898 14.8556 1.93359 15.4645 1.93359H17.5356C18.1445 1.93359 18.6399 2.42898 18.6399 3.03787V4.46538C18.6399 4.9063 18.9382 5.29134 19.3651 5.40149C20.4018 5.66904 21.3957 6.0816 22.3191 6.62771C22.699 6.8524 23.1828 6.7913 23.4949 6.47915L24.506 5.46795C24.942 5.03147 25.6421 5.04159 26.0674 5.46749L27.5322 6.93225C27.9564 7.35597 27.9706 8.05619 27.5326 8.49363L26.521 9.50522C26.2089 9.81731 26.1478 10.3011 26.3724 10.681C26.9185 11.6043 27.331 12.5982 27.5986 13.6349C27.7088 14.0619 28.0938 14.3601 28.5347 14.3601H29.9621C30.571 14.3601 31.0665 14.8555 31.0665 15.4644V17.5355C31.0665 18.1444 30.571 18.6398 29.9621 18.6398H28.5347C28.0938 18.6398 27.7088 18.9381 27.5986 19.3649C27.331 20.4017 26.9185 21.3955 26.3724 22.3189C26.1478 22.6988 26.2089 23.1826 26.521 23.4946L27.5322 24.5059C27.9693 24.9425 27.9579 25.6424 27.5326 26.0672L26.0679 27.5319C25.6433 27.9571 24.9431 27.9695 24.5065 27.5323L23.495 26.5207C23.1829 26.2086 22.699 26.1475 22.3192 26.3722C21.3957 26.9183 20.4019 27.3308 19.3652 27.5984C18.9383 27.7085 18.64 28.0936 18.64 28.5345V29.9621C18.64 30.571 18.1445 31.0664 17.5356 31.0664H15.4646C14.8557 31.0664 14.3602 30.571 14.3602 29.9621V28.5346C14.3602 28.0937 14.0619 27.7087 13.635 27.5985C12.5983 27.331 11.6045 26.9184 10.681 26.3723C10.301 26.1477 9.81731 26.2088 9.50523 26.5208L8.49408 27.5321C8.05812 27.9685 7.35797 27.9584 6.93277 27.5325L5.46795 26.0677C5.04372 25.644 5.02954 24.9439 5.46756 24.5064L6.47915 23.4948C6.79123 23.1827 6.85233 22.6989 6.62772 22.319C6.0816 21.3957 5.6691 20.4018 5.40156 19.3651C5.29134 18.9381 4.9063 18.6399 4.46544 18.6399H3.03793C2.42904 18.6398 1.93359 18.1445 1.93359 17.5356V15.4644C1.93359 14.8555 2.42904 14.3602 3.03793 14.3602H4.46538C4.9063 14.3602 5.29128 14.0619 5.40149 13.635C5.66904 12.5983 6.0816 11.6044 6.62765 10.681C6.85227 10.3012 6.79117 9.81737 6.47909 9.50529L5.46788 8.49408C5.03076 8.05748 5.04217 7.35752 5.46749 6.93271L6.93219 5.46801C7.35674 5.04288 8.05696 5.03044 8.49357 5.46762L9.5051 6.47922C9.73506 6.70912 10.2135 6.90422 10.681 6.62771Z" fill="black"/>
<path d="M16.5004 9.32002C12.5412 9.32002 9.32031 12.541 9.32031 16.5001C9.32031 20.4592 12.5412 23.6802 16.5004 23.6802C20.4596 23.6802 23.6805 20.4592 23.6805 16.5001C23.6805 12.541 20.4596 9.32002 16.5004 9.32002ZM16.5004 21.7466C13.6074 21.7466 11.2539 19.393 11.2539 16.5001C11.2539 13.6072 13.6075 11.2536 16.5004 11.2536C19.3933 11.2536 21.7469 13.6072 21.7469 16.5001C21.7469 19.393 19.3934 21.7466 16.5004 21.7466Z" fill="black"/>
</svg>
