<svg width="31" height="23" viewBox="0 0 31 23" fill="none" xmlns="http://www.w3.org/2000/svg">
<path d="M29.3687 22.061H28.8557V10.1102C30.014 9.44433 30.7835 8.28326 30.7835 6.96391C30.7835 6.89381 30.763 6.8249 30.7241 6.76405L27.1459 1.17017C26.8946 0.777387 26.4239 0.533325 25.9175 0.533325H4.86602C4.35959 0.533325 3.88888 0.777333 3.63757 1.17017L0.0594026 6.76405C0.0205023 6.8249 0 6.89387 0 6.96391C0 8.28326 0.769468 9.44433 1.92782 10.1102V22.061H1.41484C1.16581 22.061 0.963909 22.2414 0.963909 22.4638C0.963909 22.6863 1.16581 22.8667 1.41484 22.8667H29.3687C29.6178 22.8667 29.8196 22.6863 29.8196 22.4638C29.8196 22.2414 29.6177 22.061 29.3687 22.061ZM0.932945 7.36674H2.37857C2.6276 7.36674 2.8295 7.18638 2.8295 6.96391C2.8295 6.74144 2.6276 6.56108 2.37857 6.56108H1.22797L4.42062 1.56989C4.51177 1.42745 4.6824 1.33899 4.86602 1.33899H25.9175C26.1011 1.33899 26.2718 1.42745 26.3629 1.56989L29.5555 6.56108H28.4046C28.1556 6.56108 27.9537 6.74144 27.9537 6.96391C27.9537 7.18638 28.1556 7.36674 28.4046 7.36674H29.8505C29.63 8.79459 28.2553 9.89786 26.5973 9.89786C24.9394 9.89786 23.5653 8.79448 23.3448 7.36674H26.477C26.7261 7.36674 26.9279 7.18638 26.9279 6.96391C26.9279 6.74144 26.7261 6.56108 26.477 6.56108H4.30675C4.05771 6.56108 3.85582 6.74144 3.85582 6.96391C3.85582 7.18638 4.05771 7.36674 4.30675 7.36674H7.43867C7.21813 8.79448 5.844 9.89786 4.18614 9.89786C2.52816 9.89786 1.15342 8.79459 0.932945 7.36674ZM22.3795 7.36674C22.159 8.79448 20.7848 9.89786 19.127 9.89786C17.469 9.89786 16.095 8.79448 15.8744 7.36674H22.3795ZM14.9091 7.36674C14.6885 8.79448 13.3144 9.89786 11.6566 9.89786C9.99869 9.89786 8.62455 8.79448 8.40402 7.36674H14.9091ZM25.5439 22.0611H20.6623V20.7139H25.5439V22.0611ZM25.5439 19.9083H20.6623V12.5334H25.5439V19.9083ZM27.9538 22.0611H26.4459V12.1306C26.4459 11.9081 26.244 11.7277 25.9949 11.7277H20.2114C19.9623 11.7277 19.7605 11.9081 19.7605 12.1306V22.061H2.82968V10.5009C3.25542 10.6315 3.7114 10.7035 4.18614 10.7035C5.8152 10.7035 7.22986 9.868 7.92134 8.65139C8.61283 9.86794 10.0275 10.7035 11.6566 10.7035C13.2856 10.7035 14.7003 9.868 15.3918 8.65139C16.0832 9.86794 17.4979 10.7035 19.127 10.7035C20.756 10.7035 22.1707 9.868 22.8622 8.65139C23.5537 9.86794 24.9683 10.7035 26.5974 10.7035C27.0721 10.7035 27.5281 10.6316 27.9538 10.5009V22.0611Z" fill="black"/>
<path d="M17.8018 11.7277H4.78882C4.53979 11.7277 4.33789 11.908 4.33789 12.1305V20.311C4.33789 20.5335 4.53979 20.7139 4.78882 20.7139H17.8018C18.0509 20.7139 18.2528 20.5335 18.2528 20.311V12.1305C18.2528 11.908 18.0509 11.7277 17.8018 11.7277ZM17.3509 19.9082H5.23975V12.5333H17.3509V19.9082Z" fill="black"/>
</svg>
