<svg width="23" height="23" viewBox="0 0 23 23" fill="none" xmlns="http://www.w3.org/2000/svg">
<path d="M22.6369 8.83137L20.5331 8.30493C20.4222 7.9947 20.2921 7.68398 20.1442 7.37559L21.2621 5.51227C21.3754 5.32369 21.3454 5.08224 21.1901 4.9269L18.0731 1.8095C17.9178 1.65366 17.6754 1.62464 17.4878 1.73744L15.624 2.85582C15.3161 2.70794 15.0053 2.57784 14.6951 2.46697L14.1686 0.363104C14.1153 0.149725 13.9239 0 13.704 0H9.29604C9.07611 0 8.88474 0.149725 8.83137 0.363104L8.30493 2.46693C7.9947 2.57784 7.68398 2.70794 7.37608 2.85577L5.51227 1.7374C5.32369 1.62509 5.08224 1.65362 4.9269 1.80945L1.80999 4.92685C1.65465 5.08219 1.62469 5.32365 1.73794 5.51223L2.85582 7.37554C2.70794 7.68393 2.57784 7.99461 2.46697 8.30489L0.363104 8.83137C0.149725 8.88469 0 9.07611 0 9.29604V13.704C0 13.9239 0.149725 14.1153 0.363104 14.1687L2.46693 14.6951C2.57784 15.0053 2.70794 15.3161 2.85577 15.6245L1.73789 17.4878C1.62464 17.6764 1.65461 17.9178 1.80995 18.0731L4.92685 21.1901C5.08129 21.3449 5.3232 21.3744 5.51223 21.2621L7.37554 20.1442C7.68393 20.2921 7.99461 20.4222 8.30489 20.5331L8.83133 22.6369C8.88469 22.8503 9.07606 23 9.296 23H13.704C13.9239 23 14.1153 22.8503 14.1686 22.6369L14.6951 20.5331C15.0053 20.4222 15.316 20.2921 15.6244 20.1442L17.4877 21.2621C17.6763 21.3749 17.9178 21.3459 18.0731 21.1901L21.19 18.0731C21.3453 17.9178 21.3753 17.6764 21.2621 17.4878L20.1442 15.6245C20.2921 15.3161 20.4222 15.0054 20.533 14.6951L22.6369 14.1687C22.8502 14.1153 23 13.9239 23 13.704V9.29604C23 9.07611 22.8503 8.88469 22.6369 8.83137ZM22.0417 13.3301L20.0473 13.8289C19.8868 13.8687 19.7581 13.989 19.7076 14.1462C19.57 14.572 19.3899 15.003 19.1723 15.4274C19.0964 15.5744 19.1025 15.7503 19.1877 15.8926L20.248 17.66L17.6599 20.2481L15.893 19.1878C15.7512 19.1036 15.5762 19.097 15.4278 19.1723C15.003 19.3899 14.572 19.5701 14.1462 19.7077C13.9889 19.7582 13.8687 19.8869 13.8289 20.0474L13.3301 22.0418H9.66988L9.17107 20.0474C9.13131 19.8869 9.01101 19.7582 8.85379 19.7077C8.42797 19.5701 7.99699 19.3899 7.57212 19.1723C7.42424 19.0961 7.24832 19.1026 7.107 19.1878L5.34009 20.2481L2.75191 17.6599L3.81225 15.8925C3.89742 15.7502 3.90349 15.5743 3.8277 15.4274C3.6101 15.003 3.42996 14.572 3.29237 14.1462C3.24183 13.9889 3.11313 13.8687 2.95262 13.8289L0.958318 13.3301V9.66988L2.95267 9.17107C3.11318 9.13131 3.24188 9.01101 3.29241 8.85379C3.43001 8.42797 3.61015 7.99699 3.82775 7.57257C3.90358 7.42563 3.89747 7.24967 3.81229 7.10745L2.75191 5.34009L5.34009 2.75146L7.10749 3.81229C7.24976 3.89792 7.42568 3.90447 7.57262 3.82775C7.99704 3.61015 8.42802 3.43001 8.85383 3.29241C9.01106 3.24188 9.13131 3.11318 9.17111 2.95267L9.66993 0.958318H13.3301L13.8289 2.95267C13.8687 3.11318 13.989 3.24188 14.1462 3.29241C14.572 3.43001 15.003 3.61015 15.4274 3.82775C15.5739 3.90358 15.7503 3.89702 15.8926 3.81229L17.66 2.75146L20.2481 5.34009L19.1878 7.10749C19.1026 7.24976 19.0966 7.42568 19.1723 7.57262C19.3899 7.99704 19.5701 8.42802 19.7077 8.85383C19.7582 9.01106 19.8869 9.13131 20.0474 9.17111L22.0418 9.66993V13.3301H22.0417Z" fill="#9996A3"/>
<path d="M11.5 5.75C8.32928 5.75 5.75 8.32928 5.75 11.5C5.75 14.6707 8.32928 17.25 11.5 17.25C14.6707 17.25 17.25 14.6707 17.25 11.5C17.25 8.32928 14.6707 5.75 11.5 5.75ZM11.5 16.2917C8.85801 16.2917 6.70832 14.142 6.70832 11.5C6.70832 8.85801 8.85805 6.70832 11.5 6.70832C14.1419 6.70832 16.2917 8.85805 16.2917 11.5C16.2917 14.1419 14.142 16.2917 11.5 16.2917Z" fill="#9996A3"/>
</svg>
