<svg width="16" height="25" viewBox="0 0 16 25" fill="none" xmlns="http://www.w3.org/2000/svg">
<path d="M14.5833 0H1.25C0.56084 0 0 0.56084 0 1.25C0 1.93916 0.56084 2.5 1.25 2.5H14.5833C15.2725 2.5 15.8333 1.93916 15.8333 1.25C15.8333 0.56084 15.2725 0 14.5833 0ZM14.5833 1.66665H1.25C1.02041 1.66665 0.83335 1.47998 0.83335 1.25C0.83335 1.02002 1.02041 0.83335 1.25 0.83335H14.5833C14.8129 0.83335 15 1.02002 15 1.25C15 1.47998 14.8129 1.66665 14.5833 1.66665Z" fill="black"/>
<path d="M14.5833 22.5H1.25C0.56084 22.5 0 23.0608 0 23.75C0 24.4392 0.56084 25 1.25 25H14.5833C15.2725 25 15.8333 24.4392 15.8333 23.75C15.8333 23.0608 15.2725 22.5 14.5833 22.5ZM14.5833 24.1667H1.25C1.02041 24.1667 0.83335 23.98 0.83335 23.75C0.83335 23.52 1.02041 23.3334 1.25 23.3334H14.5833C14.8129 23.3334 15 23.52 15 23.75C15 23.98 14.8129 24.1667 14.5833 24.1667Z" fill="black"/>
<path d="M10.8857 10.9534C13.0015 8.83755 14.1665 6.02461 14.1665 3.03296V2.0834C14.1665 1.85298 13.9798 1.66675 13.7499 1.66675H2.08315C1.85317 1.66675 1.6665 1.85298 1.6665 2.0834V3.03296C1.6665 6.02505 2.83149 8.83755 4.94692 10.9534L5.36567 11.3721C5.66274 11.6692 5.83315 12.08 5.83315 12.5C5.83315 12.9201 5.66274 13.3309 5.36606 13.628L4.94731 14.0467C2.83149 16.1625 1.6665 18.975 1.6665 21.9671V22.9167C1.6665 23.1471 1.85317 23.3333 2.08315 23.3333H13.7498C13.9798 23.3333 14.1665 23.1471 14.1665 22.9167V21.9671C14.1665 18.9755 13.0015 16.1625 10.8856 14.0467L10.4669 13.628C10.1656 13.3267 9.9998 12.9263 9.9998 12.5C9.9998 12.0738 10.1656 11.6734 10.4669 11.3721L10.8857 10.9534ZM9.87773 10.783C9.41899 11.2413 9.1665 11.8509 9.1665 12.5C9.1665 13.1492 9.41899 13.7588 9.87773 14.2171L10.2965 14.6359C12.2548 16.5942 13.3332 19.1979 13.3332 21.9671V22.5H2.49985V21.9671C2.49985 19.1976 3.57817 16.5942 5.53608 14.6359L5.95483 14.2171C6.41401 13.7588 6.6665 13.1488 6.6665 12.5C6.6665 11.8513 6.41401 11.2413 5.95527 10.783L5.53652 10.3642C3.57817 8.40586 2.49985 5.8021 2.49985 3.03296V2.50005H13.3332V3.03296C13.3332 5.80215 12.2549 8.40586 10.2965 10.3642L9.87773 10.783Z" fill="black"/>
<path d="M11.4377 7.01959C11.3956 6.91377 11.2523 6.66666 10.8331 6.66666C8.66811 6.66666 7.70351 6.20289 7.32099 5.92623C6.84389 5.58082 6.23183 5.49039 5.68222 5.68497C5.15766 5.87037 4.77348 6.28287 4.6289 6.81622C4.5914 6.95499 4.58471 7.04498 4.58471 7.04498C4.57846 7.12706 4.59638 7.21583 4.63681 7.2879C5.02724 7.97999 5.47763 8.70997 6.12597 9.35831L6.54428 9.77706C7.16054 10.3925 7.4997 11.2116 7.4997 12.0833C7.4997 12.3137 7.68637 12.5 7.91635 12.5C8.14633 12.5 8.333 12.3137 8.333 12.0833C8.333 11.2121 8.67216 10.3929 9.28798 9.77706L9.70717 9.35787C9.8101 9.25538 9.94423 9.12872 10.0917 8.99039C11.1689 7.9775 11.6219 7.48458 11.4377 7.01959ZM9.52021 8.38335C9.36606 8.52876 9.22519 8.66128 9.11772 8.76875L8.69853 9.18794C8.3748 9.51128 8.1123 9.87959 7.91601 10.2788C7.71977 9.87959 7.45727 9.51128 7.13349 9.18794L6.71513 8.76919C6.20346 8.25713 5.8289 7.69336 5.4393 7.01377C5.54223 6.66587 5.80888 6.52418 5.96015 6.47042C6.25097 6.36749 6.57724 6.41626 6.83222 6.60127C7.36303 6.98545 8.40971 7.43834 10.4147 7.49419C10.1573 7.78418 9.75312 8.1646 9.52021 8.38335Z" fill="black"/>
<path d="M12.4713 21.2175C12.3667 19.8667 11.8251 19.3058 11.1984 18.6558C11.1138 18.5679 11.0255 18.4767 10.9351 18.38C10.4117 17.8208 9.67258 17.5 8.90632 17.5H6.92673C6.16091 17.5 5.42131 17.8208 4.89797 18.38C4.80754 18.4767 4.71965 18.5675 4.63503 18.6554C4.00793 19.3054 3.46628 19.8667 3.36213 21.2179C3.35295 21.3337 3.39294 21.4479 3.4717 21.5333C3.55085 21.6184 3.6613 21.6667 3.77751 21.6667H12.0558C12.1717 21.6667 12.2825 21.6184 12.3616 21.533C12.4405 21.4475 12.4801 21.3329 12.4713 21.2175ZM4.25212 20.8333C4.39338 20.1059 4.73005 19.7575 5.23503 19.2342C5.32253 19.1434 5.41335 19.0488 5.50671 18.9492C5.87297 18.5575 6.39045 18.3334 6.92673 18.3334H8.90632C9.44299 18.3334 9.96047 18.5579 10.3267 18.9488C10.4205 19.0496 10.5113 19.1434 10.5992 19.2346C11.1038 19.758 11.4401 20.1063 11.5818 20.8333H4.25212Z" fill="black"/>
<path d="M7.90396 13.3334C7.67397 13.3334 7.4873 13.5196 7.4873 13.75V14.1667C7.4873 14.3971 7.67397 14.5833 7.90396 14.5833C8.13394 14.5833 8.32061 14.3971 8.32061 14.1667V13.75C8.32061 13.5196 8.13394 13.3334 7.90396 13.3334Z" fill="black"/>
<path d="M7.90396 15.4166C7.67397 15.4166 7.4873 15.6029 7.4873 15.8333V16.2499C7.4873 16.4803 7.67397 16.6666 7.90396 16.6666C8.13394 16.6666 8.32061 16.4803 8.32061 16.2499V15.8333C8.32061 15.6029 8.13394 15.4166 7.90396 15.4166Z" fill="black"/>
</svg>
