<svg width="11" height="11" viewBox="0 0 11 11" fill="none" xmlns="http://www.w3.org/2000/svg">
<path d="M5.5 0C2.46018 0 0 2.4599 0 5.5C0 8.53982 2.4599 11 5.5 11C8.53982 11 11 8.5401 11 5.5C11 2.46018 8.5401 0 5.5 0ZM5.5 10.2667C2.87167 10.2667 0.733326 8.12836 0.733326 5.5C0.733326 2.87164 2.87167 0.733326 5.5 0.733326C8.12833 0.733326 10.2667 2.87167 10.2667 5.5C10.2667 8.12833 8.12833 10.2667 5.5 10.2667Z" fill="#DD2626"/>
<path d="M5.49998 4.8999C5.29748 4.8999 5.1333 5.06406 5.1333 5.26658V8.35966C5.1333 8.56215 5.29746 8.72633 5.49998 8.72633C5.70249 8.72633 5.86665 8.56217 5.86665 8.35966V5.26655C5.86663 5.06404 5.70247 4.8999 5.49998 4.8999Z" fill="#DD2626"/>
<path d="M5.49993 2.66675C5.09557 2.66675 4.7666 2.99572 4.7666 3.40007C4.7666 3.80443 5.09557 4.1334 5.49993 4.1334C5.90428 4.1334 6.23325 3.80443 6.23325 3.40007C6.23325 2.99572 5.90428 2.66675 5.49993 2.66675Z" fill="#DD2626"/>
</svg>
