<svg width="28" height="23" viewBox="0 0 28 23" fill="none" xmlns="http://www.w3.org/2000/svg">
<path d="M27.0217 3.87999C26.4638 3.29545 25.6932 2.95004 24.8164 2.95004H20.4058V2.8969C20.4058 2.23265 20.1401 1.59497 19.6884 1.16984C19.2367 0.718154 18.6256 0.452454 17.9613 0.452454H9.99034C9.29951 0.452454 8.6884 0.718154 8.23671 1.16984C7.78502 1.62154 7.51932 2.23265 7.51932 2.8969V2.95004H3.13527C2.25845 2.95004 1.48792 3.29545 0.929951 3.87999C0.371981 4.43796 0 5.23506 0 6.0853V19.3172C0 20.194 0.345411 20.9645 0.929951 21.5225C1.48792 22.0805 2.28502 22.4525 3.13527 22.4525H24.8164C25.6932 22.4525 26.4638 22.107 27.0217 21.5225C27.5797 20.9645 27.9517 20.1674 27.9517 19.3172V6.0853C27.9517 5.20849 27.6063 4.43796 27.0217 3.87999ZM26.57 19.3172H26.5435C26.5435 19.7954 26.3575 20.2206 26.0386 20.5394C25.7198 20.8582 25.2947 21.0442 24.8164 21.0442H3.13527C2.657 21.0442 2.23188 20.8582 1.91304 20.5394C1.5942 20.2206 1.40821 19.7954 1.40821 19.3172V6.0853C1.40821 5.60704 1.5942 5.18192 1.91304 4.86308C2.23188 4.54424 2.657 4.35825 3.13527 4.35825H8.26328C8.66183 4.35825 8.98067 4.03941 8.98067 3.64086V2.87033C8.98067 2.57806 9.08696 2.31236 9.27295 2.12637C9.45894 1.94038 9.72464 1.8341 10.0169 1.8341H17.9613C18.2536 1.8341 18.5193 1.94038 18.7053 2.12637C18.8913 2.31236 18.9976 2.57806 18.9976 2.87033V3.64086C18.9976 4.03941 19.3164 4.35825 19.715 4.35825H24.843C25.3213 4.35825 25.7464 4.54424 26.0652 4.86308C26.3841 5.18192 26.57 5.60704 26.57 6.0853V19.3172Z" fill="#DD2626"/>
<path d="M13.9757 6.16504C12.1689 6.16504 10.5216 6.909 9.3525 8.07808C8.15684 9.27373 7.43945 10.8945 7.43945 12.7013C7.43945 14.508 8.18341 16.1554 9.3525 17.3244C10.5481 18.5201 12.1689 19.2375 13.9757 19.2375C15.7824 19.2375 17.4298 18.4935 18.5989 17.3244C19.7945 16.1288 20.5119 14.508 20.5119 12.7013C20.5119 10.8945 19.768 9.24716 18.5989 8.07808C17.4298 6.909 15.7824 6.16504 13.9757 6.16504ZM17.5892 16.3414C16.6593 17.2447 15.3839 17.8293 13.9757 17.8293C12.5675 17.8293 11.2921 17.2447 10.3622 16.3414C9.43221 15.4114 8.87424 14.136 8.87424 12.7278C8.87424 11.3196 9.45878 10.0443 10.3622 9.11431C11.2921 8.18436 12.5675 7.62639 13.9757 7.62639C15.3839 7.62639 16.6593 8.21093 17.5892 9.11431C18.5192 10.0443 19.0771 11.3196 19.0771 12.7278C19.1037 14.136 18.5192 15.4114 17.5892 16.3414Z" fill="#DD2626"/>
<path d="M23.4347 8.74229C24.1538 8.74229 24.7367 8.1594 24.7367 7.44036C24.7367 6.72132 24.1538 6.13843 23.4347 6.13843C22.7157 6.13843 22.1328 6.72132 22.1328 7.44036C22.1328 8.1594 22.7157 8.74229 23.4347 8.74229Z" fill="#DD2626"/>
</svg>
